<?xml version="1.0" encoding="UTF-8" standalone="no"?>
<!-- Created with Inkscape (http://www.inkscape.org/) -->

<svg
   xmlns:osb="http://www.openswatchbook.org/uri/2009/osb"
   xmlns:dc="http://purl.org/dc/elements/1.1/"
   xmlns:cc="http://creativecommons.org/ns#"
   xmlns:rdf="http://www.w3.org/1999/02/22-rdf-syntax-ns#"
   xmlns:svg="http://www.w3.org/2000/svg"
   xmlns="http://www.w3.org/2000/svg"
   xmlns:xlink="http://www.w3.org/1999/xlink"
   xmlns:sodipodi="http://sodipodi.sourceforge.net/DTD/sodipodi-0.dtd"
   xmlns:inkscape="http://www.inkscape.org/namespaces/inkscape"
   width="100.08736mm"
   height="14.469281mm"
   viewBox="0 0 100.08735 14.469282"
   version="1.1"
   id="svg8"
   inkscape:version="0.92.4 (unknown)"
   sodipodi:docname="l19579_logo_red_with_barcode_whiteish.svg">
  <defs
     id="defs2">
    <linearGradient
       id="linearGradient2318"
       osb:paint="solid">
      <stop
         style="stop-color:#1a1a1a;stop-opacity:1;"
         offset="0"
         id="stop2316" />
    </linearGradient>
    <linearGradient
       inkscape:collect="always"
       id="linearGradient851-4">
      <stop
         style="stop-color:#000000;stop-opacity:1;"
         offset="0"
         id="stop847" />
      <stop
         style="stop-color:#000000;stop-opacity:0;"
         offset="1"
         id="stop849" />
    </linearGradient>
    <linearGradient
       inkscape:collect="always"
       xlink:href="#linearGradient851-4"
       id="linearGradient853"
       x1="46.569355"
       y1="128.87784"
       x2="146.13095"
       y2="128.87784"
       gradientUnits="userSpaceOnUse" />
    <linearGradient
       inkscape:collect="always"
       xlink:href="#linearGradient851-4"
       id="linearGradient2681"
       x1="49.744373"
       y1="108.50493"
       x2="149.30597"
       y2="108.50493"
       gradientUnits="userSpaceOnUse" />
  </defs>
  <sodipodi:namedview
     id="base"
     pagecolor="#ffffff"
     bordercolor="#666666"
     borderopacity="1.0"
     inkscape:pageopacity="0.0"
     inkscape:pageshadow="2"
     inkscape:zoom="2.8284271"
     inkscape:cx="242.76024"
     inkscape:cy="78.737969"
     inkscape:document-units="mm"
     inkscape:current-layer="layer1"
     showgrid="false"
     inkscape:window-width="1920"
     inkscape:window-height="1080"
     inkscape:window-x="1920"
     inkscape:window-y="0"
     inkscape:window-maximized="0" />
  <metadata
     id="metadata5">
    <rdf:RDF>
      <cc:Work
         rdf:about="">
        <dc:format>image/svg+xml</dc:format>
        <dc:type
           rdf:resource="http://purl.org/dc/dcmitype/StillImage" />
        <dc:title></dc:title>
      </cc:Work>
    </rdf:RDF>
  </metadata>
  <g
     inkscape:label="Layer 1"
     inkscape:groupmode="layer"
     id="layer1"
     transform="translate(-69.071118,-84.399448)">
    <flowRoot
       xml:space="preserve"
       id="flowRoot10"
       style="font-style:normal;font-variant:normal;font-weight:normal;font-stretch:normal;font-size:53.33333206px;line-height:1.25;font-family:'High Swift';-inkscape-font-specification:'High Swift';opacity:1;fill:#ff0000;fill-opacity:0;stroke:none"
       transform="scale(0.26458333)"><flowRegion
         id="flowRegion12"
         style="font-style:normal;font-variant:normal;font-weight:normal;font-stretch:normal;font-family:'High Swift';-inkscape-font-specification:'High Swift'"><rect
           id="rect14"
           width="437.14285"
           height="262.85715"
           x="134.28572"
           y="216.8054"
           style="font-style:normal;font-variant:normal;font-weight:normal;font-stretch:normal;font-family:'High Swift';-inkscape-font-specification:'High Swift'" /></flowRegion><flowPara
         id="flowPara16" /></flowRoot>    <flowRoot
       xml:space="preserve"
       id="flowRoot22"
       style="font-style:normal;font-variant:normal;font-weight:normal;font-stretch:normal;font-size:53.33333206px;line-height:1.25;font-family:'High Swift';-inkscape-font-specification:'High Swift';opacity:1;fill:#000000;fill-opacity:0;stroke:none"
       transform="scale(0.26458333)"><flowRegion
         id="flowRegion24"
         style="fill:#000000;fill-opacity:0"><rect
           id="rect26"
           width="627"
           height="393"
           x="82"
           y="216.51968"
           style="fill:#000000;fill-opacity:0" /></flowRegion><flowPara
         id="flowPara28" /></flowRoot>    <flowRoot
       xml:space="preserve"
       id="flowRoot30"
       style="font-style:normal;font-variant:normal;font-weight:normal;font-stretch:normal;font-size:53.33333206px;line-height:1.25;font-family:'High Swift';-inkscape-font-specification:'High Swift';opacity:1;fill:#000000;fill-opacity:0;stroke:none"
       transform="scale(0.26458333)"><flowRegion
         id="flowRegion32"><rect
           id="rect34"
           width="477"
           height="219"
           x="124"
           y="308.51968" /></flowRegion><flowPara
         id="flowPara36" /></flowRoot>    <path
       style="font-style:normal;font-variant:normal;font-weight:normal;font-stretch:normal;font-size:14.11111069px;line-height:1.25;font-family:'High Swift';-inkscape-font-specification:'High Swift';opacity:1;fill:#ff0000;fill-opacity:1;stroke:#000000;stroke-width:2.90799999;stroke-miterlimit:4;stroke-dasharray:none;stroke-opacity:1"
       d="M 9.5078125 1.453125 L 12.867188 4.546875 L 1.453125 30.09375 L 8.28125 36.601562 L 49.240234 36.601562 L 53.828125 26.253906 L 31 26.253906 L 42.041016 1.453125 L 9.5078125 1.453125 z M 70.96875 1.5605469 L 67.982422 8.1738281 L 82.009766 8.1738281 L 69.369141 36.601562 L 97.15625 36.601562 L 112.7832 1.5605469 L 70.96875 1.5605469 z M 128.80664 1.5605469 L 116.00586 7.9609375 L 108.69922 24.386719 L 141.55273 24.386719 L 140.27148 27.267578 L 107.41992 27.267578 L 103.25977 36.546875 L 153.87305 36.546875 L 166.88477 30.041016 L 176.64648 8.0664062 L 169.87305 1.5605469 L 128.80664 1.5605469 z M 185.65625 1.5605469 L 175.84375 23.533203 L 208.69727 23.587891 L 207.25586 26.734375 L 174.40234 26.734375 L 169.97656 36.759766 L 220.80273 36.759766 L 233.60352 30.09375 C 236.51907 23.622639 238.83044 18.432595 240.53711 14.521484 L 207.73633 14.521484 L 209.12305 11.480469 L 241.92383 11.480469 L 246.34961 1.5605469 L 185.65625 1.5605469 z M 252.42773 1.5605469 L 248.26758 10.894531 L 281.12109 10.894531 L 279.4668 14.521484 L 243.30664 36.546875 L 271.52148 36.546875 L 306.61328 15.533203 L 312.85352 1.5605469 L 252.42773 1.5605469 z M 328.91016 1.5605469 L 316.10938 7.9609375 L 308.80273 24.386719 L 341.65625 24.386719 L 340.37695 27.267578 L 307.52344 27.267578 L 303.36328 36.546875 L 353.97656 36.546875 L 366.99023 30.041016 L 376.75 8.0664062 L 369.97656 1.5605469 L 328.91016 1.5605469 z M 143.68555 8.4414062 L 148.64648 8.4414062 L 144.5918 17.560547 L 139.63281 17.560547 L 143.68555 8.4414062 z M 343.78906 8.4414062 L 348.75 8.4414062 L 344.69727 17.560547 L 339.73633 17.560547 L 343.78906 8.4414062 z "
       transform="matrix(0.26458333,0,0,0.26458333,69.071118,84.399448)"
       id="text40" />
    <path
       style="font-style:normal;font-variant:normal;font-weight:normal;font-stretch:normal;font-size:5.57663822px;line-height:1.25;font-family:'High Swift';-inkscape-font-specification:'High Swift';opacity:1;fill:#f9f9f9;fill-opacity:1;stroke:none;stroke-width:1.14922678;stroke-miterlimit:4;stroke-dasharray:none;stroke-opacity:1"
       d="M 0.9609375 42.099609 L 0.9609375 54.113281 L 2.9238281 54.113281 L 2.9238281 42.099609 L 0.9609375 42.099609 z M 3.5800781 42.099609 L 3.5800781 54.113281 L 4.234375 54.113281 L 4.234375 42.099609 L 3.5800781 42.099609 z M 4.8886719 42.099609 L 4.8886719 54.113281 L 5.5429688 54.113281 L 5.5429688 42.099609 L 4.8886719 42.099609 z M 6.1972656 42.099609 L 6.1972656 54.113281 L 8.1621094 54.113281 L 8.1621094 42.099609 L 6.1972656 42.099609 z M 10.125 42.099609 L 10.125 54.113281 L 10.779297 54.113281 L 10.779297 42.099609 L 10.125 42.099609 z M 11.445312 42.099609 L 11.445312 54.113281 L 13.408203 54.113281 L 13.408203 42.099609 L 11.445312 42.099609 z M 14.0625 42.099609 L 14.0625 54.113281 L 14.716797 54.113281 L 14.716797 42.099609 L 14.0625 42.099609 z M 15.373047 42.099609 L 15.373047 54.113281 L 16.027344 54.113281 L 16.027344 42.099609 L 15.373047 42.099609 z M 17.990234 42.099609 L 17.990234 54.113281 L 18.644531 54.113281 L 18.644531 42.099609 L 17.990234 42.099609 z M 19.298828 42.099609 L 19.298828 54.113281 L 21.263672 54.113281 L 21.263672 42.099609 L 19.298828 42.099609 z M 21.927734 42.099609 L 21.927734 54.113281 L 22.582031 54.113281 L 22.582031 42.099609 L 21.927734 42.099609 z M 23.238281 42.099609 L 23.238281 54.113281 L 23.892578 54.113281 L 23.892578 42.099609 L 23.238281 42.099609 z M 24.546875 42.099609 L 24.546875 54.113281 L 25.201172 54.113281 L 25.201172 42.099609 L 24.546875 42.099609 z M 27.166016 42.099609 L 27.166016 54.113281 L 29.128906 54.113281 L 29.128906 42.099609 L 27.166016 42.099609 z M 29.783203 42.099609 L 29.783203 54.113281 L 31.748047 54.113281 L 31.748047 42.099609 L 29.783203 42.099609 z M 32.412109 42.099609 L 32.412109 54.113281 L 34.375 54.113281 L 34.375 42.099609 L 32.412109 42.099609 z M 35.03125 42.099609 L 35.03125 54.113281 L 35.685547 54.113281 L 35.685547 42.099609 L 35.03125 42.099609 z M 36.339844 42.099609 L 36.339844 54.113281 L 38.302734 54.113281 L 38.302734 42.099609 L 36.339844 42.099609 z M 40.267578 42.099609 L 40.267578 54.113281 L 40.921875 54.113281 L 40.921875 42.099609 L 40.267578 42.099609 z M 41.576172 42.099609 L 41.576172 54.113281 L 42.230469 54.113281 L 42.230469 42.099609 L 41.576172 42.099609 z M 42.896484 42.099609 L 42.896484 54.113281 L 43.550781 54.113281 L 43.550781 42.099609 L 42.896484 42.099609 z M 45.513672 42.099609 L 45.513672 54.113281 L 47.478516 54.113281 L 47.478516 42.099609 L 45.513672 42.099609 z M 48.132812 42.099609 L 48.132812 54.113281 L 48.787109 54.113281 L 48.787109 42.099609 L 48.132812 42.099609 z M 49.441406 42.099609 L 49.441406 54.113281 L 51.40625 54.113281 L 51.40625 42.099609 L 49.441406 42.099609 z M 52.060547 42.099609 L 52.060547 54.113281 L 52.714844 54.113281 L 52.714844 42.099609 L 52.060547 42.099609 z M 53.378906 42.099609 L 53.378906 54.113281 L 55.34375 54.113281 L 55.34375 42.099609 L 53.378906 42.099609 z M 55.998047 42.099609 L 55.998047 54.113281 L 56.652344 54.113281 L 56.652344 42.099609 L 55.998047 42.099609 z M 57.306641 42.099609 L 57.306641 54.113281 L 57.960938 54.113281 L 57.960938 42.099609 L 57.306641 42.099609 z M 59.925781 42.099609 L 59.925781 54.113281 L 60.580078 54.113281 L 60.580078 42.099609 L 59.925781 42.099609 z M 61.234375 42.099609 L 61.234375 54.113281 L 63.197266 54.113281 L 63.197266 42.099609 L 61.234375 42.099609 z M 63.863281 42.099609 L 63.863281 54.113281 L 64.517578 54.113281 L 64.517578 42.099609 L 63.863281 42.099609 z M 65.171875 42.099609 L 65.171875 54.113281 L 65.826172 54.113281 L 65.826172 42.099609 L 65.171875 42.099609 z M 66.480469 42.099609 L 66.480469 54.113281 L 67.136719 54.113281 L 67.136719 42.099609 L 66.480469 42.099609 z M 69.099609 42.099609 L 69.099609 54.113281 L 71.064453 54.113281 L 71.064453 42.099609 L 69.099609 42.099609 z M 71.71875 42.099609 L 71.71875 54.113281 L 73.681641 54.113281 L 73.681641 42.099609 L 71.71875 42.099609 z M 74.347656 42.099609 L 74.347656 54.113281 L 76.310547 54.113281 L 76.310547 42.099609 L 74.347656 42.099609 z M 76.964844 42.099609 L 76.964844 54.113281 L 77.619141 54.113281 L 77.619141 42.099609 L 76.964844 42.099609 z M 78.273438 42.099609 L 78.273438 54.113281 L 78.929688 54.113281 L 78.929688 42.099609 L 78.273438 42.099609 z M 80.892578 42.099609 L 80.892578 54.113281 L 81.546875 54.113281 L 81.546875 42.099609 L 80.892578 42.099609 z M 82.201172 42.099609 L 82.201172 54.113281 L 84.166016 54.113281 L 84.166016 42.099609 L 82.201172 42.099609 z M 84.830078 42.099609 L 84.830078 54.113281 L 85.484375 54.113281 L 85.484375 42.099609 L 84.830078 42.099609 z M 86.138672 42.099609 L 86.138672 54.113281 L 88.103516 54.113281 L 88.103516 42.099609 L 86.138672 42.099609 z M 88.757812 42.099609 L 88.757812 54.113281 L 89.412109 54.113281 L 89.412109 42.099609 L 88.757812 42.099609 z M 91.376953 42.099609 L 91.376953 54.113281 L 93.339844 54.113281 L 93.339844 42.099609 L 91.376953 42.099609 z M 93.994141 42.099609 L 93.994141 54.113281 L 94.648438 54.113281 L 94.648438 42.099609 L 93.994141 42.099609 z M 95.314453 42.099609 L 95.314453 54.113281 L 95.96875 54.113281 L 95.96875 42.099609 L 95.314453 42.099609 z M 96.623047 42.099609 L 96.623047 54.113281 L 97.277344 54.113281 L 97.277344 42.099609 L 96.623047 42.099609 z M 97.931641 42.099609 L 97.931641 54.113281 L 99.896484 54.113281 L 99.896484 42.099609 L 97.931641 42.099609 z M 100.55078 42.099609 L 100.55078 54.113281 L 101.20508 54.113281 L 101.20508 42.099609 L 100.55078 42.099609 z M 103.16992 42.099609 L 103.16992 54.113281 L 105.13281 54.113281 L 105.13281 42.099609 L 103.16992 42.099609 z M 105.79688 42.099609 L 105.79688 54.113281 L 106.45312 54.113281 L 106.45312 42.099609 L 105.79688 42.099609 z M 107.10742 42.099609 L 107.10742 54.113281 L 109.07031 54.113281 L 109.07031 42.099609 L 107.10742 42.099609 z M 109.72461 42.099609 L 109.72461 54.113281 L 110.37891 54.113281 L 110.37891 42.099609 L 109.72461 42.099609 z M 111.03516 42.099609 L 111.03516 54.113281 L 112.99805 54.113281 L 112.99805 42.099609 L 111.03516 42.099609 z M 114.96289 42.099609 L 114.96289 54.113281 L 115.61719 54.113281 L 115.61719 42.099609 L 114.96289 42.099609 z M 116.28125 42.099609 L 116.28125 54.113281 L 116.93555 54.113281 L 116.93555 42.099609 L 116.28125 42.099609 z M 117.58984 42.099609 L 117.58984 54.113281 L 118.24609 54.113281 L 118.24609 42.099609 L 117.58984 42.099609 z M 118.90039 42.099609 L 118.90039 54.113281 L 120.86328 54.113281 L 120.86328 42.099609 L 118.90039 42.099609 z M 121.51758 42.099609 L 121.51758 54.113281 L 123.48242 54.113281 L 123.48242 42.099609 L 121.51758 42.099609 z M 125.44531 42.099609 L 125.44531 54.113281 L 126.09961 54.113281 L 126.09961 42.099609 L 125.44531 42.099609 z M 126.76562 42.099609 L 126.76562 54.113281 L 127.41992 54.113281 L 127.41992 42.099609 L 126.76562 42.099609 z M 129.38281 42.099609 L 129.38281 54.113281 L 131.34766 54.113281 L 131.34766 42.099609 L 129.38281 42.099609 z M 132.00195 42.099609 L 132.00195 54.113281 L 132.65625 54.113281 L 132.65625 42.099609 L 132.00195 42.099609 z M 133.31055 42.099609 L 133.31055 54.113281 L 135.27539 54.113281 L 135.27539 42.099609 L 133.31055 42.099609 z M 135.92969 42.099609 L 135.92969 54.113281 L 136.58398 54.113281 L 136.58398 42.099609 L 135.92969 42.099609 z M 137.24805 42.099609 L 137.24805 54.113281 L 137.9043 54.113281 L 137.9043 42.099609 L 137.24805 42.099609 z M 138.55859 42.099609 L 138.55859 54.113281 L 139.21289 54.113281 L 139.21289 42.099609 L 138.55859 42.099609 z M 139.86719 42.099609 L 139.86719 54.113281 L 141.83008 54.113281 L 141.83008 42.099609 L 139.86719 42.099609 z M 142.48633 42.099609 L 142.48633 54.113281 L 144.44922 54.113281 L 144.44922 42.099609 L 142.48633 42.099609 z M 146.41211 42.099609 L 146.41211 54.113281 L 147.06836 54.113281 L 147.06836 42.099609 L 146.41211 42.099609 z M 147.73242 42.099609 L 147.73242 54.113281 L 149.69531 54.113281 L 149.69531 42.099609 L 147.73242 42.099609 z M 150.35156 42.099609 L 150.35156 54.113281 L 151.00586 54.113281 L 151.00586 42.099609 L 150.35156 42.099609 z M 151.66016 42.099609 L 151.66016 54.113281 L 152.31445 54.113281 L 152.31445 42.099609 L 151.66016 42.099609 z M 154.27734 42.099609 L 154.27734 54.113281 L 156.24219 54.113281 L 156.24219 42.099609 L 154.27734 42.099609 z M 156.89648 42.099609 L 156.89648 54.113281 L 157.55078 54.113281 L 157.55078 42.099609 L 156.89648 42.099609 z M 158.2168 42.099609 L 158.2168 54.113281 L 160.17969 54.113281 L 160.17969 42.099609 L 158.2168 42.099609 z M 160.83398 42.099609 L 160.83398 54.113281 L 161.48828 54.113281 L 161.48828 42.099609 L 160.83398 42.099609 z M 162.14453 42.099609 L 162.14453 54.113281 L 164.10742 54.113281 L 164.10742 42.099609 L 162.14453 42.099609 z M 166.07031 42.099609 L 166.07031 54.113281 L 166.72656 54.113281 L 166.72656 42.099609 L 166.07031 42.099609 z M 167.38086 42.099609 L 167.38086 54.113281 L 168.03516 54.113281 L 168.03516 42.099609 L 167.38086 42.099609 z M 168.69922 42.099609 L 168.69922 54.113281 L 169.35352 54.113281 L 169.35352 42.099609 L 168.69922 42.099609 z M 171.31836 42.099609 L 171.31836 54.113281 L 173.28125 54.113281 L 173.28125 42.099609 L 171.31836 42.099609 z M 173.93555 42.099609 L 173.93555 54.113281 L 174.5918 54.113281 L 174.5918 42.099609 L 173.93555 42.099609 z M 175.24609 42.099609 L 175.24609 54.113281 L 177.20898 54.113281 L 177.20898 42.099609 L 175.24609 42.099609 z M 177.86328 42.099609 L 177.86328 54.113281 L 178.51953 54.113281 L 178.51953 42.099609 L 177.86328 42.099609 z M 179.18359 42.099609 L 179.18359 54.113281 L 179.83789 54.113281 L 179.83789 42.099609 L 179.18359 42.099609 z M 180.49219 42.099609 L 180.49219 54.113281 L 181.14648 54.113281 L 181.14648 42.099609 L 180.49219 42.099609 z M 181.80273 42.099609 L 181.80273 54.113281 L 183.76562 54.113281 L 183.76562 42.099609 L 181.80273 42.099609 z M 185.72852 42.099609 L 185.72852 54.113281 L 186.38477 54.113281 L 186.38477 42.099609 L 185.72852 42.099609 z M 187.03906 42.099609 L 187.03906 54.113281 L 189.00195 54.113281 L 189.00195 42.099609 L 187.03906 42.099609 z M 189.66797 42.099609 L 189.66797 54.113281 L 191.63086 54.113281 L 191.63086 42.099609 L 189.66797 42.099609 z M 193.59375 42.099609 L 193.59375 54.113281 L 194.25 54.113281 L 194.25 42.099609 L 193.59375 42.099609 z M 194.9043 42.099609 L 194.9043 54.113281 L 196.86719 54.113281 L 196.86719 42.099609 L 194.9043 42.099609 z M 197.52148 42.099609 L 197.52148 54.113281 L 198.17773 54.113281 L 198.17773 42.099609 L 197.52148 42.099609 z M 198.83203 42.099609 L 198.83203 54.113281 L 199.48633 54.113281 L 199.48633 42.099609 L 198.83203 42.099609 z M 200.15039 42.099609 L 200.15039 54.113281 L 200.80469 54.113281 L 200.80469 42.099609 L 200.15039 42.099609 z M 201.45898 42.099609 L 201.45898 54.113281 L 203.42383 54.113281 L 203.42383 42.099609 L 201.45898 42.099609 z M 204.07812 42.099609 L 204.07812 54.113281 L 204.73242 54.113281 L 204.73242 42.099609 L 204.07812 42.099609 z M 206.69727 42.099609 L 206.69727 54.113281 L 208.66016 54.113281 L 208.66016 42.099609 L 206.69727 42.099609 z M 209.31445 42.099609 L 209.31445 54.113281 L 209.96875 54.113281 L 209.96875 42.099609 L 209.31445 42.099609 z M 210.63477 42.099609 L 210.63477 54.113281 L 211.28906 54.113281 L 211.28906 42.099609 L 210.63477 42.099609 z M 211.94336 42.099609 L 211.94336 54.113281 L 212.59766 54.113281 L 212.59766 42.099609 L 211.94336 42.099609 z M 213.25195 42.099609 L 213.25195 54.113281 L 215.2168 54.113281 L 215.2168 42.099609 L 213.25195 42.099609 z M 215.87109 42.099609 L 215.87109 54.113281 L 216.52539 54.113281 L 216.52539 42.099609 L 215.87109 42.099609 z M 218.49023 42.099609 L 218.49023 54.113281 L 220.45312 54.113281 L 220.45312 42.099609 L 218.49023 42.099609 z M 221.11719 42.099609 L 221.11719 54.113281 L 221.77344 54.113281 L 221.77344 42.099609 L 221.11719 42.099609 z M 222.42773 42.099609 L 222.42773 54.113281 L 223.08203 54.113281 L 223.08203 42.099609 L 222.42773 42.099609 z M 223.73633 42.099609 L 223.73633 54.113281 L 224.39062 54.113281 L 224.39062 42.099609 L 223.73633 42.099609 z M 226.35547 42.099609 L 226.35547 54.113281 L 228.31836 54.113281 L 228.31836 42.099609 L 226.35547 42.099609 z M 228.97266 42.099609 L 228.97266 54.113281 L 230.9375 54.113281 L 230.9375 42.099609 L 228.97266 42.099609 z M 231.60156 42.099609 L 231.60156 54.113281 L 232.25586 54.113281 L 232.25586 42.099609 L 231.60156 42.099609 z M 234.2207 42.099609 L 234.2207 54.113281 L 236.18359 54.113281 L 236.18359 42.099609 L 234.2207 42.099609 z M 236.83789 42.099609 L 236.83789 54.113281 L 237.49219 54.113281 L 237.49219 42.099609 L 236.83789 42.099609 z M 238.14844 42.099609 L 238.14844 54.113281 L 240.11133 54.113281 L 240.11133 42.099609 L 238.14844 42.099609 z M 240.76562 42.099609 L 240.76562 54.113281 L 241.41992 54.113281 L 241.41992 42.099609 L 240.76562 42.099609 z M 242.08594 42.099609 L 242.08594 54.113281 L 244.04883 54.113281 L 244.04883 42.099609 L 242.08594 42.099609 z M 244.70312 42.099609 L 244.70312 54.113281 L 245.35742 54.113281 L 245.35742 42.099609 L 244.70312 42.099609 z M 246.01367 42.099609 L 246.01367 54.113281 L 247.97656 54.113281 L 247.97656 42.099609 L 246.01367 42.099609 z M 248.63086 42.099609 L 248.63086 54.113281 L 249.28516 54.113281 L 249.28516 42.099609 L 248.63086 42.099609 z M 251.25 42.099609 L 251.25 54.113281 L 251.9043 54.113281 L 251.9043 42.099609 L 251.25 42.099609 z M 252.56836 42.099609 L 252.56836 54.113281 L 253.22461 54.113281 L 253.22461 42.099609 L 252.56836 42.099609 z M 253.87891 42.099609 L 253.87891 54.113281 L 255.8418 54.113281 L 255.8418 42.099609 L 253.87891 42.099609 z M 256.49609 42.099609 L 256.49609 54.113281 L 258.46094 54.113281 L 258.46094 42.099609 L 256.49609 42.099609 z M 260.42383 42.099609 L 260.42383 54.113281 L 261.07812 54.113281 L 261.07812 42.099609 L 260.42383 42.099609 z M 261.73242 42.099609 L 261.73242 54.113281 L 262.38867 54.113281 L 262.38867 42.099609 L 261.73242 42.099609 z M 263.05273 42.099609 L 263.05273 54.113281 L 263.70703 54.113281 L 263.70703 42.099609 L 263.05273 42.099609 z M 265.67188 42.099609 L 265.67188 54.113281 L 267.63477 54.113281 L 267.63477 42.099609 L 265.67188 42.099609 z M 268.28906 42.099609 L 268.28906 54.113281 L 268.94336 54.113281 L 268.94336 42.099609 L 268.28906 42.099609 z M 269.59961 42.099609 L 269.59961 54.113281 L 271.5625 54.113281 L 271.5625 42.099609 L 269.59961 42.099609 z M 272.2168 42.099609 L 272.2168 54.113281 L 272.87109 54.113281 L 272.87109 42.099609 L 272.2168 42.099609 z M 273.53711 42.099609 L 273.53711 54.113281 L 274.19141 54.113281 L 274.19141 42.099609 L 273.53711 42.099609 z M 274.8457 42.099609 L 274.8457 54.113281 L 275.5 54.113281 L 275.5 42.099609 L 274.8457 42.099609 z M 276.1543 42.099609 L 276.1543 54.113281 L 278.11914 54.113281 L 278.11914 42.099609 L 276.1543 42.099609 z M 278.77344 42.099609 L 278.77344 54.113281 L 280.73633 54.113281 L 280.73633 42.099609 L 278.77344 42.099609 z M 282.70117 42.099609 L 282.70117 54.113281 L 283.35547 54.113281 L 283.35547 42.099609 L 282.70117 42.099609 z M 284.01953 42.099609 L 284.01953 54.113281 L 285.98438 54.113281 L 285.98438 42.099609 L 284.01953 42.099609 z M 286.63867 42.099609 L 286.63867 54.113281 L 287.29297 54.113281 L 287.29297 42.099609 L 286.63867 42.099609 z M 287.94727 42.099609 L 287.94727 54.113281 L 288.60156 54.113281 L 288.60156 42.099609 L 287.94727 42.099609 z M 290.56641 42.099609 L 290.56641 54.113281 L 292.5293 54.113281 L 292.5293 42.099609 L 290.56641 42.099609 z M 293.18359 42.099609 L 293.18359 54.113281 L 293.83984 54.113281 L 293.83984 42.099609 L 293.18359 42.099609 z M 294.50391 42.099609 L 294.50391 54.113281 L 296.4668 54.113281 L 296.4668 42.099609 L 294.50391 42.099609 z M 297.12305 42.099609 L 297.12305 54.113281 L 297.77734 54.113281 L 297.77734 42.099609 L 297.12305 42.099609 z M 298.43164 42.099609 L 298.43164 54.113281 L 300.39453 54.113281 L 300.39453 42.099609 L 298.43164 42.099609 z M 302.35938 42.099609 L 302.35938 54.113281 L 303.01367 54.113281 L 303.01367 42.099609 L 302.35938 42.099609 z M 303.66797 42.099609 L 303.66797 54.113281 L 304.32227 54.113281 L 304.32227 42.099609 L 303.66797 42.099609 z M 304.98828 42.099609 L 304.98828 54.113281 L 305.64258 54.113281 L 305.64258 42.099609 L 304.98828 42.099609 z M 307.60547 42.099609 L 307.60547 54.113281 L 309.57031 54.113281 L 309.57031 42.099609 L 307.60547 42.099609 z M 310.22461 42.099609 L 310.22461 54.113281 L 310.87891 54.113281 L 310.87891 42.099609 L 310.22461 42.099609 z M 311.5332 42.099609 L 311.5332 54.113281 L 313.49805 54.113281 L 313.49805 42.099609 L 311.5332 42.099609 z M 314.15234 42.099609 L 314.15234 54.113281 L 314.80664 54.113281 L 314.80664 42.099609 L 314.15234 42.099609 z M 315.4707 42.099609 L 315.4707 54.113281 L 316.125 54.113281 L 316.125 42.099609 L 315.4707 42.099609 z M 316.78125 42.099609 L 316.78125 54.113281 L 318.74414 54.113281 L 318.74414 42.099609 L 316.78125 42.099609 z M 319.39844 42.099609 L 319.39844 54.113281 L 320.05273 54.113281 L 320.05273 42.099609 L 319.39844 42.099609 z M 320.70703 42.099609 L 320.70703 54.113281 L 321.36328 54.113281 L 321.36328 42.099609 L 320.70703 42.099609 z M 323.32617 42.099609 L 323.32617 54.113281 L 325.28906 54.113281 L 325.28906 42.099609 L 323.32617 42.099609 z M 325.95508 42.099609 L 325.95508 54.113281 L 326.60938 54.113281 L 326.60938 42.099609 L 325.95508 42.099609 z M 327.26367 42.099609 L 327.26367 54.113281 L 329.22852 54.113281 L 329.22852 42.099609 L 327.26367 42.099609 z M 329.88281 42.099609 L 329.88281 54.113281 L 330.53711 54.113281 L 330.53711 42.099609 L 329.88281 42.099609 z M 332.5 42.099609 L 332.5 54.113281 L 334.46484 54.113281 L 334.46484 42.099609 L 332.5 42.099609 z M 335.11914 42.099609 L 335.11914 54.113281 L 335.77344 54.113281 L 335.77344 42.099609 L 335.11914 42.099609 z M 336.4375 42.099609 L 336.4375 54.113281 L 337.09375 54.113281 L 337.09375 42.099609 L 336.4375 42.099609 z M 337.74805 42.099609 L 337.74805 54.113281 L 338.40234 54.113281 L 338.40234 42.099609 L 337.74805 42.099609 z M 339.05664 42.099609 L 339.05664 54.113281 L 339.71094 54.113281 L 339.71094 42.099609 L 339.05664 42.099609 z M 341.67578 42.099609 L 341.67578 54.113281 L 343.63867 54.113281 L 343.63867 42.099609 L 341.67578 42.099609 z M 344.29297 42.099609 L 344.29297 54.113281 L 346.25781 54.113281 L 346.25781 42.099609 L 344.29297 42.099609 z M 346.92188 42.099609 L 346.92188 54.113281 L 348.88672 54.113281 L 348.88672 42.099609 L 346.92188 42.099609 z M 349.54102 42.099609 L 349.54102 54.113281 L 350.19531 54.113281 L 350.19531 42.099609 L 349.54102 42.099609 z M 350.84961 42.099609 L 350.84961 54.113281 L 351.50391 54.113281 L 351.50391 42.099609 L 350.84961 42.099609 z M 353.46875 42.099609 L 353.46875 54.113281 L 355.43164 54.113281 L 355.43164 42.099609 L 353.46875 42.099609 z M 356.08594 42.099609 L 356.08594 54.113281 L 356.74023 54.113281 L 356.74023 42.099609 L 356.08594 42.099609 z M 357.40625 42.099609 L 357.40625 54.113281 L 358.06055 54.113281 L 358.06055 42.099609 L 357.40625 42.099609 z M 358.71484 42.099609 L 358.71484 54.113281 L 359.36914 54.113281 L 359.36914 42.099609 L 358.71484 42.099609 z M 360.02344 42.099609 L 360.02344 54.113281 L 361.98828 54.113281 L 361.98828 42.099609 L 360.02344 42.099609 z M 362.64258 42.099609 L 362.64258 54.113281 L 364.60547 54.113281 L 364.60547 42.099609 L 362.64258 42.099609 z M 366.57031 42.099609 L 366.57031 54.113281 L 367.22461 54.113281 L 367.22461 42.099609 L 366.57031 42.099609 z M 367.88867 42.099609 L 367.88867 54.113281 L 369.85352 54.113281 L 369.85352 42.099609 L 367.88867 42.099609 z M 371.81641 42.099609 L 371.81641 54.113281 L 372.4707 54.113281 L 372.4707 42.099609 L 371.81641 42.099609 z M 373.12695 42.099609 L 373.12695 54.113281 L 373.78125 54.113281 L 373.78125 42.099609 L 373.12695 42.099609 z M 374.43555 42.099609 L 374.43555 54.113281 L 376.39844 54.113281 L 376.39844 42.099609 L 374.43555 42.099609 z M 377.05469 42.099609 L 377.05469 54.113281 L 377.70898 54.113281 L 377.70898 42.099609 L 377.05469 42.099609 z "
       transform="matrix(0.26458333,0,0,0.26458333,69.071118,84.399448)"
       id="text40-3" />
  </g>
</svg>
