<svg width="379" height="55" viewBox="0 0 379 55" fill="none" xmlns="http://www.w3.org/2000/svg">
<g clip-path="url(#clip0_316_17)">
<path d="M9.50781 1.45312L12.8672 4.54687L1.45312 30.0937L8.28125 36.6016H49.2402L53.8281 26.2539H31L42.041 1.45312H9.50781ZM70.9687 1.56055L67.9824 8.17383H82.0098L69.3691 36.6016H97.1562L112.783 1.56055H70.9687ZM128.807 1.56055L116.006 7.96094L108.699 24.3867H141.553L140.271 27.2676H107.42L103.26 36.5469H153.873L166.885 30.041L176.646 8.06641L169.873 1.56055H128.807ZM185.656 1.56055L175.844 23.5332L208.697 23.5879L207.256 26.7344H174.402L169.977 36.7598H220.803L233.603 30.0937C236.519 23.6226 238.83 18.4326 240.537 14.5215H207.736L209.123 11.4805H241.924L246.35 1.56055H185.656ZM252.428 1.56055L248.268 10.8945H281.121L279.467 14.5215L243.307 36.5469H271.521L306.613 15.5332L312.853 1.56055H252.428ZM328.91 1.56055L316.109 7.96094L308.803 24.3867H341.656L340.377 27.2676H307.523L303.363 36.5469H353.976L366.99 30.041L376.75 8.06641L369.976 1.56055H328.91ZM143.686 8.44141H148.646L144.592 17.5605H139.633L143.686 8.44141ZM343.789 8.44141H348.75L344.697 17.5605H339.736L343.789 8.44141Z" fill="#B3B3B3" stroke="black" stroke-width="2.908"/>
<path d="M8.39844 42.0996V54.1133H10.2034V42.0996H8.39844ZM10.8068 42.0996V54.1133H11.4085V42.0996H10.8068ZM12.0101 42.0996V54.1133H12.6118V42.0996H12.0101ZM13.2134 42.0996V54.1133H15.0202V42.0996H13.2134ZM16.8252 42.0996V54.1133H17.4268V42.0996H16.8252ZM18.0392 42.0996V54.1133H19.8442V42.0996H18.0392ZM20.4459 42.0996V54.1133H21.0475V42.0996H20.4459ZM21.651 42.0996V54.1133H22.2526V42.0996H21.651ZM24.0576 42.0996V54.1133H24.6592V42.0996H24.0576ZM25.2609 42.0996V54.1133H27.0676V42.0996H25.2609ZM27.6783 42.0996V54.1133H28.2799V42.0996H27.6783ZM28.8834 42.0996V54.1133H29.485V42.0996H28.8834ZM30.0867 42.0996V54.1133H30.6883V42.0996H30.0867ZM32.4951 42.0996V54.1133H34.3V42.0996H32.4951ZM34.9017 42.0996V54.1133H36.7085V42.0996H34.9017ZM37.3191 42.0996V54.1133H39.1241V42.0996H37.3191ZM39.7275 42.0996V54.1133H40.3291V42.0996H39.7275ZM40.9308 42.0996V54.1133H42.7358V42.0996H40.9308ZM44.5425 42.0996V54.1133H45.1442V42.0996H44.5425ZM45.7458 42.0996V54.1133H46.3475V42.0996H45.7458ZM46.9599 42.0996V54.1133H47.5616V42.0996H46.9599ZM49.3665 42.0996V54.1133H51.1733V42.0996H49.3665ZM51.7749 42.0996V54.1133H52.3766V42.0996H51.7749ZM52.9782 42.0996V54.1133H54.785V42.0996H52.9782ZM55.3866 42.0996V54.1133H55.9883V42.0996H55.3866ZM56.5989 42.0996V54.1133H58.4057V42.0996H56.5989ZM59.0073 42.0996V54.1133H59.609V42.0996H59.0073ZM60.2106 42.0996V54.1133H60.8123V42.0996H60.2106ZM62.619 42.0996V54.1133H63.2207V42.0996H62.619ZM63.8224 42.0996V54.1133H65.6273V42.0996H63.8224ZM66.2397 42.0996V54.1133H66.8414V42.0996H66.2397ZM67.4431 42.0996V54.1133H68.0447V42.0996H67.4431ZM68.6464 42.0996V54.1133H69.2498V42.0996H68.6464ZM71.0548 42.0996V54.1133H72.8615V42.0996H71.0548ZM73.4632 42.0996V54.1133H75.2681V42.0996H73.4632ZM75.8806 42.0996V54.1133H77.6855V42.0996H75.8806ZM78.2872 42.0996V54.1133H78.8888V42.0996H78.2872ZM79.4905 42.0996V54.1133H80.0939V42.0996H79.4905ZM81.8989 42.0996V54.1133H82.5006V42.0996H81.8989ZM83.1022 42.0996V54.1133H84.909V42.0996H83.1022ZM85.5196 42.0996V54.1133H86.1213V42.0996H85.5196ZM86.7229 42.0996V54.1133H88.5297V42.0996H86.7229ZM89.1313 42.0996V54.1133H89.733V42.0996H89.1313ZM91.5397 42.0996V54.1133H93.3447V42.0996H91.5397ZM93.9463 42.0996V54.1133H94.548V42.0996H93.9463ZM95.1604 42.0996V54.1133H95.7621V42.0996H95.1604ZM96.3637 42.0996V54.1133H96.9654V42.0996H96.3637ZM97.567 42.0996V54.1133H99.3738V42.0996H97.567ZM99.9754 42.0996V54.1133H100.577V42.0996H99.9754ZM102.384 42.0996V54.1133H104.189V42.0996H102.384ZM104.799 42.0996V54.1133H105.403V42.0996H104.799ZM106.005 42.0996V54.1133H107.81V42.0996H106.005ZM108.411 42.0996V54.1133H109.013V42.0996H108.411ZM109.616 42.0996V54.1133H111.421V42.0996H109.616ZM113.228 42.0996V54.1133H113.83V42.0996H113.228ZM114.44 42.0996V54.1133H115.042V42.0996H114.44ZM115.644 42.0996V54.1133H116.247V42.0996H115.644ZM116.849 42.0996V54.1133H118.654V42.0996H116.849ZM119.255 42.0996V54.1133H121.062V42.0996H119.255ZM122.867 42.0996V54.1133H123.469V42.0996H122.867ZM124.081 42.0996V54.1133H124.683V42.0996H124.081ZM126.488 42.0996V54.1133H128.294V42.0996H126.488ZM128.896 42.0996V54.1133H129.498V42.0996H128.896ZM130.099 42.0996V54.1133H131.906V42.0996H130.099ZM132.508 42.0996V54.1133H133.109V42.0996H132.508ZM133.72 42.0996V54.1133H134.324V42.0996H133.72ZM134.925 42.0996V54.1133H135.527V42.0996H134.925ZM136.129 42.0996V54.1133H137.933V42.0996H136.129ZM138.537 42.0996V54.1133H140.342V42.0996H138.537ZM142.147 42.0996V54.1133H142.75V42.0996H142.147ZM143.361 42.0996V54.1133H145.166V42.0996H143.361ZM145.769 42.0996V54.1133H146.371V42.0996H145.769ZM146.973 42.0996V54.1133H147.574V42.0996H146.973ZM149.379 42.0996V54.1133H151.186V42.0996H149.379ZM151.788 42.0996V54.1133H152.389V42.0996H151.788ZM153.002 42.0996V54.1133H154.807V42.0996H153.002ZM155.408 42.0996V54.1133H156.01V42.0996H155.408ZM156.613 42.0996V54.1133H158.418V42.0996H156.613ZM160.223 42.0996V54.1133H160.827V42.0996H160.223ZM161.428 42.0996V54.1133H162.03V42.0996H161.428ZM162.641 42.0996V54.1133H163.242V42.0996H162.641ZM165.049 42.0996V54.1133H166.854V42.0996H165.049ZM167.456 42.0996V54.1133H168.059V42.0996H167.456ZM168.661 42.0996V54.1133H170.466V42.0996H168.661ZM171.068 42.0996V54.1133H171.671V42.0996H171.068ZM172.282 42.0996V54.1133H172.883V42.0996H172.282ZM173.485 42.0996V54.1133H174.087V42.0996H173.485ZM174.69 42.0996V54.1133H176.495V42.0996H174.69ZM178.3 42.0996V54.1133H178.903V42.0996H178.3ZM179.505 42.0996V54.1133H181.31V42.0996H179.505ZM181.922 42.0996V54.1133H183.727V42.0996H181.922ZM185.532 42.0996V54.1133H186.136V42.0996H185.532ZM186.737 42.0996V54.1133H188.542V42.0996H186.737ZM189.144 42.0996V54.1133H189.747V42.0996H189.144ZM190.349 42.0996V54.1133H190.951V42.0996H190.349ZM191.561 42.0996V54.1133H192.163V42.0996H191.561ZM192.765 42.0996V54.1133H194.571V42.0996H192.765ZM195.173 42.0996V54.1133H195.775V42.0996H195.173ZM197.582 42.0996V54.1133H199.387V42.0996H197.582ZM199.988 42.0996V54.1133H200.59V42.0996H199.988ZM201.202 42.0996V54.1133H201.804V42.0996H201.202ZM202.406 42.0996V54.1133H203.007V42.0996H202.406ZM203.609 42.0996V54.1133H205.416V42.0996H203.609ZM206.017 42.0996V54.1133H206.619V42.0996H206.017ZM208.426 42.0996V54.1133H210.231V42.0996H208.426ZM210.841 42.0996V54.1133H211.445V42.0996H210.841ZM212.046 42.0996V54.1133H212.648V42.0996H212.046ZM213.25 42.0996V54.1133H213.851V42.0996H213.25ZM215.658 42.0996V54.1133H217.463V42.0996H215.658ZM218.065 42.0996V54.1133H219.871V42.0996H218.065ZM220.482 42.0996V54.1133H221.084V42.0996H220.482ZM222.89 42.0996V54.1133H224.695V42.0996H222.89ZM225.297 42.0996V54.1133H225.899V42.0996H225.297ZM226.502 42.0996V54.1133H228.307V42.0996H226.502ZM228.909 42.0996V54.1133H229.51V42.0996H228.909ZM230.123 42.0996V54.1133H231.928V42.0996H230.123ZM232.53 42.0996V54.1133H233.131V42.0996H232.53ZM233.735 42.0996V54.1133H235.54V42.0996H233.735ZM236.141 42.0996V54.1133H236.743V42.0996H236.141ZM238.55 42.0996V54.1133H239.151V42.0996H238.55ZM239.762 42.0996V54.1133H240.365V42.0996H239.762ZM240.967 42.0996V54.1133H242.772V42.0996H240.967ZM243.374 42.0996V54.1133H245.18V42.0996H243.374ZM246.985 42.0996V54.1133H247.587V42.0996H246.985ZM248.189 42.0996V54.1133H248.792V42.0996H248.189ZM249.403 42.0996V54.1133H250.004V42.0996H249.403ZM251.811 42.0996V54.1133H253.616V42.0996H251.811ZM254.218 42.0996V54.1133H254.819V42.0996H254.218ZM255.423 42.0996V54.1133H257.228V42.0996H255.423ZM257.829 42.0996V54.1133H258.431V42.0996H257.829ZM259.044 42.0996V54.1133H259.645V42.0996H259.044ZM260.247 42.0996V54.1133H260.849V42.0996H260.247ZM261.45 42.0996V54.1133H263.257V42.0996H261.45ZM263.859 42.0996V54.1133H265.664V42.0996H263.859ZM267.47 42.0996V54.1133H268.072V42.0996H267.47ZM268.683 42.0996V54.1133H270.489V42.0996H268.683ZM271.091 42.0996V54.1133H271.693V42.0996H271.091ZM272.294 42.0996V54.1133H272.896V42.0996H272.294ZM274.703 42.0996V54.1133H276.508V42.0996H274.703ZM277.109 42.0996V54.1133H277.713V42.0996H277.109ZM278.323 42.0996V54.1133H280.128V42.0996H278.323ZM280.732 42.0996V54.1133H281.333V42.0996H280.732ZM281.935 42.0996V54.1133H283.74V42.0996H281.935ZM285.547 42.0996V54.1133H286.149V42.0996H285.547ZM286.75 42.0996V54.1133H287.352V42.0996H286.75ZM287.964 42.0996V54.1133H288.566V42.0996H287.964ZM290.371 42.0996V54.1133H292.178V42.0996H290.371ZM292.779 42.0996V54.1133H293.381V42.0996H292.779ZM293.983 42.0996V54.1133H295.789V42.0996H293.983ZM296.391 42.0996V54.1133H296.993V42.0996H296.391ZM297.603 42.0996V54.1133H298.205V42.0996H297.603ZM298.808 42.0996V54.1133H300.613V42.0996H298.808ZM301.215 42.0996V54.1133H301.817V42.0996H301.215ZM302.418 42.0996V54.1133H303.022V42.0996H302.418ZM304.827 42.0996V54.1133H306.632V42.0996H304.827ZM307.244 42.0996V54.1133H307.846V42.0996H307.244ZM308.447 42.0996V54.1133H310.254V42.0996H308.447ZM310.856 42.0996V54.1133H311.457V42.0996H310.856ZM313.262 42.0996V54.1133H315.069V42.0996H313.262ZM315.671 42.0996V54.1133H316.272V42.0996H315.671ZM316.883 42.0996V54.1133H317.487V42.0996H316.883ZM318.088 42.0996V54.1133H318.69V42.0996H318.088ZM319.292 42.0996V54.1133H319.893V42.0996H319.292ZM321.7 42.0996V54.1133H323.505V42.0996H321.7ZM324.107 42.0996V54.1133H325.913V42.0996H324.107ZM326.524 42.0996V54.1133H328.331V42.0996H326.524ZM328.932 42.0996V54.1133H329.534V42.0996H328.932ZM330.136 42.0996V54.1133H330.737V42.0996H330.136ZM332.544 42.0996V54.1133H334.349V42.0996H332.544ZM334.951 42.0996V54.1133H335.552V42.0996H334.951ZM336.165 42.0996V54.1133H336.766V42.0996H336.165ZM337.368 42.0996V54.1133H337.97V42.0996H337.368ZM338.571 42.0996V54.1133H340.378V42.0996H338.571ZM340.98 42.0996V54.1133H342.785V42.0996H340.98ZM344.591 42.0996V54.1133H345.193V42.0996H344.591ZM345.804 42.0996V54.1133H347.611V42.0996H345.804ZM349.415 42.0996V54.1133H350.017V42.0996H349.415ZM350.621 42.0996V54.1133H351.222V42.0996H350.621ZM351.824 42.0996V54.1133H353.629V42.0996H351.824ZM354.232 42.0996V54.1133H354.834V42.0996H354.232Z" fill="#F9F9F9"/>
</g>
<defs>
<clipPath id="clip0_316_17">
<rect width="378.283" height="54.687" fill="white"/>
</clipPath>
</defs>
</svg>
