<svg width="386" height="144" viewBox="0 0 386 144" fill="none" xmlns="http://www.w3.org/2000/svg">
<g clip-path="url(#clip0_214_4)">
<path d="M130.7 136.1C134.5 136.1 137.7 133 137.7 129.1V16.8999C137.7 13.0999 134.6 9.8999 130.7 9.8999H18.5C14.7 9.8999 11.5 12.9999 11.5 16.8999V129.1C11.5 132.9 14.6 136.1 18.5 136.1H130.7Z" fill="#EAEAEA"/>
<path d="M98.4999 136.1V87.2999H114.9L117.4 68.2999H98.4999V55.9999C98.4999 50.4999 99.9999 46.6999 107.9 46.6999H118V29.6999C116.3 29.4999 110.3 28.8999 103.3 28.8999C88.7999 28.8999 78.7999 37.7999 78.7999 54.0999V68.0999H62.3999V87.0999H78.7999V135.9H98.4999V136.1Z" fill="white"/>
<path d="M369.5 136.1C373.3 136.1 376.5 133 376.5 129.1V16.8999C376.5 13.0999 373.4 9.8999 369.5 9.8999H157.8C154 9.8999 150.8 12.9999 150.8 16.8999V129.1C150.8 132.9 153.9 136.1 157.8 136.1H369.5Z" fill="#EAEAEA"/>
<path fill-rule="evenodd" clip-rule="evenodd" d="M341.2 91.4997H316.2V76.4997H339.9V68.6997H316.2V54.4997H341.2V46.1997H306.6V99.5997H341.2V91.4997ZM278.9 99.6997L297.4 46.2997H287.2L273.9 88.5997H273.3L259.9 46.2997H249.4L268.1 99.6997H278.9ZM240.1 99.6997V46.2997H230.5V99.6997H240.1ZM220.2 91.2997H195.7V46.2997H186.1V99.6997H220.2V91.2997Z" fill="white"/>
</g>
<defs>
<clipPath id="clip0_214_4">
<rect width="386" height="144" fill="white"/>
</clipPath>
</defs>
</svg>
