<svg width="15" height="16" viewBox="0 0 15 16" fill="none" xmlns="http://www.w3.org/2000/svg">
<path d="M7.60547 4.9375C7.60547 5.00781 7.59375 5.09375 7.57031 5.19531C7.55469 5.29688 7.53906 5.39844 7.52344 5.5C7.50781 5.60156 7.50391 5.69531 7.51172 5.78125C7.51953 5.85938 7.55469 5.91016 7.61719 5.93359C7.47656 6.34766 7.37891 6.69531 7.32422 6.97656C7.27734 7.25781 7.23438 7.52734 7.19531 7.78516C7.16406 8.03516 7.12109 8.30078 7.06641 8.58203C7.01172 8.86328 6.91406 9.20703 6.77344 9.61328C6.6875 9.86328 6.58203 10.0391 6.45703 10.1406C6.33203 10.2344 6.19922 10.2812 6.05859 10.2812C5.91797 10.2812 5.77344 10.2422 5.625 10.1641C5.47656 10.0859 5.33984 10 5.21484 9.90625C5.19141 9.75781 5.1875 9.57812 5.20312 9.36719C5.22656 9.14844 5.25391 8.92188 5.28516 8.6875C5.31641 8.45312 5.34766 8.23047 5.37891 8.01953C5.41016 7.80078 5.43359 7.61719 5.44922 7.46875C5.52734 7.38281 5.58203 7.3125 5.61328 7.25781C5.64453 7.20312 5.66406 7.14453 5.67188 7.08203C5.6875 7.01953 5.69922 6.94141 5.70703 6.84766C5.71484 6.75391 5.73438 6.62109 5.76562 6.44922C5.78125 6.36328 5.77344 6.28906 5.74219 6.22656C5.71875 6.15625 5.71484 6.08984 5.73047 6.02734C5.74609 5.99609 5.76953 5.97266 5.80078 5.95703C5.83984 5.94141 5.86328 5.91406 5.87109 5.875C5.90234 5.77344 5.91016 5.69531 5.89453 5.64062C5.87891 5.57812 5.89062 5.50391 5.92969 5.41797C5.96875 5.35547 6.01562 5.25781 6.07031 5.125C6.13281 4.98438 6.15625 4.83984 6.14062 4.69141C6.21094 4.63672 6.27734 4.57422 6.33984 4.50391C6.40234 4.43359 6.46484 4.37109 6.52734 4.31641C6.59766 4.25391 6.67188 4.20312 6.75 4.16406C6.83594 4.125 6.9375 4.10547 7.05469 4.10547C7.11719 4.19141 7.16406 4.27344 7.19531 4.35156C7.22656 4.42969 7.25391 4.50391 7.27734 4.57422C7.30859 4.64453 7.34766 4.71094 7.39453 4.77344C7.44141 4.83594 7.51172 4.89062 7.60547 4.9375ZM6.44531 11.6055C6.46094 11.668 6.47266 11.7266 6.48047 11.7812C6.48828 11.8359 6.49609 11.8945 6.50391 11.957C6.45703 12.1211 6.40625 12.2695 6.35156 12.4023C6.32812 12.457 6.3125 12.4922 6.30469 12.5078C6.29688 12.5234 6.29297 12.5352 6.29297 12.543C6.29297 12.5508 6.29688 12.5625 6.30469 12.5781C6.3125 12.5859 6.31641 12.6172 6.31641 12.6719L6.25781 12.8125C6.21875 12.8672 6.17188 12.9102 6.11719 12.9414C6.07031 12.9727 6.01953 13 5.96484 13.0234C5.94141 13.0391 5.91406 13.0508 5.88281 13.0586C5.85938 13.0742 5.83984 13.0898 5.82422 13.1055L5.78906 13.2461L5.625 13.2695C5.5 13.3008 5.38672 13.3164 5.28516 13.3164H5.15625C5.0625 13.2305 4.98828 13.1641 4.93359 13.1172C4.87891 13.0703 4.81641 13.0273 4.74609 12.9883C4.66016 12.8398 4.60938 12.7109 4.59375 12.6016C4.57812 12.5 4.55859 12.4336 4.53516 12.4023L4.37109 12.2383L4.51172 12.1328L4.37109 11.9102C4.46484 11.8398 4.53516 11.7891 4.58203 11.7578C4.62891 11.7266 4.66797 11.6953 4.69922 11.6641C4.73828 11.625 4.77734 11.5781 4.81641 11.5234C4.85547 11.4688 4.91797 11.3789 5.00391 11.2539L5.10938 11.1016L5.25 11.1836C5.28906 11.207 5.35938 11.2305 5.46094 11.2539C5.57031 11.2695 5.66406 11.2852 5.74219 11.3008C5.86719 11.3398 5.98828 11.3711 6.10547 11.3945C6.23047 11.4102 6.32812 11.4492 6.39844 11.5117L6.44531 11.6055ZM10.7344 4.9375C10.7344 5.00781 10.7227 5.09375 10.6992 5.19531C10.6836 5.29687 10.668 5.39844 10.6523 5.5C10.6367 5.60156 10.6328 5.69531 10.6406 5.78125C10.6484 5.85937 10.6836 5.91016 10.7461 5.93359C10.6055 6.34766 10.5078 6.69531 10.4531 6.97656C10.4062 7.25781 10.3633 7.52734 10.3242 7.78516C10.293 8.03516 10.25 8.30078 10.1953 8.58203C10.1406 8.86328 10.043 9.20703 9.90234 9.61328C9.81641 9.86328 9.71094 10.0391 9.58594 10.1406C9.46094 10.2344 9.32812 10.2812 9.1875 10.2812C9.04688 10.2812 8.90234 10.2422 8.75391 10.1641C8.60547 10.0859 8.46875 10 8.34375 9.90625C8.32031 9.75781 8.31641 9.57812 8.33203 9.36719C8.35547 9.14844 8.38281 8.92188 8.41406 8.6875C8.44531 8.45312 8.47656 8.23047 8.50781 8.01953C8.53906 7.80078 8.5625 7.61719 8.57812 7.46875C8.65625 7.38281 8.71094 7.3125 8.74219 7.25781C8.77344 7.20312 8.79297 7.14453 8.80078 7.08203C8.81641 7.01953 8.82812 6.94141 8.83594 6.84766C8.84375 6.75391 8.86328 6.62109 8.89453 6.44922C8.91016 6.36328 8.90234 6.28906 8.87109 6.22656C8.84766 6.15625 8.84375 6.08984 8.85938 6.02734C8.875 5.99609 8.89844 5.97266 8.92969 5.95703C8.96875 5.94141 8.99219 5.91406 9 5.875C9.03125 5.77344 9.03906 5.69531 9.02344 5.64062C9.00781 5.57812 9.01953 5.50391 9.05859 5.41797C9.09766 5.35547 9.14453 5.25781 9.19922 5.125C9.26172 4.98438 9.28516 4.83984 9.26953 4.69141C9.33984 4.63672 9.40625 4.57422 9.46875 4.50391C9.53125 4.43359 9.59375 4.37109 9.65625 4.31641C9.72656 4.25391 9.80078 4.20312 9.87891 4.16406C9.96484 4.125 10.0664 4.10547 10.1836 4.10547C10.2461 4.19141 10.293 4.27344 10.3242 4.35156C10.3555 4.42969 10.3828 4.50391 10.4062 4.57422C10.4375 4.64453 10.4766 4.71094 10.5234 4.77344C10.5703 4.83594 10.6406 4.89062 10.7344 4.9375ZM9.57422 11.6055C9.58984 11.668 9.60156 11.7266 9.60938 11.7812C9.61719 11.8359 9.625 11.8945 9.63281 11.957C9.58594 12.1211 9.53516 12.2695 9.48047 12.4023C9.45703 12.457 9.44141 12.4922 9.43359 12.5078C9.42578 12.5234 9.42188 12.5352 9.42188 12.543C9.42188 12.5508 9.42578 12.5625 9.43359 12.5781C9.44141 12.5859 9.44531 12.6172 9.44531 12.6719L9.38672 12.8125C9.34766 12.8672 9.30078 12.9102 9.24609 12.9414C9.19922 12.9727 9.14844 13 9.09375 13.0234C9.07031 13.0391 9.04297 13.0508 9.01172 13.0586C8.98828 13.0742 8.96875 13.0898 8.95312 13.1055L8.91797 13.2461L8.75391 13.2695C8.62891 13.3008 8.51562 13.3164 8.41406 13.3164H8.28516C8.19141 13.2305 8.11719 13.1641 8.0625 13.1172C8.00781 13.0703 7.94531 13.0273 7.875 12.9883C7.78906 12.8398 7.73828 12.7109 7.72266 12.6016C7.70703 12.5 7.6875 12.4336 7.66406 12.4023L7.5 12.2383L7.64062 12.1328L7.5 11.9102C7.59375 11.8398 7.66406 11.7891 7.71094 11.7578C7.75781 11.7266 7.79688 11.6953 7.82812 11.6641C7.86719 11.625 7.90625 11.5781 7.94531 11.5234C7.98438 11.4688 8.04688 11.3789 8.13281 11.2539L8.23828 11.1016L8.37891 11.1836C8.41797 11.207 8.48828 11.2305 8.58984 11.2539C8.69922 11.2695 8.79297 11.2852 8.87109 11.3008C8.99609 11.3398 9.11719 11.3711 9.23438 11.3945C9.35938 11.4102 9.45703 11.4492 9.52734 11.5117L9.57422 11.6055Z" fill="black"/>
</svg>
