<svg width="386" height="144" viewBox="0 0 386 144" fill="none" xmlns="http://www.w3.org/2000/svg">
<g clip-path="url(#clip0_217_12)">
<path d="M129.7 135.1C133.5 135.1 136.7 132 136.7 128.1V15.8999C136.7 12.0999 133.6 8.8999 129.7 8.8999H17.5C13.7 8.8999 10.5 11.9999 10.5 15.8999V128.1C10.5 131.9 13.6 135.1 17.5 135.1H129.7Z" fill="#3D5A98"/>
<path d="M97.4999 135.1V86.2999H113.9L116.4 67.2999H97.4999V54.9999C97.4999 49.4999 98.9999 45.6999 106.9 45.6999H117V28.6999C115.3 28.4999 109.3 27.8999 102.3 27.8999C87.7999 27.8999 77.7999 36.7999 77.7999 53.0999V67.0999H61.3999V86.0999H77.7999V134.9H97.4999V135.1Z" fill="white"/>
<path d="M368.5 135.1C372.3 135.1 375.5 132 375.5 128.1V15.8999C375.5 12.0999 372.4 8.8999 368.5 8.8999H156.8C153 8.8999 149.8 11.9999 149.8 15.8999V128.1C149.8 131.9 152.9 135.1 156.8 135.1H368.5Z" fill="#EE4242"/>
<path fill-rule="evenodd" clip-rule="evenodd" d="M340.2 90.4997H315.2V75.4997H338.9V67.6997H315.2V53.4997H340.2V45.1997H305.6V98.5997H340.2V90.4997ZM277.9 98.6997L296.4 45.2997H286.2L272.9 87.5997H272.3L258.9 45.2997H248.4L267.1 98.6997H277.9ZM239.1 98.6997V45.2997H229.5V98.6997H239.1ZM219.2 90.2997H194.7V45.2997H185.1V98.6997H219.2V90.2997Z" fill="white"/>
</g>
<defs>
<clipPath id="clip0_217_12">
<rect width="386" height="144" fill="white"/>
</clipPath>
</defs>
</svg>
