<svg xmlns="http://www.w3.org/2000/svg" viewBox="0 0 40 40">
    <path fill="black" d="M20 2A17.882 17.882 0 0 0 7.272 7.272C3.872 10.672 2 15.192 2 20s1.872 9.328 5.272 12.728C10.672 36.128 15.192 38 20 38s9.328-1.872 12.728-5.272C36.128 29.328 38 24.808 38 20s-1.872-9.328-5.272-12.728C29.328 3.872 24.808 2 20 2m0-2c11.046 0 20 8.954 20 20s-8.954 20-20 20S0 31.046 0 20 8.954 0 20 0zm6.076 20.41l-1.278-1.458-3.636 3.402V13.39h-2.124v8.964l-3.636-3.402-1.278 1.458 5.976 5.364 5.976-5.364z"></path>
</svg>