<svg width="100" height="40" viewBox="0 0 100 40" fill="none" xmlns="http://www.w3.org/2000/svg">
<path d="M20.2215 16.3419C20.1795 16.2574 20.1376 16.1768 20.0958 16.1001C20.0541 16.0233 20.0126 15.9544 19.9713 15.8933C19.8711 15.7092 19.7833 15.5442 19.7078 15.3983C19.6324 15.2524 19.56 15.083 19.4907 14.89C19.5095 14.7564 19.5408 14.5325 19.5845 14.2183C19.6361 13.9038 19.6945 13.5617 19.7598 13.192C19.8247 12.8145 19.8935 12.433 19.966 12.0474C20.0464 11.6616 20.1286 11.3304 20.2128 11.0538C20.2902 10.8088 20.3749 10.5479 20.4668 10.2711C20.5666 9.99397 20.675 9.74003 20.792 9.50925C20.9166 9.27038 21.0502 9.06637 21.1928 8.89723C21.3354 8.72809 21.492 8.6249 21.6627 8.58767C21.7118 8.6485 21.7643 8.69748 21.8203 8.73461C21.876 8.76393 21.9276 8.78558 21.975 8.79956C22.1143 8.98231 22.2487 9.13787 22.3782 9.26624C22.5075 9.3868 22.6602 9.50654 22.8364 9.62547C22.7977 9.86134 22.7366 10.1254 22.653 10.4175C22.5769 10.7016 22.4932 10.9898 22.4017 11.2823C22.3181 11.5744 22.2343 11.8588 22.1501 12.1353C22.0657 12.4041 21.9996 12.637 21.9517 12.8341C21.9103 12.9919 21.8698 13.1731 21.83 13.3777C21.797 13.5509 21.7612 13.7593 21.7228 14.0029C21.6923 14.2463 21.6625 14.5132 21.6335 14.8034C21.7418 14.7684 21.8606 14.7017 21.9901 14.6034C22.1273 14.5048 22.2527 14.4027 22.3663 14.2971C22.5028 14.175 22.635 14.0453 22.7631 13.908C22.9364 13.7221 23.083 13.5529 23.2027 13.4001C23.3225 13.2474 23.4303 13.0912 23.5264 12.9315C23.63 12.7637 23.7332 12.5843 23.8359 12.3931C23.9462 12.1938 24.0748 11.9587 24.2217 11.6878C24.3543 11.4564 24.4903 11.2093 24.6297 10.9465C24.7768 10.6834 24.9244 10.432 25.0724 10.1923C25.2203 9.95263 25.3651 9.7326 25.5066 9.53222C25.6479 9.32404 25.7791 9.16311 25.9002 9.04944C25.9891 9.13233 26.0898 9.21871 26.2024 9.30859C26.3228 9.39819 26.45 9.46019 26.5841 9.4946C26.6417 9.57857 26.6952 9.65488 26.7445 9.72351C26.8014 9.78407 26.8543 9.84476 26.9033 9.90558C26.9688 9.98929 27.0262 10.0655 27.0755 10.1341C27.1326 10.2024 27.1821 10.2789 27.2242 10.3634C27.2186 10.4261 27.2058 10.5087 27.1859 10.611C27.1739 10.713 27.1583 10.8269 27.1392 10.9527C27.1199 11.0706 27.0968 11.1926 27.0699 11.3186C27.0509 11.4443 27.0317 11.5662 27.0123 11.6841C26.9465 12.0382 26.8972 12.3057 26.8645 12.4866C26.8317 12.6676 26.8093 12.8091 26.7972 12.9111C26.7851 13.0132 26.7764 13.0995 26.7711 13.17C26.7735 13.2403 26.7769 13.3379 26.7813 13.4628C26.7846 13.5565 26.7956 13.6499 26.8145 13.743C26.8331 13.8284 26.8519 13.9176 26.8708 14.0108C26.8972 14.0958 26.9391 14.1765 26.9965 14.2526L27.5435 13.7997C27.6956 13.6771 27.8382 13.508 27.9714 13.2922C28.1121 13.0684 28.244 12.8176 28.3672 12.5397C28.498 12.2537 28.6241 11.9483 28.7456 11.6236C28.8669 11.291 28.9879 10.9507 29.1087 10.6025C29.1936 10.3494 29.2787 10.1001 29.364 9.85483C29.4568 9.60144 29.5501 9.36366 29.6439 9.1415C29.7375 8.91153 29.828 8.70512 29.9155 8.52227C30.0104 8.33134 30.1026 8.17178 30.1919 8.04358C30.4073 8.16895 30.5916 8.29541 30.7445 8.42297C30.9053 8.55024 31.0432 8.69396 31.1583 8.8541C31.2808 9.00617 31.377 9.18651 31.4469 9.39514C31.5242 9.59569 31.5834 9.83596 31.6245 10.1159C31.4642 10.4499 31.3158 10.7912 31.1795 11.1399C31.0431 11.4886 30.9069 11.8413 30.7708 12.1978C30.5993 12.6572 30.4199 13.1168 30.2327 13.5768C30.053 14.0286 29.8493 14.4618 29.6214 14.8762C29.3936 15.2907 29.1334 15.675 28.8409 16.0292C28.5559 16.3753 28.2223 16.6723 27.8401 16.9201C27.73 16.9005 27.6359 16.8921 27.5578 16.8948C27.4719 16.8978 27.3981 16.9121 27.3365 16.9377C27.2827 16.963 27.233 16.9961 27.1875 17.0367C26.8622 16.8996 26.5969 16.6899 26.3917 16.4079C26.1861 16.118 25.9834 15.7967 25.7834 15.4441C25.7581 15.3903 25.729 15.3405 25.6961 15.2947C25.6708 15.2409 25.6416 15.1872 25.6084 15.1336L25.3966 14.7775L25.2718 14.5591L25.1131 14.7171L24.8749 14.9482L24.7393 15.0936C24.5052 15.3285 24.267 15.5596 24.0248 15.787C23.7823 16.0065 23.5276 16.2108 23.2606 16.3999C22.9933 16.5813 22.7054 16.732 22.3969 16.8522C22.0962 16.9722 21.7703 17.0422 21.4193 17.0623C21.3557 17.0332 21.2962 17.0079 21.2407 16.9864C21.1931 16.9646 21.1454 16.9428 21.0977 16.9211C20.9152 16.8414 20.764 16.7646 20.6441 16.6907C20.5243 16.6167 20.3834 16.5004 20.2215 16.3419ZM37.5643 9.96715C37.574 10.0215 37.5755 10.0645 37.5688 10.096C37.5696 10.1194 37.5665 10.143 37.5595 10.1667C37.5604 10.1901 37.5613 10.2174 37.5624 10.2486C37.5632 10.2721 37.5724 10.3108 37.5899 10.3649C37.4352 10.6361 37.2503 10.8263 37.0353 10.9354C36.8277 11.0365 36.5999 11.1148 36.3517 11.1704C36.1032 11.2181 35.847 11.2701 35.5832 11.3262C35.3272 11.382 35.0731 11.4925 34.8209 11.6577C34.718 11.6222 34.6243 11.6255 34.5398 11.6675C34.4631 11.7093 34.3464 11.7251 34.1897 11.7149C34.1444 11.7634 34.0871 11.8006 34.0177 11.8264C33.9479 11.8445 33.8783 11.8665 33.8089 11.8924C33.8426 11.9615 33.8569 12.0353 33.8518 12.1136C33.8543 12.1839 33.868 12.2421 33.8931 12.2881C34.1672 12.302 34.4676 12.2876 34.7945 12.2449C35.1291 12.2019 35.4563 12.171 35.7762 12.152C35.7854 12.1907 35.7824 12.2182 35.7673 12.2344C35.752 12.2427 35.7488 12.2624 35.7577 12.2933C35.8137 12.3305 35.8701 12.3793 35.9269 12.4399C35.9835 12.4926 36.0401 12.5454 36.0966 12.5981C36.1532 12.6508 36.2095 12.6958 36.2655 12.7329C36.3291 12.762 36.3997 12.7712 36.4775 12.7607C36.511 12.8221 36.5329 12.8916 36.5435 12.9694C36.5615 13.0392 36.5563 13.1136 36.5278 13.1928C36.4059 13.283 36.2841 13.3772 36.1624 13.4752C36.0405 13.5655 35.9105 13.6482 35.7724 13.7234C35.6422 13.7983 35.4998 13.8619 35.3452 13.9142C35.1983 13.9584 35.0309 13.9799 34.8433 13.9786C34.8042 13.98 34.773 13.9811 34.7496 13.9819C34.734 13.9824 34.7101 13.9715 34.6781 13.9492C34.617 13.9904 34.5276 14.0053 34.4099 13.9938C34.3001 13.982 34.2146 13.9967 34.1535 14.0379C34.0663 14.0018 33.9603 13.9899 33.8357 14.0021C33.7185 14.0062 33.6126 13.9942 33.5178 13.9663C33.3986 14.1346 33.2915 14.3142 33.1966 14.5052C33.1016 14.6961 33.0188 14.8983 32.9481 15.1119C33.2149 15.1416 33.4341 15.1496 33.6056 15.1358C33.7849 15.1217 33.9523 15.1041 34.1079 15.0831C34.2633 15.0542 34.4226 15.0291 34.5861 15.0078C34.7492 14.9786 34.9558 14.9636 35.206 14.9627C35.3591 14.8713 35.5407 14.8103 35.7507 14.7795C35.9682 14.7406 36.1657 14.6868 36.3431 14.6181C36.4063 14.6393 36.4625 14.6803 36.5115 14.7412C36.5603 14.7942 36.6051 14.8473 36.6461 14.9006C36.6946 14.9458 36.7429 14.9872 36.7911 15.0246C36.8393 15.062 36.8984 15.0755 36.9684 15.0653C37.0007 15.0954 37.0216 15.1338 37.0311 15.1803C37.0481 15.2188 37.0611 15.2575 37.0703 15.2962C37.0795 15.335 37.0924 15.3697 37.1091 15.4004C37.1334 15.423 37.1688 15.4296 37.2153 15.4202C37.1072 15.6819 36.9775 15.8858 36.8263 16.0318C36.6826 16.1697 36.5144 16.2772 36.3216 16.3543C36.1289 16.4313 35.9122 16.4936 35.6715 16.5411C35.4386 16.5883 35.1787 16.6443 34.8917 16.7091C34.822 16.7271 34.7633 16.7253 34.7156 16.7035C34.6682 16.6895 34.6133 16.6836 34.5509 16.6858C34.3726 16.7311 34.1592 16.7737 33.9104 16.8137C33.6616 16.8536 33.4083 16.8742 33.1504 16.8754C32.8924 16.8766 32.6453 16.85 32.4089 16.7958C32.1727 16.7493 31.9779 16.6545 31.8244 16.5113C31.76 16.4588 31.7149 16.3979 31.689 16.3284C31.6706 16.2509 31.6178 16.1941 31.5306 16.1581C31.5192 16.0568 31.4997 15.9442 31.4719 15.8201C31.4441 15.696 31.4162 15.5679 31.3881 15.436C31.3598 15.2963 31.3355 15.1604 31.3153 15.0282C31.3028 14.8957 31.3064 14.7744 31.326 14.6643C31.3453 14.5464 31.3885 14.4393 31.4555 14.3432C31.5303 14.2467 31.5541 14.1443 31.5268 14.0358C31.5656 14.0266 31.5883 14.0063 31.5951 13.9748C31.6015 13.9355 31.6322 13.9188 31.6871 13.9247C31.7291 13.7825 31.7752 13.648 31.8255 13.5212C31.8758 13.3943 31.9262 13.2714 31.9768 13.1524C32.0351 13.0331 32.0896 12.9139 32.1402 12.7949C32.1983 12.6678 32.252 12.5291 32.3015 12.3788C32.1887 12.2812 32.1029 12.1747 32.0441 12.0595C31.9929 11.9362 31.9536 11.8164 31.926 11.7001C31.8983 11.576 31.8744 11.4518 31.8544 11.3274C31.8341 11.1952 31.8022 11.0634 31.7585 10.9321C31.8325 10.8122 31.9229 10.7153 32.0298 10.6412C32.1442 10.559 32.2669 10.4922 32.398 10.4407C32.5291 10.3892 32.6722 10.3451 32.8272 10.3085C32.9823 10.2718 33.145 10.2309 33.3154 10.1859C33.6242 10.0735 33.8987 9.98572 34.1388 9.92261C34.3867 9.85923 34.6273 9.80783 34.8604 9.76842C35.1011 9.72093 35.3497 9.67707 35.6063 9.63685C35.8628 9.59662 36.154 9.53955 36.4797 9.46563C36.5525 9.53345 36.6201 9.56627 36.6825 9.56408C36.7113 9.49272 36.7457 9.47198 36.7859 9.50185C36.8335 9.52363 36.8522 9.49953 36.842 9.42953C36.9247 9.55954 37.0262 9.66934 37.1466 9.75894C37.2746 9.84047 37.4138 9.90987 37.5643 9.96715ZM40.7319 9.3406C40.7254 9.37991 40.7067 9.40401 40.6758 9.41291C40.6523 9.41373 40.6335 9.43393 40.6193 9.47351C40.591 9.56049 40.5734 9.61583 40.5664 9.63952C40.5592 9.65541 40.5518 9.66739 40.5442 9.67547C40.5364 9.67575 40.525 9.68396 40.5099 9.70012C40.5026 9.71601 40.4848 9.76354 40.4563 9.84271C40.4054 9.95393 40.3391 10.0696 40.2573 10.1897C40.183 10.3017 40.1361 10.4128 40.1165 10.5229C40.0105 10.6205 39.8781 10.7463 39.7193 10.9003C39.568 11.0463 39.4231 11.1491 39.2845 11.2087C39.2131 11.1799 39.0983 11.137 38.9399 11.08C38.7891 11.0149 38.6419 10.9419 38.4984 10.8609C38.3624 10.7718 38.2576 10.6817 38.1841 10.5904C38.1103 10.4914 38.1147 10.3935 38.1973 10.2968C38.3326 10.1436 38.4475 9.96367 38.5419 9.75712C38.6439 9.5425 38.7298 9.3167 38.7997 9.07974C38.8771 8.8347 38.9388 8.58631 38.9848 8.33455C39.0382 8.07471 39.0843 7.82686 39.123 7.59099C39.1553 7.62113 39.1869 7.63175 39.2179 7.62286C39.2564 7.60588 39.2869 7.58527 39.3095 7.56103C39.3397 7.52871 39.3658 7.49262 39.3878 7.45276C39.4177 7.41263 39.44 7.38058 39.4548 7.35661C39.503 7.39402 39.5827 7.43814 39.694 7.48897C39.813 7.53954 39.9359 7.58996 40.0627 7.64026C40.1893 7.68274 40.3079 7.72159 40.4186 7.75681C40.5293 7.79204 40.6082 7.81273 40.6553 7.8189C40.7542 7.96398 40.8097 8.09884 40.8218 8.22349C40.8337 8.34034 40.8576 8.46458 40.8935 8.59622C40.848 8.6369 40.823 8.70422 40.8185 8.79818C40.8137 8.88434 40.808 8.94707 40.8016 8.98639C40.796 9.04912 40.7817 9.0887 40.7588 9.10514C40.7435 9.11349 40.729 9.14527 40.7152 9.20047C40.708 9.21635 40.7088 9.23978 40.7177 9.27074C40.7344 9.30142 40.7391 9.32471 40.7319 9.3406ZM43.7306 14.2897C43.7266 14.3993 43.703 14.5057 43.6597 14.6088C43.6239 14.7039 43.5765 14.7993 43.5173 14.8952C43.4578 14.9833 43.3905 15.0716 43.3155 15.1602C43.2479 15.2408 43.1801 15.3135 43.112 15.3784C43.139 15.4791 43.1417 15.5572 43.1202 15.6126C43.1062 15.66 43.1049 15.7343 43.1162 15.8356C43.01 16.152 42.8377 16.3651 42.5992 16.4751C42.3688 16.5926 42.1456 16.5808 41.9296 16.4398C41.8415 16.3804 41.7646 16.3049 41.6989 16.2134C41.6407 16.1138 41.5604 16.0541 41.4581 16.0342C41.4769 15.9006 41.4605 15.7683 41.4091 15.6372C41.3576 15.5061 41.3044 15.4376 41.2494 15.4317C41.2203 15.2686 41.179 15.0941 41.1256 14.9084C41.0723 14.7226 41.0228 14.5367 40.9772 14.3507C40.9313 14.1569 40.8896 13.9707 40.8521 13.7922C40.8222 13.6057 40.8084 13.4342 40.8107 13.2777C40.8158 13.1994 40.7977 13.1297 40.7565 13.0686C40.7231 13.0072 40.6971 12.9338 40.6785 12.8485C40.641 12.67 40.6227 12.483 40.6237 12.2876C40.6322 12.084 40.6334 11.8925 40.6271 11.7129C40.6211 11.5411 40.603 11.358 40.5727 11.1637C40.55 10.9612 40.5277 10.7705 40.5059 10.5914C40.4837 10.4046 40.47 10.237 40.4648 10.0887C40.4594 9.9325 40.4747 9.8108 40.5107 9.72355C40.5543 9.62822 40.6142 9.55186 40.6903 9.49448C40.774 9.42902 40.8498 9.35993 40.9176 9.28721C41.0899 9.29682 41.229 9.36232 41.3349 9.4837C41.4408 9.60508 41.4839 9.72083 41.4643 9.83096C41.6318 9.92673 41.7652 10.055 41.8647 10.2157C41.9716 10.3683 42.056 10.5451 42.1177 10.7462C42.187 10.9392 42.2373 11.1485 42.2686 11.3741C42.2997 11.5919 42.3268 11.8099 42.3501 12.0279C42.3731 12.2382 42.3958 12.4407 42.4182 12.6353C42.4406 12.83 42.4777 12.9967 42.5295 13.1356C42.8039 12.7117 43.0331 12.3363 43.2171 12.0094C43.4009 11.6747 43.5891 11.3554 43.7817 11.0516C43.9744 10.7478 44.1903 10.4393 44.4295 10.1261C44.6687 9.81287 44.9807 9.45801 45.3656 9.06152C45.4439 9.06661 45.5069 9.08004 45.5546 9.10183C45.6101 9.12334 45.6576 9.14123 45.6972 9.15548C45.7368 9.16973 45.7842 9.18371 45.8394 9.19742C45.8943 9.20332 45.9683 9.19682 46.0615 9.17793C46.0954 9.25492 46.1209 9.31266 46.1379 9.35115C46.1546 9.38184 46.1675 9.41657 46.1767 9.45533C46.1934 9.48602 46.2105 9.52842 46.228 9.58252C46.2534 9.63636 46.2912 9.71321 46.3416 9.81308C46.3659 9.83568 46.3748 9.86664 46.3683 9.90595C46.3619 9.94526 46.3554 9.98457 46.349 10.0239C46.3501 10.0551 46.3509 10.0785 46.3514 10.0942C46.352 10.1098 46.3715 10.1091 46.41 10.0921C46.3904 10.2022 46.351 10.3052 46.2918 10.4011C46.2401 10.4889 46.2204 10.5951 46.2326 10.7198C46.0612 10.9603 45.8705 11.2093 45.6606 11.4668C45.4586 11.724 45.2528 11.9891 45.0435 12.2622C44.842 12.535 44.6488 12.8232 44.4639 13.1267C44.2788 13.4224 44.1216 13.7328 43.9922 14.0578C43.9532 14.0592 43.9224 14.072 43.8998 14.0962C43.885 14.1202 43.8703 14.1481 43.8558 14.1798C43.841 14.2038 43.8223 14.2279 43.7997 14.2521C43.7849 14.2761 43.7619 14.2886 43.7306 14.2897ZM52.0281 9.46206C52.0379 9.51644 52.0394 9.55939 52.0326 9.59089C52.0335 9.61431 52.0304 9.63787 52.0234 9.66157C52.0242 9.68499 52.0252 9.71232 52.0262 9.74355C52.0271 9.76697 52.0362 9.80574 52.0538 9.85985C51.8991 10.131 51.7142 10.3212 51.4991 10.4303C51.2916 10.5314 51.0637 10.6097 50.8155 10.6653C50.567 10.713 50.3109 10.765 50.047 10.8211C49.791 10.8769 49.5369 10.9874 49.2847 11.1526C49.1818 11.1171 49.0881 11.1204 49.0036 11.1624C48.9269 11.2042 48.8102 11.22 48.6535 11.2098C48.6083 11.2583 48.551 11.2955 48.4815 11.3213C48.4118 11.3394 48.3422 11.3614 48.2727 11.3873C48.3064 11.4564 48.3207 11.5302 48.3156 11.6086C48.3181 11.6788 48.3319 11.737 48.3569 11.783C48.631 11.7969 48.9315 11.7825 49.2583 11.7398C49.5929 11.6968 49.9202 11.6659 50.24 11.6469C50.2492 11.6857 50.2462 11.7131 50.2312 11.7293C50.2158 11.7376 50.2126 11.7573 50.2215 11.7882C50.2775 11.8254 50.334 11.8742 50.3908 11.9348C50.4474 11.9875 50.5039 12.0403 50.5605 12.093C50.617 12.1458 50.6733 12.1907 50.7293 12.2278C50.7929 12.2569 50.8636 12.2661 50.9414 12.2556C50.9748 12.317 50.9968 12.3866 51.0073 12.4644C51.0254 12.5341 51.0202 12.6085 50.9917 12.6877C50.8697 12.7779 50.7479 12.8721 50.6263 12.9702C50.5044 13.0604 50.3744 13.1431 50.2363 13.2183C50.106 13.2932 49.9636 13.3568 49.8091 13.4091C49.6621 13.4533 49.4948 13.4748 49.3071 13.4735C49.2681 13.4749 49.2368 13.476 49.2134 13.4768C49.1978 13.4773 49.174 13.4665 49.1419 13.4441C49.0808 13.4853 48.9914 13.5002 48.8738 13.4887C48.7639 13.4769 48.6785 13.4916 48.6174 13.5328C48.5301 13.4968 48.4242 13.4848 48.2995 13.497C48.1824 13.5011 48.0764 13.4891 47.9817 13.4612C47.8625 13.6295 47.7554 13.8091 47.6604 14.0001C47.5655 14.191 47.4826 14.3932 47.4119 14.6068C47.6787 14.6365 47.8979 14.6445 48.0694 14.6307C48.2487 14.6166 48.4162 14.5991 48.5718 14.578C48.7271 14.5491 48.8865 14.524 49.0499 14.5027C49.213 14.4735 49.4197 14.4585 49.6698 14.4576C49.823 14.3662 50.0045 14.3052 50.2145 14.2744C50.432 14.2355 50.6295 14.1817 50.8069 14.113C50.8702 14.1342 50.9263 14.1753 50.9754 14.2361C51.0241 14.2891 51.069 14.3423 51.1099 14.3955C51.1584 14.4408 51.2067 14.4821 51.255 14.5195C51.3032 14.5569 51.3623 14.5704 51.4323 14.5602C51.4646 14.5903 51.4855 14.6287 51.4949 14.6753C51.5119 14.7137 51.525 14.7524 51.5341 14.7911C51.5433 14.8299 51.5562 14.8646 51.573 14.8953C51.5972 14.9179 51.6326 14.9245 51.6792 14.9151C51.5711 15.1768 51.4414 15.3807 51.2901 15.5267C51.1464 15.6646 50.9782 15.7721 50.7855 15.8492C50.5927 15.9263 50.376 15.9885 50.1353 16.036C49.9025 16.0832 49.6425 16.1392 49.3556 16.204C49.2858 16.222 49.2271 16.2202 49.1795 16.1984C49.1321 16.1844 49.0772 16.1785 49.0147 16.1807C48.8365 16.226 48.623 16.2686 48.3742 16.3086C48.1255 16.3486 47.8721 16.3691 47.6142 16.3703C47.3563 16.3715 47.1091 16.345 46.8727 16.2907C46.6366 16.2442 46.4417 16.1494 46.2882 16.0062C46.2238 15.9537 46.1787 15.8928 46.1528 15.8233C46.1345 15.7458 46.0817 15.689 45.9944 15.653C45.9831 15.5517 45.9635 15.4391 45.9357 15.315C45.9079 15.1909 45.88 15.0629 45.852 14.9309C45.8236 14.7912 45.7993 14.6553 45.7791 14.5231C45.7666 14.3906 45.7702 14.2693 45.7898 14.1592C45.8092 14.0413 45.8523 13.9342 45.9193 13.8381C45.9941 13.7417 46.0179 13.6392 45.9907 13.5307C46.0294 13.5215 46.0522 13.5012 46.0589 13.4697C46.0653 13.4304 46.096 13.4137 46.151 13.4196C46.1929 13.2774 46.239 13.1429 46.2893 13.0161C46.3396 12.8892 46.39 12.7663 46.4406 12.6473C46.499 12.528 46.5534 12.4088 46.604 12.2898C46.6621 12.1627 46.7159 12.024 46.7654 11.8738C46.6525 11.7761 46.5667 11.6696 46.508 11.5544C46.4568 11.4311 46.4174 11.3113 46.3899 11.195C46.3621 11.0709 46.3382 10.9467 46.3182 10.8223C46.298 10.6901 46.266 10.5584 46.2223 10.427C46.2963 10.3071 46.3868 10.2102 46.4936 10.1361C46.608 10.0539 46.7307 9.9871 46.8618 9.93562C46.9929 9.88414 47.136 9.84006 47.2911 9.80337C47.4461 9.76669 47.6089 9.72583 47.7793 9.68079C48.0881 9.56838 48.3625 9.48063 48.6026 9.41752C48.8506 9.35414 49.0911 9.30275 49.3243 9.26334C49.5649 9.21584 49.8135 9.17199 50.0701 9.13176C50.3267 9.09153 50.6178 9.03446 50.9436 8.96054C51.0163 9.02836 51.0839 9.06118 51.1464 9.059C51.1751 8.98764 51.2096 8.96689 51.2497 8.99676C51.2974 9.01854 51.3161 8.99444 51.3058 8.92444C51.3885 9.05445 51.4901 9.16425 51.6105 9.25385C51.7384 9.33538 51.8776 9.40478 52.0281 9.46206ZM64.6459 13.5125C64.4703 13.8547 64.2335 14.1249 63.9355 14.3229C63.6373 14.5131 63.3069 14.6771 62.9443 14.8148C62.5814 14.9448 62.1986 15.0637 61.7959 15.1715C61.4009 15.2791 61.0187 15.4136 60.6491 15.5751C60.5398 15.5789 60.4423 15.5862 60.3567 15.597C60.2789 15.6075 60.2012 15.622 60.1237 15.6403C60.0537 15.6506 59.9838 15.6648 59.9141 15.6828C59.8441 15.6931 59.7663 15.7036 59.6807 15.7144C59.6492 15.7077 59.6299 15.7162 59.623 15.7399C59.6157 15.7558 59.6045 15.7718 59.5895 15.788C59.4575 15.816 59.3369 15.832 59.2276 15.8358C59.1261 15.8393 59.0402 15.8423 58.97 15.8448C58.8763 15.848 58.7791 15.8632 58.6784 15.8901C58.5858 15.9246 58.5003 15.9393 58.422 15.9343C57.8353 15.9235 57.3674 15.7327 57.0183 15.3618C56.6768 14.9829 56.4745 14.4506 56.4114 13.7648C56.4179 13.7255 56.4093 13.7024 56.3856 13.6954C56.3697 13.6881 56.3537 13.677 56.3375 13.6619C56.3348 13.5838 56.3403 13.5172 56.354 13.462C56.3755 13.4065 56.3769 13.3361 56.3583 13.2507C56.5463 12.8142 56.7627 12.408 57.0076 12.032C57.2522 11.6483 57.5491 11.3096 57.8985 11.0159C57.9515 10.9672 57.9967 10.9187 58.0341 10.8705C58.0715 10.8223 58.105 10.7742 58.1346 10.7263C58.172 10.6781 58.2136 10.6375 58.2593 10.6047C58.3048 10.564 58.3624 10.5346 58.4321 10.5166C58.5895 10.3234 58.7787 10.1449 58.9997 9.98079C59.2207 9.81673 59.4536 9.66007 59.6986 9.5108C59.9432 9.35373 60.1841 9.2007 60.4213 9.05171C60.6659 8.89464 60.8866 8.72277 61.0834 8.5361C61.1706 8.57214 61.2335 8.58167 61.272 8.56469C61.3105 8.54771 61.3534 8.54621 61.4008 8.56019C61.4596 8.6754 61.5366 8.75479 61.6319 8.79836C61.7351 8.84167 61.8344 8.88901 61.93 8.94039C62.0332 8.98369 62.1289 9.03898 62.2172 9.10625C62.3056 9.17352 62.3752 9.2649 62.4262 9.38038C62.3793 9.38201 62.3566 9.40235 62.3579 9.44139C62.3668 9.47235 62.3798 9.50707 62.3968 9.54557C62.4135 9.57625 62.4186 9.61125 62.4121 9.65056C62.4132 9.68179 62.3865 9.69836 62.3318 9.70027C62.341 9.73904 62.3652 9.76164 62.4045 9.76809C62.4514 9.76645 62.4755 9.78515 62.4768 9.82419C62.4782 9.86323 62.4676 9.89487 62.445 9.91911C62.4302 9.94308 62.4315 9.98212 62.4491 10.0362C62.2965 10.1432 62.1242 10.2469 61.9323 10.3474C61.7482 10.4477 61.5526 10.5561 61.3456 10.6728C61.1461 10.7814 60.9354 10.9021 60.7133 11.0349C60.4988 11.1597 60.2889 11.3038 60.0835 11.4673C59.8781 11.6308 59.6696 11.814 59.4578 12.0168C59.2457 12.2118 59.0418 12.4183 58.8462 12.6362C58.6506 12.8541 58.4669 13.0794 58.2952 13.3121C58.1233 13.537 57.9787 13.7609 57.8614 13.9839C57.8784 14.0224 57.8951 14.0531 57.9115 14.076C57.9355 14.0907 57.9559 14.1174 57.9729 14.1559C58.2233 14.1628 58.4536 14.1547 58.6639 14.1318C58.8817 14.1007 59.1007 14.1048 59.321 14.144C59.3439 14.1276 59.3587 14.1036 59.3654 14.0721C59.3721 14.0406 59.3908 14.0165 59.4215 13.9998C59.8649 13.9374 60.2762 13.8527 60.6556 13.7456C61.0346 13.6307 61.4213 13.5117 61.8157 13.3885C61.7524 13.3673 61.6932 13.3498 61.638 13.3361C61.5903 13.3143 61.5428 13.2964 61.4954 13.2824C61.455 13.2447 61.4539 13.2135 61.4921 13.1887C61.5379 13.1559 61.5758 13.1233 61.6059 13.0909C61.4944 13.0323 61.4019 12.9574 61.3284 12.8661C61.2627 12.7746 61.2193 12.6511 61.1982 12.4954C61.2437 12.4548 61.2655 12.4071 61.2636 12.3524C61.2616 12.2978 61.2367 12.2557 61.1888 12.2261C61.1573 12.2194 61.1378 12.22 61.1302 12.2281C61.1227 12.2362 61.1153 12.2482 61.108 12.2641C61.1086 12.2797 61.1052 12.2954 61.098 12.3113C61.0904 12.3194 61.0708 12.3162 61.039 12.3017C61.0443 12.2311 61.0579 12.172 61.0797 12.1244C61.1093 12.0764 61.1308 12.0209 61.1442 11.9579L61.9335 11.391C62.0216 11.4504 62.1295 11.517 62.2571 11.5907C62.3845 11.6567 62.5159 11.7263 62.6514 11.7998C62.7944 11.8651 62.9375 11.9344 63.0807 12.0076C63.2315 12.0727 63.3706 12.1382 63.498 12.2041C63.609 12.2471 63.7087 12.3061 63.7973 12.3812C63.886 12.4563 63.9708 12.5354 64.0519 12.6186C64.1327 12.6939 64.2135 12.7693 64.2943 12.8446C64.3829 12.9197 64.4828 12.9827 64.594 13.0335C64.582 13.1356 64.5887 13.2174 64.6143 13.279C64.6399 13.3407 64.6505 13.4185 64.6459 13.5125ZM70.9446 11.8854C70.94 11.9794 70.951 12.0689 70.9774 12.1539C71.0038 12.239 71.0341 12.3239 71.0684 12.4087C71.1101 12.4855 71.1481 12.5662 71.1824 12.651C71.2166 12.7358 71.243 12.8209 71.2616 12.9062C71.2811 13.015 71.2853 13.136 71.2743 13.2693C71.263 13.3947 71.2401 13.5206 71.2054 13.6469C71.1705 13.7654 71.1235 13.8765 71.0646 13.9801C71.0054 14.076 70.9337 14.1489 70.8494 14.1987C70.745 14.3431 70.6161 14.457 70.4627 14.5405C70.3093 14.6241 70.1681 14.7228 70.0392 14.8368C69.9552 14.8944 69.859 14.9369 69.7505 14.9641C69.6498 14.9911 69.5452 15.0182 69.4367 15.0454C69.3525 15.0953 69.2528 15.1496 69.1375 15.2083C69.0221 15.2592 68.9027 15.3103 68.7794 15.3615C68.6558 15.4049 68.532 15.4405 68.4079 15.4683C68.2835 15.4883 68.1743 15.496 68.0804 15.4915C67.8491 15.5855 67.6207 15.6482 67.3951 15.6795C67.1776 15.7184 66.9194 15.7118 66.6205 15.6597C66.3408 15.7085 66.0788 15.706 65.8346 15.652C65.5982 15.5977 65.384 15.5074 65.192 15.3813C65.0075 15.247 64.8417 15.0886 64.6946 14.9061C64.5551 14.7156 64.4387 14.5164 64.3454 14.3086C64.2674 13.8657 64.269 13.4631 64.3501 13.1007C64.431 12.7304 64.552 12.39 64.7132 12.0795C64.8818 11.761 65.0749 11.4689 65.2923 11.2033C65.5095 10.93 65.7191 10.6647 65.9212 10.4075C65.9686 10.4214 66.0037 10.4202 66.0266 10.4038C66.057 10.3793 66.0834 10.351 66.1057 10.3189C66.1277 10.2791 66.1499 10.2431 66.1723 10.2111C66.2024 10.1788 66.2369 10.158 66.2756 10.1488C66.3262 10.0298 66.4013 9.94121 66.5009 9.88301C66.608 9.81673 66.6909 9.72784 66.7495 9.61635C66.8193 9.59829 66.877 9.57282 66.9228 9.53995C66.9685 9.50708 67.0102 9.47045 67.0479 9.43005C67.0934 9.38937 67.139 9.3526 67.1848 9.31974C67.2302 9.27906 67.2839 9.24982 67.3459 9.23203L67.3414 9.1032C67.4797 9.03583 67.5788 8.96202 67.6385 8.88176C67.7058 8.79342 67.7842 8.68906 67.8738 8.56867C67.9438 8.55841 67.9983 8.55259 68.0374 8.55123C68.0842 8.54959 68.1503 8.53947 68.2356 8.52085C68.2943 8.40936 68.3461 8.32547 68.391 8.26918C68.4438 8.21262 68.5198 8.15134 68.6191 8.08533C68.7144 8.12891 68.817 8.15659 68.9269 8.16839C69.0445 8.17992 69.1478 8.22712 69.2367 8.31001C69.2472 8.38781 69.2728 8.44946 69.3135 8.49494C69.3539 8.53262 69.3982 8.57015 69.4464 8.60756C69.4944 8.63715 69.5385 8.67079 69.5789 8.70846C69.6272 8.74587 69.6603 8.79943 69.6784 8.86915C69.7099 8.87587 69.7292 8.87129 69.7365 8.8554C69.7516 8.83924 69.7749 8.83451 69.8064 8.84123C69.8336 8.94972 69.8635 9.02294 69.8961 9.06089C69.9284 9.09103 69.962 9.15631 69.9968 9.25672C69.9605 9.33616 69.9321 9.41923 69.9117 9.50593C69.8988 9.58455 69.854 9.64475 69.7773 9.68651C69.7714 9.74144 69.7881 9.77213 69.8274 9.77857C69.8664 9.77721 69.8905 9.79591 69.8997 9.83467C69.91 9.90467 69.9 9.95583 69.8699 9.98815C70.0679 10.2861 70.2471 10.6043 70.4074 10.9426C70.5675 11.2732 70.7465 11.5874 70.9446 11.8854ZM69.5195 13.0491C69.5477 12.9621 69.5843 12.8905 69.6292 12.8342C69.682 12.7777 69.7103 12.6946 69.7143 12.585C69.6731 12.5239 69.648 12.4779 69.6391 12.4469C69.63 12.4082 69.624 12.3497 69.6213 12.2717C69.4411 12.0356 69.2837 11.7831 69.1493 11.5142C69.0145 11.2375 68.8648 10.9809 68.7002 10.7443C68.6857 10.7761 68.6595 10.8082 68.6215 10.8408C68.5836 10.8734 68.5404 10.8671 68.4919 10.8219C68.4784 10.8849 68.4528 10.9327 68.4148 10.9653C68.3766 10.9901 68.3341 11.0033 68.2872 11.0049C68.2401 10.9988 68.1889 10.9888 68.1337 10.9751C68.0861 10.9533 68.0422 10.9275 68.002 10.8976C67.7819 11.0851 67.5616 11.2687 67.3412 11.4484C67.1207 11.6281 66.9247 11.8342 66.753 12.0669C66.7223 12.0837 66.7031 12.0921 66.6953 12.0924C66.6872 12.0849 66.6639 12.0896 66.6254 12.1066C66.5681 12.2571 66.4948 12.3965 66.4055 12.5247C66.3237 12.6448 66.2421 12.7688 66.1605 12.8967C66.079 13.0246 66.0095 13.16 65.9519 13.3027C65.8944 13.4454 65.865 13.6106 65.8637 13.7983C66.0002 13.9029 66.1587 13.9638 66.3391 13.981C66.5195 13.9981 66.7031 13.9956 66.89 13.9735C67.0846 13.9511 67.2712 13.9211 67.4497 13.8836C67.6357 13.838 67.8068 13.8125 67.9629 13.807C68.2881 13.7175 68.5657 13.6062 68.7955 13.4731C69.0251 13.3322 69.2664 13.1908 69.5195 13.0491ZM77.6516 9.5288C77.4564 9.53561 77.2461 9.55859 77.0208 9.59773C76.7952 9.62906 76.5736 9.66415 76.3561 9.70302C76.2007 9.7319 76.0492 9.75673 75.9014 9.77753C75.7614 9.79805 75.6329 9.81426 75.5161 9.82616C75.4674 9.99984 75.4181 10.154 75.3681 10.2886C75.3181 10.4233 75.264 10.5542 75.2059 10.6813C75.1481 10.8162 75.0943 10.9548 75.0445 11.0973C75.0023 11.2317 74.9605 11.3777 74.9191 11.5355C74.8454 11.6632 74.7832 11.7826 74.7323 11.8938C74.689 11.997 74.6541 12.1155 74.6275 12.2493C74.5379 12.3697 74.472 12.497 74.4297 12.6314C74.3873 12.758 74.3559 12.8685 74.3358 12.963L74.2939 13.1052C74.2486 13.1537 74.2227 13.1937 74.216 13.2252C74.209 13.2489 74.1903 13.273 74.1599 13.2975C74.155 13.3836 74.1307 13.4705 74.0869 13.558C74.0726 13.5976 74.0623 13.637 74.0558 13.6763C74.0491 13.7078 74.046 13.7314 74.0466 13.747C74.0493 13.8251 74.0316 13.8765 73.9933 13.9013C74.0025 13.9401 74.004 13.983 73.9978 14.0301C73.9914 14.0695 73.9849 14.1088 73.9785 14.1481C73.9583 14.2426 73.9531 14.317 73.9628 14.3714C73.9874 14.4018 74.0078 14.4285 74.0243 14.4514C74.0485 14.474 74.0652 14.5046 74.0744 14.5434C74.1223 14.573 74.1581 14.5913 74.1818 14.5983C74.2139 14.6206 74.2617 14.6463 74.3252 14.6754L74.4347 14.7888C74.4817 15.0139 74.4528 15.1947 74.3481 15.3312C74.2362 15.4836 74.0397 15.5648 73.7586 15.5746L73.6181 15.5795C73.5777 15.5418 73.5532 15.5114 73.5445 15.4883C73.4813 15.467 73.4298 15.4493 73.3902 15.435C73.3507 15.4208 73.3144 15.3908 73.2816 15.345C73.1784 15.3017 73.0951 15.2655 73.0315 15.2365L72.9241 15.1816C72.9211 15.0957 72.9194 15.0489 72.9192 15.0411C72.8621 14.9727 72.8164 14.8961 72.7822 14.8113C72.7557 14.7263 72.7332 14.6411 72.7146 14.5557C72.6965 14.486 72.6747 14.4203 72.6491 14.3587C72.6313 14.2967 72.606 14.2429 72.5731 14.1972C72.5417 13.7449 72.5713 13.3608 72.6618 13.0449C72.7524 12.7291 72.8474 12.4248 72.9466 12.1321C73.0036 11.9737 73.0606 11.8154 73.1176 11.6571C73.1743 11.4909 73.2231 11.3212 73.264 11.1477L73.3653 11.027C73.4156 10.9001 73.455 10.7971 73.4835 10.718C73.5195 10.6307 73.5556 10.5435 73.5916 10.4562C73.6131 10.4007 73.6309 10.3493 73.6448 10.3019C73.6664 10.2464 73.6842 10.1989 73.6985 10.1593C73.6516 10.161 73.6088 10.1664 73.5701 10.1755C73.531 10.1769 73.4921 10.1822 73.4534 10.1913C73.4068 10.2008 73.3641 10.2101 73.3254 10.2193C73.2863 10.2206 73.2473 10.222 73.2082 10.2234C73.1536 10.2253 73.1144 10.2227 73.0907 10.2157C73.0062 10.2578 72.9132 10.2806 72.8117 10.2841L72.6946 10.2882C72.6711 10.289 72.6477 10.2898 72.6243 10.2906C72.6084 10.2834 72.5927 10.28 72.577 10.2806C72.499 10.2833 72.4369 10.2972 72.3909 10.3222C72.2972 10.3255 72.2074 10.3287 72.1215 10.3317L72.0044 10.3357C71.9888 10.3363 71.9694 10.3409 71.9463 10.3495C71.9228 10.3503 71.9033 10.351 71.8877 10.3515C71.833 10.3535 71.7743 10.3516 71.7116 10.346C71.6486 10.3325 71.5813 10.3075 71.5096 10.2709C71.4116 10.1493 71.3468 10.0851 71.3153 10.0784L71.205 9.94153C71.1956 9.89495 71.1823 9.85242 71.1654 9.81393C71.1481 9.76763 71.1307 9.71742 71.1132 9.66331C71.0792 9.58633 71.0452 9.50543 71.0109 9.42064C70.9842 9.32777 70.9687 9.21887 70.9643 9.09394C70.97 9.03121 70.9839 8.98382 71.0063 8.95177C71.0286 8.91972 71.0472 8.89171 71.062 8.86774L71.091 8.69084L71.2436 8.69723L71.5716 8.68578C71.8214 8.67706 72.0749 8.66039 72.332 8.63578C72.5888 8.60336 72.8535 8.57066 73.1259 8.5377C73.2815 8.51663 73.4371 8.49556 73.5928 8.47449C73.7562 8.45315 73.9235 8.43167 74.0947 8.41006C74.1235 8.3387 74.1524 8.27124 74.1815 8.20769L74.2965 8.14504C74.4368 8.13233 74.5351 8.14844 74.5914 8.19337C74.6552 8.23023 74.7073 8.2675 74.7477 8.30517C74.9189 8.28356 75.0902 8.26195 75.2614 8.24033C75.4401 8.21064 75.6188 8.17704 75.7973 8.13954C76.0614 8.09123 76.3256 8.04682 76.59 8.00632C76.8621 7.96555 77.1232 7.9408 77.373 7.93207C77.4823 7.92826 77.5879 7.92848 77.6896 7.93274C77.7914 7.93701 77.8855 7.94545 77.9719 7.95806L78.0919 8.03596C78.117 8.08198 78.1497 8.12384 78.1901 8.16151C78.2383 8.19891 78.2865 8.23632 78.3347 8.27372C78.4314 8.35633 78.5287 8.45456 78.6264 8.56841C78.7242 8.68225 78.7654 8.85279 78.7498 9.08004C78.6907 9.17591 78.6457 9.2322 78.615 9.24891L78.5145 9.39313L78.397 9.3855C78.3502 9.38714 78.3075 9.39645 78.269 9.41343C78.2302 9.4226 78.1916 9.43567 78.1531 9.45265C78.1224 9.46936 78.0917 9.48606 78.0611 9.50277C78.0301 9.51167 77.9952 9.5207 77.9565 9.52987C77.8862 9.53233 77.8276 9.53437 77.7808 9.53601C77.7415 9.52956 77.6984 9.52716 77.6516 9.5288Z" fill="white"/>
<path d="M15.827 28.6747C15.4944 28.5534 15.2146 28.3755 14.9875 28.1411C14.7683 27.9065 14.5866 27.6275 14.4424 27.3042C14.5131 27.0907 14.6319 26.9106 14.7988 26.7641C14.9653 26.6097 15.1523 26.4781 15.3595 26.3693C15.5746 26.2601 15.8021 26.1701 16.0419 26.0992C16.2818 26.0283 16.5141 25.9654 16.7389 25.9107C16.7863 25.9247 16.8097 25.9239 16.8092 25.9082C16.8086 25.8926 16.8284 25.8997 16.8685 25.9296C17.1466 25.8339 17.4678 25.7406 17.832 25.6497C18.196 25.551 18.5853 25.5062 18.9999 25.5151C19.0535 25.482 19.1193 25.4641 19.1974 25.4613C19.2752 25.4508 19.357 25.444 19.4429 25.441C19.5288 25.438 19.6108 25.4352 19.6889 25.4324C19.7667 25.4219 19.8325 25.404 19.8863 25.3786C19.9351 25.4317 20.0066 25.4643 20.1008 25.4767C20.1948 25.4812 20.2937 25.5169 20.3977 25.5836C20.4292 25.5903 20.4288 25.5786 20.3965 25.5484C20.3639 25.5105 20.3668 25.483 20.4053 25.4661C20.5068 25.4625 20.5974 25.4828 20.6771 25.5269C20.7568 25.571 20.829 25.6232 20.8937 25.6835C20.9658 25.7357 21.0301 25.7843 21.0864 25.8292C21.1505 25.8739 21.2176 25.895 21.2879 25.8925C21.3612 25.976 21.446 26.0551 21.5424 26.1299C21.6464 26.1966 21.7427 26.2675 21.8313 26.3426C21.9277 26.4174 22.0049 26.5007 22.0628 26.5925C22.1285 26.684 22.1635 26.7883 22.1675 26.9054C22.1614 26.9526 22.1779 26.9793 22.2173 26.9858C22.2566 26.9922 22.2847 27.0147 22.3017 27.0532C22.3196 27.3418 22.2815 27.5933 22.1873 27.8076C22.101 28.0217 21.9868 28.2211 21.8447 28.4059C21.7024 28.5828 21.548 28.7524 21.3817 28.9145C21.2232 29.0764 21.0768 29.2496 20.9426 29.4341C21.0403 29.5479 21.1496 29.6536 21.2702 29.751C21.3984 29.8403 21.5266 29.9296 21.6548 30.019C21.783 30.1083 21.9037 30.2057 22.0168 30.3112C22.1374 30.4086 22.2391 30.5223 22.3218 30.6523C22.3469 30.6984 22.3987 30.7278 22.4774 30.7407C22.5041 30.8336 22.5387 30.9301 22.5813 31.0302C22.6314 31.1223 22.6776 31.2145 22.7199 31.3068C22.762 31.3913 22.7881 31.4686 22.7984 31.5386C22.8086 31.6086 22.7912 31.6678 22.746 31.7163C22.8017 31.7456 22.8347 31.7953 22.845 31.8653C22.855 31.9275 22.8567 31.9782 22.8503 32.0175C22.6859 32.2343 22.5739 32.3868 22.5145 32.4748C22.455 32.5629 22.4103 32.627 22.3805 32.6671C22.3506 32.7073 22.3206 32.7435 22.2905 32.7758C22.2603 32.8081 22.1922 32.873 22.0862 32.9706C21.6811 33.2349 21.2557 33.4764 20.8099 33.6952C20.3717 33.906 19.9118 34.0549 19.4302 34.1421C19.393 34.1981 19.336 34.2431 19.259 34.2771C19.1901 34.3185 19.1092 34.3526 19.0163 34.3793C18.9234 34.406 18.8226 34.4291 18.7139 34.4485C18.6129 34.4677 18.5197 34.4866 18.4344 34.5052C18.3948 34.4909 18.3704 34.4644 18.3613 34.4257C18.3602 34.3944 18.3398 34.3717 18.3003 34.3574C18.2957 34.4514 18.2544 34.4997 18.1763 34.5025C18.1063 34.5127 18.016 34.5003 17.9053 34.465C17.7947 34.4298 17.6795 34.3791 17.56 34.3129C17.4404 34.2468 17.3366 34.1839 17.2485 34.1245C17.2119 34.1961 17.1638 34.272 17.104 34.3523C17.0521 34.4323 16.9955 34.489 16.9341 34.5224C16.8242 34.5106 16.7419 34.5018 16.6869 34.4959C16.6398 34.4897 16.5936 34.5108 16.5484 34.5593C16.4849 34.5303 16.4368 34.4968 16.4042 34.4588C16.3719 34.4287 16.3394 34.3946 16.3068 34.3567C16.2745 34.3266 16.2384 34.3005 16.1986 34.2784C16.1584 34.2485 16.0989 34.2232 16.02 34.2025C16.0343 34.163 16.0205 34.1048 15.9788 34.0281C15.9367 33.9436 15.8803 33.8947 15.8095 33.8816C15.8463 33.8178 15.828 33.7402 15.7545 33.649C15.6806 33.5499 15.622 33.4386 15.5786 33.3151C15.5845 33.2601 15.5865 33.2054 15.5846 33.1507C15.5902 33.088 15.5961 33.033 15.6023 32.9859C15.616 32.9307 15.6339 32.8832 15.656 32.8433C15.678 32.8035 15.7161 32.7748 15.7702 32.7573C15.7589 32.656 15.7242 32.5595 15.6663 32.4677C15.7347 32.4106 15.7792 32.3426 15.7999 32.2637C15.8203 32.177 15.8368 32.0905 15.8495 32.004C15.8699 31.9173 15.8943 31.8344 15.9228 31.7552C15.9511 31.6683 15.9994 31.5962 16.0677 31.5391C16.0513 31.5162 16.035 31.4973 16.0188 31.4822C16.0027 31.4671 15.9939 31.4401 15.9926 31.401C16.1029 31.2017 16.1791 31.0349 16.2213 30.9005C16.2633 30.7584 16.2938 30.6244 16.3128 30.4987C16.3394 30.3648 16.3657 30.2232 16.3918 30.0738C16.4178 29.9243 16.4738 29.7348 16.5595 29.5051C16.5468 29.3648 16.5581 29.2393 16.5933 29.1287C16.6285 29.018 16.6639 28.9112 16.6994 28.8084C16.7424 28.6974 16.7736 28.583 16.7929 28.465C16.8123 28.3471 16.8036 28.2106 16.7669 28.0556C16.6347 28.0758 16.5387 28.1261 16.479 28.2063C16.4271 28.2863 16.3956 28.3929 16.3847 28.5262C16.3166 28.5911 16.2279 28.6255 16.1186 28.6293C16.009 28.6253 15.9118 28.6404 15.827 28.6747ZM21.059 30.7551C20.7566 30.6015 20.4799 30.5134 20.229 30.4909C19.9859 30.4681 19.7518 30.4802 19.5267 30.5271C19.3092 30.566 19.1 30.6202 18.8992 30.6898C18.6984 30.7593 18.497 30.8133 18.2951 30.8516C18.2029 31.1206 18.1077 31.4171 18.0096 31.741C17.9114 32.0649 17.8169 32.3809 17.7261 32.689C18.0058 32.6401 18.2614 32.5726 18.4929 32.4863C18.7244 32.4 18.9478 32.3062 19.1632 32.2049C19.3782 32.0958 19.5895 31.9907 19.7971 31.8896C20.0043 31.7808 20.2197 31.6794 20.4431 31.5857C20.4633 31.4911 20.5114 31.4152 20.5876 31.3578C20.6638 31.3004 20.7401 31.247 20.8165 31.1974C20.8927 31.14 20.957 31.0791 21.0095 31.0148C21.0619 30.9504 21.0785 30.8638 21.059 30.7551ZM20.1112 27.118C19.6266 27.1192 19.1518 27.1788 18.6869 27.2967C18.222 27.4145 17.8329 27.5767 17.5196 27.783C17.6804 27.9103 17.8445 28.0218 18.012 28.1176C18.1873 28.2131 18.3209 28.3452 18.4128 28.514C18.7824 28.3526 19.1038 28.1537 19.377 27.9175C19.6498 27.6735 19.8946 27.4069 20.1112 27.118ZM22.8924 34.2323C22.7807 34.1658 22.6917 34.079 22.6254 33.9719C22.5513 33.865 22.4925 33.7498 22.4491 33.6263C22.3979 33.503 22.3583 33.3754 22.3302 33.2435C22.2941 33.104 22.2582 32.9724 22.2226 32.8485C22.2188 32.7392 22.2395 32.6603 22.2847 32.6118C22.3297 32.5556 22.3787 32.503 22.4317 32.4543C22.6188 32.4399 22.7861 32.4185 22.9336 32.3898C23.0812 32.3612 23.2248 32.3328 23.3645 32.3044C23.5042 32.2761 23.6441 32.2517 23.7841 32.2312C23.9238 32.2028 24.0756 32.1858 24.2396 32.1801C24.3483 31.934 24.4495 31.6998 24.5434 31.4776C24.637 31.2477 24.7271 31.0296 24.8137 30.8233C24.8537 30.6265 24.906 30.4448 24.9706 30.2784C25.0426 30.1039 25.1112 29.9413 25.1763 29.7905C25.2411 29.6319 25.2983 29.4774 25.3478 29.3272C25.397 29.1691 25.4264 29.0039 25.436 28.8316C25.5201 28.5551 25.5934 28.3023 25.6557 28.0735C25.7256 27.8365 25.7745 27.5573 25.8024 27.2358C25.5073 27.293 25.2708 27.3482 25.0929 27.4013C24.9147 27.4466 24.7872 27.4901 24.7105 27.5319C24.5541 27.5296 24.4281 27.5027 24.3324 27.4513C24.2447 27.3996 24.1721 27.3357 24.1147 27.2596C24.0573 27.1834 24.0073 27.0952 23.9647 26.9951C23.9222 26.895 23.8716 26.7912 23.8132 26.6838C23.8419 26.6124 23.8462 26.5107 23.8259 26.3785C23.8054 26.2385 23.755 26.1386 23.6748 26.0789C23.7367 26.0611 23.7818 26.0087 23.81 25.9217C23.838 25.8269 23.8394 25.7565 23.8143 25.7105C23.9457 25.6668 24.0854 25.6385 24.2335 25.6255C24.3813 25.6047 24.5253 25.588 24.6656 25.5753C24.8134 25.5545 24.9534 25.5339 25.0856 25.5137C25.2175 25.4856 25.3292 25.4387 25.4207 25.373C25.8262 25.3432 26.2473 25.3129 26.684 25.282C27.1285 25.2508 27.5377 25.217 27.9116 25.1805C28.0538 25.2224 28.2147 25.2403 28.3943 25.234C28.5816 25.2274 28.7655 25.2327 28.9459 25.2499C29.1341 25.2668 29.2999 25.3118 29.4431 25.385C29.5942 25.4579 29.7005 25.591 29.762 25.7842C29.8796 25.7958 29.9666 25.824 30.0229 25.8689C30.087 25.9136 30.1281 25.9708 30.1461 26.0405C30.1639 26.1024 30.1704 26.1765 30.1656 26.2626C30.1683 26.3407 30.1711 26.4188 30.1738 26.4969C30.0521 26.5949 29.8948 26.6786 29.7018 26.7479C29.5163 26.8091 29.311 26.8631 29.086 26.9101C28.8607 26.9492 28.6233 26.981 28.374 27.0053C28.1323 27.0216 27.8944 27.0377 27.6604 27.0537C27.6304 27.3127 27.5708 27.6196 27.4815 27.9745C27.3998 28.3213 27.3141 28.6644 27.2243 29.0037C27.1343 29.3351 27.0548 29.635 26.986 29.9032C26.9248 30.1633 26.8994 30.3322 26.9099 30.41C26.8381 30.5923 26.7771 30.7469 26.7268 30.8737C26.6843 31.0003 26.6415 31.119 26.5985 31.23C26.5633 31.3407 26.5242 31.4515 26.4811 31.5624C26.4456 31.6653 26.399 31.7842 26.3412 31.9191L27.1375 31.8913C27.1562 31.9766 27.1933 32.0339 27.2491 32.0633C27.3048 32.0926 27.3643 32.1179 27.4276 32.1391C27.4909 32.1604 27.5466 32.1897 27.5949 32.2271C27.6506 32.2564 27.6798 32.3101 27.6826 32.3882C27.8323 32.422 27.928 32.4773 27.9698 32.554C28.0115 32.6307 28.0224 32.7164 28.0022 32.8109C27.9896 32.8973 27.9537 32.9885 27.8945 33.0843C27.8431 33.1799 27.7913 33.2638 27.7391 33.336C27.6683 33.3228 27.6026 33.3447 27.5421 33.4015C27.4812 33.4505 27.4246 33.5072 27.3721 33.5716C27.1446 33.5483 26.9219 33.5521 26.7041 33.5832C26.4863 33.6143 26.284 33.6409 26.0972 33.663C26.0584 33.6722 26.0436 33.6962 26.0528 33.7349C26.0617 33.7659 26.0547 33.7896 26.0318 33.806C25.7871 33.7364 25.5361 33.7139 25.279 33.7385C25.0297 33.7628 24.7734 33.8109 24.5101 33.8826C24.2544 33.9463 23.991 34.0141 23.7199 34.0861C23.4491 34.1659 23.1732 34.2146 22.8924 34.2323ZM28.7752 31.1071C28.7722 31.0212 28.7812 30.9427 28.8022 30.8716C28.8232 30.8005 28.8239 30.7106 28.8045 30.6018C29.0285 30.0781 29.2852 29.5923 29.5744 29.1444C29.8712 28.6884 30.2284 28.2851 30.6461 27.9344C30.7145 27.8773 30.7672 27.8207 30.8044 27.7647C30.849 27.7006 30.8899 27.6405 30.9271 27.5845C30.972 27.5282 31.0211 27.4796 31.0744 27.4387C31.1274 27.3899 31.1966 27.3562 31.2819 27.3376C31.4692 27.1044 31.6962 26.8893 31.963 26.6924C32.2297 26.4954 32.5084 26.3059 32.7991 26.1238C33.0898 25.9416 33.3803 25.7556 33.6708 25.5657C33.969 25.3754 34.2355 25.1707 34.4701 24.9515C34.5579 25.0031 34.625 25.0203 34.6713 25.0031C34.7251 24.9777 34.7796 24.9719 34.8348 24.9856C34.9103 25.1315 35.0037 25.2338 35.1152 25.2924C35.2343 25.343 35.3534 25.3975 35.4727 25.4558C35.5996 25.5061 35.7152 25.5724 35.8197 25.6548C35.9318 25.729 36.0176 25.8355 36.0771 25.9741C36.0225 25.976 35.9958 25.9965 35.9972 26.0355C36.0063 26.0743 36.0196 26.1168 36.0368 26.1631C36.0541 26.2094 36.0634 26.2521 36.0647 26.2911C36.0661 26.3302 36.0316 26.3509 35.9614 26.3534C35.9633 26.408 35.9916 26.4344 36.0462 26.4325C36.1009 26.4306 36.1292 26.457 36.1311 26.5116C36.1327 26.5585 36.1223 26.5979 36.1 26.63C36.0852 26.6539 36.0867 26.6969 36.1045 26.7588C35.9215 26.8903 35.7149 27.0186 35.4848 27.1439C35.2622 27.2612 35.0242 27.3867 34.7709 27.5206C34.5254 27.6543 34.2725 27.7999 34.0123 27.9575C33.7595 28.1071 33.5076 28.28 33.2565 28.4764C33.0054 28.6728 32.751 28.8888 32.4935 29.1245C32.2437 29.36 32.0023 29.6107 31.7693 29.8768C31.536 30.1351 31.3187 30.4046 31.1174 30.6852C30.9159 30.9581 30.7454 31.2259 30.6061 31.4887C30.6231 31.5272 30.6438 31.5617 30.6683 31.5921C30.7006 31.6222 30.7253 31.6565 30.7423 31.695C31.0395 31.7003 31.3167 31.6906 31.5738 31.666C31.8306 31.6336 32.0888 31.6402 32.3484 31.6859C32.3788 31.6613 32.3972 31.6294 32.4037 31.5901C32.4101 31.5508 32.4326 31.5227 32.4711 31.5057C33.0001 31.4325 33.4929 31.3293 33.9495 31.1961C34.4058 31.0551 34.8699 30.9138 35.3418 30.7722C35.1993 30.7225 35.0729 30.6839 34.9625 30.6565C34.914 30.6113 34.9127 30.5722 34.9584 30.5394C35.0117 30.4984 35.0533 30.4579 35.0832 30.4178C34.9558 30.3519 34.8471 30.2618 34.7571 30.1477C34.675 30.0333 34.6228 29.8827 34.6006 29.6959C34.6537 29.6471 34.6791 29.5915 34.6769 29.5291C34.6747 29.4666 34.6456 29.4168 34.5896 29.3797C34.55 29.3654 34.5266 29.3662 34.5193 29.3821C34.5121 29.398 34.5048 29.4139 34.4975 29.4298C34.4981 29.4454 34.4908 29.4613 34.4757 29.4774C34.4685 29.4933 34.449 29.494 34.4172 29.4795C34.422 29.3933 34.4391 29.3224 34.4684 29.2666C34.4977 29.2109 34.5188 29.1437 34.5317 29.0651L35.4813 28.387C35.5855 28.4615 35.7133 28.5392 35.8646 28.6199C36.016 28.7006 36.1751 28.781 36.3421 28.8612C36.5091 28.9413 36.6801 29.0252 36.8551 29.1129C37.0299 29.1928 37.1929 29.2731 37.3443 29.3538C37.487 29.4114 37.6107 29.4852 37.7155 29.5754C37.82 29.6577 37.9209 29.748 38.0181 29.8462C38.1151 29.9367 38.212 30.0271 38.309 30.1175C38.406 30.2079 38.5219 30.282 38.6568 30.3399C38.6456 30.4653 38.6569 30.5666 38.6909 30.6436C38.7248 30.7205 38.7359 30.814 38.7241 30.9238C38.585 31.1945 38.4134 31.4272 38.2091 31.6219C38.0046 31.8088 37.7719 31.9733 37.5111 32.1153C37.258 32.257 36.9848 32.3799 36.6914 32.484C36.3977 32.5802 36.0962 32.6768 35.7869 32.7735C35.4773 32.8625 35.1641 32.9595 34.8472 33.0643C34.5379 33.1611 34.2331 33.2734 33.9327 33.4011C33.7999 33.4058 33.6869 33.4136 33.5934 33.4247C33.5 33.4358 33.4106 33.4506 33.3253 33.4692C33.24 33.4879 33.1546 33.5065 33.0693 33.5251C32.9839 33.5437 32.8907 33.5587 32.7894 33.57C32.7501 33.5636 32.7231 33.5724 32.7083 33.5963C32.7013 33.62 32.6863 33.6401 32.6635 33.6565C32.5081 33.6854 32.368 33.702 32.2431 33.7064C32.1181 33.7107 32.0127 33.7144 31.9269 33.7174C31.8175 33.7212 31.7049 33.7408 31.5889 33.7761C31.4728 33.8115 31.3639 33.827 31.2622 33.8227C30.5584 33.816 29.9992 33.5854 29.5846 33.1308C29.1701 32.6763 28.929 32.0398 28.8613 31.2213C28.8678 31.182 28.8591 31.1589 28.8354 31.1519C28.8115 31.1371 28.7914 31.1221 28.7752 31.1071ZM42.6769 30.6216C42.6739 30.5357 42.6829 30.4572 42.7039 30.3862C42.7248 30.3151 42.7256 30.2251 42.7062 30.1164C42.9302 29.5926 43.1869 29.1068 43.4761 28.6589C43.7729 28.203 44.1301 27.7997 44.5478 27.4489C44.6162 27.3918 44.6689 27.3353 44.706 27.2792C44.7507 27.2151 44.7916 27.1551 44.8287 27.0991C44.8737 27.0428 44.9228 26.9942 44.9761 26.9532C45.0291 26.9045 45.0983 26.8708 45.1836 26.8522C45.3709 26.6189 45.5979 26.4038 45.8646 26.2069C46.1314 26.01 46.4101 25.8204 46.7008 25.6383C46.9915 25.4562 47.282 25.2701 47.5725 25.0802C47.8707 24.89 48.1371 24.6853 48.3718 24.466C48.4596 24.5176 48.5267 24.5348 48.573 24.5176C48.6268 24.4923 48.6813 24.4865 48.7365 24.5002C48.812 24.6461 48.9054 24.7483 49.0169 24.807C49.1359 24.8575 49.2551 24.912 49.3744 24.9704C49.5012 25.0207 49.6169 25.087 49.7214 25.1693C49.8334 25.2436 49.9192 25.35 49.9788 25.4887C49.9241 25.4906 49.8975 25.511 49.8989 25.5501C49.908 25.5888 49.9212 25.6314 49.9385 25.6777C49.9557 25.724 49.9651 25.7667 49.9664 25.8057C49.9678 25.8447 49.9333 25.8655 49.8631 25.8679C49.865 25.9226 49.8932 25.949 49.9479 25.947C50.0026 25.9451 50.0308 25.9715 50.0327 26.0262C50.0344 26.073 50.024 26.1125 50.0017 26.1445C49.9869 26.1685 49.9884 26.2114 50.0062 26.2733C49.8232 26.4048 49.6166 26.5332 49.3864 26.6585C49.1638 26.7757 48.9259 26.9013 48.6726 27.0352C48.4271 27.1688 48.1742 27.3145 47.9139 27.4721C47.6612 27.6216 47.4093 27.7946 47.1582 27.991C46.907 28.1873 46.6527 28.4034 46.3952 28.6391C46.1454 28.8745 45.904 29.1253 45.671 29.3914C45.4377 29.6497 45.2204 29.9191 45.0191 30.1998C44.8176 30.4726 44.6471 30.7404 44.5078 31.0033C44.5247 31.0418 44.5455 31.0762 44.57 31.1066C44.6023 31.1368 44.627 31.1711 44.644 31.2096C44.9412 31.2148 45.2184 31.2052 45.4755 31.1805C45.7323 31.1481 45.9905 31.1547 46.2501 31.2004C46.2805 31.1759 46.2989 31.144 46.3054 31.1047C46.3118 31.0653 46.3343 31.0372 46.3728 31.0202C46.9018 30.947 47.3946 30.8438 47.8511 30.7106C48.3074 30.5696 48.7715 30.4283 49.2435 30.2868C49.101 30.237 48.9746 30.1984 48.8642 30.171C48.8157 30.1258 48.8143 30.0868 48.8601 30.0539C48.9134 30.013 48.955 29.9724 48.9848 29.9323C48.8575 29.8664 48.7488 29.7764 48.6588 29.6623C48.5766 29.5479 48.5245 29.3973 48.5023 29.2104C48.5553 29.1617 48.5808 29.1061 48.5786 29.0436C48.5764 28.9811 48.5473 28.9313 48.4913 28.8942C48.4517 28.88 48.4283 28.8808 48.421 28.8967C48.4137 28.9126 48.4065 28.9284 48.3992 28.9443C48.3998 28.9599 48.3925 28.9758 48.3774 28.992C48.3702 29.0079 48.3506 29.0086 48.3189 28.994C48.3237 28.9079 48.3407 28.8369 48.3701 28.7812C48.3994 28.7254 48.4205 28.6583 48.4334 28.5796L49.383 27.9015C49.4872 27.9761 49.615 28.0537 49.7663 28.1344C49.9177 28.2151 50.0768 28.2955 50.2438 28.3757C50.4107 28.4559 50.5817 28.5398 50.7568 28.6275C50.9316 28.7074 51.0946 28.7877 51.246 28.8684C51.3887 28.9259 51.5124 28.9998 51.6172 29.0899C51.7217 29.1723 51.8226 29.2625 51.9198 29.3608C52.0168 29.4512 52.1137 29.5416 52.2107 29.632C52.3077 29.7225 52.4236 29.7966 52.5585 29.8544C52.5473 29.9799 52.5586 30.0811 52.5926 30.1581C52.6265 30.2351 52.6376 30.3285 52.6258 30.4384C52.4867 30.709 52.3151 30.9417 52.1108 31.1364C51.9063 31.3234 51.6736 31.4879 51.4127 31.6299C51.1597 31.7716 50.8865 31.8945 50.5931 31.9985C50.2994 32.0948 49.9979 32.1913 49.6886 32.2881C49.379 32.3771 49.0658 32.474 48.7489 32.5789C48.4396 32.6757 48.1348 32.7879 47.8343 32.9157C47.7016 32.9203 47.5885 32.9282 47.4951 32.9393C47.4017 32.9503 47.3123 32.9652 47.227 32.9838C47.1416 33.0024 47.0563 33.021 46.971 33.0396C46.8856 33.0583 46.7923 33.0732 46.6911 33.0846C46.6518 33.0781 46.6247 33.0869 46.6099 33.1109C46.603 33.1346 46.588 33.1546 46.5651 33.1711C46.4098 33.1999 46.2697 33.2166 46.1447 33.2209C46.0198 33.2253 45.9144 33.229 45.8285 33.232C45.7192 33.2358 45.6066 33.2554 45.4905 33.2907C45.3745 33.326 45.2656 33.3415 45.1638 33.3373C44.4601 33.3306 43.9009 33.0999 43.4863 32.6454C43.0718 32.1908 42.8307 31.5543 42.763 30.7359C42.7694 30.6966 42.7608 30.6734 42.7371 30.6664C42.7131 30.6516 42.6931 30.6367 42.6769 30.6216ZM55.061 33.0151C54.7191 33.0739 54.4062 33.0692 54.1224 33.001C53.8386 32.9327 53.5806 32.8205 53.3485 32.6645C53.1241 32.5082 52.926 32.3197 52.7542 32.099C52.5901 31.878 52.4528 31.6404 52.3423 31.3863C52.2535 30.8579 52.2563 30.377 52.3506 29.9438C52.4446 29.5027 52.5906 29.095 52.7886 28.7207C52.9866 28.3464 53.2128 27.9945 53.467 27.6651C53.7291 27.3355 53.9799 27.0179 54.2194 26.7125C54.2749 26.734 54.3178 26.7325 54.3482 26.708C54.3865 26.6832 54.4166 26.6509 54.4387 26.611C54.4685 26.5709 54.4984 26.5308 54.5283 26.4907C54.5659 26.4502 54.6079 26.4214 54.6542 26.4042C54.683 26.3328 54.72 26.2729 54.7652 26.2244C54.8182 26.1757 54.8714 26.1308 54.9247 26.0899C54.9855 26.0408 55.0385 25.9921 55.0837 25.9436C55.1367 25.8948 55.1815 25.8346 55.2181 25.763C55.2957 25.7447 55.3611 25.715 55.4144 25.6741C55.4755 25.6329 55.5286 25.588 55.5738 25.5395C55.6268 25.4908 55.68 25.4459 55.7333 25.405C55.7866 25.364 55.8519 25.3305 55.9291 25.3043L55.9238 25.1521C56.0928 25.068 56.2148 24.9777 56.2896 24.8813C56.3644 24.7849 56.4538 24.6606 56.558 24.5085C56.6436 24.4976 56.7098 24.4914 56.7567 24.4898C56.8113 24.4879 56.893 24.4772 57.0018 24.4578C57.0674 24.3226 57.1304 24.2227 57.1907 24.158C57.2509 24.0934 57.3383 24.02 57.4527 23.9378C57.572 23.9962 57.6982 24.0309 57.8315 24.0418C57.9645 24.045 58.0876 24.0993 58.2007 24.2048C58.2118 24.2983 58.2417 24.3715 58.2905 24.4245C58.339 24.4697 58.3913 24.5148 58.4476 24.5597C58.5036 24.5969 58.5598 24.6379 58.6161 24.6828C58.6724 24.7278 58.7098 24.7929 58.7284 24.8782C58.7675 24.8769 58.7906 24.8683 58.7979 24.8524C58.813 24.8362 58.8402 24.8313 58.8795 24.8378C58.8973 24.8997 58.9147 24.9499 58.9316 24.9884C58.9486 25.0269 58.9655 25.0615 58.9822 25.0922C59.0067 25.1226 59.0274 25.157 59.0444 25.1955C59.0692 25.2338 59.0903 25.2799 59.1079 25.334C59.0721 25.4291 59.0405 25.5318 59.0131 25.6422C58.9854 25.7448 58.9254 25.8173 58.8331 25.8596C58.8353 25.922 58.8599 25.9563 58.907 25.9625C58.9539 25.9609 58.9821 25.9872 58.9919 26.0416C59.0021 26.1116 58.9925 26.1706 58.9629 26.2185C59.1943 26.5779 59.4069 26.9574 59.6006 27.3571C59.7941 27.749 60.0105 28.1245 60.2497 28.4836C60.2379 28.5934 60.2457 28.7026 60.2729 28.8111C60.3077 28.9115 60.3463 29.0118 60.3889 29.1119C60.4393 29.2118 60.4858 29.3118 60.5284 29.4119C60.571 29.5121 60.6018 29.6126 60.621 29.7136C60.6413 29.8458 60.6463 29.9902 60.6361 30.1469C60.6257 30.2958 60.5995 30.4413 60.5576 30.5835C60.5156 30.7257 60.4578 30.8606 60.3841 30.9882C60.3101 31.1081 60.2235 31.201 60.1241 31.267C60.0047 31.4275 59.853 31.5618 59.6692 31.6699C59.4851 31.7701 59.3172 31.8893 59.1657 32.0275C59.0586 32.0938 58.9431 32.1447 58.8193 32.1803C58.6952 32.2081 58.5673 32.2399 58.4357 32.2758C58.3363 32.3418 58.2175 32.4085 58.0791 32.4758C57.9405 32.5354 57.7978 32.5912 57.6511 32.6432C57.5044 32.6953 57.3574 32.7395 57.2102 32.7759C57.0626 32.8045 56.9301 32.813 56.8124 32.8015C56.5349 32.9128 56.264 32.9926 55.9999 33.0409C55.7358 33.0892 55.4228 33.0806 55.061 33.0151ZM55.0643 28.7468C54.9925 28.9291 54.9046 29.0963 54.8004 29.2485C54.7039 29.3925 54.6074 29.5405 54.5111 29.6924C54.4148 29.8443 54.3306 30.0075 54.2585 30.182C54.1939 30.3484 54.1617 30.545 54.1618 30.7717C54.3226 30.899 54.5089 30.9745 54.7208 30.9984C54.9403 31.0142 55.1629 31.0103 55.3888 30.9868C55.6144 30.9555 55.8398 30.9163 56.0648 30.8694C56.2899 30.8224 56.4922 30.7958 56.6718 30.7896C56.6693 30.7193 56.6993 30.6831 56.7618 30.6809C57.0886 30.6382 57.39 30.5378 57.6659 30.3796C57.9415 30.2136 58.2289 30.0473 58.5279 29.8805C58.5637 29.7854 58.6116 29.7017 58.6716 29.6292C58.7316 29.5568 58.7632 29.454 58.7663 29.321C58.7248 29.2521 58.6955 29.1945 58.6782 29.1482C58.6688 29.1016 58.6624 29.0315 58.6591 28.9378C58.4463 28.6638 58.26 28.3655 58.1002 28.0427C57.9402 27.7122 57.7573 27.402 57.5518 27.1121C57.5375 27.1517 57.5077 27.1918 57.4622 27.2325C57.4167 27.2731 57.3657 27.2671 57.3091 27.2144C57.2884 27.2932 57.2552 27.3491 57.2094 27.382C57.1634 27.4071 57.1092 27.4207 57.0467 27.4229C56.992 27.4248 56.9331 27.4151 56.8698 27.3939C56.8143 27.3723 56.7625 27.3429 56.7143 27.3055C56.4486 27.5336 56.1827 27.754 55.9165 27.9665C55.6582 28.1788 55.4244 28.4254 55.2154 28.7063C55.1772 28.7311 55.154 28.7397 55.1459 28.7322C55.1378 28.7246 55.1107 28.7295 55.0643 28.7468ZM60.8177 31.6532L60.9659 31.5308L60.969 31.2844C61.1476 30.8013 61.3307 30.3376 61.5185 29.8933C61.714 29.4487 61.9169 28.9921 62.1273 28.5236C62.1924 28.3728 62.2574 28.222 62.3225 28.0712C62.3954 27.9201 62.4643 27.7652 62.5291 27.6066C62.5202 27.5757 62.5152 27.5446 62.5141 27.5134C62.5128 27.4743 62.5191 27.4311 62.533 27.3837C62.6369 27.2237 62.7179 27.0802 62.776 26.9531C62.8419 26.8257 62.9038 26.6946 62.9616 26.5597C63.0264 26.401 63.0951 26.2423 63.1677 26.0834C63.2482 25.9243 63.3483 25.7683 63.468 25.6156L63.5459 25.4956L63.6751 25.5029C63.7058 25.4862 63.7366 25.4734 63.7676 25.4645C63.8061 25.4475 63.8527 25.438 63.9073 25.4361L64.1194 25.4639C64.3729 25.3378 64.5935 25.162 64.781 24.9366C64.9761 24.7031 65.1697 24.4266 65.3618 24.1072L65.4954 23.9032L65.6869 24.0138C65.7267 24.0358 65.79 24.0571 65.8767 24.0775C65.9634 24.0979 66.0542 24.1221 66.149 24.1501C66.3143 24.1834 66.476 24.2246 66.634 24.2738C66.7918 24.3152 66.9152 24.3774 67.0041 24.4603L67.0663 24.5636C67.0849 24.649 67.0993 24.7266 67.1096 24.7966C67.1277 24.8664 67.1458 24.9361 67.1638 25.0058C67.2008 25.1687 67.2338 25.3317 67.263 25.4948C67.2919 25.6502 67.3136 25.8253 67.3282 26.0202C67.3727 26.175 67.4134 26.3338 67.4504 26.4967C67.4949 26.6515 67.5355 26.8064 67.5722 26.9615C67.6191 27.1866 67.6697 27.4037 67.7239 27.6128C67.7778 27.8142 67.8471 28.0072 67.9317 28.1919C68.0098 28.1892 68.0568 28.1914 68.0727 28.1987C68.165 28.1564 68.2735 28.1291 68.3981 28.117L68.55 28.0999L68.6017 28.2388C68.6182 28.2617 68.6385 28.2845 68.6628 28.3071C68.687 28.3297 68.7151 28.3521 68.7472 28.3745C68.8724 28.3779 68.9631 28.4021 69.0194 28.447C69.0832 28.4839 69.1354 28.5212 69.1758 28.5588C69.1919 28.5739 69.2121 28.5928 69.2364 28.6154C69.2603 28.6302 69.2803 28.6412 69.2962 28.6484L69.5098 28.7231L69.4005 28.9497C69.3203 29.1166 69.1932 29.2813 69.0191 29.4438C68.8527 29.6059 68.662 29.7416 68.447 29.8507C68.4645 29.9048 68.4741 29.9553 68.4757 30.0021C68.4852 30.0487 68.4988 30.1029 68.5166 30.1649C68.5533 30.3199 68.5824 30.4831 68.604 30.6543C68.6332 30.8174 68.6392 30.9892 68.622 31.1696C68.551 31.3753 68.4637 31.5621 68.3602 31.7299C68.2641 31.8896 68.1442 32.0384 68.0005 32.1763C67.8643 32.3061 67.708 32.4171 67.5314 32.5093C67.3545 32.5936 67.1686 32.6431 66.9737 32.6577C66.8636 32.6381 66.7807 32.6137 66.7249 32.5843C66.677 32.5547 66.6329 32.525 66.5928 32.4951C66.5287 32.4505 66.4769 32.421 66.4373 32.4068L66.2826 32.3418L66.3233 32.1645C66.3445 32.1012 66.3387 32.0467 66.3059 32.0009C66.2808 31.9549 66.224 31.8944 66.1354 31.8193C66.1033 31.797 66.0752 31.7745 66.0509 31.7519C66.0264 31.7215 65.998 31.6912 65.9657 31.661L65.722 31.3999L66.1048 31.281C66.3369 31.2103 66.4903 31.1268 66.5651 31.0304C66.6396 30.9261 66.6647 30.7494 66.6404 30.5001C66.4438 30.4679 66.2837 30.4695 66.1598 30.5051C66.0357 30.5329 65.9117 30.5646 65.7879 30.6002C65.61 30.6533 65.4358 30.7024 65.2654 30.7474C65.0947 30.7847 64.9079 30.8068 64.7049 30.8139C64.5721 30.8185 64.4312 30.8117 64.282 30.7935L64.1528 30.7863L64.1132 30.6587C64.1126 30.6431 64.1003 30.6279 64.0764 30.6131C64.0599 30.5902 64.0436 30.5712 64.0275 30.5561C63.9868 30.5107 63.9378 30.4498 63.8804 30.3737C63.823 30.2975 63.8079 30.2003 63.835 30.0821C63.7774 29.9981 63.743 29.9094 63.7319 29.816C63.7029 29.8796 63.6778 29.943 63.6565 30.0063C63.6428 30.0615 63.6291 30.1167 63.6154 30.1719L63.5739 30.3257L63.4224 30.3545C63.4074 30.3706 63.3926 30.3946 63.378 30.4264C63.3713 30.4579 63.3721 30.4813 63.3805 30.4967L63.4318 30.6238L63.3184 30.7333C63.3036 30.7573 63.2848 30.7775 63.2619 30.7939C63.239 30.8104 63.22 30.8267 63.205 30.8428C63.1923 30.9293 63.1718 31.0121 63.1433 31.0912C63.1226 31.1701 63.098 31.2492 63.0695 31.3283C63.0348 31.4546 63 31.577 62.965 31.6955C62.9379 31.8137 62.9264 31.9313 62.9305 32.0485L62.8889 32.2023C62.8521 32.2662 62.803 32.3148 62.7416 32.3482C62.688 32.3813 62.6343 32.4106 62.5805 32.4359C62.5035 32.4699 62.4499 32.503 62.4198 32.5353L62.39 32.6888L62.2151 32.7184C62.1144 32.7453 62.0408 32.7635 61.9942 32.773C61.9555 32.7822 61.9088 32.7877 61.8541 32.7896L61.7015 32.7832C61.6045 32.6928 61.524 32.6252 61.4599 32.5806C61.4033 32.5278 61.3353 32.4833 61.2559 32.447L61.1823 32.3558C61.1489 32.2944 61.1275 32.2404 61.118 32.1938C61.1083 32.1395 61.0947 32.0852 61.0772 32.0311C61.058 31.9301 61.0321 31.8607 60.9995 31.8227L60.8177 31.6532ZM64.4474 28.4777C64.3435 28.6377 64.2439 28.8053 64.1484 28.9806C64.2027 28.9709 64.2534 28.9653 64.3002 28.9636C64.3549 28.9617 64.4094 28.9559 64.4638 28.9462C64.7365 28.921 64.9896 28.8926 65.223 28.861C65.4564 28.8294 65.7088 28.7815 65.9801 28.7173C65.9076 28.4306 65.8271 28.1403 65.7386 27.8463C65.6577 27.5443 65.569 27.2425 65.4725 26.941L65.418 27.0602C65.2302 27.2778 65.0507 27.5108 64.8796 27.7591C64.7085 28.0074 64.5682 28.2429 64.4587 28.4656L64.4474 28.4777ZM70.2342 32.0045C70.2018 31.9743 70.1733 31.9402 70.1485 31.9019C70.1234 31.8559 70.1019 31.798 70.0838 31.7283C69.9699 31.5994 69.8787 31.4501 69.8102 31.2805C69.7417 31.111 69.6927 30.9368 69.663 30.758C69.633 30.5715 69.6226 30.3842 69.6316 30.1963C69.6407 30.0083 69.6619 29.8317 69.6952 29.6664C69.7159 29.5875 69.7326 29.5048 69.7452 29.4184C69.779 29.2687 69.813 29.1229 69.8472 28.981C69.881 28.8313 69.9353 28.7082 70.0102 28.6118C69.9759 28.527 69.9766 28.4332 70.012 28.3303C70.0475 28.2274 70.0833 28.1324 70.1193 28.0451C70.1341 28.0212 70.1452 28.0012 70.1524 27.9853C70.1594 27.9617 70.1666 27.9419 70.1738 27.926C70.258 27.6494 70.3386 27.3847 70.4158 27.1319C70.5005 26.871 70.5817 26.6219 70.6594 26.3846C70.8005 25.9498 70.9342 25.523 71.0603 25.1043C71.1942 24.6853 71.3115 24.2395 71.4122 23.7669C71.4731 23.7179 71.5266 23.6848 71.5729 23.6675C71.5883 23.6592 71.6075 23.6507 71.6307 23.642C71.6538 23.6334 71.681 23.6286 71.7122 23.6275C71.8792 23.7076 72.0734 23.7829 72.2947 23.8534C72.5236 23.9157 72.7161 23.9442 72.8722 23.9387L73.0775 24.1075C73.1831 24.221 73.2733 24.343 73.3482 24.4732C73.4307 24.5954 73.4598 24.7586 73.4357 24.9627C73.3913 25.0346 73.3537 25.0789 73.323 25.0956C73.2825 25.2768 73.2373 25.4386 73.1876 25.5811C73.1375 25.7157 73.0874 25.8465 73.0371 25.9733C72.9795 26.116 72.9259 26.2586 72.8761 26.401C72.8264 26.5435 72.7856 26.7169 72.7536 26.9213C72.7087 26.9776 72.6791 27.0255 72.6648 27.0651C72.6584 27.1044 72.648 27.1438 72.6338 27.1834C72.6198 27.2308 72.602 27.2822 72.5805 27.3377C72.5587 27.3854 72.5251 27.4295 72.4796 27.4702C72.4568 27.7134 72.417 27.9141 72.3599 28.0724C72.3027 28.223 72.2454 28.3735 72.1881 28.524C72.0883 28.8011 71.9964 29.0779 71.9122 29.3545C71.8278 29.6232 71.7838 29.9296 71.7802 30.2737C71.873 30.247 71.9585 30.2323 72.0366 30.2296C72.1381 30.226 72.2362 30.2382 72.331 30.2662C72.6072 30.1158 72.9087 30.0193 73.2355 29.9766C73.5702 29.9337 73.9013 29.9026 74.229 29.8833C74.5022 29.8738 74.7556 29.8532 74.989 29.8216C75.069 29.8735 75.1208 29.903 75.1445 29.91C75.1679 29.9091 75.207 29.9078 75.2616 29.9059C75.2851 29.905 75.3085 29.9042 75.3319 29.9034C75.3553 29.9026 75.3867 29.9054 75.426 29.9119C75.5391 30.0173 75.6473 30.0917 75.7504 30.135C75.8533 30.1705 75.9639 30.2058 76.0824 30.2407C76.1853 30.2762 76.2844 30.3157 76.3797 30.3593C76.4826 30.3948 76.5821 30.446 76.6782 30.513L76.8045 31.1067C76.8699 31.1904 76.8993 31.248 76.8926 31.2795C76.8948 31.3419 76.8811 31.3971 76.8515 31.4451L76.8802 31.5965C76.733 31.6329 76.6366 31.6715 76.5911 31.7121C76.5454 31.745 76.4961 31.7897 76.4434 31.8463C76.3577 31.8571 76.2759 31.8638 76.1978 31.8666C76.0417 31.872 75.8824 31.901 75.7201 31.9536C75.4829 31.8759 75.2237 31.842 74.9426 31.8518C74.8333 31.8556 74.7203 31.8635 74.6034 31.8753C74.4944 31.887 74.3855 31.9025 74.2767 31.9219C74.1601 31.9416 74.0436 31.9613 73.927 31.9811C73.8102 31.9929 73.6932 32.0009 73.5761 32.005C73.4829 32.0239 73.417 32.0379 73.3782 32.0471C73.3394 32.0563 73.3008 32.0694 73.2623 32.0863C72.9998 32.1815 72.7139 32.2775 72.4046 32.3743C72.1031 32.4708 71.7962 32.5245 71.4839 32.5354C71.0233 32.5515 70.6483 32.4473 70.359 32.2229C70.3254 32.1537 70.3003 32.1077 70.2839 32.0848C70.2674 32.0619 70.2509 32.0352 70.2342 32.0045ZM76.7756 26.9215C76.7949 26.8036 76.8073 26.7094 76.8126 26.6388C76.8177 26.5605 76.7875 26.4794 76.7221 26.3957C76.7489 26.2697 76.7689 26.1713 76.7821 26.1005C76.8031 26.0294 76.8036 25.9317 76.7836 25.8073C76.8468 25.6018 76.9462 25.4264 77.0818 25.2809C77.2252 25.1352 77.3812 25.0125 77.5497 24.9128C77.7179 24.8053 77.8947 24.7171 78.0799 24.6481C78.2648 24.5712 78.4384 24.5066 78.6007 24.454C78.5997 24.4227 78.5835 24.4077 78.5523 24.4088C78.521 24.4099 78.5125 24.3906 78.5268 24.351C78.9457 24.2582 79.3634 24.1303 79.7798 23.9672C80.204 23.8039 80.6366 23.6559 81.0776 23.5232C81.5185 23.3906 81.9728 23.3043 82.4405 23.2646C82.9079 23.217 83.4018 23.2584 83.9223 23.3887C83.9568 23.4813 84.0029 23.5696 84.0605 23.6536C84.1182 23.7376 84.1758 23.8215 84.2335 23.9055C84.2987 23.9814 84.356 24.0576 84.4056 24.134C84.4552 24.2105 84.4854 24.2915 84.4962 24.3771C84.5929 24.4597 84.6703 24.5508 84.7285 24.6504C84.7943 24.7419 84.8105 24.8703 84.7772 25.0357C84.6934 25.1011 84.6058 25.1667 84.5143 25.2324C84.4228 25.2982 84.3273 25.3601 84.2277 25.4183C83.8733 25.3447 83.5209 25.3258 83.1704 25.3615C82.8198 25.3972 82.5046 25.4355 82.2246 25.4766C82.1354 25.3859 82.0324 25.3465 81.9156 25.3584C81.7985 25.3625 81.6742 25.3863 81.5429 25.43C81.419 25.4656 81.2953 25.5051 81.1718 25.5485C81.0479 25.5841 80.9311 25.596 80.8212 25.5842C80.7381 25.6653 80.6268 25.7239 80.4873 25.76C80.3476 25.7884 80.1999 25.8131 80.0443 25.8341C80.0379 25.8734 80.0466 25.9005 80.0706 25.9153C80.0946 25.9301 80.0996 25.9612 80.0856 26.0086C80.1427 26.0769 80.2186 26.1251 80.3134 26.1531C80.4079 26.1732 80.5025 26.1934 80.597 26.2135C80.6993 26.2334 80.7903 26.2654 80.87 26.3095C80.9495 26.3458 81.0025 26.4104 81.0292 26.5033C81.17 26.5062 81.2924 26.541 81.3964 26.6077C81.5 26.6666 81.5887 26.7417 81.6622 26.833C81.7357 26.9242 81.79 27.0239 81.8251 27.1321C81.8599 27.2326 81.8748 27.3258 81.87 27.412C81.904 27.489 81.9363 27.5191 81.967 27.5024C82.0055 27.4854 82.0491 27.5035 82.0979 27.5565C82.1332 27.6725 82.2078 27.795 82.3218 27.9239C82.4432 28.0447 82.5378 28.1782 82.6054 28.3244C82.6292 28.5581 82.6483 28.7685 82.6627 28.9556C82.6848 29.1424 82.66 29.327 82.5882 29.5093C82.4675 29.8575 82.2869 30.1726 82.0466 30.4546C81.8063 30.7366 81.5298 30.9886 81.217 31.2105C80.9118 31.4244 80.5863 31.6156 80.2404 31.784C79.8942 31.9447 79.5511 32.0817 79.2111 32.1952C79.1796 32.1885 79.1406 32.1899 79.094 32.1993C79.0552 32.2085 79.0466 32.1853 79.0681 32.1298C79 32.1948 78.9194 32.2367 78.8263 32.2555C78.7409 32.2742 78.6435 32.2815 78.5339 32.2775C78.4324 32.281 78.3269 32.2808 78.2173 32.2768C78.1155 32.2726 78.0141 32.28 77.9132 32.2992C77.8485 32.2389 77.7878 32.1785 77.731 32.1179C77.6819 32.0571 77.6403 31.9843 77.6061 31.8995C77.5668 31.893 77.5464 31.8703 77.5451 31.8313C77.5512 31.7841 77.5348 31.7613 77.4958 31.7626C77.4947 31.7314 77.4978 31.7078 77.505 31.6919C77.5123 31.6761 77.5195 31.6602 77.5268 31.6443C77.5572 31.6198 77.5684 31.6037 77.5603 31.5962C77.5598 31.5806 77.5476 31.5693 77.5239 31.5623C77.5078 31.5472 77.4877 31.5323 77.4638 31.5175C77.4476 31.5024 77.443 31.483 77.45 31.4593C77.4866 31.3877 77.4954 31.3053 77.4765 31.2122C77.4652 31.1109 77.4538 31.0097 77.4425 30.9085C77.4311 30.8073 77.4357 30.7133 77.4561 30.6266C77.4762 30.5321 77.5399 30.4517 77.647 30.3854C77.9682 30.4055 78.2683 30.3793 78.5472 30.3071C78.8339 30.2345 79.1002 30.1392 79.3463 30.0212C79.6001 29.9029 79.8381 29.7773 80.0601 29.6445C80.2897 29.5036 80.5119 29.3747 80.7267 29.2577C80.7474 29.1788 80.7802 29.1112 80.8252 29.0549C80.8779 28.9984 80.9308 28.9457 80.9838 28.897C81.0366 28.8404 81.0854 28.784 81.1303 28.7277C81.175 28.6636 81.2076 28.5882 81.228 28.5015C81.2347 28.47 81.2339 28.4465 81.2255 28.4312C81.2172 28.4159 81.2051 28.4046 81.1892 28.3973C81.173 28.3822 81.1568 28.3672 81.1407 28.3521C81.1245 28.337 81.1159 28.3139 81.1148 28.2826C81.0911 28.2756 81.0674 28.2687 81.0437 28.2617C81.0278 28.2544 81.0121 28.251 80.9965 28.2516C80.7899 28.1572 80.5722 28.0788 80.3433 28.0164C80.1144 27.9541 79.9204 27.8827 79.7613 27.8022C79.6698 27.868 79.5766 27.8869 79.4818 27.8589C79.387 27.8309 79.2727 27.8037 79.1389 27.7771C78.8105 27.7729 78.4971 27.7526 78.1987 27.7161C77.9082 27.6793 77.6243 27.6072 77.3469 27.4996C77.3296 27.4533 77.3088 27.4149 77.2843 27.3845C77.2595 27.3463 77.2044 27.3365 77.1191 27.3551C77.0617 27.2789 77.0007 27.2107 76.936 27.1504C76.8789 27.0821 76.8254 27.0058 76.7756 26.9215ZM86.6687 23.797C86.6711 23.8673 86.6624 23.9536 86.6425 24.0559C86.6305 24.1579 86.6184 24.26 86.6063 24.362C86.5943 24.4641 86.5936 24.5579 86.6044 24.6435C86.615 24.7213 86.6519 24.7708 86.7151 24.7921C86.5891 25.2108 86.5036 25.5617 86.4588 25.8446C86.4217 26.1274 86.3882 26.3982 86.3581 26.6572C86.3356 26.9082 86.302 27.1751 86.2571 27.4581C86.2123 27.7411 86.1267 28.0881 86.0003 28.499C85.9232 28.7518 85.8239 28.9312 85.7025 29.037C85.5809 29.1351 85.4498 29.1866 85.3092 29.1915C85.1687 29.1964 85.0229 29.1624 84.8718 29.0895C84.7207 29.0166 84.5811 28.9355 84.4529 28.8462C84.4243 28.6986 84.4141 28.5192 84.4224 28.3078C84.4382 28.0884 84.4576 27.861 84.4806 27.6257C84.5037 27.3904 84.5272 27.1668 84.551 26.9549C84.5746 26.7352 84.5916 26.5509 84.6021 26.402C84.6772 26.3134 84.7294 26.2412 84.7587 26.1854C84.788 26.1297 84.8055 26.0705 84.8111 26.0077C84.8245 25.9447 84.8335 25.8662 84.8381 25.7723C84.8426 25.6783 84.8575 25.5449 84.8827 25.372C84.8953 25.2856 84.8849 25.2117 84.8515 25.1503C84.8256 25.0809 84.8194 25.0146 84.8328 24.9516C84.8474 24.9199 84.87 24.8956 84.9007 24.8789C84.9392 24.8619 84.9616 24.8338 84.9681 24.7945C84.9958 24.6919 85.0008 24.6135 84.9833 24.5594C84.9655 24.4975 84.9746 24.4229 85.0107 24.3357C85.0475 24.2718 85.091 24.1726 85.141 24.038C85.1985 23.8953 85.2169 23.75 85.1961 23.6022C85.2645 23.5451 85.3287 23.4803 85.3887 23.4079C85.4487 23.3354 85.509 23.2708 85.5695 23.2139C85.6376 23.149 85.71 23.0957 85.7867 23.0539C85.8713 23.0119 85.9721 22.9888 86.0892 22.9847C86.1546 23.0684 86.2044 23.1488 86.2383 23.2257C86.2723 23.3027 86.3022 23.376 86.3281 23.4454C86.3618 23.5146 86.4031 23.5796 86.4521 23.6404C86.5012 23.7012 86.5733 23.7534 86.6687 23.797ZM85.7419 30.5014C85.7597 30.5633 85.7735 30.6215 85.7832 30.6759C85.7929 30.7302 85.8028 30.7885 85.8128 30.8507C85.7716 31.0163 85.7261 31.1664 85.676 31.3011C85.6545 31.3565 85.6401 31.3922 85.6329 31.4081C85.6256 31.424 85.6221 31.4358 85.6224 31.4437C85.6227 31.4515 85.627 31.463 85.6353 31.4784C85.6434 31.4859 85.6484 31.517 85.6503 31.5717L85.5967 31.7142C85.5595 31.7703 85.5142 31.8148 85.4606 31.848C85.4149 31.8809 85.3651 31.91 85.3112 31.9353C85.2884 31.9517 85.2614 31.9644 85.2305 31.9733C85.2076 31.9897 85.1886 32.006 85.1736 32.0222L85.1433 32.1639L84.9802 32.1931C84.8564 32.2287 84.7437 32.2482 84.6422 32.2518L84.5134 32.2563C84.4167 32.1737 84.3402 32.1099 84.2839 32.065C84.2276 32.02 84.1636 31.9793 84.092 31.9427C84.0009 31.7973 83.9457 31.6703 83.9263 31.5615C83.9071 31.4606 83.8853 31.3949 83.8607 31.3645L83.6911 31.2062L83.8279 31.0959L83.6796 30.8783C83.7708 30.8048 83.8393 30.7516 83.8851 30.7187C83.9309 30.6858 83.9688 30.6532 83.9989 30.6209C84.0366 30.5805 84.074 30.5323 84.1112 30.4763C84.1483 30.4203 84.2076 30.3283 84.2891 30.2004L84.3892 30.0444L84.5326 30.1215C84.5725 30.1436 84.6436 30.1645 84.7459 30.1844C84.8557 30.1962 84.95 30.2086 85.0286 30.2214C85.1549 30.2561 85.277 30.2831 85.3949 30.3025C85.5204 30.3137 85.6194 30.3493 85.6918 30.4094L85.7419 30.5014Z" fill="#372BFE"/>
<path d="M15.0942 35.5599L83.7594 33.1621L83.7802 33.7594L15.115 36.1572L15.0942 35.5599Z" fill="#372BFE"/>
</svg>
