<svg width="100" height="40" viewBox="0 0 100 40" fill="none" xmlns="http://www.w3.org/2000/svg">
<path d="M17.9221 16.1408L18.0703 16.0184L18.0734 15.772C18.2519 15.2889 18.4351 14.8252 18.6228 14.3809C18.8184 13.9363 19.0213 13.4797 19.2316 13.0111C19.2967 12.8603 19.3618 12.7095 19.4269 12.5587C19.4998 12.4077 19.5687 12.2528 19.6335 12.0942C19.6246 12.0633 19.6196 12.0322 19.6185 12.0009C19.6171 11.9619 19.6234 11.9187 19.6374 11.8713C19.7413 11.7113 19.8222 11.5678 19.8803 11.4407C19.9463 11.3133 20.0081 11.1822 20.066 11.0472C20.1308 10.8886 20.1995 10.7299 20.2721 10.571C20.3525 10.4119 20.4526 10.2559 20.5724 10.1032L20.6503 9.98323L20.7795 9.99044C20.8102 9.97374 20.841 9.96094 20.872 9.95204C20.9105 9.93506 20.957 9.92562 21.0117 9.92371L21.2237 9.95148C21.4773 9.82537 21.6979 9.64959 21.8854 9.42416C22.0805 9.19065 22.2741 8.91419 22.4662 8.59479L22.5998 8.39079L22.7913 8.50136C22.8311 8.52342 22.8944 8.54466 22.9811 8.56509C23.0678 8.58551 23.1585 8.6097 23.2533 8.63766C23.4187 8.67097 23.5804 8.71223 23.7384 8.76143C23.8962 8.80283 24.0195 8.86496 24.1084 8.94785L24.1707 9.05121C24.1893 9.13655 24.2037 9.21422 24.214 9.28422C24.232 9.35394 24.2501 9.42366 24.2682 9.49339C24.3051 9.65626 24.3382 9.81927 24.3673 9.98241C24.3962 10.1378 24.418 10.3129 24.4326 10.5078C24.4771 10.6626 24.5178 10.8214 24.5548 10.9843C24.5993 11.1391 24.6398 11.294 24.6765 11.4491C24.7235 11.6741 24.7741 11.8913 24.8283 12.1004C24.8822 12.3018 24.9515 12.4948 25.0361 12.6795C25.1142 12.6767 25.1612 12.679 25.177 12.6863C25.2694 12.644 25.3779 12.6167 25.5025 12.6046L25.6544 12.5875L25.7061 12.7264C25.7225 12.7493 25.7429 12.772 25.7671 12.7947C25.7914 12.8173 25.8195 12.8397 25.8516 12.8621C25.9768 12.8655 26.0675 12.8897 26.1238 12.9346C26.1876 12.9715 26.2397 13.0088 26.2801 13.0464C26.2963 13.0615 26.3165 13.0803 26.3407 13.1029C26.3647 13.1177 26.3846 13.1288 26.4005 13.136L26.6142 13.2107L26.5048 13.4373C26.4247 13.6042 26.2975 13.7689 26.1234 13.9313C25.9571 14.0935 25.7664 14.2291 25.5513 14.3383C25.5689 14.3924 25.5784 14.4429 25.5801 14.4897C25.5895 14.5363 25.6031 14.5905 25.6209 14.6524C25.6576 14.8075 25.6868 14.9707 25.7084 15.1419C25.7375 15.305 25.7435 15.4768 25.7264 15.6572C25.6554 15.8629 25.5681 16.0497 25.4645 16.2175C25.3685 16.3772 25.2486 16.526 25.1049 16.6639C24.9687 16.7937 24.8123 16.9047 24.6357 16.9969C24.4589 17.0812 24.273 17.1307 24.0781 17.1453C23.968 17.1257 23.885 17.1012 23.8293 17.0719C23.7813 17.0423 23.7373 17.0126 23.6972 16.9827C23.6331 16.9381 23.5812 16.9086 23.5417 16.8943L23.387 16.8294L23.4277 16.6521C23.4489 16.5888 23.4431 16.5343 23.4102 16.4885C23.3852 16.4425 23.3283 16.3819 23.2397 16.3069C23.2077 16.2845 23.1795 16.2621 23.1553 16.2395C23.1308 16.2091 23.1024 16.1788 23.07 16.1486L22.8264 15.8874L23.2092 15.7685C23.4412 15.6979 23.5947 15.6144 23.6695 15.518C23.744 15.4137 23.7691 15.237 23.7448 14.9877C23.5482 14.9554 23.388 14.9571 23.2642 14.9927C23.1401 15.0205 23.0161 15.0522 22.8923 15.0878C22.7143 15.1409 22.5402 15.19 22.3698 15.235C22.1991 15.2722 22.0122 15.2944 21.8092 15.3015C21.6765 15.3061 21.5356 15.2993 21.3864 15.2811L21.2572 15.2739L21.2175 15.1463C21.217 15.1307 21.2047 15.1154 21.1807 15.1006C21.1643 15.0778 21.148 15.0588 21.1319 15.0437C21.0912 14.9982 21.0422 14.9374 20.9848 14.8612C20.9274 14.7851 20.9123 14.6879 20.9394 14.5697C20.8818 14.4857 20.8474 14.397 20.8363 14.3036C20.8073 14.3671 20.7821 14.4306 20.7609 14.4938C20.7472 14.549 20.7335 14.6042 20.7198 14.6594L20.6782 14.8133L20.5268 14.8421C20.5117 14.8582 20.4969 14.8822 20.4824 14.914C20.4757 14.9455 20.4765 14.9689 20.4849 14.9842L20.5362 15.1114L20.4228 15.2209C20.408 15.2449 20.3891 15.2651 20.3663 15.2815C20.3434 15.298 20.3244 15.3143 20.3093 15.3304C20.2967 15.4168 20.2762 15.4996 20.2476 15.5788C20.227 15.6577 20.2024 15.7367 20.1738 15.8159C20.1392 15.9422 20.1044 16.0646 20.0694 16.1831C20.0423 16.3013 20.0307 16.4189 20.0348 16.536L19.9933 16.6899C19.9564 16.7538 19.9073 16.8024 19.846 16.8358C19.7924 16.8689 19.7387 16.8982 19.6849 16.9235C19.6079 16.9575 19.5543 16.9906 19.5242 17.0229L19.4943 17.1764L19.3195 17.206C19.2188 17.2329 19.1452 17.2511 19.0986 17.2606C19.0598 17.2697 19.0131 17.2753 18.9585 17.2772L18.8058 17.2708C18.7089 17.1804 18.6283 17.1128 18.5642 17.0682C18.5077 17.0154 18.4397 16.9709 18.3602 16.9346L18.2867 16.8433C18.2533 16.782 18.2318 16.728 18.2224 16.6814C18.2127 16.627 18.1991 16.5728 18.1815 16.5187C18.1624 16.4177 18.1365 16.3483 18.1039 16.3103L17.9221 16.1408ZM21.5518 12.9653C21.4479 13.1253 21.3482 13.2929 21.2527 13.4682C21.3071 13.4585 21.3577 13.4528 21.4046 13.4512C21.4592 13.4493 21.5137 13.4435 21.5681 13.4338C21.8408 13.4086 22.0939 13.3802 22.3273 13.3486C22.5607 13.317 22.8131 13.2691 23.0845 13.2049C23.0119 12.9182 22.9315 12.6279 22.843 12.3339C22.7621 12.0319 22.6734 11.7301 22.5769 11.4286L22.5224 11.5478C22.3346 11.7654 22.1551 11.9983 21.984 12.2467C21.8129 12.495 21.6725 12.7305 21.5631 12.9532L21.5518 12.9653ZM37.592 10.9277C37.3968 10.9345 37.1865 10.9575 36.9612 10.9966C36.7356 11.028 36.514 11.0631 36.2965 11.1019C36.1412 11.1308 35.9896 11.1556 35.8418 11.1764C35.7018 11.197 35.5734 11.2132 35.4565 11.2251C35.4079 11.3987 35.3585 11.5529 35.3085 11.6875C35.2585 11.8222 35.2044 11.9531 35.1463 12.0802C35.0885 12.2151 35.0347 12.3538 34.985 12.4962C34.9428 12.6306 34.901 12.7767 34.8596 12.9344C34.7859 13.0621 34.7236 13.1815 34.6727 13.2927C34.6294 13.3959 34.5945 13.5144 34.5679 13.6482C34.4783 13.7686 34.4124 13.8959 34.3702 14.0303C34.3277 14.1569 34.2964 14.2674 34.2762 14.3619L34.2343 14.5041C34.1891 14.5526 34.1631 14.5926 34.1564 14.6241C34.1494 14.6478 34.1307 14.6719 34.1003 14.6964C34.0955 14.7825 34.0712 14.8694 34.0273 14.9569C34.0131 14.9965 34.0027 15.0359 33.9963 15.0753C33.9895 15.1068 33.9865 15.1303 33.987 15.1459C33.9897 15.224 33.972 15.2754 33.9338 15.3002C33.9429 15.339 33.9444 15.3819 33.9383 15.4291C33.9318 15.4684 33.9254 15.5077 33.9189 15.547C33.8988 15.6415 33.8936 15.7159 33.9033 15.7703C33.9278 15.8007 33.9483 15.8274 33.9647 15.8503C33.9889 15.8729 34.0056 15.9036 34.0148 15.9423C34.0628 15.9719 34.0986 15.9902 34.1223 15.9972C34.1543 16.0195 34.2021 16.0452 34.2657 16.0743L34.3752 16.1877C34.4221 16.4128 34.3932 16.5936 34.2886 16.7301C34.1766 16.8826 33.9801 16.9637 33.699 16.9735L33.5585 16.9784C33.5181 16.9407 33.4936 16.9103 33.485 16.8872C33.4217 16.8659 33.3703 16.8482 33.3307 16.8339C33.2911 16.8197 33.2549 16.7897 33.222 16.7439C33.1189 16.7006 33.0355 16.6644 32.972 16.6354L32.8645 16.5805C32.8615 16.4946 32.8599 16.4478 32.8596 16.44C32.8025 16.3716 32.7568 16.295 32.7226 16.2102C32.6962 16.1252 32.6737 16.04 32.655 15.9546C32.637 15.8849 32.6151 15.8192 32.5895 15.7576C32.5717 15.6957 32.5464 15.6418 32.5135 15.5961C32.4821 15.1438 32.5117 14.7597 32.6023 14.4438C32.6929 14.128 32.7878 13.8237 32.887 13.531C32.944 13.3727 33.001 13.2143 33.058 13.056C33.1148 12.8898 33.1636 12.7201 33.2044 12.5467L33.3057 12.4259C33.356 12.299 33.3954 12.196 33.4239 12.1169C33.46 12.0296 33.496 11.9424 33.532 11.8551C33.5536 11.7996 33.5713 11.7482 33.5853 11.7008C33.6068 11.6453 33.6247 11.5978 33.6389 11.5582C33.5921 11.5599 33.5493 11.5653 33.5105 11.5744C33.4715 11.5758 33.4326 11.5811 33.3938 11.5902C33.3472 11.5997 33.3046 11.609 33.2658 11.6182C33.2268 11.6195 33.1877 11.6209 33.1487 11.6223C33.094 11.6242 33.0548 11.6216 33.0312 11.6146C32.9466 11.6567 32.8536 11.6795 32.7521 11.683L32.635 11.6871C32.6116 11.6879 32.5882 11.6887 32.5647 11.6896C32.5488 11.6823 32.5331 11.6789 32.5175 11.6795C32.4394 11.6822 32.3773 11.6961 32.3313 11.7212C32.2376 11.7244 32.1478 11.7276 32.0619 11.7306L31.9448 11.7347C31.9292 11.7352 31.9098 11.7398 31.8867 11.7484C31.8633 11.7492 31.8437 11.7499 31.8281 11.7505C31.7735 11.7524 31.7148 11.7505 31.652 11.7449C31.589 11.7314 31.5217 11.7064 31.4501 11.6699C31.352 11.5482 31.2872 11.484 31.2557 11.4773L31.1454 11.3404C31.136 11.2939 31.1228 11.2513 31.1058 11.2128C31.0885 11.1665 31.0712 11.1163 31.0536 11.0622C31.0197 10.9852 30.9856 10.9043 30.9514 10.8196C30.9247 10.7267 30.9091 10.6178 30.9048 10.4929C30.9104 10.4301 30.9244 10.3827 30.9467 10.3507C30.969 10.3186 30.9876 10.2906 31.0024 10.2667L31.0314 10.0898L31.1841 10.0961L31.512 10.0847C31.7618 10.076 32.0153 10.0593 32.2724 10.0347C32.5293 10.0023 32.7939 9.96957 33.0664 9.93661C33.222 9.91554 33.3776 9.89447 33.5332 9.8734C33.6966 9.85206 33.8639 9.83058 34.0352 9.80897C34.0639 9.73761 34.0928 9.67015 34.1219 9.6066L34.237 9.54395C34.3772 9.53124 34.4755 9.54735 34.5318 9.59229C34.5956 9.62914 34.6477 9.66641 34.6881 9.70408C34.8594 9.68247 35.0306 9.66086 35.2018 9.63924C35.3806 9.60955 35.5592 9.57595 35.7377 9.53845C36.0018 9.49014 36.266 9.44574 36.5304 9.40523C36.8026 9.36446 37.0636 9.33971 37.3134 9.33099C37.4227 9.32717 37.5283 9.32739 37.6301 9.33166C37.7318 9.33592 37.8259 9.34436 37.9124 9.35697L38.0323 9.43487C38.0574 9.48089 38.0901 9.52275 38.1305 9.56042C38.1787 9.59782 38.227 9.63523 38.2752 9.67263C38.3719 9.75524 38.4691 9.85347 38.5669 9.96732C38.6647 10.0812 38.7058 10.2517 38.6903 10.4789C38.6311 10.5748 38.5861 10.6311 38.5555 10.6478L38.455 10.792L38.3374 10.7844C38.2906 10.7861 38.2479 10.7954 38.2094 10.8123C38.1707 10.8215 38.132 10.8346 38.0935 10.8516C38.0629 10.8683 38.0322 10.885 38.0015 10.9017C37.9705 10.9106 37.9357 10.9196 37.8969 10.9288C37.8266 10.9312 37.7681 10.9333 37.7212 10.9349C37.6819 10.9285 37.6388 10.9261 37.592 10.9277ZM38.7182 15.309C38.6433 15.6243 38.5735 15.8652 38.509 16.0316C38.4519 16.19 38.3601 16.3573 38.2333 16.5337C38.1313 16.5217 38.0614 16.5358 38.0238 16.5762C37.9861 16.6166 37.9444 16.6533 37.8986 16.6861C37.8289 16.7042 37.7781 16.706 37.7464 16.6915C37.7146 16.6769 37.6866 16.6584 37.6623 16.6358C37.6384 16.621 37.6064 16.6025 37.5666 16.5805C37.5348 16.5659 37.4838 16.5599 37.4135 16.5624C37.3957 16.5005 37.3742 16.4426 37.3488 16.3887C37.3313 16.3346 37.2799 16.3169 37.1945 16.3355C37.208 16.2725 37.2101 16.2216 37.2009 16.1828C37.1915 16.1363 37.1784 16.0976 37.1617 16.0669C37.1525 16.0282 37.1435 15.9933 37.1346 15.9624C37.1254 15.9236 37.1277 15.8766 37.1414 15.8214C37.1024 15.8228 37.0702 15.7965 37.0449 15.7427C37.0195 15.6889 36.9903 15.6352 36.9571 15.5816C36.9757 15.4402 36.9944 15.3067 37.0135 15.181C37.0326 15.0552 37.0558 14.9371 37.0832 14.8267C37.1184 14.7161 37.1459 14.6057 37.1655 14.4955C37.1851 14.3854 37.1694 14.2726 37.1185 14.1571C37.1505 14.1795 37.1738 14.1747 37.1883 14.143C37.2026 14.1034 37.2127 14.0561 37.2186 14.0012C37.2242 13.9385 37.226 13.8798 37.2241 13.8251C37.2219 13.7627 37.2163 13.712 37.2071 13.6733C37.2781 13.4676 37.3333 13.2585 37.3728 13.046C37.4198 12.8255 37.4592 12.6091 37.4909 12.397C37.5303 12.1845 37.57 11.976 37.6097 11.7714C37.6495 11.5667 37.7054 11.3771 37.7775 11.2027C37.8628 11.184 37.9569 11.1925 38.0598 11.228C38.1702 11.2554 38.238 11.296 38.2634 11.3498C38.4609 11.1866 38.634 10.9929 38.7825 10.7689C38.9307 10.537 39.0832 10.3128 39.2398 10.0963C39.3964 9.87972 39.5694 9.68606 39.7589 9.51529C39.9561 9.34423 40.2065 9.23778 40.5099 9.19591C40.6701 9.30757 40.8461 9.4226 41.0379 9.54098C41.2372 9.65128 41.4027 9.80184 41.5344 9.99267C41.598 10.0217 41.6499 10.0551 41.6903 10.0928C41.7383 10.1224 41.7942 10.1556 41.858 10.1924L41.8629 10.333C41.9596 10.4156 42.0373 10.5145 42.096 10.6297C42.1623 10.7368 42.2212 10.8559 42.2727 10.987C42.3239 11.1103 42.3752 11.2375 42.4267 11.3686C42.4779 11.4919 42.5368 11.611 42.6034 11.726C42.5891 11.7655 42.5825 11.8009 42.5836 11.8322C42.5844 11.8556 42.5893 11.8828 42.5982 11.9137C42.6149 11.9444 42.6277 11.9753 42.6366 12.0062C42.6455 12.0372 42.647 12.0801 42.6411 12.135C42.6297 12.4794 42.5261 12.7605 42.3305 12.9784C42.1427 13.1961 41.9107 13.38 41.6345 13.5304C41.3581 13.6729 41.0614 13.7967 40.7446 13.9015C40.4277 14.0064 40.1424 14.118 39.8885 14.2363C39.8896 14.2675 39.9019 14.2827 39.9253 14.2819C39.9565 14.2808 39.9689 14.2999 39.9625 14.3392C40.154 14.4498 40.3056 14.5383 40.4173 14.6048C40.5291 14.6712 40.6327 14.7262 40.728 14.7698C40.8311 14.8131 40.938 14.8524 41.0487 14.8876C41.1669 14.9147 41.3283 14.9482 41.533 14.988C41.7376 15.0277 41.8951 15.0613 42.0055 15.0887C42.1235 15.108 42.2297 15.1278 42.3242 15.1479C42.4184 15.1603 42.5127 15.1726 42.6069 15.185C42.7087 15.1892 42.8496 15.196 43.0297 15.2054C43.1025 15.2732 43.164 15.357 43.2144 15.4569C43.2723 15.5487 43.3109 15.6451 43.33 15.746C43.3489 15.8392 43.3561 15.9327 43.3516 16.0267C43.3468 16.1128 43.3219 16.1841 43.277 16.2404C43.2856 16.2635 43.3016 16.2747 43.325 16.2739C43.356 16.265 43.3872 16.2639 43.4187 16.2706C43.373 16.3034 43.3353 16.3438 43.3057 16.3918C43.2761 16.4397 43.2465 16.4877 43.2169 16.5356C43.1873 16.5835 43.1535 16.6238 43.1156 16.6564C43.0779 16.6968 43.0241 16.7221 42.9541 16.7324C42.7153 16.8345 42.4109 16.8491 42.041 16.776C41.6713 16.7107 41.2016 16.5786 40.6318 16.3796C40.3469 16.2801 40.1133 16.1945 39.931 16.1227C39.7562 16.0428 39.6011 15.9661 39.4656 15.8927C39.3377 15.8112 39.2174 15.7255 39.1049 15.6356C39.0001 15.5454 38.8712 15.4366 38.7182 15.309ZM40.2527 11.2335C40.1712 11.3614 40.0775 11.478 39.9718 11.5833C39.8738 11.6884 39.776 11.7973 39.6783 11.9102C39.5882 12.015 39.5064 12.1351 39.4329 12.2705C39.3592 12.3982 39.3098 12.5484 39.2845 12.7213C39.5567 12.6805 39.8391 12.5964 40.1317 12.4689C40.424 12.3336 40.701 12.2067 40.9627 12.0881C40.923 11.8472 40.8303 11.655 40.6846 11.5115C40.5466 11.3678 40.4027 11.2751 40.2527 11.2335ZM49.5245 15.1662C49.4823 15.3006 49.4168 15.4396 49.328 15.5835C49.2468 15.7192 49.1456 15.8439 49.0245 15.9576C48.9109 16.0632 48.7812 16.1537 48.6353 16.2291C48.4894 16.3046 48.3346 16.3491 48.1709 16.3626C48.0686 16.3427 47.9974 16.3178 47.9572 16.288C47.9252 16.2656 47.8892 16.2435 47.8494 16.2214C47.8254 16.2066 47.8016 16.1957 47.7779 16.1887C47.7617 16.1736 47.7457 16.1625 47.7298 16.1552L47.5872 16.1016L47.6288 15.9477C47.6422 15.8847 47.6367 15.838 47.6121 15.8075C47.5874 15.7693 47.5387 15.7202 47.4663 15.6602C47.442 15.6376 47.4178 15.615 47.3936 15.5924C47.3693 15.5698 47.349 15.547 47.3326 15.5242L47.1257 15.3086L47.439 15.2156C47.6323 15.1541 47.7587 15.0793 47.8182 14.9913C47.8854 14.9029 47.9077 14.7575 47.885 14.5551C47.7278 14.5293 47.5949 14.53 47.4864 14.5573C47.3857 14.5842 47.2813 14.6152 47.1731 14.6503C47.0339 14.6942 46.8907 14.7344 46.7434 14.7708C46.6037 14.7992 46.4479 14.8163 46.2762 14.8223C46.2137 14.8245 46.1551 14.8265 46.1005 14.8285C46.0456 14.8226 45.9867 14.8168 45.924 14.8112L45.8061 14.7918C45.7875 14.7065 45.7702 14.6602 45.7543 14.6529C45.7381 14.6379 45.722 14.6228 45.7058 14.6077C45.6654 14.57 45.6207 14.5208 45.5717 14.46C45.5302 14.3911 45.5194 14.3054 45.5393 14.2031C45.4978 14.1342 45.4719 14.0648 45.4616 13.9948C45.4181 14.0901 45.3863 14.1889 45.3665 14.2912L45.3237 14.41L45.2074 14.4375C45.1921 14.4459 45.181 14.4658 45.1743 14.4973C45.1673 14.521 45.1641 14.5406 45.1646 14.5563L45.113 14.7574C45.098 14.7736 45.0829 14.7897 45.0678 14.8059C45.0525 14.8142 45.0373 14.8265 45.0222 14.8427C45.009 14.9135 44.992 14.9844 44.971 15.0555C44.95 15.1266 44.9289 15.1938 44.9077 15.2571C44.8722 15.3599 44.8406 15.4627 44.8129 15.5652C44.7928 15.6598 44.7882 15.7537 44.7993 15.8471L44.757 15.9776C44.7196 16.0258 44.678 16.0664 44.6322 16.0992C44.5862 16.1243 44.5402 16.1493 44.4941 16.1744C44.4791 16.1906 44.4562 16.207 44.4255 16.2237C44.4024 16.2323 44.3831 16.2408 44.3678 16.2492L44.3371 16.3792L44.1974 16.4075C44.1121 16.4262 44.05 16.4401 44.0113 16.4492C43.9803 16.4581 43.9414 16.4634 43.8945 16.465L43.777 16.4574C43.6887 16.3901 43.6204 16.3378 43.5722 16.3004C43.5237 16.2552 43.4676 16.2142 43.4037 16.1773C43.3302 16.0861 43.2887 16.0172 43.2793 15.9706C43.2698 15.924 43.2605 15.8813 43.2513 15.8426C43.2341 15.7963 43.2249 15.7575 43.2238 15.7263C43.2149 15.6953 43.2024 15.6723 43.1862 15.6572L43.0291 15.522L43.1542 15.4121L43.159 15.2126C43.3012 14.8089 43.4518 14.4206 43.6108 14.0477C43.7776 13.6744 43.9479 13.2933 44.122 12.9041C44.1801 12.777 44.2343 12.6501 44.2846 12.5232C44.3427 12.3961 44.4008 12.269 44.4589 12.1419C44.4502 12.1188 44.4454 12.0916 44.4443 12.0603C44.4432 12.0291 44.4498 11.9937 44.464 11.9541C44.5453 11.8184 44.6115 11.6988 44.6626 11.5954C44.7134 11.4842 44.7642 11.373 44.8151 11.2618C44.8729 11.1269 44.9309 10.9958 44.989 10.8687C45.0549 10.7414 45.1363 10.6095 45.2331 10.4733L45.4176 10.3847C45.4408 10.3761 45.4679 10.3673 45.4988 10.3584C45.5295 10.3417 45.5644 10.3327 45.6034 10.3313L45.7799 10.3486C45.995 10.2395 46.1813 10.0923 46.339 9.90697C46.4965 9.71386 46.6566 9.48548 46.8193 9.22183L46.9307 9.05377L47.0862 9.14215C47.1261 9.16421 47.1816 9.18572 47.2527 9.20669C47.3235 9.21985 47.3983 9.23678 47.4772 9.25748C47.6188 9.2838 47.7528 9.3143 47.8791 9.34898C48.0054 9.38366 48.1089 9.43867 48.1897 9.51402C48.2409 9.63731 48.2715 9.73005 48.2815 9.79224C48.2915 9.85443 48.3054 9.91648 48.3232 9.97839C48.3513 10.1103 48.3754 10.2424 48.3957 10.3745C48.4237 10.5065 48.4445 10.6543 48.4581 10.818C48.5017 10.9493 48.5376 11.081 48.5657 11.2129C48.6012 11.3367 48.6331 11.4646 48.6611 11.5965C48.7067 11.7825 48.7522 11.9646 48.7975 12.1428C48.8425 12.3133 48.899 12.4754 48.9669 12.6294C49.0294 12.6272 49.0685 12.6298 49.0844 12.637C49.1229 12.6201 49.1615 12.607 49.2003 12.5978C49.2469 12.5884 49.2974 12.5788 49.3517 12.5691L49.4802 12.5529L49.5311 12.6683C49.5403 12.7071 49.5807 12.7448 49.6523 12.7814C49.7541 12.7856 49.8291 12.8065 49.8773 12.8439C49.9252 12.8735 49.9694 12.9071 50.0098 12.9448C50.0421 12.9749 50.0742 12.9973 50.1059 13.0118L50.2841 13.0759L50.1965 13.2549C50.1233 13.3981 50.0149 13.5387 49.8712 13.6766C49.735 13.8065 49.5786 13.9174 49.4021 14.0096C49.4115 14.0562 49.417 14.1029 49.4187 14.1497C49.4278 14.1885 49.4411 14.231 49.4583 14.2773C49.4864 14.4093 49.5107 14.5452 49.5312 14.6852C49.5517 14.8252 49.5567 14.9696 49.5463 15.1185L49.5245 15.1662ZM46.0691 13.2583C46.3028 13.2345 46.5131 13.2115 46.6999 13.1893C46.8943 13.1591 47.1078 13.1165 47.3404 13.0614C47.2775 12.8291 47.2105 12.5891 47.1393 12.3415C47.0679 12.086 46.9926 11.8346 46.9136 11.5872L46.8475 11.7067C46.697 11.8761 46.5512 12.0649 46.4099 12.2731C46.2765 12.481 46.1621 12.6766 46.0669 12.8597C46.0225 12.9316 45.9781 13.0035 45.9337 13.0754C45.8893 13.1473 45.8489 13.2191 45.8123 13.2907C45.8588 13.2813 45.9017 13.2759 45.9407 13.2745C45.9875 13.2729 46.0303 13.2674 46.0691 13.2583ZM52.7861 15.2165C52.8333 15.4493 52.8241 15.6334 52.7584 15.7685C52.7006 15.9035 52.6103 16.0043 52.4876 16.0711C52.3729 16.1455 52.2377 16.1893 52.0818 16.2026C51.9259 16.2158 51.7773 16.2132 51.6359 16.1947C51.554 16.0881 51.479 15.9539 51.4108 15.7921C51.3426 15.6304 51.2782 15.4645 51.2175 15.2947C51.1566 15.117 51.0997 14.9431 51.0469 14.773C51.0018 14.6026 50.9614 14.4515 50.9255 14.3199C50.9613 14.2249 50.981 14.1186 50.9848 14.0012C50.996 13.8758 50.9995 13.7506 50.9951 13.6257C50.9985 13.5005 50.9981 13.3754 50.9937 13.2505C50.9969 13.1175 51.0042 12.9921 51.0158 12.8745C51.059 12.5446 51.1261 12.2296 51.2173 11.9294C51.3162 11.6289 51.3913 11.3174 51.4426 10.9951C51.4558 10.9243 51.4457 10.8582 51.4122 10.7969C51.3866 10.7352 51.3807 10.6768 51.3944 10.6216C51.4011 10.5901 51.4239 10.5698 51.4626 10.5606C51.5011 10.5436 51.5236 10.5155 51.53 10.4762C51.5505 10.3895 51.5519 10.319 51.5344 10.2649C51.5247 10.2106 51.538 10.1436 51.5743 10.0642C51.6111 10.0004 51.6548 9.90896 51.7054 9.78993C51.7635 9.66283 51.7824 9.53318 51.7622 9.40099C51.8308 9.35169 51.8953 9.29472 51.9556 9.23008C52.0158 9.16544 52.0764 9.1086 52.1372 9.05957C52.2056 9.00246 52.2781 8.95303 52.3548 8.91126C52.4393 8.86922 52.5402 8.84616 52.6573 8.84207C52.7225 8.91797 52.7645 9.00249 52.7834 9.09564C52.8101 9.18851 52.8329 9.28152 52.8518 9.37467C52.8785 9.46754 52.9128 9.55624 52.9549 9.64077C52.9966 9.71748 53.0652 9.77762 53.1605 9.8212C53.1627 9.88366 53.1654 9.96174 53.1687 10.0554C53.172 10.1491 53.1791 10.2427 53.1902 10.3361C53.201 10.4217 53.2195 10.5031 53.2457 10.5804C53.2793 10.6496 53.3278 10.6948 53.3911 10.716C53.2636 11.0957 53.1439 11.4712 53.0318 11.8425C52.9275 12.2136 52.8428 12.5879 52.7778 12.9654C52.7126 13.3351 52.6748 13.7077 52.6644 14.0833C52.6619 14.4586 52.7024 14.8363 52.7861 15.2165ZM57.2606 15.752C57.0445 15.8299 56.8088 15.9085 56.5536 15.9878C56.2984 16.0671 56.0419 16.1112 55.7843 16.1202C55.3939 16.1338 55.0821 16.047 54.8488 15.8597C54.8068 15.7752 54.7696 15.7179 54.7373 15.6877C54.7128 15.6573 54.6883 15.6269 54.6638 15.5965C54.6468 15.558 54.6333 15.5076 54.6233 15.4454C54.5258 15.3394 54.4473 15.2171 54.3877 15.0784C54.3279 14.932 54.2836 14.785 54.255 14.6375C54.234 14.4819 54.2246 14.3259 54.227 14.1694C54.2371 14.0127 54.2593 13.8634 54.2934 13.7215C54.3079 13.6898 54.3147 13.6583 54.3136 13.627C54.3203 13.5955 54.3269 13.5601 54.3333 13.5208C54.3602 13.3948 54.3872 13.2727 54.4143 13.1545C54.4493 13.036 54.4965 12.9327 54.5559 12.8447C54.5223 12.7755 54.5195 12.6974 54.5478 12.6104C54.576 12.5234 54.6084 12.4441 54.645 12.3725C54.7439 12.072 54.825 11.819 54.8882 11.6136C54.9589 11.4 55.0297 11.1904 55.1007 10.9847C55.2212 10.6287 55.334 10.2769 55.4391 9.92924C55.5442 9.58161 55.6367 9.20706 55.7165 8.8056C55.7776 8.76438 55.8235 8.73541 55.8541 8.71871C55.9004 8.70146 55.9391 8.68838 55.97 8.67948C56.113 8.74485 56.2794 8.80939 56.4693 8.87312C56.6588 8.92903 56.8161 8.95481 56.941 8.95045C57.0048 8.98731 57.045 9.01717 57.0614 9.04005C57.0776 9.05512 57.0937 9.07019 57.1099 9.08526C57.1993 9.18376 57.2772 9.28658 57.3435 9.39371C57.4095 9.49302 57.4337 9.62898 57.4163 9.80157C57.3719 9.87347 57.338 9.90983 57.3146 9.91065C57.281 10.0682 57.2427 10.2024 57.1997 10.3133C57.1645 10.424 57.1253 10.5348 57.0823 10.6458C57.0317 10.7648 56.9851 10.8837 56.9423 11.0024C56.8996 11.1212 56.8656 11.267 56.8403 11.4399C56.8105 11.48 56.7883 11.5159 56.7737 11.5477C56.767 11.5792 56.7565 11.6148 56.7423 11.6543C56.728 11.6939 56.71 11.7376 56.6882 11.7852C56.674 11.8248 56.6479 11.8609 56.6099 11.8935C56.5936 12.0973 56.5603 12.2626 56.51 12.3895C56.4675 12.516 56.4211 12.6427 56.3708 12.7695C56.285 12.9992 56.2071 13.2287 56.1369 13.4578C56.0745 13.6867 56.0406 13.9459 56.0351 14.2353C56.0736 14.2183 56.1084 14.2093 56.1396 14.2082C56.1787 14.2068 56.2138 14.2056 56.2451 14.2045C56.3153 14.202 56.3977 14.2109 56.4922 14.231C56.7221 14.0979 56.9733 14.0149 57.2457 13.9819C57.526 13.9487 57.8026 13.9234 58.0756 13.9061C58.1849 13.9022 58.2942 13.8984 58.4035 13.8946C58.5128 13.8908 58.6141 13.8794 58.7072 13.8606C58.7788 13.8971 58.8226 13.9191 58.8385 13.9263C58.8619 13.9255 58.8931 13.9244 58.9322 13.9231C58.9868 13.9211 59.0338 13.9234 59.0731 13.9299C59.1698 14.0125 59.2618 14.0718 59.349 14.1078C59.4363 14.1439 59.5273 14.1759 59.6221 14.2038C59.7091 14.2321 59.7923 14.2643 59.8717 14.3006C59.9587 14.3289 60.0423 14.3729 60.1226 14.4326L60.2221 14.9333C60.2792 15.0017 60.3043 15.0477 60.2973 15.0714C60.2995 15.1339 60.2855 15.1813 60.2554 15.2136L60.2833 15.3416C60.167 15.3691 60.086 15.3993 60.0402 15.4322C60.0023 15.4648 59.9644 15.5013 59.9268 15.5417C59.8646 15.5517 59.8179 15.5572 59.7866 15.5583C59.7632 15.5591 59.7398 15.5599 59.7164 15.5607C59.6071 15.5646 59.475 15.5887 59.3202 15.6332C59.107 15.5703 58.8871 15.5428 58.6607 15.5507C58.5748 15.5537 58.4852 15.5607 58.3917 15.5718C58.2983 15.5829 58.2049 15.594 58.1115 15.6051C58.0183 15.6239 57.9211 15.6391 57.8199 15.6504C57.7265 15.6615 57.629 15.6688 57.5275 15.6724L57.2606 15.752ZM71.7117 11.8586C71.7071 11.9526 71.7181 12.0421 71.7445 12.1272C71.7709 12.2122 71.8012 12.2972 71.8355 12.3819C71.8772 12.4587 71.9152 12.5394 71.9495 12.6242C71.9837 12.709 72.0101 12.7941 72.0287 12.8794C72.0482 12.9882 72.0524 13.1092 72.0414 13.2425C72.0302 13.3679 72.0072 13.4938 71.9725 13.6201C71.9376 13.7386 71.8906 13.8497 71.8317 13.9533C71.7725 14.0492 71.7008 14.1221 71.6166 14.1719C71.5122 14.3163 71.3832 14.4302 71.2298 14.5138C71.0764 14.5973 70.9352 14.696 70.8063 14.81C70.7223 14.8676 70.6261 14.9101 70.5176 14.9373C70.4169 14.9643 70.3123 14.9914 70.2038 15.0186C70.1196 15.0685 70.0199 15.1228 69.9047 15.1815C69.7892 15.2324 69.6698 15.2835 69.5465 15.3347C69.4229 15.3781 69.2991 15.4137 69.175 15.4415C69.0506 15.4615 68.9415 15.4692 68.8475 15.4647C68.6163 15.5587 68.3878 15.6214 68.1622 15.6528C67.9447 15.6916 67.6865 15.685 67.3876 15.6329C67.1079 15.6818 66.8459 15.6792 66.6017 15.6252C66.3653 15.5709 66.1511 15.4807 65.9591 15.3545C65.7746 15.2202 65.6088 15.0618 65.4617 14.8793C65.3222 14.6888 65.2058 14.4896 65.1125 14.2818C65.0345 13.8389 65.0361 13.4363 65.1172 13.0739C65.1981 12.7036 65.3191 12.3633 65.4803 12.0528C65.6489 11.7342 65.842 11.4421 66.0594 11.1765C66.2766 10.9032 66.4862 10.6379 66.6883 10.3807C66.7357 10.3947 66.7708 10.3934 66.7937 10.377C66.8241 10.3525 66.8505 10.3242 66.8728 10.2922C66.8949 10.2523 66.9171 10.2163 66.9394 10.1843C66.9695 10.152 67.004 10.1312 67.0427 10.1221C67.0933 10.003 67.1684 9.91442 67.268 9.85622C67.3751 9.78994 67.458 9.70106 67.5166 9.58957C67.5864 9.5715 67.6441 9.54603 67.6899 9.51316C67.7356 9.4803 67.7773 9.44366 67.815 9.40326C67.8605 9.36258 67.9061 9.32581 67.9519 9.29295C67.9973 9.25227 68.051 9.22304 68.113 9.20524L68.1085 9.07641C68.2468 9.00904 68.3459 8.93523 68.4056 8.85497C68.4729 8.76663 68.5513 8.66227 68.6409 8.54188C68.7109 8.53162 68.7654 8.52581 68.8045 8.52444C68.8513 8.52281 68.9174 8.51268 69.0028 8.49407C69.0614 8.38258 69.1132 8.29869 69.1581 8.2424C69.2109 8.18583 69.2869 8.12455 69.3862 8.05854C69.4816 8.10212 69.5841 8.1298 69.694 8.1416C69.8117 8.15313 69.9149 8.20033 70.0038 8.28322C70.0143 8.36102 70.04 8.42267 70.0806 8.46815C70.121 8.50583 70.1653 8.54337 70.2135 8.58077C70.2615 8.61036 70.3057 8.644 70.3461 8.68167C70.3943 8.71908 70.4274 8.77264 70.4455 8.84237C70.477 8.84908 70.4964 8.8445 70.5036 8.82861C70.5187 8.81245 70.542 8.80773 70.5735 8.81444C70.6007 8.92293 70.6306 8.99615 70.6632 9.0341C70.6956 9.06424 70.7291 9.12952 70.7639 9.22993C70.7276 9.30937 70.6992 9.39244 70.6788 9.47914C70.6659 9.55777 70.6211 9.61796 70.5444 9.65972C70.5385 9.71465 70.5552 9.74534 70.5945 9.75178C70.6335 9.75042 70.6576 9.76912 70.6668 9.80789C70.6771 9.87788 70.6671 9.92904 70.637 9.96136C70.835 10.2593 71.0142 10.5775 71.1745 10.9158C71.3346 11.2464 71.5136 11.5606 71.7117 11.8586ZM70.2866 13.0223C70.3148 12.9354 70.3514 12.8637 70.3963 12.8074C70.4491 12.7509 70.4774 12.6678 70.4814 12.5582C70.4402 12.4971 70.4151 12.4511 70.4062 12.4201C70.3971 12.3814 70.3911 12.3229 70.3884 12.2449C70.2082 12.0088 70.0508 11.7564 69.9164 11.4874C69.7816 11.2107 69.632 10.9541 69.4673 10.7175C69.4528 10.7493 69.4266 10.7814 69.3886 10.814C69.3507 10.8466 69.3075 10.8403 69.259 10.7951C69.2456 10.8581 69.2199 10.9059 69.1819 10.9385C69.1437 10.9633 69.1012 10.9765 69.0543 10.9782C69.0072 10.972 68.956 10.962 68.9008 10.9483C68.8532 10.9265 68.8093 10.9007 68.7692 10.8709C68.549 11.0583 68.3287 11.2419 68.1083 11.4216C67.8879 11.6013 67.6918 11.8075 67.5201 12.0402C67.4895 12.0569 67.4702 12.0654 67.4624 12.0656C67.4543 12.0581 67.431 12.0628 67.3925 12.0798C67.3353 12.2303 67.2619 12.3697 67.1726 12.4979C67.0908 12.618 67.0092 12.742 66.9276 12.8699C66.8461 12.9979 66.7766 13.1332 66.719 13.2759C66.6615 13.4186 66.6321 13.5838 66.6308 13.7715C66.7673 13.8761 66.9258 13.9371 67.1062 13.9542C67.2866 13.9714 67.4702 13.9689 67.6571 13.9467C67.8517 13.9243 68.0383 13.8943 68.2168 13.8568C68.4028 13.8112 68.5739 13.7857 68.73 13.7802C69.0552 13.6907 69.3328 13.5794 69.5626 13.4463C69.7922 13.3054 70.0335 13.1641 70.2866 13.0223ZM74.1745 14.8917C74.1369 15.1588 74.0106 15.3469 73.7955 15.456C73.6943 15.4674 73.6161 15.4662 73.5609 15.4525C73.5135 15.4385 73.4621 15.4208 73.4066 15.3993C73.3352 15.3705 73.2721 15.3532 73.2171 15.3473L73.085 15.2581C73.0681 15.2196 73.0472 15.1812 73.0224 15.143C72.9976 15.1048 72.9689 15.0667 72.9363 15.0287C72.8711 14.9528 72.8053 14.8574 72.7387 14.7425C72.684 14.5177 72.6696 14.3306 72.6957 14.1811C72.7214 14.0239 72.7552 13.8703 72.7968 13.7203C72.8108 13.6729 72.8248 13.6255 72.8388 13.5781C72.8525 13.5229 72.8663 13.4716 72.8803 13.4242C72.6735 13.322 72.5158 13.1712 72.4072 12.9717C72.2986 12.7723 72.2332 12.5791 72.2111 12.3923C72.2293 12.2431 72.2682 12.1245 72.3276 12.0364C72.3868 11.9406 72.4545 11.8639 72.5307 11.8066C72.6146 11.7489 72.699 11.703 72.7838 11.6687C72.8764 11.6342 72.9653 11.6038 73.0503 11.5773L73.2046 11.6306C73.2773 11.6984 73.3495 11.7506 73.4212 11.7872C73.475 11.7619 73.5089 11.7255 73.5229 11.6781C73.5444 11.6226 73.5619 11.5634 73.5753 11.5004C73.5963 11.4293 73.6172 11.3582 73.6382 11.2871C73.667 11.2158 73.6997 11.1443 73.7363 11.0726C73.7249 10.9714 73.7372 10.8772 73.7733 10.7899C73.7173 10.7528 73.6579 10.7314 73.5952 10.7258C73.5795 10.7263 73.5402 10.7199 73.4772 10.7064C73.3811 10.6394 73.3127 10.5832 73.272 10.5377C73.2388 10.4842 73.2058 10.4345 73.173 10.3887C73.1226 10.2889 73.0612 10.2089 72.9887 10.1489L72.8687 10.071L72.9232 9.95188C72.9383 9.93572 72.9454 9.91593 72.9446 9.89251C72.9438 9.86908 72.9269 9.83449 72.8941 9.78874C72.8754 9.7034 72.8734 9.64484 72.8879 9.61306L72.9073 9.49513C72.9667 9.40706 72.9963 9.35913 72.996 9.35132L73.0978 9.24223C73.2526 9.19774 73.4033 9.14948 73.55 9.09746C73.7043 9.03735 73.8585 8.97724 74.0128 8.91713C74.1595 8.86511 74.3062 8.81308 74.4529 8.76105C74.6071 8.70095 74.7617 8.64865 74.9164 8.60415C74.9697 8.56321 75.0275 8.53774 75.0897 8.52775C75.1516 8.50995 75.2097 8.4962 75.2641 8.48648C75.3107 8.47704 75.3535 8.47163 75.3925 8.47027C75.4313 8.4611 75.4581 8.44453 75.4729 8.42056C75.5655 8.38606 75.6736 8.34711 75.7971 8.30371C75.9904 8.24223 76.246 8.17468 76.564 8.10104C76.8816 8.01959 77.2389 7.95239 77.6357 7.89945L77.8344 7.88079C77.8737 7.88723 77.9129 7.88977 77.9519 7.88841C77.9907 7.87924 78.0296 7.87397 78.0686 7.87261C78.42 7.86034 78.6462 7.95797 78.7472 8.16551C78.8189 8.20209 78.8828 8.24285 78.9391 8.28779C78.9954 8.33273 79.0478 8.3778 79.0963 8.42301C79.1208 8.45343 79.1452 8.47994 79.1694 8.50254C79.2014 8.52487 79.2254 8.53967 79.2413 8.54693C79.3811 8.7453 79.4303 8.92338 79.3889 9.08117C79.3222 9.18512 79.2345 9.24682 79.1257 9.26625L78.9993 9.34102C78.9132 9.33621 78.8467 9.33462 78.7998 9.33626C78.7608 9.33762 78.7178 9.33912 78.671 9.34076C78.4758 9.34757 78.2498 9.36719 77.993 9.39961C77.7361 9.43203 77.4719 9.47644 77.2002 9.53283C76.9361 9.58114 76.6803 9.64089 76.4326 9.71207C76.1849 9.78326 75.9686 9.85726 75.7837 9.93407L75.5766 10.0468C75.5249 10.1346 75.4961 10.206 75.4902 10.2609C75.4841 10.308 75.4779 10.3552 75.4717 10.4023C75.465 10.4338 75.4583 10.4653 75.4516 10.4968C75.4527 10.528 75.45 10.5633 75.4435 10.6026C75.3165 10.7712 75.257 10.9687 75.2649 11.1951C75.2135 11.2907 75.1808 11.3622 75.1669 11.4096C75.1526 11.4492 75.1544 11.5 75.1722 11.5619C75.3227 11.6192 75.4641 11.6377 75.5962 11.6174C75.7284 11.5972 75.8605 11.573 75.9924 11.545C76.1709 11.5075 76.3534 11.4737 76.54 11.4438C76.7343 11.4135 76.933 11.3949 77.136 11.3878L77.5108 11.3747L77.4204 11.4716L77.4847 11.6336C77.5323 11.6553 77.5641 11.6699 77.58 11.6771C77.6037 11.6841 77.6275 11.695 77.6515 11.7098L77.7137 11.8132C77.7455 11.8277 77.7738 11.8541 77.7986 11.8923C77.8312 11.9302 77.8527 11.9881 77.8633 12.0659L77.4068 12.762L77.2445 12.8145C77.1115 12.8114 76.9949 12.8311 76.8948 12.8737C76.8407 12.8912 76.7866 12.9087 76.7325 12.9262C76.6781 12.9359 76.6196 12.9419 76.5572 12.9441C76.4021 12.9808 76.2702 13.0088 76.1614 13.0282C76.0605 13.0474 75.9556 13.0667 75.8469 13.0861C75.7069 13.1067 75.5711 13.1349 75.4394 13.1707C75.3075 13.1988 75.1838 13.2383 75.0683 13.2892C74.9902 13.2919 74.9356 13.2938 74.9044 13.2949C74.8419 13.2971 74.7759 13.3111 74.7065 13.337C74.6446 13.3548 74.5866 13.3725 74.5325 13.39C74.4945 13.4226 74.4684 13.4587 74.4542 13.4983C74.4396 13.53 74.4252 13.5657 74.411 13.6053C74.3836 13.7157 74.3438 13.807 74.2916 13.8792L74.2977 14.0549C74.238 14.1351 74.2011 14.1989 74.1871 14.2463C74.1807 14.2856 74.1703 14.3251 74.1561 14.3647C74.1413 14.3886 74.1304 14.4125 74.1234 14.4362C74.1161 14.4521 74.1129 14.4717 74.1137 14.4951C74.1803 14.6101 74.2005 14.7423 74.1745 14.8917Z" fill="white"/>
<path d="M8.55076 27.3223C8.88004 27.3499 9.17515 27.406 9.43608 27.4907C9.69701 27.5754 9.91999 27.6927 10.105 27.8426C10.2368 28.0334 10.3612 28.2402 10.4784 28.4628C10.6035 28.6851 10.6977 28.9202 10.7611 29.1682C10.832 29.408 10.868 29.6569 10.8692 29.9149C10.8782 30.1725 10.8327 30.436 10.7326 30.7053C10.516 30.9942 10.2469 31.2342 9.92525 31.4253C9.61113 31.6082 9.2686 31.7609 8.89764 31.8833C8.52669 32.0057 8.13957 32.113 7.7363 32.2053C7.34083 32.2973 6.95317 32.389 6.57332 32.4804C6.58739 32.6597 6.59407 32.851 6.59336 33.0543C6.60017 33.2495 6.5876 33.4492 6.55566 33.6536C6.53124 33.8499 6.48717 34.043 6.42344 34.2328C6.35972 34.4226 6.27202 34.5977 6.16036 34.7579C6.02763 34.7626 5.89154 34.7829 5.75209 34.8191C5.61291 34.863 5.48908 34.8986 5.38059 34.9259C5.32485 34.8965 5.273 34.8671 5.22507 34.8375C5.18521 34.8154 5.12611 34.8019 5.04776 34.7968C5.06065 34.7182 5.0384 34.6408 4.98102 34.5646C4.92337 34.4806 4.86571 34.3966 4.80806 34.3127C4.75041 34.2287 4.7085 34.1481 4.68236 34.0708C4.66401 33.9933 4.70046 33.9177 4.7917 33.8442C4.73514 33.7914 4.70536 33.7221 4.70236 33.6362C4.75374 33.5406 4.79609 33.4102 4.8294 33.2449C4.87052 33.0793 4.90007 32.918 4.91804 32.761C4.94354 32.5959 4.94617 32.4473 4.92592 32.3151C4.90567 32.183 4.82418 32.0881 4.68146 32.0305C4.68872 32.0146 4.70407 32.0063 4.72749 32.0055C4.75091 32.0047 4.7742 31.9999 4.79735 31.9913C4.73325 31.9466 4.6919 31.8816 4.67328 31.7963C4.66248 31.7107 4.63256 31.6375 4.58353 31.5766C4.59778 31.5371 4.60827 31.5015 4.61499 31.47C4.6217 31.4385 4.64862 31.4258 4.69574 31.432C4.66741 31.2923 4.66277 31.1596 4.68183 31.0338C4.7087 30.9078 4.74756 30.7892 4.79839 30.678C4.84896 30.5589 4.91137 30.4434 4.98563 30.3314C5.05989 30.2193 5.13025 30.1074 5.1967 29.9957C5.25108 29.986 5.28258 29.9927 5.29121 30.0158C5.30764 30.0387 5.33483 30.0339 5.37278 30.0013C5.47156 29.9196 5.53896 29.8352 5.575 29.748C5.61104 29.6607 5.62715 29.5624 5.62334 29.4531C5.67226 29.2872 5.7329 29.121 5.80526 28.9543C5.87734 28.7798 5.95777 28.6206 6.04655 28.4768C6.13534 28.333 6.23248 28.2045 6.33797 28.0914C6.45127 27.978 6.56942 27.8918 6.69244 27.8328C6.7834 27.7514 6.89807 27.6771 7.03643 27.6097C7.17451 27.5345 7.32499 27.4785 7.48786 27.4415C7.65046 27.3967 7.81374 27.3715 7.9777 27.3658C8.1492 27.352 8.3059 27.3621 8.4478 27.3963C8.48739 27.4105 8.50664 27.402 8.50554 27.3708C8.51226 27.3393 8.52733 27.3231 8.55076 27.3223ZM8.16832 30.1382C8.36052 30.0455 8.56511 29.9719 8.78209 29.9174C9.0066 29.8548 9.19058 29.7507 9.33402 29.605C9.23733 29.5223 9.0981 29.4529 8.91634 29.3968C8.73431 29.3328 8.53762 29.2966 8.32626 29.2884C8.11491 29.2801 7.90088 29.3071 7.68417 29.3694C7.475 29.4236 7.29479 29.5237 7.14354 29.6697C7.1016 29.8119 7.06652 29.9265 7.03828 30.0135C7.00978 30.0926 6.97025 30.1917 6.91968 30.3107C6.93666 30.3492 6.96117 30.3796 6.99322 30.402C7.03281 30.4162 7.06109 30.4426 7.07807 30.4811C7.25437 30.3811 7.43218 30.3241 7.61148 30.31C7.79832 30.2879 7.98394 30.2306 8.16832 30.1382ZM17.3834 30.7662C17.3788 30.8601 17.3898 30.9496 17.4162 31.0347C17.4426 31.1198 17.4729 31.2047 17.5072 31.2895C17.5489 31.3662 17.5869 31.447 17.6212 31.5318C17.6554 31.6166 17.6818 31.7016 17.7004 31.787C17.7199 31.8957 17.7241 32.0167 17.7131 32.15C17.7018 32.2755 17.6789 32.4014 17.6442 32.5277C17.6093 32.6461 17.5623 32.7572 17.5034 32.8609C17.4442 32.9568 17.3725 33.0296 17.2883 33.0795C17.1838 33.2238 17.0549 33.3378 16.9015 33.4213C16.7481 33.5048 16.6069 33.6036 16.478 33.7175C16.394 33.7752 16.2978 33.8176 16.1893 33.8449C16.0886 33.8718 15.984 33.8989 15.8755 33.9262C15.7913 33.976 15.6916 34.0303 15.5763 34.0891C15.4609 34.14 15.3415 34.1911 15.2182 34.2423C15.0946 34.2857 14.9708 34.3213 14.8467 34.3491C14.7223 34.369 14.6131 34.3768 14.5192 34.3722C14.2879 34.4663 14.0595 34.529 13.8339 34.5603C13.6164 34.5992 13.3582 34.5926 13.0593 34.5405C12.7796 34.5893 12.5176 34.5867 12.2734 34.5327C12.037 34.4784 11.8228 34.3882 11.6308 34.262C11.4463 34.1277 11.2805 33.9694 11.1334 33.7869C10.9939 33.5963 10.8775 33.3972 10.7842 33.1893C10.7062 32.7465 10.7078 32.3438 10.7889 31.9814C10.8698 31.6112 10.9908 31.2708 11.152 30.9603C11.3206 30.6417 11.5137 30.3497 11.7311 30.0841C11.9483 29.8107 12.1579 29.5454 12.36 29.2882C12.4074 29.3022 12.4425 29.301 12.4654 29.2845C12.4958 29.26 12.5222 29.2317 12.5445 29.1997C12.5665 29.1598 12.5887 29.1239 12.6111 29.0918C12.6412 29.0595 12.6757 29.0388 12.7144 29.0296C12.765 28.9106 12.8401 28.822 12.9397 28.7638C13.0468 28.6975 13.1297 28.6086 13.1883 28.4971C13.2581 28.479 13.3158 28.4536 13.3616 28.4207C13.4073 28.3878 13.449 28.3512 13.4867 28.3108C13.5322 28.2701 13.5778 28.2334 13.6236 28.2005C13.669 28.1598 13.7227 28.1306 13.7847 28.1128L13.7802 27.984C13.9185 27.9166 14.0176 27.8428 14.0773 27.7625C14.1446 27.6742 14.223 27.5698 14.3126 27.4494C14.3826 27.4392 14.4371 27.4334 14.4762 27.432C14.523 27.4304 14.5891 27.4202 14.6744 27.4016C14.7331 27.2901 14.7849 27.2062 14.8298 27.1499C14.8826 27.0934 14.9586 27.0321 15.0579 26.9661C15.1532 27.0097 15.2558 27.0374 15.3657 27.0492C15.4833 27.0607 15.5866 27.1079 15.6755 27.1908C15.686 27.2686 15.7116 27.3302 15.7523 27.3757C15.7927 27.4134 15.837 27.4509 15.8852 27.4883C15.9332 27.5179 15.9773 27.5515 16.0177 27.5892C16.066 27.6266 16.0991 27.6802 16.1172 27.7499C16.1487 27.7566 16.168 27.752 16.1753 27.7362C16.1904 27.72 16.2137 27.7153 16.2452 27.722C16.2724 27.8305 16.3023 27.9037 16.3349 27.9417C16.3672 27.9718 16.4008 28.0371 16.4356 28.1375C16.3993 28.2169 16.3709 28.3 16.3505 28.3867C16.3376 28.4653 16.2928 28.5255 16.2161 28.5673C16.2102 28.6222 16.2269 28.6529 16.2662 28.6593C16.3052 28.658 16.3293 28.6767 16.3385 28.7154C16.3488 28.7854 16.3388 28.8366 16.3087 28.8689C16.5067 29.1669 16.6859 29.485 16.8462 29.8234C17.0063 30.1539 17.1853 30.4682 17.3834 30.7662ZM15.9583 31.9299C15.9865 31.8429 16.0231 31.7713 16.068 31.715C16.1208 31.6584 16.1491 31.5753 16.1531 31.4658C16.1119 31.4047 16.0868 31.3586 16.0779 31.3277C16.0688 31.2889 16.0628 31.2305 16.0601 31.1524C15.8799 30.9164 15.7225 30.6639 15.5881 30.395C15.4533 30.1183 15.3036 29.8616 15.139 29.625C15.1245 29.6568 15.0983 29.689 15.0603 29.7216C15.0224 29.7542 14.9792 29.7479 14.9307 29.7027C14.9172 29.7657 14.8916 29.8135 14.8536 29.8461C14.8154 29.8709 14.7729 29.8841 14.726 29.8857C14.6789 29.8795 14.6277 29.8696 14.5725 29.8559C14.5249 29.8341 14.481 29.8083 14.4408 29.7784C14.2207 29.9659 14.0004 30.1495 13.78 30.3291C13.5595 30.5088 13.3635 30.715 13.1918 30.9477C13.1611 30.9644 13.1419 30.9729 13.1341 30.9732C13.126 30.9656 13.1027 30.9704 13.0642 30.9873C13.0069 31.1379 12.9336 31.2772 12.8443 31.4054C12.7625 31.5255 12.6809 31.6496 12.5993 31.7775C12.5178 31.9054 12.4483 32.0407 12.3907 32.1834C12.3332 32.3262 12.3038 32.4914 12.3025 32.679C12.439 32.7837 12.5975 32.8446 12.7779 32.8618C12.9583 32.8789 13.1419 32.8764 13.3288 32.8542C13.5234 32.8318 13.71 32.8018 13.8885 32.7643C14.0745 32.7188 14.2456 32.6932 14.4017 32.6878C14.7269 32.5983 15.0045 32.4869 15.2343 32.3538C15.4639 32.2129 15.7052 32.0716 15.9583 31.9299ZM17.9896 28.9861C18.0385 28.8202 18.1195 28.6767 18.2325 28.5555C18.3533 28.434 18.4827 28.3318 18.6205 28.2488C18.7658 28.1577 18.9156 28.0821 19.0699 28.022C19.2241 27.9619 19.3708 27.9099 19.51 27.866C19.8177 27.7223 20.1451 27.5858 20.4924 27.4564C20.8472 27.319 21.2064 27.197 21.5701 27.0905C21.9416 26.9837 22.3222 26.9118 22.7117 26.8747C23.101 26.8298 23.5126 26.8624 23.9464 26.9723C23.9725 27.0496 24.0102 27.1225 24.0595 27.1911C24.1088 27.2598 24.1581 27.3284 24.2074 27.397C24.2645 27.4654 24.3138 27.534 24.3553 27.6029C24.3966 27.664 24.4223 27.7296 24.4326 27.7996C24.5131 27.8671 24.5783 27.943 24.6281 28.0273C24.6777 28.1037 24.6892 28.2088 24.6626 28.3427C24.5867 28.4079 24.5107 28.4691 24.4345 28.5265C24.3659 28.5758 24.2893 28.6215 24.2048 28.6635C23.9134 28.6033 23.6198 28.5902 23.3239 28.6239C23.0281 28.6577 22.7633 28.6865 22.5296 28.7103C22.4569 28.6425 22.3698 28.6104 22.2682 28.6139C22.1746 28.6172 22.0736 28.6363 21.9654 28.6714C21.865 28.7062 21.7607 28.7411 21.6524 28.7761C21.552 28.8109 21.4547 28.8221 21.3605 28.8098C21.2846 28.8749 21.1885 28.9213 21.0722 28.9488C20.9634 28.9682 20.8429 28.9881 20.7108 29.0083C20.7043 29.0476 20.7131 29.0747 20.737 29.0895C20.7607 29.0965 20.7655 29.1198 20.7512 29.1594C20.8 29.2124 20.8599 29.2494 20.931 29.2703C21.0099 29.291 21.0888 29.3117 21.1677 29.3324C21.2544 29.3529 21.3296 29.3815 21.3934 29.4184C21.457 29.4474 21.5019 29.5006 21.528 29.5778C21.6451 29.5737 21.7476 29.5975 21.8354 29.6492C21.9232 29.7008 21.9957 29.7647 22.0531 29.8409C22.1105 29.9171 22.1525 30.0016 22.1792 30.0945C22.2135 30.1793 22.2318 30.2568 22.2343 30.3271C22.2599 30.3887 22.2882 30.4151 22.3191 30.4062C22.3501 30.3973 22.3858 30.4117 22.4262 30.4493C22.4531 30.55 22.5154 30.6534 22.6129 30.7594C22.7101 30.8577 22.7882 30.9683 22.8472 31.0913C22.8697 31.2859 22.8875 31.4612 22.9008 31.6171C22.9138 31.7652 22.8918 31.9184 22.8348 32.0767C22.7277 32.3697 22.5728 32.6331 22.3699 32.8668C22.1748 33.1004 21.9476 33.3115 21.6884 33.5004C21.4368 33.6812 21.1648 33.8392 20.8724 33.9745C20.5801 34.1098 20.2949 34.2252 20.0168 34.3209C19.9853 34.3142 19.9541 34.3153 19.9231 34.3242C19.8922 34.3331 19.8837 34.3139 19.8977 34.2665C19.8371 34.3233 19.7681 34.3609 19.6905 34.3792C19.6208 34.3973 19.5429 34.4039 19.4567 34.3991C19.3708 34.4021 19.2809 34.4014 19.1869 34.3968C19.1008 34.392 19.0189 34.3988 18.9414 34.4171C18.8848 34.3644 18.8322 34.3115 18.7834 34.2585C18.7428 34.213 18.7093 34.1516 18.6832 34.0744C18.6442 34.0757 18.624 34.0569 18.6226 34.0179C18.629 33.9785 18.6166 33.9594 18.5854 33.9605C18.6295 33.8808 18.6476 33.8372 18.6395 33.8297C18.6389 33.814 18.6268 33.8027 18.6031 33.7957C18.5872 33.7885 18.5713 33.7812 18.5554 33.774C18.5393 33.7589 18.5347 33.7395 18.5417 33.7158C18.5707 33.6523 18.58 33.5816 18.5695 33.5038C18.5587 33.4182 18.5478 33.3325 18.537 33.2469C18.5262 33.1613 18.5273 33.0792 18.5402 33.0006C18.5609 32.9217 18.6172 32.8572 18.7093 32.8071C18.9758 32.829 19.2254 32.8125 19.458 32.7575C19.6982 32.6944 19.922 32.6123 20.1295 32.5112C20.3371 32.4102 20.5326 32.3017 20.7162 32.1859C20.9076 32.0697 21.0954 31.9655 21.2798 31.873C21.3008 31.8019 21.33 31.7423 21.3674 31.6941C21.4126 31.6456 21.4579 31.601 21.5034 31.5604C21.5489 31.5197 21.5904 31.4752 21.6278 31.427C21.6652 31.3788 21.6904 31.3193 21.7036 31.2485C21.7095 31.1936 21.6928 31.1629 21.6535 31.1564C21.6217 31.1419 21.605 31.1112 21.6034 31.0644L21.4733 31.0337C21.322 30.953 21.1516 30.8886 20.9623 30.8405C20.7728 30.7846 20.6104 30.7238 20.4752 30.6582C20.391 30.708 20.3094 30.7226 20.2305 30.7019C20.1594 30.6809 20.0649 30.6608 19.947 30.6415C19.681 30.6351 19.4224 30.6168 19.1711 30.5865C18.9277 30.5559 18.6911 30.4938 18.4611 30.4002C18.4441 30.3617 18.4234 30.3272 18.3988 30.2968C18.3743 30.2664 18.3311 30.2601 18.2692 30.2779C18.2202 30.2171 18.1713 30.1602 18.1225 30.1071C18.0735 30.0463 18.0282 29.9815 17.9867 29.9125C17.9991 29.8183 18.0081 29.7398 18.0137 29.6771C18.0191 29.6065 17.9933 29.541 17.9365 29.4804C17.9642 29.3779 17.9847 29.2951 17.9982 29.232C18.0116 29.169 18.0087 29.0871 17.9896 28.9861ZM26.0035 33.1621C26.0507 33.395 26.0415 33.579 25.9758 33.7142C25.918 33.8491 25.8277 33.95 25.705 34.0168C25.5903 34.0911 25.4551 34.1349 25.2992 34.1482C25.1433 34.1615 24.9947 34.1588 24.8533 34.1403C24.7714 34.0337 24.6964 33.8996 24.6282 33.7378C24.56 33.576 24.4956 33.4102 24.4349 33.2403C24.374 33.0626 24.3171 32.8887 24.2643 32.7186C24.2192 32.5482 24.1788 32.3972 24.1429 32.2655C24.1787 32.1705 24.1984 32.0643 24.2022 31.9469C24.2134 31.8214 24.2169 31.6962 24.2125 31.5713C24.2159 31.4461 24.2155 31.321 24.2111 31.1961C24.2143 31.0631 24.2216 30.9378 24.2332 30.8201C24.2764 30.4903 24.3435 30.1752 24.4347 29.875C24.5336 29.5745 24.6087 29.2631 24.66 28.9408C24.6732 28.87 24.6631 28.8039 24.6296 28.7425C24.604 28.6809 24.5981 28.6224 24.6118 28.5672C24.6185 28.5357 24.6413 28.5154 24.68 28.5062C24.7185 28.4892 24.741 28.4611 24.7474 28.4218C24.7679 28.3351 24.7693 28.2647 24.7518 28.2106C24.7421 28.1562 24.7554 28.0893 24.7917 28.0098C24.8285 27.946 24.8722 27.8546 24.9228 27.7356C24.9809 27.6085 24.9998 27.4788 24.9796 27.3466C25.0482 27.2973 25.1127 27.2404 25.173 27.1757C25.2332 27.1111 25.2938 27.0542 25.3546 27.0052C25.423 26.9481 25.4955 26.8987 25.5722 26.8569C25.6567 26.8149 25.7576 26.7918 25.8747 26.7877C25.9399 26.8636 25.9819 26.9481 26.0008 27.0413C26.0275 27.1341 26.0503 27.2272 26.0692 27.3203C26.0959 27.4132 26.1302 27.5019 26.1723 27.5864C26.214 27.6631 26.2826 27.7233 26.3779 27.7668C26.3801 27.8293 26.3828 27.9074 26.3861 28.0011C26.3894 28.0948 26.3965 28.1883 26.4076 28.2817C26.4184 28.3673 26.4369 28.4488 26.4631 28.526C26.4967 28.5952 26.5452 28.6404 26.6085 28.6617C26.481 29.0414 26.3613 29.4169 26.2492 29.7882C26.1449 30.1592 26.0602 30.5335 25.9952 30.911C25.93 31.2807 25.8922 31.6533 25.8818 32.0289C25.8793 32.4042 25.9198 32.782 26.0035 33.1621ZM33.8578 28.0685C33.6626 28.0753 33.4524 28.0983 33.227 28.1374C33.0014 28.1687 32.7799 28.2038 32.5623 28.2427C32.407 28.2716 32.2554 28.2964 32.1076 28.3172C31.9676 28.3377 31.8392 28.3539 31.7224 28.3658C31.6737 28.5395 31.6244 28.6937 31.5744 28.8283C31.5244 28.963 31.4703 29.0938 31.4122 29.2209C31.3544 29.3558 31.3006 29.4945 31.2508 29.637C31.2086 29.7713 31.1668 29.9174 31.1254 30.0752C31.0517 30.2029 30.9894 30.3223 30.9386 30.4335C30.8953 30.5366 30.8603 30.6551 30.8338 30.7889C30.7441 30.9093 30.6782 31.0367 30.636 31.1711C30.5935 31.2976 30.5622 31.4082 30.5421 31.5027L30.5001 31.6449C30.4549 31.6933 30.429 31.7333 30.4222 31.7648C30.4153 31.7885 30.3966 31.8126 30.3661 31.8372C30.3613 31.9233 30.337 32.0102 30.2932 32.0977C30.2789 32.1373 30.2686 32.1767 30.2621 32.216C30.2554 32.2475 30.2523 32.2711 30.2529 32.2867C30.2556 32.3648 30.2378 32.4162 30.1996 32.441C30.2088 32.4798 30.2103 32.5227 30.2041 32.5698C30.1977 32.6091 30.1912 32.6484 30.1848 32.6878C30.1646 32.7823 30.1594 32.8567 30.1691 32.9111C30.1936 32.9415 30.2141 32.9681 30.2305 32.991C30.2548 33.0136 30.2715 33.0443 30.2807 33.0831C30.3286 33.1127 30.3644 33.131 30.3881 33.138C30.4202 33.1603 30.468 33.186 30.5315 33.215L30.641 33.3285C30.688 33.5535 30.6591 33.7343 30.5544 33.8709C30.4425 34.0233 30.246 34.1044 29.9649 34.1143L29.8244 34.1192C29.784 34.0815 29.7594 34.0511 29.7508 34.0279C29.6875 34.0067 29.6361 33.9889 29.5965 33.9747C29.5569 33.9604 29.5207 33.9304 29.4878 33.8847C29.3847 33.8414 29.3014 33.8052 29.2378 33.7762L29.1304 33.7213C29.1274 33.6354 29.1257 33.5885 29.1255 33.5807C29.0683 33.5124 29.0227 33.4358 28.9884 33.351C28.962 33.2659 28.9395 33.1807 28.9209 33.0954C28.9028 33.0257 28.881 32.96 28.8554 32.8983C28.8376 32.8364 28.8123 32.7826 28.7794 32.7368C28.748 32.2845 28.7775 31.9004 28.8681 31.5846C28.9587 31.2687 29.0536 30.9645 29.1529 30.6718C29.2099 30.5134 29.2669 30.3551 29.3239 30.1967C29.3806 30.0306 29.4294 29.8608 29.4703 29.6874L29.5716 29.5666C29.6219 29.4398 29.6613 29.3368 29.6898 29.2576C29.7258 29.1704 29.7618 29.0831 29.7979 28.9959C29.8194 28.9404 29.8371 28.889 29.8511 28.8416C29.8726 28.7861 29.8905 28.7386 29.9048 28.699C29.8579 28.7006 29.8151 28.706 29.7764 28.7152C29.7373 28.7166 29.6984 28.7218 29.6597 28.731C29.6131 28.7405 29.5704 28.7498 29.5316 28.7589C29.4926 28.7603 29.4536 28.7617 29.4145 28.763C29.3599 28.7649 29.3207 28.7624 29.297 28.7554C29.2125 28.7974 29.1195 28.8202 29.018 28.8238L28.9009 28.8279C28.8774 28.8287 28.854 28.8295 28.8306 28.8303C28.8147 28.8231 28.7989 28.8197 28.7833 28.8202C28.7052 28.823 28.6432 28.8369 28.5972 28.8619C28.5035 28.8652 28.4137 28.8683 28.3278 28.8713L28.2107 28.8754C28.1951 28.876 28.1757 28.8805 28.1525 28.8892C28.1291 28.89 28.1096 28.8907 28.094 28.8912C28.0393 28.8931 27.9806 28.8913 27.9179 28.8856C27.8549 28.8722 27.7876 28.8472 27.7159 28.8106C27.6179 28.689 27.5531 28.6248 27.5216 28.6181L27.4113 28.4812C27.4018 28.4346 27.3886 28.3921 27.3716 28.3536C27.3544 28.3073 27.337 28.2571 27.3195 28.203C27.2855 28.126 27.2514 28.0451 27.2172 27.9603C27.1905 27.8674 27.175 27.7585 27.1706 27.6336C27.1762 27.5709 27.1902 27.5235 27.2126 27.4914C27.2349 27.4594 27.2535 27.4314 27.2683 27.4074L27.2973 27.2305L27.4499 27.2369L27.7778 27.2255C28.0277 27.2167 28.2812 27.2001 28.5383 27.1754C28.7951 27.143 29.0598 27.1103 29.3322 27.0774C29.4878 27.0563 29.6434 27.0352 29.799 27.0142C29.9625 26.9928 30.1298 26.9713 30.301 26.9497C30.3298 26.8784 30.3587 26.8109 30.3877 26.7474L30.5028 26.6847C30.6431 26.672 30.7414 26.6881 30.7976 26.733C30.8615 26.7699 30.9136 26.8072 30.954 26.8448C31.1252 26.8232 31.2964 26.8016 31.4677 26.78C31.6464 26.7503 31.825 26.7167 32.0035 26.6792C32.2676 26.6309 32.5319 26.5865 32.7962 26.546C33.0684 26.5052 33.3294 26.4805 33.5793 26.4717C33.6886 26.4679 33.7941 26.4682 33.8959 26.4724C33.9977 26.4767 34.0918 26.4851 34.1782 26.4977L34.2982 26.5756C34.3233 26.6217 34.356 26.6635 34.3964 26.7012C34.4446 26.7386 34.4928 26.776 34.541 26.8134C34.6377 26.896 34.7349 26.9942 34.8327 27.1081C34.9305 27.2219 34.9716 27.3925 34.9561 27.6197C34.8969 27.7156 34.852 27.7719 34.8213 27.7886L34.7208 27.9328L34.6033 27.9252C34.5564 27.9268 34.5138 27.9361 34.4753 27.9531C34.4365 27.9623 34.3979 27.9753 34.3594 27.9923C34.3287 28.009 34.298 28.0257 34.2673 28.0424C34.2364 28.0513 34.2015 28.0604 34.1627 28.0695C34.0925 28.072 34.0339 28.074 33.9871 28.0757C33.9478 28.0692 33.9047 28.0668 33.8578 28.0685ZM35.5953 32.8271C35.6425 33.06 35.6333 33.244 35.5677 33.3792C35.5098 33.5141 35.4195 33.615 35.2968 33.6818C35.1821 33.7562 35.0469 33.8 34.891 33.8133C34.7351 33.8265 34.5865 33.8239 34.4451 33.8054C34.3632 33.6988 34.2882 33.5646 34.22 33.4028C34.1518 33.241 34.0874 33.0752 34.0267 32.9054C33.9658 32.7277 33.9089 32.5538 33.8561 32.3837C33.8111 32.2133 33.7706 32.0622 33.7347 31.9306C33.7705 31.8355 33.7902 31.7293 33.794 31.6119C33.8052 31.4864 33.8087 31.3613 33.8043 31.2363C33.8077 31.1111 33.8073 30.9861 33.8029 30.8611C33.8061 30.7281 33.8134 30.6028 33.825 30.4851C33.8682 30.1553 33.9353 29.8403 34.0265 29.54C34.1254 29.2395 34.2005 28.9281 34.2518 28.6058C34.265 28.535 34.2549 28.4689 34.2215 28.4075C34.1959 28.3459 34.1899 28.2875 34.2036 28.2323C34.2103 28.2008 34.2331 28.1804 34.2718 28.1713C34.3103 28.1543 34.3328 28.1261 34.3392 28.0868C34.3597 28.0001 34.3611 27.9297 34.3436 27.8756C34.3339 27.8212 34.3472 27.7543 34.3835 27.6749C34.4203 27.6111 34.4641 27.5196 34.5146 27.4006C34.5727 27.2735 34.5916 27.1439 34.5714 27.0117C34.64 26.9624 34.7045 26.9054 34.7648 26.8408C34.825 26.7761 34.8856 26.7193 34.9464 26.6703C35.0148 26.6131 35.0873 26.5637 35.164 26.5219C35.2486 26.4799 35.3494 26.4568 35.4665 26.4527C35.5317 26.5286 35.5737 26.6132 35.5926 26.7063C35.6193 26.7992 35.6421 26.8922 35.661 26.9853C35.6877 27.0782 35.722 27.1669 35.7641 27.2514C35.8058 27.3282 35.8744 27.3883 35.9697 27.4319C35.9719 27.4943 35.9746 27.5724 35.9779 27.6661C35.9812 27.7598 35.9883 27.8534 35.9994 27.9468C36.0102 28.0324 36.0287 28.1138 36.0549 28.1911C36.0885 28.2603 36.137 28.3055 36.2003 28.3267C36.0729 28.7064 35.9531 29.0819 35.841 29.4532C35.7367 29.8243 35.652 30.1986 35.587 30.5761C35.5218 30.9457 35.484 31.3184 35.4736 31.694C35.4711 32.0693 35.5117 32.447 35.5953 32.8271ZM40.8104 31.4021C40.8065 31.5117 40.7828 31.618 40.7395 31.7212C40.7037 31.8162 40.6563 31.9117 40.5971 32.0075C40.5376 32.0956 40.4703 32.184 40.3953 32.2726C40.3277 32.3531 40.2599 32.4258 40.1918 32.4907C40.2188 32.5914 40.2215 32.6695 40.2 32.725C40.186 32.7724 40.1847 32.8467 40.1961 32.9479C40.0898 33.2643 39.9175 33.4775 39.679 33.5874C39.4486 33.7049 39.2254 33.6932 39.0094 33.5522C38.9213 33.4927 38.8444 33.4172 38.7787 33.3257C38.7205 33.2261 38.6402 33.1664 38.5379 33.1465C38.5567 33.013 38.5404 32.8806 38.4889 32.7495C38.4374 32.6184 38.3842 32.5499 38.3293 32.5441C38.3001 32.3809 38.2588 32.2065 38.2054 32.0207C38.1521 31.835 38.1026 31.6491 38.057 31.4631C38.0111 31.2692 37.9695 31.0831 37.932 30.9046C37.902 30.718 37.8882 30.5465 37.8905 30.3901C37.8956 30.3117 37.8775 30.242 37.8363 30.1809C37.8029 30.1195 37.7769 30.0462 37.7583 29.9608C37.7208 29.7824 37.7025 29.5954 37.7035 29.3999C37.712 29.1964 37.7132 29.0048 37.7069 28.8252C37.7009 28.6535 37.6828 28.4704 37.6525 28.276C37.6298 28.0735 37.6075 27.8828 37.5857 27.7038C37.5635 27.5169 37.5498 27.3493 37.5447 27.201C37.5392 27.0448 37.5545 26.9231 37.5905 26.8359C37.6341 26.7406 37.694 26.6642 37.7701 26.6068C37.8539 26.5414 37.9296 26.4723 37.9974 26.3995C38.1697 26.4092 38.3088 26.4747 38.4147 26.596C38.5206 26.7174 38.5637 26.8332 38.5441 26.9433C38.7116 27.0391 38.8451 27.1673 38.9445 27.328C39.0514 27.4806 39.1358 27.6575 39.1975 27.8586C39.2668 28.0516 39.3171 28.2609 39.3484 28.4865C39.3795 28.7043 39.4066 28.9222 39.4299 29.1403C39.4529 29.3505 39.4756 29.553 39.498 29.7477C39.5204 29.9423 39.5575 30.1091 39.6093 30.248C39.8837 29.8241 40.1129 29.4487 40.297 29.1217C40.4807 28.787 40.6689 28.4677 40.8615 28.1639C41.0542 27.8602 41.2701 27.5517 41.5093 27.2384C41.7485 26.9252 42.0606 26.5703 42.4454 26.1739C42.5237 26.1789 42.5867 26.1924 42.6344 26.2142C42.6899 26.2357 42.7374 26.2536 42.777 26.2678C42.8166 26.2821 42.864 26.296 42.9192 26.3098C42.9741 26.3157 43.0481 26.3092 43.1413 26.2903C43.1752 26.3673 43.2007 26.425 43.2177 26.4635C43.2344 26.4942 43.2473 26.5289 43.2565 26.5677C43.2732 26.5984 43.2903 26.6408 43.3078 26.6949C43.3332 26.7487 43.371 26.8255 43.4214 26.9254C43.4457 26.948 43.4546 26.979 43.4481 27.0183C43.4417 27.0576 43.4352 27.0969 43.4288 27.1362C43.4299 27.1675 43.4307 27.1909 43.4312 27.2065C43.4318 27.2221 43.4513 27.2214 43.4898 27.2044C43.4702 27.3146 43.4308 27.4176 43.3716 27.5134C43.32 27.6012 43.3002 27.7075 43.3124 27.8321C43.141 28.0726 42.9503 28.3216 42.7404 28.5791C42.5384 28.8363 42.3326 29.1015 42.1233 29.3746C41.9218 29.6474 41.7286 29.9355 41.5437 30.2391C41.3586 30.5348 41.2014 30.8451 41.072 31.1701C41.033 31.1715 41.0022 31.1843 40.9796 31.2086C40.9648 31.2325 40.9501 31.2604 40.9356 31.2922C40.9208 31.3161 40.9021 31.3402 40.8795 31.3645C40.8647 31.3885 40.8417 31.401 40.8104 31.4021ZM49.108 26.5744C49.1177 26.6288 49.1192 26.6717 49.1125 26.7032C49.1133 26.7266 49.1102 26.7502 49.1032 26.7739C49.104 26.7973 49.105 26.8247 49.1061 26.8559C49.1069 26.8793 49.116 26.9181 49.1336 26.9722C48.9789 27.2434 48.794 27.4335 48.5789 27.5427C48.3714 27.6437 48.1435 27.722 47.8953 27.7776C47.6468 27.8254 47.3907 27.8773 47.1268 27.9334C46.8708 27.9893 46.6167 28.0998 46.3645 28.2649C46.2616 28.2294 46.1679 28.2327 46.0834 28.2747C46.0067 28.3165 45.89 28.3323 45.7333 28.3221C45.6881 28.3706 45.6308 28.4078 45.5613 28.4337C45.4916 28.4518 45.422 28.4737 45.3525 28.4996C45.3862 28.5688 45.4005 28.6425 45.3954 28.7209C45.3979 28.7912 45.4117 28.8493 45.4367 28.8953C45.7108 28.9092 46.0113 28.8948 46.3381 28.8521C46.6727 28.8092 47 28.7782 47.3198 28.7592C47.329 28.798 47.3261 28.8255 47.311 28.8416C47.2956 28.85 47.2924 28.8696 47.3013 28.9006C47.3573 28.9377 47.4138 28.9866 47.4706 29.0471C47.5272 29.0999 47.5837 29.1526 47.6403 29.2053C47.6968 29.2581 47.7531 29.303 47.8092 29.3402C47.8727 29.3692 47.9434 29.3785 48.0212 29.3679C48.0546 29.4293 48.0766 29.4989 48.0871 29.5767C48.1052 29.6464 48.1 29.7209 48.0715 29.8C47.9495 29.8903 47.8277 29.9844 47.7061 30.0825C47.5842 30.1727 47.4542 30.2555 47.3161 30.3306C47.1858 30.4055 47.0434 30.4691 46.8889 30.5214C46.7419 30.5657 46.5746 30.5871 46.3869 30.5859C46.3479 30.5872 46.3166 30.5883 46.2932 30.5891C46.2776 30.5897 46.2538 30.5788 46.2217 30.5565C46.1606 30.5977 46.0713 30.6125 45.9536 30.601C45.8437 30.5892 45.7583 30.6039 45.6972 30.6451C45.6099 30.6091 45.504 30.5972 45.3793 30.6093C45.2622 30.6134 45.1562 30.6015 45.0615 30.5735C44.9423 30.7418 44.8352 30.9215 44.7402 31.1124C44.6453 31.3033 44.5624 31.5056 44.4917 31.7191C44.7585 31.7489 44.9777 31.7569 45.1492 31.743C45.3285 31.729 45.496 31.7114 45.6516 31.6903C45.8069 31.6615 45.9663 31.6363 46.1297 31.615C46.2929 31.5859 46.4995 31.5708 46.7496 31.5699C46.9028 31.4786 47.0843 31.4175 47.2943 31.3867C47.5119 31.3479 47.7093 31.2941 47.8867 31.2253C47.95 31.2466 48.0061 31.2876 48.0552 31.3484C48.1039 31.4014 48.1488 31.4546 48.1897 31.5079C48.2382 31.5531 48.2866 31.5944 48.3348 31.6318C48.383 31.6692 48.4421 31.6828 48.5121 31.6725C48.5444 31.7027 48.5653 31.741 48.5747 31.7876C48.5917 31.8261 48.6048 31.8647 48.6139 31.9035C48.6231 31.9422 48.6361 31.977 48.6528 32.0077C48.677 32.0303 48.7124 32.0368 48.759 32.0274C48.6509 32.2891 48.5212 32.493 48.3699 32.639C48.2262 32.7769 48.058 32.8844 47.8653 32.9615C47.6725 33.0386 47.4558 33.1009 47.2151 33.1484C46.9823 33.1956 46.7223 33.2516 46.4354 33.3163C46.3656 33.3344 46.3069 33.3325 46.2593 33.3107C46.2119 33.2968 46.157 33.2909 46.0945 33.293C45.9163 33.3383 45.7028 33.381 45.454 33.4209C45.2053 33.4609 44.9519 33.4815 44.694 33.4827C44.4361 33.4838 44.1889 33.4573 43.9525 33.403C43.7164 33.3565 43.5215 33.2617 43.368 33.1186C43.3036 33.0661 43.2585 33.0051 43.2326 32.9357C43.2143 32.8581 43.1615 32.8013 43.0742 32.7653C43.0629 32.6641 43.0433 32.5514 43.0155 32.4273C42.9878 32.3032 42.9598 32.1752 42.9318 32.0433C42.9034 31.9036 42.8791 31.7676 42.8589 31.6354C42.8465 31.503 42.85 31.3817 42.8696 31.2715C42.889 31.1536 42.9321 31.0466 42.9991 30.9504C43.0739 30.854 43.0977 30.7515 43.0705 30.6431C43.1093 30.6339 43.132 30.6135 43.1387 30.582C43.1452 30.5427 43.1758 30.526 43.2308 30.5319C43.2727 30.3897 43.3188 30.2552 43.3691 30.1284C43.4194 30.0016 43.4698 29.8786 43.5204 29.7596C43.5788 29.6403 43.6332 29.5212 43.6838 29.4021C43.7419 29.275 43.7957 29.1364 43.8452 28.9861C43.7323 28.8884 43.6465 28.782 43.5878 28.6668C43.5366 28.5435 43.4972 28.4237 43.4697 28.3074C43.4419 28.1833 43.418 28.059 43.398 27.9347C43.3778 27.8025 43.3458 27.6707 43.3022 27.5393C43.3761 27.4195 43.4666 27.3225 43.5734 27.2484C43.6878 27.1663 43.8106 27.0994 43.9416 27.048C44.0727 26.9965 44.2158 26.9524 44.3709 26.9157C44.526 26.879 44.6887 26.8382 44.8591 26.7931C45.1679 26.6807 45.4423 26.593 45.6824 26.5299C45.9304 26.4665 46.1709 26.4151 46.4041 26.3757C46.6447 26.3282 46.8934 26.2843 47.1499 26.2441C47.4065 26.2039 47.6976 26.1468 48.0234 26.0729C48.0961 26.1407 48.1637 26.1735 48.2262 26.1713C48.2549 26.1 48.2894 26.0792 48.3295 26.1091C48.3772 26.1309 48.3959 26.1068 48.3856 26.0368C48.4683 26.1668 48.5699 26.2766 48.6903 26.3662C48.8182 26.4477 48.9574 26.5171 49.108 26.5744ZM53.6998 33.1564C53.5881 33.09 53.4991 33.0032 53.4328 32.8961C53.3587 32.7892 53.2999 32.674 53.2565 32.5504C53.2053 32.4272 53.1657 32.2996 53.1376 32.1676C53.1015 32.0282 53.0656 31.8966 53.03 31.7727C53.0262 31.6634 53.0469 31.5845 53.0921 31.536C53.1371 31.4797 53.186 31.4272 53.2391 31.3785C53.4262 31.3641 53.5935 31.3426 53.741 31.314C53.8886 31.2854 54.0322 31.257 54.1719 31.2286C54.3116 31.2003 54.4515 31.1759 54.5915 31.1553C54.7312 31.127 54.883 31.11 55.047 31.1043C55.1557 30.8581 55.2569 30.624 55.3508 30.4018C55.4444 30.1719 55.5345 29.9537 55.6211 29.7475C55.6611 29.5506 55.7134 29.369 55.778 29.2026C55.85 29.0281 55.9186 28.8654 55.9837 28.7146C56.0485 28.556 56.1057 28.4016 56.1551 28.2514C56.2043 28.0933 56.2338 27.9281 56.2434 27.7558C56.3275 27.4792 56.4008 27.2265 56.4631 26.9977C56.533 26.7607 56.5819 26.4815 56.6098 26.16C56.3147 26.2172 56.0782 26.2724 55.9003 26.3255C55.7221 26.3708 55.5946 26.4143 55.5179 26.4561C55.3615 26.4537 55.2354 26.4269 55.1398 26.3755C55.052 26.3238 54.9795 26.2599 54.9221 26.1838C54.8647 26.1076 54.8147 26.0194 54.7721 25.9193C54.7296 25.8192 54.679 25.7154 54.6206 25.608C54.6493 25.5366 54.6536 25.4349 54.6333 25.3027C54.6128 25.1627 54.5624 25.0628 54.4822 25.0031C54.5441 24.9853 54.5892 24.9329 54.6174 24.8459C54.6454 24.7511 54.6468 24.6807 54.6217 24.6347C54.7531 24.591 54.8928 24.5627 55.0409 24.5497C55.1887 24.5289 55.3327 24.5122 55.473 24.4994C55.6208 24.4786 55.7608 24.4581 55.893 24.4379C56.0249 24.4098 56.1366 24.3629 56.2281 24.2972C56.6336 24.2674 57.0547 24.237 57.4913 24.2062C57.9358 24.175 58.3451 24.1412 58.719 24.1047C58.8612 24.1466 59.0221 24.1644 59.2017 24.1582C59.389 24.1516 59.5729 24.1569 59.7533 24.1741C59.9415 24.191 60.1073 24.236 60.2505 24.3091C60.4016 24.382 60.5079 24.5151 60.5693 24.7084C60.687 24.7199 60.774 24.7482 60.8303 24.7931C60.8944 24.8378 60.9355 24.895 60.9535 24.9647C60.9713 25.0266 60.9778 25.1007 60.973 25.1868C60.9757 25.2649 60.9785 25.343 60.9812 25.421C60.8595 25.5191 60.7022 25.6028 60.5092 25.672C60.3237 25.7332 60.1184 25.7873 59.8934 25.8343C59.668 25.8734 59.4307 25.9051 59.1814 25.9295C58.9397 25.9457 58.7018 25.9619 58.4678 25.9778C58.4378 26.2369 58.3782 26.5438 58.2889 26.8987C58.2072 27.2455 58.1215 27.5886 58.0317 27.9279C57.9417 28.2593 57.8622 28.5592 57.7934 28.8273C57.7322 29.0874 57.7068 29.2564 57.7173 29.3342C57.6455 29.5165 57.5845 29.6711 57.5342 29.7979C57.4917 29.9245 57.4489 30.0432 57.4059 30.1542C57.3707 30.2648 57.3316 30.3757 57.2885 30.4866C57.253 30.5895 57.2064 30.7083 57.1486 30.8433L57.9449 30.8155C57.9636 30.9008 58.0007 30.9581 58.0565 30.9874C58.1122 31.0168 58.1717 31.042 58.235 31.0633C58.2983 31.0845 58.354 31.1139 58.4023 31.1513C58.458 31.1806 58.4872 31.2343 58.49 31.3124C58.6397 31.3462 58.7354 31.4015 58.7772 31.4782C58.8189 31.5549 58.8297 31.6405 58.8096 31.7351C58.797 31.8215 58.7611 31.9126 58.7019 32.0085C58.6505 32.1041 58.5987 32.188 58.5465 32.2602C58.4757 32.247 58.41 32.2689 58.3495 32.3257C58.2886 32.3747 58.232 32.4314 58.1795 32.4958C57.952 32.4725 57.7293 32.4763 57.5115 32.5074C57.2937 32.5384 57.0914 32.5651 56.9046 32.5872C56.8658 32.5964 56.851 32.6204 56.8602 32.6591C56.8691 32.6901 56.8621 32.7138 56.8392 32.7302C56.5945 32.6606 56.3435 32.6381 56.0864 32.6627C55.8371 32.687 55.5808 32.7351 55.3175 32.8068C55.0618 32.8704 54.7984 32.9383 54.5273 33.0103C54.2565 33.0901 53.9806 33.1388 53.6998 33.1564ZM67.7766 32.3131C67.6999 32.3549 67.627 32.3926 67.5578 32.4263C67.4964 32.4597 67.4228 32.4779 67.3369 32.4809C67.0245 32.2651 66.8507 31.8764 66.8154 31.3148C66.788 30.7529 66.8841 30.0343 67.1036 29.1589C67.1419 29.1341 67.1597 29.0866 67.1573 29.0163L67.0478 28.9029C67.0166 28.9039 66.9855 28.9089 66.9545 28.9178C66.9314 28.9265 66.9128 28.9545 66.8988 29.0019C66.701 29.1573 66.4839 29.3212 66.2476 29.4936C66.011 29.6582 65.7625 29.8155 65.5019 29.9653C65.2489 30.107 64.9872 30.2256 64.717 30.321C64.4545 30.4162 64.1944 30.4682 63.9368 30.4772C63.2809 30.5001 62.7775 30.1855 62.4264 29.5333L62.3265 29.3609L62.2382 29.5164C62.2158 29.5484 62.183 29.616 62.1397 29.7192C62.0961 29.8145 62.0531 29.9254 62.0106 30.052C61.9681 30.1786 61.9297 30.3089 61.8953 30.443C61.8684 30.569 61.8605 30.6787 61.8716 30.7721C61.8038 30.8449 61.7325 30.9294 61.6577 31.0259C61.5829 31.1223 61.528 31.2297 61.493 31.3482C61.4796 31.4112 61.4895 31.4695 61.5226 31.5231C61.5094 31.5939 61.4762 31.6498 61.4229 31.6907C61.3931 31.7308 61.3593 31.7711 61.3216 31.8115C61.2915 31.8438 61.2654 31.8799 61.2433 31.9198C61.2291 31.9593 61.2187 31.9988 61.2123 32.0381C61.2136 32.0771 61.2111 32.1163 61.2046 32.1556C61.2065 32.2103 61.2005 32.2613 61.1865 32.3087C61.0633 32.5866 60.9641 32.766 60.8887 32.8468C60.8136 32.9354 60.7097 32.982 60.577 32.9866C60.5145 32.9888 60.4126 32.9806 60.2713 32.9621C60.166 32.8564 60.0671 32.7113 59.9747 32.5269C59.8898 32.3344 59.8201 32.1297 59.7656 31.9127C59.7189 31.6955 59.6918 31.4775 59.6841 31.2589C59.684 31.0322 59.7163 30.8357 59.7808 30.6693C59.7805 30.6615 59.809 30.5823 59.8663 30.4318C59.9236 30.2812 59.995 30.0872 60.0805 29.8497C60.1738 29.6119 60.278 29.3503 60.3932 29.0649C60.508 28.7716 60.6232 28.4901 60.7389 28.2203C60.8543 27.9426 60.9627 27.6887 61.0641 27.4585C61.1733 27.2279 61.2649 27.0528 61.3389 26.9329C61.398 26.837 61.4497 26.7493 61.4938 26.6695C61.5455 26.5817 61.5934 26.498 61.6375 26.4183C61.7696 26.1713 61.8953 25.9676 62.0148 25.8071C62.1418 25.6385 62.3286 25.503 62.5752 25.4006C62.7494 25.4648 62.8772 25.5424 62.9586 25.6334L62.9865 25.7614C63.0204 25.8384 63.0686 25.8758 63.1311 25.8736C63.2178 25.8941 63.2889 25.915 63.3444 25.9365C63.4074 25.95 63.4743 25.9633 63.5451 25.9764C63.6019 26.037 63.6553 26.1094 63.7051 26.1936C63.7709 26.2852 63.8327 26.3768 63.8906 26.4686C63.9561 26.5523 64.0061 26.6404 64.0406 26.733C64.0826 26.8176 64.1052 26.9067 64.1085 27.0004C64.1196 27.0938 64.1074 27.1919 64.0719 27.2948L64.0877 27.4115C64.1292 27.4804 64.1404 27.5777 64.1213 27.7035C64.1154 27.7584 64.1136 27.8171 64.1158 27.8796C64.1177 27.9342 64.1277 27.9964 64.1457 28.0661C64.2901 28.1705 64.4169 28.2208 64.5262 28.217C64.6512 28.2126 64.7634 28.1814 64.863 28.1232C64.9701 28.0569 65.0695 27.9909 65.161 27.9251C65.2218 27.8761 65.2829 27.8349 65.3443 27.8015C65.4054 27.7603 65.467 27.7347 65.5292 27.7247C65.6651 27.587 65.7859 27.4655 65.8917 27.3602C66.0053 27.2546 66.1227 27.1489 66.2441 27.043C66.4718 26.8475 66.6911 26.6366 66.9021 26.4103C67.1131 26.1841 67.2792 25.9047 67.4005 25.5721C67.477 25.5225 67.5581 25.4962 67.644 25.4932C67.7299 25.4902 67.8204 25.5066 67.9154 25.5424C68.0105 25.5782 68.1016 25.6141 68.1889 25.6501C68.2129 25.6649 68.2328 25.6759 68.2487 25.6832C68.2724 25.6902 68.2922 25.6973 68.308 25.7046C68.3108 25.7827 68.3443 25.8479 68.4087 25.9004C68.4407 25.9227 68.4608 25.9377 68.4689 25.9452C68.477 25.9527 68.4889 25.9601 68.5048 25.9674C68.6241 26.0258 68.7005 26.0856 68.7339 26.147C68.7948 26.3247 68.8972 26.4579 69.041 26.5467C69.0281 26.6253 69.0307 26.6995 69.0488 26.7692C69.0744 26.8309 69.104 26.8963 69.1377 26.9655C69.1463 26.9886 69.155 27.0118 69.1636 27.0349C69.1722 27.0581 69.1849 27.085 69.2016 27.1157L68.9782 27.1L69.0212 27.3213C69.0406 27.4301 69.0331 27.5515 68.9987 27.6856C68.9721 27.8194 68.9367 27.9262 68.8926 28.0059C68.9075 28.2086 68.917 28.3685 68.9211 28.4857C68.9327 28.5947 68.9325 28.7002 68.9204 28.8023C68.9081 28.8965 68.8878 28.9871 68.8596 29.0741C68.8391 29.1608 68.8073 29.2557 68.764 29.3589C68.8127 29.8575 68.7701 30.3163 68.6362 30.7353C68.5098 31.1462 68.3748 31.5339 68.2312 31.8985C68.2169 31.9381 68.1988 31.9778 68.1767 32.0177C68.1625 32.0573 68.1482 32.0969 68.134 32.1364C68.0645 32.1623 68.003 32.1918 67.9494 32.225C67.8956 32.2503 67.838 32.2797 67.7766 32.3131ZM73.6088 25.0504C73.938 25.078 74.2332 25.1342 74.4941 25.2189C74.755 25.3036 74.978 25.4208 75.163 25.5707C75.2948 25.7616 75.4192 25.9683 75.5365 26.1909C75.6615 26.4132 75.7557 26.6484 75.8191 26.8963C75.89 27.1362 75.926 27.385 75.9272 27.643C75.9362 27.9006 75.8907 28.1641 75.7906 28.4334C75.574 28.7224 75.3049 28.9624 74.9833 29.1534C74.6691 29.3364 74.3266 29.489 73.9556 29.6114C73.5847 29.7338 73.1976 29.8411 72.7943 29.9334C72.3988 30.0254 72.0112 30.1171 71.6313 30.2085C71.6454 30.3878 71.6521 30.5791 71.6514 30.7824C71.6582 30.9776 71.6456 31.1774 71.6137 31.3817C71.5892 31.578 71.5452 31.7711 71.4814 31.9609C71.4177 32.1508 71.33 32.3258 71.2184 32.486C71.0856 32.4907 70.9495 32.5111 70.8101 32.5472C70.6709 32.5912 70.5471 32.6267 70.4386 32.654C70.3828 32.6247 70.331 32.5952 70.2831 32.5656C70.2432 32.5436 70.1841 32.53 70.1058 32.5249C70.1186 32.4463 70.0964 32.3689 70.039 32.2927C69.9814 32.2087 69.9237 32.1248 69.8661 32.0408C69.8084 31.9568 69.7665 31.8762 69.7404 31.7989C69.722 31.7214 69.7585 31.6459 69.8497 31.5723C69.7931 31.5196 69.7634 31.4503 69.7604 31.3644C69.8117 31.2688 69.8541 31.1383 69.8874 30.973C69.9285 30.8074 69.9581 30.6461 69.976 30.4891C70.0015 30.3241 70.0042 30.1755 69.9839 30.0433C69.9637 29.9111 69.8822 29.8162 69.7395 29.7587C69.7467 29.7428 69.7621 29.7344 69.7855 29.7336C69.8089 29.7328 69.8322 29.7281 69.8554 29.7194C69.7913 29.6748 69.7499 29.6098 69.7313 29.5244C69.7205 29.4388 69.6906 29.3656 69.6415 29.3048C69.6558 29.2652 69.6663 29.2296 69.673 29.1981C69.6797 29.1666 69.7066 29.154 69.7537 29.1601C69.7254 29.0204 69.7208 28.8877 69.7398 28.7619C69.7667 28.6359 69.8056 28.5173 69.8564 28.4061C69.907 28.2871 69.9694 28.1715 70.0436 28.0595C70.1179 27.9475 70.1882 27.8356 70.2547 27.7238C70.3091 27.7141 70.3406 27.7208 70.3492 27.744C70.3656 27.7668 70.3928 27.762 70.4308 27.7294C70.5296 27.6478 70.597 27.5633 70.633 27.4761C70.669 27.3888 70.6852 27.2906 70.6813 27.1812C70.7303 27.0154 70.7909 26.8491 70.8633 26.6824C70.9353 26.5079 71.0158 26.3488 71.1046 26.2049C71.1933 26.0611 71.2905 25.9327 71.396 25.8195C71.5093 25.7061 71.6274 25.6199 71.7504 25.5609C71.8414 25.4796 71.9561 25.4052 72.0944 25.3378C72.2325 25.2627 72.383 25.2066 72.5459 25.1696C72.7085 25.1249 72.8717 25.0996 73.0357 25.0939C73.2072 25.0801 73.3639 25.0903 73.5058 25.1244C73.5454 25.1386 73.5646 25.1301 73.5635 25.0989C73.5703 25.0674 73.5853 25.0513 73.6088 25.0504ZM73.2263 27.8663C73.4185 27.7736 73.6231 27.7 73.8401 27.6455C74.0646 27.5829 74.2486 27.4788 74.392 27.3331C74.2953 27.2505 74.1561 27.1811 73.9743 27.1249C73.7923 27.0609 73.5956 27.0248 73.3843 27.0165C73.1729 27.0082 72.9589 27.0353 72.7422 27.0976C72.533 27.1518 72.3528 27.2519 72.2015 27.3979C72.1596 27.54 72.1245 27.6546 72.0963 27.7416C72.0678 27.8207 72.0282 27.9198 71.9777 28.0389C71.9947 28.0774 72.0192 28.1078 72.0512 28.1301C72.0908 28.1444 72.1191 28.1707 72.1361 28.2092C72.3124 28.1093 72.4902 28.0522 72.6695 28.0382C72.8563 28.016 73.0419 27.9587 73.2263 27.8663ZM81.663 31.0543C81.6208 31.1886 81.5553 31.3277 81.4665 31.4715C81.3853 31.6073 81.2841 31.732 81.163 31.8456C81.0494 31.9512 80.9197 32.0417 80.7738 32.1172C80.6279 32.1926 80.4731 32.2371 80.3094 32.2507C80.2071 32.2308 80.1359 32.2059 80.0958 32.176C80.0637 32.1537 80.0278 32.1315 79.9879 32.1095C79.9639 32.0947 79.9401 32.0838 79.9164 32.0768C79.9002 32.0617 79.8842 32.0505 79.8683 32.0433L79.7258 31.9896L79.7673 31.8357C79.7807 31.7727 79.7752 31.726 79.7507 31.6956C79.7259 31.6574 79.6773 31.6083 79.6048 31.5483C79.5806 31.5257 79.5563 31.503 79.5321 31.4804C79.5078 31.4578 79.4875 31.4351 79.4711 31.4122L79.2642 31.1967L79.5776 31.1036C79.7708 31.0422 79.8972 30.9674 79.9567 30.8793C80.0239 30.791 80.0462 30.6456 80.0235 30.4431C79.8663 30.4174 79.7334 30.4181 79.6249 30.4453C79.5242 30.4723 79.4198 30.5033 79.3116 30.5383C79.1724 30.5823 79.0292 30.6225 78.8819 30.6589C78.7422 30.6872 78.5865 30.7044 78.4147 30.7104C78.3522 30.7126 78.2937 30.7146 78.239 30.7165C78.1841 30.7106 78.1253 30.7049 78.0625 30.6992L77.9446 30.6799C77.926 30.5946 77.9087 30.5483 77.8928 30.541C77.8767 30.5259 77.8605 30.5108 77.8443 30.4958C77.8039 30.4581 77.7592 30.4089 77.7102 30.348C77.6687 30.2791 77.6579 30.1935 77.6778 30.0912C77.6363 30.0223 77.6104 29.9528 77.6001 29.8828C77.5566 29.9782 77.5248 30.077 77.505 30.1793L77.4622 30.2981L77.3459 30.3256C77.3306 30.3339 77.3195 30.3538 77.3128 30.3854C77.3058 30.409 77.3026 30.4287 77.3032 30.4443L77.2516 30.6455C77.2365 30.6616 77.2214 30.6778 77.2063 30.6939C77.191 30.7023 77.1758 30.7146 77.1607 30.7307C77.1476 30.8015 77.1305 30.8725 77.1095 30.9436C77.0886 31.0147 77.0675 31.0818 77.0462 31.1451C77.0107 31.248 76.9791 31.3507 76.9514 31.4533C76.9313 31.5478 76.9267 31.6418 76.9378 31.7352L76.8955 31.8657C76.8581 31.9139 76.8165 31.9544 76.7707 31.9873C76.7247 32.0123 76.6787 32.0374 76.6327 32.0625C76.6176 32.0786 76.5947 32.0951 76.564 32.1118C76.5409 32.1204 76.5216 32.1289 76.5063 32.1372L76.4756 32.2673L76.3359 32.2956C76.2506 32.3142 76.1885 32.3281 76.1498 32.3373C76.1188 32.3462 76.0799 32.3515 76.0331 32.3531L75.9155 32.3455C75.8272 32.2782 75.7589 32.2259 75.7107 32.1885C75.6622 32.1432 75.6061 32.1022 75.5423 32.0654C75.4687 31.9741 75.4272 31.9052 75.4178 31.8586C75.4083 31.8121 75.399 31.7694 75.3899 31.7306C75.3726 31.6843 75.3634 31.6456 75.3623 31.6143C75.3534 31.5834 75.3409 31.5604 75.3248 31.5453L75.1676 31.4101L75.2927 31.3002L75.2975 31.1007C75.4397 30.697 75.5903 30.3087 75.7493 29.9357C75.9161 29.5625 76.0865 29.1813 76.2605 28.7922C76.3186 28.6651 76.3728 28.5381 76.4231 28.4113C76.4812 28.2842 76.5393 28.1571 76.5974 28.03C76.5887 28.0068 76.5839 27.9796 76.5828 27.9484C76.5817 27.9172 76.5883 27.8818 76.6025 27.8422C76.6838 27.7065 76.75 27.5869 76.8011 27.4835C76.8519 27.3723 76.9028 27.261 76.9536 27.1498C77.0114 27.0149 77.0694 26.8839 77.1275 26.7568C77.1934 26.6294 77.2748 26.4976 77.3716 26.3613L77.5562 26.2728C77.5793 26.2642 77.6064 26.2554 77.6373 26.2465C77.668 26.2298 77.7029 26.2208 77.7419 26.2194L77.9184 26.2367C78.1335 26.1276 78.3199 25.9803 78.4776 25.795C78.635 25.6019 78.7951 25.3735 78.9578 25.1099L79.0692 24.9418L79.2248 25.0302C79.2646 25.0523 79.3201 25.0738 79.3912 25.0948C79.462 25.1079 79.5368 25.1248 79.6157 25.1455C79.7574 25.1719 79.8913 25.2024 80.0176 25.237C80.1439 25.2717 80.2474 25.3267 80.3282 25.4021C80.3795 25.5254 80.4101 25.6181 80.42 25.6803C80.43 25.7425 80.4439 25.8045 80.4617 25.8665C80.4898 25.9984 80.5139 26.1304 80.5342 26.2626C80.5622 26.3945 80.583 26.5423 80.5966 26.706C80.6402 26.8374 80.6761 26.969 80.7042 27.1009C80.7398 27.2248 80.7716 27.3526 80.7996 27.4846C80.8452 27.6706 80.8907 27.8527 80.936 28.0309C80.981 28.2013 81.0375 28.3635 81.1054 28.5175C81.1679 28.5153 81.2071 28.5178 81.2229 28.5251C81.2614 28.5081 81.3001 28.495 81.3388 28.4859C81.3854 28.4764 81.4359 28.4669 81.4903 28.4571L81.6187 28.4409L81.6696 28.5564C81.6788 28.5952 81.7192 28.6328 81.7908 28.6694C81.8926 28.6737 81.9676 28.6945 82.0158 28.7319C82.0637 28.7615 82.1079 28.7952 82.1483 28.8328C82.1806 28.863 82.2127 28.8853 82.2445 28.8998L82.4226 28.964L82.335 29.1429C82.2619 29.2862 82.1534 29.4268 82.0097 29.5647C81.8735 29.6945 81.7171 29.8055 81.5406 29.8977C81.55 29.9442 81.5556 29.991 81.5572 30.0378C81.5664 30.0766 81.5796 30.1191 81.5968 30.1654C81.6249 30.2973 81.6492 30.4333 81.6697 30.5733C81.6902 30.7133 81.6953 30.8577 81.6848 31.0066L81.663 31.0543ZM78.2076 29.1463C78.4413 29.1225 78.6516 29.0996 78.8384 29.0774C79.0328 29.0472 79.2463 29.0045 79.4789 28.9495C79.416 28.7172 79.349 28.4772 79.2778 28.2295C79.2064 27.9741 79.1312 27.7226 79.0522 27.4752L78.986 27.5948C78.8356 27.7642 78.6897 27.953 78.5485 28.1612C78.415 28.3691 78.3007 28.5646 78.2054 28.7477C78.161 28.8196 78.1166 28.8915 78.0723 28.9635C78.0279 29.0354 77.9874 29.1071 77.9508 29.1788C77.9974 29.1693 78.0402 29.1639 78.0792 29.1625C78.1261 29.1609 78.1689 29.1555 78.2076 29.1463ZM87.3432 31.8643C87.2186 31.8765 87.0623 31.878 86.8743 31.869C86.6942 31.8596 86.5273 31.8928 86.3736 31.9685C85.9592 31.9674 85.5359 31.9313 85.1034 31.8605C84.671 31.7896 84.273 31.6979 83.9095 31.5856C83.8284 31.5024 83.7476 31.427 83.6671 31.3595C83.5863 31.2841 83.479 31.2332 83.3452 31.2066C83.1526 31.0648 82.9941 30.8905 82.8696 30.6838C82.7448 30.4693 82.6431 30.2422 82.5644 30.0026C82.4857 29.763 82.4302 29.5187 82.3981 29.2697C82.3657 29.0129 82.3493 28.7672 82.3489 28.5327C82.4537 28.1772 82.6072 27.8709 82.8093 27.6137C83.0189 27.3484 83.2326 27.0869 83.4503 26.8291C83.5501 26.7788 83.6227 26.7293 83.6679 26.6808C83.7206 26.6243 83.7736 26.5755 83.8269 26.5346C83.8878 26.4855 83.9448 26.4406 83.9981 26.3996C84.0589 26.3506 84.1117 26.294 84.1563 26.2299C84.3189 26.1852 84.4576 26.1256 84.5722 26.0512C84.6944 25.9688 84.8127 25.8865 84.9271 25.8043C85.0412 25.7144 85.1595 25.632 85.282 25.5574C85.4045 25.4828 85.547 25.4231 85.7096 25.3783C85.7696 25.3059 85.8419 25.2486 85.9264 25.2066C86.0106 25.1567 86.095 25.1108 86.1796 25.0688C86.2716 25.0186 86.3559 24.9688 86.4323 24.9192C86.5166 24.8694 86.5807 24.8046 86.6249 24.7249C86.6661 24.786 86.7215 24.8075 86.7913 24.7894C86.8607 24.7636 86.9263 24.7378 86.9879 24.7122C87.0267 24.703 87.0582 24.7098 87.0824 24.7324C87.1145 24.7547 87.1426 24.7772 87.1669 24.7998C87.1911 24.8224 87.2112 24.8373 87.2271 24.8446C87.2505 24.8438 87.2693 24.8236 87.2836 24.784C87.3226 24.7826 87.335 24.8017 87.3207 24.8413C87.3065 24.8809 87.2957 24.9086 87.2885 24.9245C87.3507 24.9145 87.402 24.9284 87.4424 24.966C87.4903 24.9956 87.5613 25.0127 87.6552 25.0172C87.6878 25.0552 87.6967 25.0861 87.6819 25.1101C87.6668 25.1263 87.6601 25.1578 87.6618 25.2046C87.8984 25.2667 88.0507 25.3747 88.1187 25.5287C88.1863 25.6749 88.1957 25.8309 88.1467 25.9968C88.0978 26.1626 88.0055 26.3183 87.8699 26.4637C87.7343 26.6092 87.5853 26.7082 87.423 26.7608C87.0517 26.8754 86.7004 27.001 86.3691 27.1376C86.0452 27.2662 85.782 27.4513 85.5794 27.6929C85.3939 27.7541 85.2286 27.8341 85.0835 27.933C84.946 28.0238 84.8129 28.13 84.6843 28.2518C84.5632 28.3655 84.4462 28.4868 84.3335 28.6158C84.2283 28.7368 84.1152 28.858 83.9944 28.9794C84.006 29.0885 83.9895 29.175 83.9448 29.2391C83.9077 29.2952 83.8707 29.3551 83.8338 29.4189C83.8536 29.5355 83.8846 29.6399 83.9269 29.7323C83.9689 29.8168 84.0149 29.9012 84.0647 29.9854C84.5855 30.1236 85.1354 30.2021 85.7145 30.2209C86.3015 30.2395 86.8879 30.2425 87.4737 30.2299C87.5311 30.306 87.5962 30.378 87.6689 30.4458C87.7492 30.5056 87.8219 30.5734 87.8871 30.6493C87.952 30.7174 88.0056 30.7976 88.0479 30.8899C88.0899 30.9744 88.1016 31.0835 88.0828 31.217C87.9776 31.338 87.8604 31.4515 87.7312 31.5576C87.6017 31.656 87.4724 31.7582 87.3432 31.8643ZM95.0979 25.9299C94.9027 25.9367 94.6924 25.9597 94.4671 25.9989C94.2415 26.0302 94.0199 26.0653 93.8024 26.1041C93.647 26.133 93.4955 26.1579 93.3477 26.1787C93.2077 26.1992 93.0792 26.2154 92.9624 26.2273C92.9137 26.401 92.8644 26.5551 92.8144 26.6898C92.7644 26.8244 92.7103 26.9553 92.6522 27.0824C92.5944 27.2173 92.5406 27.356 92.4908 27.4984C92.4486 27.6328 92.4068 27.7789 92.3654 27.9367C92.2917 28.0643 92.2295 28.1837 92.1786 28.295C92.1353 28.3981 92.1004 28.5166 92.0738 28.6504C91.9842 28.7708 91.9183 28.8982 91.876 29.0325C91.8336 29.1591 91.8022 29.2696 91.7821 29.3641L91.7402 29.5063C91.6949 29.5548 91.669 29.5948 91.6623 29.6263C91.6553 29.65 91.6366 29.6741 91.6062 29.6986C91.6013 29.7848 91.577 29.8716 91.5332 29.9591C91.5189 29.9987 91.5086 30.0382 91.5021 30.0775C91.4954 30.109 91.4923 30.1325 91.4929 30.1481C91.4956 30.2262 91.4779 30.2777 91.4396 30.3024C91.4488 30.3412 91.4503 30.3841 91.4441 30.4313C91.4377 30.4706 91.4312 30.5099 91.4248 30.5492C91.4046 30.6437 91.3994 30.7182 91.4091 30.7725C91.4337 30.803 91.4541 30.8296 91.4706 30.8525C91.4948 30.8751 91.5115 30.9058 91.5207 30.9445C91.5686 30.9741 91.6044 30.9924 91.6281 30.9994C91.6602 31.0217 91.708 31.0474 91.7715 31.0765L91.881 31.1899C91.928 31.415 91.8991 31.5958 91.7944 31.7323C91.6825 31.8848 91.486 31.9659 91.2049 31.9757L91.0644 31.9806C91.024 31.9429 90.9995 31.9125 90.9908 31.8894C90.9276 31.8681 90.8761 31.8504 90.8365 31.8361C90.797 31.8219 90.7607 31.7919 90.7279 31.7461C90.6247 31.7028 90.5414 31.6667 90.4778 31.6376L90.3704 31.5827C90.3674 31.4968 90.3657 31.45 90.3655 31.4422C90.3084 31.3738 90.2627 31.2972 90.2285 31.2125C90.202 31.1274 90.1795 31.0422 90.1609 30.9568C90.1428 30.8871 90.121 30.8214 90.0954 30.7598C90.0776 30.6979 90.0523 30.644 90.0194 30.5983C89.988 30.146 90.0176 29.7619 90.1081 29.446C90.1987 29.1302 90.2937 28.8259 90.3929 28.5332C90.4499 28.3749 90.5069 28.2165 90.5639 28.0582C90.6206 27.8921 90.6694 27.7223 90.7103 27.5489L90.8116 27.4281C90.8619 27.3012 90.9013 27.1982 90.9298 27.1191C90.9658 27.0318 91.0019 26.9446 91.0379 26.8573C91.0594 26.8019 91.0772 26.7504 91.0911 26.703C91.1127 26.6476 91.1305 26.6 91.1448 26.5605C91.0979 26.5621 91.0551 26.5675 91.0164 26.5767C90.9773 26.578 90.9384 26.5833 90.8997 26.5925C90.8531 26.6019 90.8104 26.6112 90.7717 26.6204C90.7326 26.6217 90.6936 26.6231 90.6545 26.6245C90.5999 26.6264 90.5607 26.6238 90.537 26.6169C90.4525 26.6589 90.3595 26.6817 90.258 26.6852L90.1409 26.6893C90.1174 26.6901 90.094 26.691 90.0706 26.6918C90.0547 26.6845 90.039 26.6811 90.0233 26.6817C89.9453 26.6844 89.8832 26.6983 89.8372 26.7234C89.7435 26.7266 89.6537 26.7298 89.5678 26.7328L89.4507 26.7369C89.4351 26.7374 89.4157 26.742 89.3926 26.7506C89.3691 26.7514 89.3496 26.7521 89.334 26.7527C89.2793 26.7546 89.2206 26.7527 89.1579 26.7471C89.0949 26.7337 89.0276 26.7086 88.9559 26.6721C88.8579 26.5504 88.7931 26.4862 88.7616 26.4795L88.6513 26.3427C88.6419 26.2961 88.6286 26.2535 88.6117 26.2151C88.5944 26.1688 88.577 26.1185 88.5595 26.0644C88.5255 25.9874 88.4915 25.9066 88.4572 25.8218C88.4305 25.7289 88.415 25.62 88.4106 25.4951C88.4163 25.4323 88.4302 25.3849 88.4526 25.3529C88.4749 25.3208 88.4935 25.2928 88.5083 25.2689L88.5373 25.092L88.6899 25.0984L89.0179 25.0869C89.2677 25.0782 89.5212 25.0615 89.7783 25.0369C90.0351 25.0045 90.2998 24.9718 90.5722 24.9388C90.7278 24.9178 90.8834 24.8967 91.0391 24.8756C91.2025 24.8543 91.3698 24.8328 91.541 24.8112C91.5698 24.7398 91.5987 24.6724 91.6278 24.6088L91.7428 24.5462C91.8831 24.5334 91.9814 24.5496 92.0377 24.5945C92.1015 24.6314 92.1536 24.6686 92.194 24.7063C92.3652 24.6847 92.5365 24.6631 92.7077 24.6415C92.8864 24.6118 93.0651 24.5782 93.2436 24.5407C93.5077 24.4924 93.7719 24.4479 94.0363 24.4074C94.3084 24.3667 94.5695 24.3419 94.8193 24.3332C94.9286 24.3294 95.0342 24.3296 95.1359 24.3339C95.2377 24.3381 95.3318 24.3466 95.4182 24.3592L95.5382 24.4371C95.5633 24.4831 95.596 24.525 95.6364 24.5626C95.6846 24.6 95.7328 24.6374 95.781 24.6748C95.8777 24.7575 95.975 24.8557 96.0727 24.9695C96.1705 25.0834 96.2117 25.2539 96.1961 25.4812C96.137 25.577 96.092 25.6333 96.0613 25.65L95.9608 25.7943L95.8433 25.7866C95.7965 25.7883 95.7538 25.7976 95.7153 25.8146C95.6765 25.8237 95.6379 25.8368 95.5994 25.8538C95.5687 25.8705 95.538 25.8872 95.5074 25.9039C95.4764 25.9128 95.4415 25.9218 95.4028 25.931C95.3325 25.9335 95.2739 25.9355 95.2271 25.9371C95.1878 25.9307 95.1447 25.9283 95.0979 25.9299ZM97.3321 23.4246C97.3345 23.4949 97.3258 23.5812 97.306 23.6835C97.2939 23.7856 97.2818 23.8876 97.2697 23.9897C97.2577 24.0917 97.257 24.1855 97.2678 24.2711C97.2784 24.349 97.3153 24.3985 97.3786 24.4197C97.2525 24.8384 97.167 25.1893 97.1222 25.4723C97.0851 25.755 97.0516 26.0259 97.0216 26.2849C96.9991 26.5358 96.9654 26.8028 96.9206 27.0858C96.8757 27.3687 96.7901 27.7157 96.6638 28.1266C96.5866 28.3795 96.4873 28.5588 96.3659 28.6647C96.2443 28.7627 96.1132 28.8142 95.9727 28.8191C95.8321 28.824 95.6863 28.79 95.5352 28.7171C95.3842 28.6442 95.2445 28.5631 95.1163 28.4738C95.0877 28.3263 95.0776 28.1468 95.0858 27.9355C95.1016 27.716 95.121 27.4887 95.1441 27.2533C95.1671 27.018 95.1906 26.7944 95.2144 26.5825C95.238 26.3628 95.2551 26.1785 95.2655 26.0296C95.3406 25.941 95.3928 25.8688 95.4221 25.8131C95.4514 25.7573 95.4689 25.6981 95.4745 25.6353C95.488 25.5723 95.4969 25.4939 95.5015 25.3999C95.506 25.3059 95.5209 25.1725 95.5461 24.9996C95.5587 24.9132 95.5483 24.8393 95.5149 24.7779C95.4891 24.7085 95.4828 24.6423 95.4963 24.5793C95.5108 24.5475 95.5334 24.5232 95.5641 24.5065C95.6026 24.4896 95.625 24.4614 95.6315 24.4221C95.6592 24.3195 95.6643 24.2412 95.6467 24.187C95.6289 24.1251 95.6381 24.0505 95.6741 23.9633C95.711 23.8995 95.7544 23.8002 95.8044 23.6656C95.862 23.5229 95.8803 23.3776 95.8596 23.2298C95.9279 23.1727 95.9921 23.1079 96.0521 23.0355C96.1121 22.963 96.1724 22.8984 96.2329 22.8415C96.301 22.7766 96.3734 22.7233 96.4502 22.6815C96.5347 22.6395 96.6355 22.6164 96.7526 22.6123C96.8181 22.696 96.8678 22.7764 96.9017 22.8534C96.9357 22.9304 96.9656 23.0036 96.9915 23.073C97.0252 23.1422 97.0665 23.2072 97.1156 23.268C97.1646 23.3289 97.2368 23.3811 97.3321 23.4246ZM96.4054 30.129C96.4231 30.191 96.4369 30.2491 96.4466 30.3035C96.4563 30.3579 96.4662 30.4161 96.4762 30.4783C96.4351 30.6439 96.3895 30.7941 96.3395 30.9287C96.318 30.9842 96.3036 31.0198 96.2963 31.0357C96.289 31.0516 96.2855 31.0635 96.2858 31.0713C96.2861 31.0791 96.2904 31.0907 96.2988 31.106C96.3068 31.1135 96.3118 31.1446 96.3137 31.1993L96.2601 31.3419C96.223 31.3979 96.1776 31.4425 96.1241 31.4756C96.0783 31.5085 96.0285 31.5376 95.9747 31.5629C95.9518 31.5793 95.9249 31.592 95.8939 31.6009C95.871 31.6173 95.8521 31.6336 95.837 31.6498L95.8068 31.7916L95.6436 31.8207C95.5198 31.8563 95.4071 31.8759 95.3056 31.8794L95.1768 31.8839C95.0801 31.8013 95.0036 31.7375 94.9473 31.6926C94.891 31.6477 94.8271 31.6069 94.7554 31.5703C94.6644 31.425 94.6091 31.2979 94.5897 31.1891C94.5705 31.0882 94.5487 31.0225 94.5242 30.9921L94.3545 30.8339L94.4913 30.7235L94.343 30.5059C94.4343 30.4324 94.5028 30.3792 94.5485 30.3463C94.5943 30.3134 94.6322 30.2809 94.6624 30.2485C94.7 30.2081 94.7374 30.1599 94.7746 30.1039C94.8117 30.0479 94.871 29.9559 94.9526 29.828L95.0526 29.6721L95.196 29.7491C95.2359 29.7712 95.307 29.7922 95.4093 29.812C95.5192 29.8238 95.6134 29.8362 95.692 29.8491C95.8183 29.8837 95.9404 29.9108 96.0584 29.9301C96.1838 29.9413 96.2828 29.977 96.3552 30.037L96.4054 30.129Z" fill="#372BFE"/>
<path d="M4.43076 35.9323L97.5498 32.6805L97.5706 33.2778L4.45162 36.5296L4.43076 35.9323Z" fill="#372BFE"/>
</svg>
