<svg width="1300" height="150" viewBox="0 0 1300 150" fill="none" xmlns="http://www.w3.org/2000/svg">
<g clip-path="url(#clip0_1_2)">
<mask id="mask0_1_2" style="mask-type:luminance" maskUnits="userSpaceOnUse" x="0" y="0" width="1300" height="150">
<path d="M1300 0H0V150H1300V0Z" fill="white"/>
</mask>
<g mask="url(#mask0_1_2)">
<g filter="url(#filter0_d_1_2)">
<path d="M30.9482 124V109.498L42.0811 107.154V34.2783L30.9482 31.9346V17.3594H115.616V47.6816H96.8662L96.207 36.4023H66.9102V59.4004H101.407V78.3701H66.9102V104.884H97.6719L98.3311 93.165H116.935V124H30.9482ZM126.896 124V109.498L137.955 107.154V34.2783L126.896 31.9346V17.3594H137.955H163.15L206.656 86.8662H207.096V34.2783L193.18 31.9346V17.3594H229.142H240.274V31.9346L229.142 34.2783V124H204.752L160.367 55.8115H159.928V107.154L173.917 109.498V124H126.896ZM268.619 124V109.498L279.752 107.154V36.5488H262.687L261.881 48.3408H243.204V17.3594H341.422V48.3408H322.525L321.793 36.5488H304.581V107.154L315.787 109.498V124H268.619ZM346.036 124V109.498L357.169 107.154V34.2783L346.036 31.9346V17.2861H398.111C406.51 17.2861 413.761 18.6289 419.864 21.3145C426.017 23.9512 430.753 27.7354 434.073 32.667C437.394 37.5498 439.054 43.3604 439.054 50.0986C439.054 56.3486 437.369 62.1104 434 67.3838C430.68 72.6572 426.09 76.8809 420.23 80.0547C414.42 83.2285 407.779 84.791 400.309 84.7422L381.998 84.5957V107.154L393.131 109.498V124H346.036ZM413.858 124L398.697 81.4463L420.377 74.415L433.927 107.081L443.814 109.498V124H413.858ZM381.998 65.5527H398.258C403.482 65.5527 407.462 64.3809 410.196 62.0371C412.979 59.6445 414.371 56.1777 414.371 51.6367C414.371 46.998 412.979 43.2871 410.196 40.5039C407.413 37.7207 403.385 36.3291 398.111 36.3291H381.998V65.5527ZM450.04 124V109.498L461.173 107.154V34.2783L450.04 31.9346V17.3594H534.708V47.6816H515.958L515.299 36.4023H486.002V59.4004H520.499V78.3701H486.002V104.884H516.764L517.423 93.165H536.026V124H450.04ZM571.256 124V109.498L582.389 107.154V36.5488H565.323L564.518 48.3408H545.841V17.3594H644.059V48.3408H625.162L624.43 36.5488H607.218V107.154L618.424 109.498V124H571.256ZM648.673 124V109.498L659.806 107.154V34.2783L648.673 31.9346V17.3594H695.694V31.9346L684.562 34.2783V107.154L695.694 109.498V124H648.673ZM701.993 124V109.498L713.126 107.154V34.2783L701.993 31.9346V17.3594H786.661V47.6816H767.911L767.252 36.4023H737.955V59.4004H772.452V78.3701H737.955V104.884H768.717L769.376 93.165H787.979V124H701.993ZM797.94 124V109.498L809 107.154V34.2783L797.94 31.9346V17.3594H809H834.195L877.701 86.8662H878.141V34.2783L864.225 31.9346V17.3594H900.187H911.319V31.9346L900.187 34.2783V124H875.797L831.412 55.8115H830.973V107.154L844.962 109.498V124H797.94ZM954.312 124V108.033L988.663 71.6318C991.837 68.0674 994.352 64.918 996.207 62.1836C998.062 59.4004 999.381 56.8857 1000.16 54.6396C1000.99 52.3447 1001.41 50.123 1001.41 47.9746C1001.41 44.3613 1000.43 41.2852 998.478 38.7461C996.524 36.207 993.595 34.9375 989.688 34.9375C985.44 34.9375 982.267 36.4023 980.167 39.332C978.116 42.2617 977.091 46.2412 977.091 51.2705H952.921L952.774 50.8311C952.628 44.2881 954.044 38.3799 957.022 33.1064C960.001 27.7842 964.298 23.585 969.913 20.5088C975.528 17.3838 982.145 15.8213 989.762 15.8213C997.379 15.8213 1003.9 17.1641 1009.32 19.8496C1014.79 22.4863 1018.99 26.1973 1021.92 30.9824C1024.84 35.7188 1026.31 41.2852 1026.31 47.6816C1026.31 52.0273 1025.55 56.0557 1024.04 59.7666C1022.53 63.4775 1020.08 67.4326 1016.71 71.6318C1013.39 75.8311 1008.95 80.8359 1003.38 86.6465L986.319 104.811L986.466 105.177H1009.02L1010.12 96.0215H1028.8V124H954.312ZM1076.19 125.538C1064.71 125.538 1055.63 121.876 1048.94 114.552C1042.25 107.228 1038.91 96.4121 1038.91 82.1055V59.3271C1038.91 45.0693 1042.25 34.2539 1048.94 26.8809C1055.63 19.5078 1064.66 15.8213 1076.04 15.8213C1087.37 15.8213 1096.38 19.5078 1103.07 26.8809C1109.76 34.2539 1113.1 45.0693 1113.1 59.3271V82.1055C1113.1 96.4121 1109.78 107.228 1103.14 114.552C1096.5 121.876 1087.52 125.538 1076.19 125.538ZM1076.19 106.642C1080.19 106.642 1083.24 104.884 1085.34 101.368C1087.44 97.8037 1088.49 91.8955 1088.49 83.6436V57.6426C1088.49 49.5371 1087.42 43.7021 1085.27 40.1377C1083.12 36.5732 1080.04 34.791 1076.04 34.791C1071.94 34.791 1068.84 36.5732 1066.74 40.1377C1064.64 43.6533 1063.59 49.4883 1063.59 57.6426V83.6436C1063.59 91.9443 1064.64 97.8525 1066.74 101.368C1068.84 104.884 1071.99 106.642 1076.19 106.642ZM1162.03 125.538C1150.55 125.538 1141.47 121.876 1134.78 114.552C1128.09 107.228 1124.75 96.4121 1124.75 82.1055V59.3271C1124.75 45.0693 1128.09 34.2539 1134.78 26.8809C1141.47 19.5078 1150.5 15.8213 1161.88 15.8213C1173.21 15.8213 1182.22 19.5078 1188.91 26.8809C1195.6 34.2539 1198.94 45.0693 1198.94 59.3271V82.1055C1198.94 96.4121 1195.62 107.228 1188.98 114.552C1182.34 121.876 1173.36 125.538 1162.03 125.538ZM1162.03 106.642C1166.03 106.642 1169.08 104.884 1171.18 101.368C1173.28 97.8037 1174.33 91.8955 1174.33 83.6436V57.6426C1174.33 49.5371 1173.26 43.7021 1171.11 40.1377C1168.96 36.5732 1165.88 34.791 1161.88 34.791C1157.78 34.791 1154.68 36.5732 1152.58 40.1377C1150.48 43.6533 1149.43 49.4883 1149.43 57.6426V83.6436C1149.43 91.9443 1150.48 97.8525 1152.58 101.368C1154.68 104.884 1157.83 106.642 1162.03 106.642ZM1247.87 125.538C1236.39 125.538 1227.31 121.876 1220.62 114.552C1213.93 107.228 1210.59 96.4121 1210.59 82.1055V59.3271C1210.59 45.0693 1213.93 34.2539 1220.62 26.8809C1227.31 19.5078 1236.34 15.8213 1247.72 15.8213C1259.05 15.8213 1268.06 19.5078 1274.75 26.8809C1281.44 34.2539 1284.78 45.0693 1284.78 59.3271V82.1055C1284.78 96.4121 1281.46 107.228 1274.82 114.552C1268.18 121.876 1259.2 125.538 1247.87 125.538ZM1247.87 106.642C1251.87 106.642 1254.92 104.884 1257.02 101.368C1259.12 97.8037 1260.17 91.8955 1260.17 83.6436V57.6426C1260.17 49.5371 1259.1 43.7021 1256.95 40.1377C1254.8 36.5732 1251.72 34.791 1247.72 34.791C1243.62 34.791 1240.52 36.5732 1238.42 40.1377C1236.32 43.6533 1235.27 49.4883 1235.27 57.6426V83.6436C1235.27 91.9443 1236.32 97.8525 1238.42 101.368C1240.52 104.884 1243.67 106.642 1247.87 106.642Z" fill="#FFFDF9"/>
<path d="M30.9482 124H27.4482V127.5H30.9482V124ZM30.9482 109.498L30.2272 106.073L27.4482 106.658V109.498H30.9482ZM42.0811 107.154L42.8021 110.579L45.5811 109.994V107.154H42.0811ZM42.0811 34.2783H45.5811V31.4384L42.8021 30.8534L42.0811 34.2783ZM30.9482 31.9346H27.4482V34.7744L30.2272 35.3595L30.9482 31.9346ZM30.9482 17.3594V13.8594H27.4482V17.3594H30.9482ZM115.616 17.3594H119.116V13.8594H115.616V17.3594ZM115.616 47.6816V51.1816H119.116V47.6816H115.616ZM96.8662 47.6816L93.3722 47.8858L93.5648 51.1816H96.8662V47.6816ZM96.207 36.4023L99.7011 36.1981L99.5085 32.9023H96.207V36.4023ZM66.9102 36.4023V32.9023H63.4102V36.4023H66.9102ZM66.9102 59.4004H63.4102V62.9004H66.9102V59.4004ZM101.407 59.4004H104.907V55.9004H101.407V59.4004ZM101.407 78.3701V81.8701H104.907V78.3701H101.407ZM66.9102 78.3701V74.8701H63.4102V78.3701H66.9102ZM66.9102 104.884H63.4102V108.384H66.9102V104.884ZM97.6719 104.884V108.384H100.981L101.166 105.08L97.6719 104.884ZM98.3311 93.165V89.665H95.0224L94.8366 92.9685L98.3311 93.165ZM116.935 93.165H120.435V89.665H116.935V93.165ZM116.935 124V127.5H120.435V124H116.935ZM34.4482 124V109.498H27.4482V124H34.4482ZM31.6693 112.923L42.8021 110.579L41.36 103.729L30.2272 106.073L31.6693 112.923ZM45.5811 107.154V34.2783H38.5811V107.154H45.5811ZM42.8021 30.8534L31.6693 28.5096L30.2272 35.3595L41.36 37.7032L42.8021 30.8534ZM34.4482 31.9346V17.3594H27.4482V31.9346H34.4482ZM30.9482 20.8594H115.616V13.8594H30.9482V20.8594ZM112.116 17.3594V47.6816H119.116V17.3594H112.116ZM115.616 44.1816H96.8662V51.1816H115.616V44.1816ZM100.36 47.4774L99.7011 36.1981L92.713 36.6065L93.3722 47.8858L100.36 47.4774ZM96.207 32.9023H66.9102V39.9023H96.207V32.9023ZM63.4102 36.4023V59.4004H70.4102V36.4023H63.4102ZM66.9102 62.9004H101.407V55.9004H66.9102V62.9004ZM97.9072 59.4004V78.3701H104.907V59.4004H97.9072ZM101.407 74.8701H66.9102V81.8701H101.407V74.8701ZM63.4102 78.3701V104.884H70.4102V78.3701H63.4102ZM66.9102 108.384H97.6719V101.384H66.9102V108.384ZM101.166 105.08L101.826 93.3616L94.8366 92.9685L94.1774 104.687L101.166 105.08ZM98.3311 96.665H116.935V89.665H98.3311V96.665ZM113.435 93.165V124H120.435V93.165H113.435ZM116.935 120.5H30.9482V127.5H116.935V120.5ZM126.896 124H123.396V127.5H126.896V124ZM126.896 109.498L126.17 106.074L123.396 106.662V109.498H126.896ZM137.955 107.154L138.681 110.578L141.455 109.99V107.154H137.955ZM137.955 34.2783H141.455V31.4423L138.681 30.8544L137.955 34.2783ZM126.896 31.9346H123.396V34.7706L126.17 35.3585L126.896 31.9346ZM126.896 17.3594V13.8594H123.396V17.3594H126.896ZM163.15 17.3594L166.117 15.5024L165.089 13.8594H163.15V17.3594ZM206.656 86.8662L203.689 88.7232L204.718 90.3662H206.656V86.8662ZM207.096 86.8662V90.3662H210.596V86.8662H207.096ZM207.096 34.2783H210.596V31.3185L207.677 30.8269L207.096 34.2783ZM193.18 31.9346H189.68V34.8944L192.598 35.386L193.18 31.9346ZM193.18 17.3594V13.8594H189.68V17.3594H193.18ZM240.274 17.3594H243.774V13.8594H240.274V17.3594ZM240.274 31.9346L240.995 35.3595L243.774 34.7744V31.9346H240.274ZM229.142 34.2783L228.421 30.8534L225.642 31.4384V34.2783H229.142ZM229.142 124V127.5H232.642V124H229.142ZM204.752 124L201.819 125.909L202.854 127.5H204.752V124ZM160.367 55.8115L163.301 53.9022L162.265 52.3115H160.367V55.8115ZM159.928 55.8115V52.3115H156.428V55.8115H159.928ZM159.928 107.154H156.428V110.117L159.349 110.606L159.928 107.154ZM173.917 109.498H177.417V106.536L174.495 106.046L173.917 109.498ZM173.917 124V127.5H177.417V124H173.917ZM130.396 124V109.498H123.396V124H130.396ZM127.621 112.922L138.681 110.578L137.229 103.73L126.17 106.074L127.621 112.922ZM141.455 107.154V34.2783H134.455V107.154H141.455ZM138.681 30.8544L127.621 28.5106L126.17 35.3585L137.229 37.7023L138.681 30.8544ZM130.396 31.9346V17.3594H123.396V31.9346H130.396ZM126.896 20.8594H137.955V13.8594H126.896V20.8594ZM137.955 20.8594H163.15V13.8594H137.955V20.8594ZM160.184 19.2163L203.689 88.7232L209.623 85.0092L166.117 15.5024L160.184 19.2163ZM206.656 90.3662H207.096V83.3662H206.656V90.3662ZM210.596 86.8662V34.2783H203.596V86.8662H210.596ZM207.677 30.8269L193.761 28.4832L192.598 35.386L206.514 37.7297L207.677 30.8269ZM196.68 31.9346V17.3594H189.68V31.9346H196.68ZM193.18 20.8594H229.142V13.8594H193.18V20.8594ZM229.142 20.8594H240.274V13.8594H229.142V20.8594ZM236.774 17.3594V31.9346H243.774V17.3594H236.774ZM239.553 28.5096L228.421 30.8534L229.863 37.7032L240.995 35.3595L239.553 28.5096ZM225.642 34.2783V124H232.642V34.2783H225.642ZM229.142 120.5H204.752V127.5H229.142V120.5ZM207.685 122.091L163.301 53.9022L157.434 57.7209L201.819 125.909L207.685 122.091ZM160.367 52.3115H159.928V59.3115H160.367V52.3115ZM156.428 55.8115V107.154H163.428V55.8115H156.428ZM159.349 110.606L173.339 112.95L174.495 106.046L160.506 103.702L159.349 110.606ZM170.417 109.498V124H177.417V109.498H170.417ZM173.917 120.5H126.896V127.5H173.917V120.5ZM268.619 124H265.119V127.5H268.619V124ZM268.619 109.498L267.898 106.073L265.119 106.658V109.498H268.619ZM279.752 107.154L280.473 110.579L283.252 109.994V107.154H279.752ZM279.752 36.5488H283.252V33.0488H279.752V36.5488ZM262.687 36.5488V33.0488H259.417L259.195 36.3103L262.687 36.5488ZM261.881 48.3408V51.8408H265.15L265.373 48.5794L261.881 48.3408ZM243.204 48.3408H239.704V51.8408H243.204V48.3408ZM243.204 17.3594V13.8594H239.704V17.3594H243.204ZM341.422 17.3594H344.922V13.8594H341.422V17.3594ZM341.422 48.3408V51.8408H344.922V48.3408H341.422ZM322.525 48.3408L319.032 48.5578L319.236 51.8408H322.525V48.3408ZM321.793 36.5488L325.286 36.3319L325.082 33.0488H321.793V36.5488ZM304.581 36.5488V33.0488H301.081V36.5488H304.581ZM304.581 107.154H301.081V109.998L303.865 110.58L304.581 107.154ZM315.787 109.498H319.287V106.654L316.504 106.072L315.787 109.498ZM315.787 124V127.5H319.287V124H315.787ZM272.119 124V109.498H265.119V124H272.119ZM269.34 112.923L280.473 110.579L279.031 103.729L267.898 106.073L269.34 112.923ZM283.252 107.154V36.5488H276.252V107.154H283.252ZM279.752 33.0488H262.687V40.0488H279.752V33.0488ZM259.195 36.3103L258.389 48.1022L265.373 48.5794L266.178 36.7874L259.195 36.3103ZM261.881 44.8408H243.204V51.8408H261.881V44.8408ZM246.704 48.3408V17.3594H239.704V48.3408H246.704ZM243.204 20.8594H341.422V13.8594H243.204V20.8594ZM337.922 17.3594V48.3408H344.922V17.3594H337.922ZM341.422 44.8408H322.525V51.8408H341.422V44.8408ZM326.019 48.1238L325.286 36.3319L318.3 36.7658L319.032 48.5578L326.019 48.1238ZM321.793 33.0488H304.581V40.0488H321.793V33.0488ZM301.081 36.5488V107.154H308.081V36.5488H301.081ZM303.865 110.58L315.071 112.924L316.504 106.072L305.298 103.728L303.865 110.58ZM312.287 109.498V124H319.287V109.498H312.287ZM315.787 120.5H268.619V127.5H315.787V120.5ZM346.036 124H342.536V127.5H346.036V124ZM346.036 109.498L345.315 106.073L342.536 106.658V109.498H346.036ZM357.169 107.154L357.89 110.579L360.669 109.994V107.154H357.169ZM357.169 34.2783H360.669V31.4384L357.89 30.8534L357.169 34.2783ZM346.036 31.9346H342.536V34.7744L345.315 35.3595L346.036 31.9346ZM346.036 17.2861V13.7861H342.536V17.2861H346.036ZM419.864 21.3145L418.455 24.5181L418.47 24.5248L418.486 24.5315L419.864 21.3145ZM434.073 32.667L431.17 34.6217L431.174 34.6284L431.179 34.6351L434.073 32.667ZM434 67.3838L431.051 65.4994L431.044 65.5092L431.038 65.5189L434 67.3838ZM420.23 80.0547L418.563 76.9771L418.553 76.983L420.23 80.0547ZM400.309 84.7422L400.281 88.2421H400.286L400.309 84.7422ZM381.998 84.5957L382.026 81.0958L378.498 81.0676V84.5957H381.998ZM381.998 107.154H378.498V109.994L381.277 110.579L381.998 107.154ZM393.131 109.498H396.631V106.658L393.852 106.073L393.131 109.498ZM393.131 124V127.5H396.631V124H393.131ZM413.858 124L410.561 125.175L411.39 127.5H413.858V124ZM398.697 81.4463L397.617 78.117L394.191 79.2282L395.4 82.6209L398.697 81.4463ZM420.377 74.415L423.61 73.074L422.372 70.0887L419.297 71.0858L420.377 74.415ZM433.927 107.081L430.694 108.422L431.373 110.06L433.096 110.481L433.927 107.081ZM443.814 109.498H447.314V106.751L444.646 106.098L443.814 109.498ZM443.814 124V127.5H447.314V124H443.814ZM381.998 65.5527H378.498V69.0527H381.998V65.5527ZM410.196 62.0371L412.474 64.6945L412.478 64.6912L410.196 62.0371ZM381.998 36.3291V32.8291H378.498V36.3291H381.998ZM349.536 124V109.498H342.536V124H349.536ZM346.757 112.923L357.89 110.579L356.448 103.729L345.315 106.073L346.757 112.923ZM360.669 107.154V34.2783H353.669V107.154H360.669ZM357.89 30.8534L346.757 28.5096L345.315 35.3595L356.448 37.7032L357.89 30.8534ZM349.536 31.9346V17.2861H342.536V31.9346H349.536ZM346.036 20.7861H398.111V13.7861H346.036V20.7861ZM398.111 20.7861C406.146 20.7861 412.895 22.0717 418.455 24.5181L421.274 18.1109C414.627 15.1861 406.873 13.7861 398.111 13.7861V20.7861ZM418.486 24.5315C424.099 26.9373 428.272 30.3171 431.17 34.6217L436.977 30.7123C433.234 25.1536 427.934 20.965 421.243 18.0974L418.486 24.5315ZM431.179 34.6351C434.051 38.8582 435.554 43.96 435.554 50.0986H442.554C442.554 42.7607 440.736 36.2414 436.967 30.6989L431.179 34.6351ZM435.554 50.0986C435.554 55.68 434.061 60.788 431.051 65.4994L436.949 69.2682C440.678 63.4327 442.554 57.0173 442.554 50.0986H435.554ZM431.038 65.5189C428.06 70.2484 423.932 74.0691 418.563 76.9771L421.897 83.1322C428.248 79.6926 433.299 75.066 436.962 69.2486L431.038 65.5189ZM418.553 76.983C413.328 79.8371 407.286 81.2877 400.331 81.2423L400.286 88.2421C408.273 88.2943 415.512 86.6199 421.908 83.1263L418.553 76.983ZM400.337 81.2423L382.026 81.0958L381.97 88.0956L400.281 88.2421L400.337 81.2423ZM378.498 84.5957V107.154H385.498V84.5957H378.498ZM381.277 110.579L392.41 112.923L393.852 106.073L382.719 103.729L381.277 110.579ZM389.631 109.498V124H396.631V109.498H389.631ZM393.131 120.5H346.036V127.5H393.131V120.5ZM417.155 122.825L401.994 80.2716L395.4 82.6209L410.561 125.175L417.155 122.825ZM399.777 84.7756L421.457 77.7443L419.297 71.0858L397.617 78.117L399.777 84.7756ZM417.144 75.756L430.694 108.422L437.16 105.74L423.61 73.074L417.144 75.756ZM433.096 110.481L442.983 112.898L444.646 106.098L434.758 103.681L433.096 110.481ZM440.314 109.498V124H447.314V109.498H440.314ZM443.814 120.5H413.858V127.5H443.814V120.5ZM381.998 69.0527H398.258V62.0527H381.998V69.0527ZM398.258 69.0527C403.949 69.0527 408.872 67.7816 412.474 64.6945L407.919 59.3797C406.051 60.9801 403.016 62.0527 398.258 62.0527V69.0527ZM412.478 64.6912C416.214 61.4796 417.871 56.9348 417.871 51.6367H410.871C410.871 55.4207 409.745 57.8095 407.915 59.383L412.478 64.6912ZM417.871 51.6367C417.871 46.2482 416.227 41.5848 412.671 38.029L407.721 42.9788C409.732 44.9894 410.871 47.7479 410.871 51.6367H417.871ZM412.671 38.029C409.033 34.3906 403.988 32.8291 398.111 32.8291V39.8291C402.782 39.8291 405.793 41.0509 407.721 42.9788L412.671 38.029ZM398.111 32.8291H381.998V39.8291H398.111V32.8291ZM378.498 36.3291V65.5527H385.498V36.3291H378.498ZM450.04 124H446.54V127.5H450.04V124ZM450.04 109.498L449.319 106.073L446.54 106.658V109.498H450.04ZM461.173 107.154L461.894 110.579L464.673 109.994V107.154H461.173ZM461.173 34.2783H464.673V31.4384L461.894 30.8534L461.173 34.2783ZM450.04 31.9346H446.54V34.7744L449.319 35.3595L450.04 31.9346ZM450.04 17.3594V13.8594H446.54V17.3594H450.04ZM534.708 17.3594H538.208V13.8594H534.708V17.3594ZM534.708 47.6816V51.1816H538.208V47.6816H534.708ZM515.958 47.6816L512.464 47.8858L512.657 51.1816H515.958V47.6816ZM515.299 36.4023L518.793 36.1981L518.6 32.9023H515.299V36.4023ZM486.002 36.4023V32.9023H482.502V36.4023H486.002ZM486.002 59.4004H482.502V62.9004H486.002V59.4004ZM520.499 59.4004H523.999V55.9004H520.499V59.4004ZM520.499 78.3701V81.8701H523.999V78.3701H520.499ZM486.002 78.3701V74.8701H482.502V78.3701H486.002ZM486.002 104.884H482.502V108.384H486.002V104.884ZM516.764 104.884V108.384H520.072L520.258 105.08L516.764 104.884ZM517.423 93.165V89.665H514.114L513.928 92.9685L517.423 93.165ZM536.026 93.165H539.526V89.665H536.026V93.165ZM536.026 124V127.5H539.526V124H536.026ZM453.54 124V109.498H446.54V124H453.54ZM450.761 112.923L461.894 110.579L460.452 103.729L449.319 106.073L450.761 112.923ZM464.673 107.154V34.2783H457.673V107.154H464.673ZM461.894 30.8534L450.761 28.5096L449.319 35.3595L460.452 37.7032L461.894 30.8534ZM453.54 31.9346V17.3594H446.54V31.9346H453.54ZM450.04 20.8594H534.708V13.8594H450.04V20.8594ZM531.208 17.3594V47.6816H538.208V17.3594H531.208ZM534.708 44.1816H515.958V51.1816H534.708V44.1816ZM519.452 47.4774L518.793 36.1981L511.805 36.6065L512.464 47.8858L519.452 47.4774ZM515.299 32.9023H486.002V39.9023H515.299V32.9023ZM482.502 36.4023V59.4004H489.502V36.4023H482.502ZM486.002 62.9004H520.499V55.9004H486.002V62.9004ZM516.999 59.4004V78.3701H523.999V59.4004H516.999ZM520.499 74.8701H486.002V81.8701H520.499V74.8701ZM482.502 78.3701V104.884H489.502V78.3701H482.502ZM486.002 108.384H516.764V101.384H486.002V108.384ZM520.258 105.08L520.917 93.3616L513.928 92.9685L513.269 104.687L520.258 105.08ZM517.423 96.665H536.026V89.665H517.423V96.665ZM532.526 93.165V124H539.526V93.165H532.526ZM536.026 120.5H450.04V127.5H536.026V120.5ZM571.256 124H567.756V127.5H571.256V124ZM571.256 109.498L570.535 106.073L567.756 106.658V109.498H571.256ZM582.389 107.154L583.11 110.579L585.889 109.994V107.154H582.389ZM582.389 36.5488H585.889V33.0488H582.389V36.5488ZM565.323 36.5488V33.0488H562.054L561.831 36.3103L565.323 36.5488ZM564.518 48.3408V51.8408H567.787L568.009 48.5794L564.518 48.3408ZM545.841 48.3408H542.341V51.8408H545.841V48.3408ZM545.841 17.3594V13.8594H542.341V17.3594H545.841ZM644.059 17.3594H647.559V13.8594H644.059V17.3594ZM644.059 48.3408V51.8408H647.559V48.3408H644.059ZM625.162 48.3408L621.669 48.5578L621.873 51.8408H625.162V48.3408ZM624.43 36.5488L627.923 36.3319L627.719 33.0488H624.43V36.5488ZM607.218 36.5488V33.0488H603.718V36.5488H607.218ZM607.218 107.154H603.718V109.998L606.501 110.58L607.218 107.154ZM618.424 109.498H621.924V106.654L619.14 106.072L618.424 109.498ZM618.424 124V127.5H621.924V124H618.424ZM574.756 124V109.498H567.756V124H574.756ZM571.977 112.923L583.11 110.579L581.668 103.729L570.535 106.073L571.977 112.923ZM585.889 107.154V36.5488H578.889V107.154H585.889ZM582.389 33.0488H565.323V40.0488H582.389V33.0488ZM561.831 36.3103L561.026 48.1022L568.009 48.5794L568.815 36.7874L561.831 36.3103ZM564.518 44.8408H545.841V51.8408H564.518V44.8408ZM549.341 48.3408V17.3594H542.341V48.3408H549.341ZM545.841 20.8594H644.059V13.8594H545.841V20.8594ZM640.559 17.3594V48.3408H647.559V17.3594H640.559ZM644.059 44.8408H625.162V51.8408H644.059V44.8408ZM628.655 48.1238L627.923 36.3319L620.936 36.7658L621.669 48.5578L628.655 48.1238ZM624.43 33.0488H607.218V40.0488H624.43V33.0488ZM603.718 36.5488V107.154H610.718V36.5488H603.718ZM606.501 110.58L617.707 112.924L619.14 106.072L607.934 103.728L606.501 110.58ZM614.924 109.498V124H621.924V109.498H614.924ZM618.424 120.5H571.256V127.5H618.424V120.5ZM648.673 124H645.173V127.5H648.673V124ZM648.673 109.498L647.952 106.073L645.173 106.658V109.498H648.673ZM659.806 107.154L660.527 110.579L663.306 109.994V107.154H659.806ZM659.806 34.2783H663.306V31.4384L660.527 30.8534L659.806 34.2783ZM648.673 31.9346H645.173V34.7744L647.952 35.3595L648.673 31.9346ZM648.673 17.3594V13.8594H645.173V17.3594H648.673ZM695.694 17.3594H699.194V13.8594H695.694V17.3594ZM695.694 31.9346L696.415 35.3595L699.194 34.7744V31.9346H695.694ZM684.562 34.2783L683.84 30.8534L681.062 31.4384V34.2783H684.562ZM684.562 107.154H681.062V109.994L683.84 110.579L684.562 107.154ZM695.694 109.498H699.194V106.658L696.415 106.073L695.694 109.498ZM695.694 124V127.5H699.194V124H695.694ZM652.173 124V109.498H645.173V124H652.173ZM649.394 112.923L660.527 110.579L659.085 103.729L647.952 106.073L649.394 112.923ZM663.306 107.154V34.2783H656.306V107.154H663.306ZM660.527 30.8534L649.394 28.5096L647.952 35.3595L659.085 37.7032L660.527 30.8534ZM652.173 31.9346V17.3594H645.173V31.9346H652.173ZM648.673 20.8594H695.694V13.8594H648.673V20.8594ZM692.194 17.3594V31.9346H699.194V17.3594H692.194ZM694.973 28.5096L683.84 30.8534L685.283 37.7032L696.415 35.3595L694.973 28.5096ZM681.062 34.2783V107.154H688.062V34.2783H681.062ZM683.84 110.579L694.973 112.923L696.415 106.073L685.283 103.729L683.84 110.579ZM692.194 109.498V124H699.194V109.498H692.194ZM695.694 120.5H648.673V127.5H695.694V120.5ZM701.993 124H698.493V127.5H701.993V124ZM701.993 109.498L701.272 106.073L698.493 106.658V109.498H701.993ZM713.126 107.154L713.847 110.579L716.626 109.994V107.154H713.126ZM713.126 34.2783H716.626V31.4384L713.847 30.8534L713.126 34.2783ZM701.993 31.9346H698.493V34.7744L701.272 35.3595L701.993 31.9346ZM701.993 17.3594V13.8594H698.493V17.3594H701.993ZM786.661 17.3594H790.161V13.8594H786.661V17.3594ZM786.661 47.6816V51.1816H790.161V47.6816H786.661ZM767.911 47.6816L764.417 47.8858L764.61 51.1816H767.911V47.6816ZM767.252 36.4023L770.746 36.1981L770.553 32.9023H767.252V36.4023ZM737.955 36.4023V32.9023H734.455V36.4023H737.955ZM737.955 59.4004H734.455V62.9004H737.955V59.4004ZM772.452 59.4004H775.952V55.9004H772.452V59.4004ZM772.452 78.3701V81.8701H775.952V78.3701H772.452ZM737.955 78.3701V74.8701H734.455V78.3701H737.955ZM737.955 104.884H734.455V108.384H737.955V104.884ZM768.717 104.884V108.384H772.025L772.211 105.08L768.717 104.884ZM769.376 93.165V89.665H766.067L765.882 92.9685L769.376 93.165ZM787.979 93.165H791.479V89.665H787.979V93.165ZM787.979 124V127.5H791.479V124H787.979ZM705.493 124V109.498H698.493V124H705.493ZM702.714 112.923L713.847 110.579L712.405 103.729L701.272 106.073L702.714 112.923ZM716.626 107.154V34.2783H709.626V107.154H716.626ZM713.847 30.8534L702.714 28.5096L701.272 35.3595L712.405 37.7032L713.847 30.8534ZM705.493 31.9346V17.3594H698.493V31.9346H705.493ZM701.993 20.8594H786.661V13.8594H701.993V20.8594ZM783.161 17.3594V47.6816H790.161V17.3594H783.161ZM786.661 44.1816H767.911V51.1816H786.661V44.1816ZM771.405 47.4774L770.746 36.1981L763.758 36.6065L764.417 47.8858L771.405 47.4774ZM767.252 32.9023H737.955V39.9023H767.252V32.9023ZM734.455 36.4023V59.4004H741.455V36.4023H734.455ZM737.955 62.9004H772.452V55.9004H737.955V62.9004ZM768.952 59.4004V78.3701H775.952V59.4004H768.952ZM772.452 74.8701H737.955V81.8701H772.452V74.8701ZM734.455 78.3701V104.884H741.455V78.3701H734.455ZM737.955 108.384H768.717V101.384H737.955V108.384ZM772.211 105.08L772.87 93.3616L765.882 92.9685L765.222 104.687L772.211 105.08ZM769.376 96.665H787.979V89.665H769.376V96.665ZM784.479 93.165V124H791.479V93.165H784.479ZM787.979 120.5H701.993V127.5H787.979V120.5ZM797.94 124H794.44V127.5H797.94V124ZM797.94 109.498L797.215 106.074L794.44 106.662V109.498H797.94ZM809 107.154L809.726 110.578L812.5 109.99V107.154H809ZM809 34.2783H812.5V31.4423L809.726 30.8544L809 34.2783ZM797.94 31.9346H794.44V34.7706L797.215 35.3585L797.94 31.9346ZM797.94 17.3594V13.8594H794.44V17.3594H797.94ZM834.195 17.3594L837.162 15.5024L836.134 13.8594H834.195V17.3594ZM877.701 86.8662L874.734 88.7232L875.763 90.3662H877.701V86.8662ZM878.141 86.8662V90.3662H881.641V86.8662H878.141ZM878.141 34.2783H881.641V31.3185L878.722 30.8269L878.141 34.2783ZM864.225 31.9346H860.725V34.8944L863.643 35.386L864.225 31.9346ZM864.225 17.3594V13.8594H860.725V17.3594H864.225ZM911.319 17.3594H914.819V13.8594H911.319V17.3594ZM911.319 31.9346L912.04 35.3595L914.819 34.7744V31.9346H911.319ZM900.187 34.2783L899.465 30.8534L896.687 31.4384V34.2783H900.187ZM900.187 124V127.5H903.687V124H900.187ZM875.797 124L872.864 125.909L873.899 127.5H875.797V124ZM831.412 55.8115L834.345 53.9022L833.31 52.3115H831.412V55.8115ZM830.973 55.8115V52.3115H827.473V55.8115H830.973ZM830.973 107.154H827.473V110.117L830.394 110.606L830.973 107.154ZM844.962 109.498H848.462V106.536L845.54 106.046L844.962 109.498ZM844.962 124V127.5H848.462V124H844.962ZM801.44 124V109.498H794.44V124H801.44ZM798.666 112.922L809.726 110.578L808.274 103.73L797.215 106.074L798.666 112.922ZM812.5 107.154V34.2783H805.5V107.154H812.5ZM809.726 30.8544L798.666 28.5106L797.215 35.3585L808.274 37.7023L809.726 30.8544ZM801.44 31.9346V17.3594H794.44V31.9346H801.44ZM797.94 20.8594H809V13.8594H797.94V20.8594ZM809 20.8594H834.195V13.8594H809V20.8594ZM831.229 19.2163L874.734 88.7232L880.668 85.0092L837.162 15.5024L831.229 19.2163ZM877.701 90.3662H878.141V83.3662H877.701V90.3662ZM881.641 86.8662V34.2783H874.641V86.8662H881.641ZM878.722 30.8269L864.806 28.4832L863.643 35.386L877.559 37.7297L878.722 30.8269ZM867.725 31.9346V17.3594H860.725V31.9346H867.725ZM864.225 20.8594H900.187V13.8594H864.225V20.8594ZM900.187 20.8594H911.319V13.8594H900.187V20.8594ZM907.819 17.3594V31.9346H914.819V17.3594H907.819ZM910.598 28.5096L899.465 30.8534L900.908 37.7032L912.04 35.3595L910.598 28.5096ZM896.687 34.2783V124H903.687V34.2783H896.687ZM900.187 120.5H875.797V127.5H900.187V120.5ZM878.73 122.091L834.345 53.9022L828.479 57.7209L872.864 125.909L878.73 122.091ZM831.412 52.3115H830.973V59.3115H831.412V52.3115ZM827.473 55.8115V107.154H834.473V55.8115H827.473ZM830.394 110.606L844.384 112.95L845.54 106.046L831.551 103.702L830.394 110.606ZM841.462 109.498V124H848.462V109.498H841.462ZM844.962 120.5H797.94V127.5H844.962V120.5ZM954.312 124H950.812V127.5H954.312V124ZM954.312 108.033L951.767 105.631L950.812 106.643V108.033H954.312ZM988.663 71.6318L991.209 74.034L991.243 73.9971L991.277 73.9593L988.663 71.6318ZM996.207 62.1836L999.103 64.1488L999.111 64.137L999.119 64.125L996.207 62.1836ZM1000.16 54.6396L996.871 53.4492L996.863 53.4695L996.856 53.4898L1000.16 54.6396ZM980.167 39.332L977.322 37.2932L977.311 37.309L977.3 37.3249L980.167 39.332ZM977.091 51.2705V54.7705H980.591V51.2705H977.091ZM952.921 51.2705L949.601 52.3773L950.398 54.7705H952.921V51.2705ZM952.774 50.8311L949.275 50.9094L949.287 51.4371L949.454 51.9379L952.774 50.8311ZM957.022 33.1064L960.07 34.8277L960.077 34.8157L957.022 33.1064ZM969.913 20.5088L971.595 23.5784L971.605 23.5728L971.615 23.5671L969.913 20.5088ZM1009.32 19.8496L1007.76 22.9857L1007.78 22.9941L1007.8 23.0023L1009.32 19.8496ZM1021.92 30.9824L1018.93 32.81V32.8168L1018.94 32.8236L1021.92 30.9824ZM1016.71 71.6318L1013.98 69.4415V69.4512L1013.97 69.461L1016.71 71.6318ZM1003.38 86.6465L1000.86 84.2253L1000.85 84.2376L1000.83 84.25L1003.38 86.6465ZM986.319 104.811L983.769 102.414L982.241 104.04L983.07 106.11L986.319 104.811ZM986.466 105.177L983.216 106.477L984.096 108.677H986.466V105.177ZM1009.02 105.177V108.677H1012.13L1012.5 105.594L1009.02 105.177ZM1010.12 96.0215V92.5215H1007.02L1006.65 95.6045L1010.12 96.0215ZM1028.8 96.0215H1032.3V92.5215H1028.8V96.0215ZM1028.8 124V127.5H1032.3V124H1028.8ZM957.812 124V108.033H950.812V124H957.812ZM956.858 110.435L991.209 74.034L986.118 69.2297L951.767 105.631L956.858 110.435ZM991.277 73.9593C994.512 70.326 997.133 67.0521 999.103 64.1488L993.311 60.2183C991.57 62.7839 989.162 65.8088 986.049 69.3043L991.277 73.9593ZM999.119 64.125C1001.08 61.1869 1002.56 58.4025 1003.47 55.7895L996.856 53.4898C996.203 55.369 995.047 57.6138 993.295 60.2421L999.119 64.125ZM1003.45 55.8301C1004.4 53.2048 1004.91 50.5801 1004.91 47.9746H997.907C997.907 49.666 997.581 51.4847 996.871 53.4492L1003.45 55.8301ZM1004.91 47.9746C1004.91 43.6933 1003.74 39.8405 1001.25 36.6121L995.703 40.8801C997.126 42.7298 997.907 45.0294 997.907 47.9746H1004.91ZM1001.25 36.6121C998.489 33.0212 994.416 31.4375 989.688 31.4375V38.4375C992.774 38.4375 994.559 39.3929 995.703 40.8801L1001.25 36.6121ZM989.688 31.4375C984.542 31.4375 980.202 33.2743 977.322 37.2932L983.012 41.3708C984.331 39.5304 986.339 38.4375 989.688 38.4375V31.4375ZM977.3 37.3249C974.701 41.038 973.591 45.8051 973.591 51.2705H980.591C980.591 46.6773 981.532 43.4854 983.034 41.3391L977.3 37.3249ZM977.091 47.7705H952.921V54.7705H977.091V47.7705ZM956.241 50.1637L956.095 49.7243L949.454 51.9379L949.601 52.3773L956.241 50.1637ZM956.274 50.7527C956.14 44.7868 957.426 39.5088 960.07 34.8277L953.975 31.3852C950.662 37.2509 949.116 43.7894 949.275 50.9094L956.274 50.7527ZM960.077 34.8157C962.718 30.0959 966.526 26.3554 971.595 23.5784L968.231 17.4392C962.07 20.8146 957.284 25.4725 953.968 31.3972L960.077 34.8157ZM971.615 23.5671C976.621 20.7812 982.63 19.3213 989.762 19.3213V12.3213C981.659 12.3213 974.436 13.9864 968.211 17.4505L971.615 23.5671ZM989.762 19.3213C996.976 19.3213 1002.94 20.5934 1007.76 22.9857L1010.87 16.7135C1004.86 13.7347 997.782 12.3213 989.762 12.3213V19.3213ZM1007.8 23.0023C1012.71 25.3721 1016.38 28.6452 1018.93 32.81L1024.9 29.1549C1021.59 23.7494 1016.86 19.6006 1010.84 16.6969L1007.8 23.0023ZM1018.94 32.8236C1021.48 36.9285 1022.81 41.837 1022.81 47.6816H1029.81C1029.81 40.7333 1028.21 34.509 1024.89 29.1412L1018.94 32.8236ZM1022.81 47.6816C1022.81 51.6126 1022.13 55.1877 1020.8 58.4447L1027.28 61.0885C1028.98 56.9236 1029.81 52.4421 1029.81 47.6816H1022.81ZM1020.8 58.4447C1019.45 61.7568 1017.21 65.4215 1013.98 69.4415L1019.44 73.8221C1022.96 69.4437 1025.6 65.1982 1027.28 61.0885L1020.8 58.4447ZM1013.97 69.461C1010.74 73.5419 1006.38 78.4593 1000.86 84.2253L1005.91 89.0677C1011.52 83.2126 1016.05 78.1202 1019.46 73.8027L1013.97 69.461ZM1000.83 84.25L983.769 102.414L988.87 107.207L1005.94 89.043L1000.83 84.25ZM983.07 106.11L983.216 106.477L989.715 103.877L989.569 103.511L983.07 106.11ZM986.466 108.677H1009.02V101.677H986.466V108.677ZM1012.5 105.594L1013.6 96.4385L1006.65 95.6045L1005.55 104.76L1012.5 105.594ZM1010.12 99.5215H1028.8V92.5215H1010.12V99.5215ZM1025.3 96.0215V124H1032.3V96.0215H1025.3ZM1028.8 120.5H954.312V127.5H1028.8V120.5ZM1085.34 101.368L1088.35 103.163V103.154L1088.36 103.145L1085.34 101.368ZM1066.74 40.1377L1069.74 41.9323L1069.75 41.9232V41.9141L1066.74 40.1377ZM1076.19 122.038C1065.53 122.038 1057.45 118.673 1051.53 112.191L1046.36 116.912C1053.82 125.079 1063.9 129.038 1076.19 129.038V122.038ZM1051.53 112.191C1045.64 105.748 1042.41 95.9212 1042.41 82.1055H1035.41C1035.41 96.9031 1038.86 108.707 1046.36 116.912L1051.53 112.191ZM1042.41 82.1055V59.3271H1035.41V82.1055H1042.41ZM1042.41 59.3271C1042.41 45.5661 1045.64 35.7307 1051.53 29.2326L1046.35 24.5291C1038.87 32.7771 1035.41 44.5726 1035.41 59.3271H1042.41ZM1051.53 29.2326C1057.46 22.6986 1065.5 19.3213 1076.04 19.3213V12.3213C1063.83 12.3213 1053.8 16.317 1046.35 24.5291L1051.53 29.2326ZM1076.04 19.3213C1086.53 19.3213 1094.54 22.6953 1100.48 29.2326L1105.66 24.5291C1098.21 16.3203 1088.21 12.3213 1076.04 12.3213V19.3213ZM1100.48 29.2326C1106.37 35.7307 1109.6 45.5661 1109.6 59.3271H1116.6C1116.6 44.5726 1113.14 32.7771 1105.66 24.5291L1100.48 29.2326ZM1109.6 59.3271V82.1055H1116.6V59.3271H1109.6ZM1109.6 82.1055C1109.6 95.9269 1106.39 105.757 1100.55 112.201L1105.73 116.903C1113.17 108.698 1116.6 96.8973 1116.6 82.1055H1109.6ZM1100.55 112.201C1094.67 118.683 1086.69 122.038 1076.19 122.038V129.038C1088.34 129.038 1098.33 125.069 1105.73 116.903L1100.55 112.201ZM1076.19 110.142C1081.46 110.142 1085.63 107.707 1088.35 103.163L1082.34 99.5736C1080.85 102.061 1078.93 103.142 1076.19 103.142V110.142ZM1088.36 103.145C1090.96 98.7282 1091.99 92.0117 1091.99 83.6436H1084.99C1084.99 91.7793 1083.92 96.8792 1082.33 99.5918L1088.36 103.145ZM1091.99 83.6436V57.6426H1084.99V83.6436H1091.99ZM1091.99 57.6426C1091.99 49.4008 1090.93 42.7508 1088.27 38.3309L1082.27 41.9445C1083.9 44.6535 1084.99 49.6734 1084.99 57.6426H1091.99ZM1088.27 38.3309C1085.52 33.7663 1081.33 31.291 1076.04 31.291V38.291C1078.76 38.291 1080.73 39.3802 1082.27 41.9445L1088.27 38.3309ZM1076.04 31.291C1070.69 31.291 1066.45 33.7402 1063.72 38.3613L1069.75 41.9141C1071.23 39.4063 1073.19 38.291 1076.04 38.291V31.291ZM1063.73 38.3431C1061.12 42.7171 1060.09 49.37 1060.09 57.6426H1067.09C1067.09 49.6066 1068.16 44.5895 1069.74 41.9323L1063.73 38.3431ZM1060.09 57.6426V83.6436H1067.09V57.6426H1060.09ZM1060.09 83.6436C1060.09 92.0487 1061.12 98.7828 1063.73 103.163L1069.74 99.5736C1068.16 96.9223 1067.09 91.84 1067.09 83.6436H1060.09ZM1063.73 103.163C1066.49 107.769 1070.79 110.142 1076.19 110.142V103.142C1073.18 103.142 1071.19 101.999 1069.74 99.5736L1063.73 103.163ZM1171.18 101.368L1174.19 103.163V103.154L1174.2 103.145L1171.18 101.368ZM1152.58 40.1377L1155.58 41.9323L1155.59 41.9232V41.9141L1152.58 40.1377ZM1162.03 122.038C1151.37 122.038 1143.29 118.673 1137.37 112.191L1132.2 116.912C1139.66 125.079 1149.74 129.038 1162.03 129.038V122.038ZM1137.37 112.191C1131.48 105.748 1128.25 95.9212 1128.25 82.1055H1121.25C1121.25 96.9031 1124.7 108.707 1132.2 116.912L1137.37 112.191ZM1128.25 82.1055V59.3271H1121.25V82.1055H1128.25ZM1128.25 59.3271C1128.25 45.5661 1131.48 35.7307 1137.37 29.2326L1132.19 24.5291C1124.71 32.7771 1121.25 44.5726 1121.25 59.3271H1128.25ZM1137.37 29.2326C1143.3 22.6986 1151.34 19.3213 1161.88 19.3213V12.3213C1149.67 12.3213 1139.64 16.317 1132.19 24.5291L1137.37 29.2326ZM1161.88 19.3213C1172.37 19.3213 1180.38 22.6953 1186.32 29.2326L1191.5 24.5291C1184.05 16.3203 1174.05 12.3213 1161.88 12.3213V19.3213ZM1186.32 29.2326C1192.21 35.7307 1195.44 45.5661 1195.44 59.3271H1202.44C1202.44 44.5726 1198.98 32.7771 1191.5 24.5291L1186.32 29.2326ZM1195.44 59.3271V82.1055H1202.44V59.3271H1195.44ZM1195.44 82.1055C1195.44 95.9269 1192.23 105.757 1186.39 112.201L1191.57 116.903C1199.01 108.698 1202.44 96.8973 1202.44 82.1055H1195.44ZM1186.39 112.201C1180.51 118.683 1172.53 122.038 1162.03 122.038V129.038C1174.18 129.038 1184.17 125.069 1191.57 116.903L1186.39 112.201ZM1162.03 110.142C1167.3 110.142 1171.47 107.707 1174.19 103.163L1168.18 99.5736C1166.69 102.061 1164.77 103.142 1162.03 103.142V110.142ZM1174.2 103.145C1176.8 98.7282 1177.83 92.0117 1177.83 83.6436H1170.83C1170.83 91.7793 1169.76 96.8792 1168.17 99.5918L1174.2 103.145ZM1177.83 83.6436V57.6426H1170.83V83.6436H1177.83ZM1177.83 57.6426C1177.83 49.4008 1176.77 42.7508 1174.11 38.3309L1168.11 41.9445C1169.74 44.6535 1170.83 49.6734 1170.83 57.6426H1177.83ZM1174.11 38.3309C1171.36 33.7663 1167.17 31.291 1161.88 31.291V38.291C1164.6 38.291 1166.57 39.3802 1168.11 41.9445L1174.11 38.3309ZM1161.88 31.291C1156.53 31.291 1152.29 33.7402 1149.56 38.3613L1155.59 41.9141C1157.07 39.4063 1159.03 38.291 1161.88 38.291V31.291ZM1149.57 38.3431C1146.96 42.7171 1145.93 49.37 1145.93 57.6426H1152.93C1152.93 49.6066 1154 44.5895 1155.58 41.9323L1149.57 38.3431ZM1145.93 57.6426V83.6436H1152.93V57.6426H1145.93ZM1145.93 83.6436C1145.93 92.0487 1146.96 98.7828 1149.57 103.163L1155.58 99.5736C1154 96.9223 1152.93 91.84 1152.93 83.6436H1145.93ZM1149.57 103.163C1152.33 107.769 1156.63 110.142 1162.03 110.142V103.142C1159.02 103.142 1157.03 101.999 1155.58 99.5736L1149.57 103.163ZM1257.02 101.368L1260.03 103.163V103.154L1260.04 103.145L1257.02 101.368ZM1238.42 40.1377L1241.42 41.9323L1241.43 41.9232V41.9141L1238.42 40.1377ZM1247.87 122.038C1237.21 122.038 1229.13 118.673 1223.21 112.191L1218.04 116.912C1225.5 125.079 1235.58 129.038 1247.87 129.038V122.038ZM1223.21 112.191C1217.32 105.748 1214.09 95.9212 1214.09 82.1055H1207.09C1207.09 96.9031 1210.54 108.707 1218.04 116.912L1223.21 112.191ZM1214.09 82.1055V59.3271H1207.09V82.1055H1214.09ZM1214.09 59.3271C1214.09 45.5661 1217.32 35.7307 1223.21 29.2326L1218.03 24.5291C1210.55 32.7771 1207.09 44.5726 1207.09 59.3271H1214.09ZM1223.21 29.2326C1229.14 22.6986 1237.18 19.3213 1247.72 19.3213V12.3213C1235.51 12.3213 1225.48 16.317 1218.03 24.5291L1223.21 29.2326ZM1247.72 19.3213C1258.21 19.3213 1266.22 22.6953 1272.15 29.2326L1277.34 24.5291C1269.89 16.3203 1259.89 12.3213 1247.72 12.3213V19.3213ZM1272.15 29.2326C1278.05 35.7307 1281.28 45.5661 1281.28 59.3271H1288.28C1288.28 44.5726 1284.82 32.7771 1277.34 24.5291L1272.15 29.2326ZM1281.28 59.3271V82.1055H1288.28V59.3271H1281.28ZM1281.28 82.1055C1281.28 95.9269 1278.07 105.757 1272.23 112.201L1277.41 116.903C1284.85 108.698 1288.28 96.8973 1288.28 82.1055H1281.28ZM1272.23 112.201C1266.35 118.683 1258.37 122.038 1247.87 122.038V129.038C1260.02 129.038 1270.01 125.069 1277.41 116.903L1272.23 112.201ZM1247.87 110.142C1253.14 110.142 1257.31 107.707 1260.03 103.163L1254.02 99.5736C1252.53 102.061 1250.61 103.142 1247.87 103.142V110.142ZM1260.04 103.145C1262.64 98.7282 1263.67 92.0117 1263.67 83.6436H1256.67C1256.67 91.7793 1255.6 96.8792 1254.01 99.5918L1260.04 103.145ZM1263.67 83.6436V57.6426H1256.67V83.6436H1263.67ZM1263.67 57.6426C1263.67 49.4008 1262.61 42.7508 1259.95 38.3309L1253.95 41.9445C1255.58 44.6535 1256.67 49.6734 1256.67 57.6426H1263.67ZM1259.95 38.3309C1257.2 33.7663 1253.01 31.291 1247.72 31.291V38.291C1250.44 38.291 1252.41 39.3802 1253.95 41.9445L1259.95 38.3309ZM1247.72 31.291C1242.37 31.291 1238.13 33.7402 1235.4 38.3613L1241.43 41.9141C1242.91 39.4063 1244.87 38.291 1247.72 38.291V31.291ZM1235.41 38.3431C1232.8 42.7171 1231.77 49.37 1231.77 57.6426H1238.77C1238.77 49.6066 1239.84 44.5895 1241.42 41.9323L1235.41 38.3431ZM1231.77 57.6426V83.6436H1238.77V57.6426H1231.77ZM1231.77 83.6436C1231.77 92.0487 1232.8 98.7828 1235.41 103.163L1241.42 99.5736C1239.84 96.9223 1238.77 91.84 1238.77 83.6436H1231.77ZM1235.41 103.163C1238.16 107.769 1242.47 110.142 1247.87 110.142V103.142C1244.86 103.142 1242.87 101.999 1241.42 99.5736L1235.41 103.163Z" fill="black"/>
</g>
</g>
</g>
<defs>
<filter id="filter0_d_1_2" x="12.4482" y="12.3213" width="1275.83" height="126.717" filterUnits="userSpaceOnUse" color-interpolation-filters="sRGB">
<feFlood flood-opacity="0" result="BackgroundImageFix"/>
<feColorMatrix in="SourceAlpha" type="matrix" values="0 0 0 0 0 0 0 0 0 0 0 0 0 0 0 0 0 0 127 0" result="hardAlpha"/>
<feOffset dx="-15" dy="10"/>
<feComposite in2="hardAlpha" operator="out"/>
<feColorMatrix type="matrix" values="0 0 0 0 0 0 0 0 0 0 0 0 0 0 0 0 0 0 1 0"/>
<feBlend mode="normal" in2="BackgroundImageFix" result="effect1_dropShadow_1_2"/>
<feBlend mode="normal" in="SourceGraphic" in2="effect1_dropShadow_1_2" result="shape"/>
</filter>
<clipPath id="clip0_1_2">
<rect width="1300" height="150" fill="white"/>
</clipPath>
</defs>
</svg>
