<?xml version="1.0" encoding="UTF-8" standalone="no"?>
<svg
   xmlns:dc="http://purl.org/dc/elements/1.1/"
   xmlns:cc="http://creativecommons.org/ns#"
   xmlns:rdf="http://www.w3.org/1999/02/22-rdf-syntax-ns#"
   xmlns:svg="http://www.w3.org/2000/svg"
   xmlns="http://www.w3.org/2000/svg"
   xmlns:sodipodi="http://sodipodi.sourceforge.net/DTD/sodipodi-0.dtd"
   xmlns:inkscape="http://www.inkscape.org/namespaces/inkscape"
   version="1.0"
   width="1300.000000pt"
   height="150.000000pt"
   viewBox="0 0 1300.000000 150.000000"
   preserveAspectRatio="xMidYMid meet"
   id="svg94"
   sodipodi:docname="reattempt_temp_main_title_white.svg"
   inkscape:version="0.92.4 (unknown)">
  <metadata
     id="metadata100">
    <rdf:RDF>
      <cc:Work
         rdf:about="">
        <dc:format>image/svg+xml</dc:format>
        <dc:type
           rdf:resource="http://purl.org/dc/dcmitype/StillImage" />
        <dc:title></dc:title>
      </cc:Work>
    </rdf:RDF>
  </metadata>
  <defs
     id="defs98" />
  <sodipodi:namedview
     pagecolor="#ffffff"
     bordercolor="#000000"
     borderopacity="0.25"
     objecttolerance="10"
     gridtolerance="10"
     guidetolerance="10"
     inkscape:pageopacity="0"
     inkscape:pageshadow="2"
     inkscape:window-width="1916"
     inkscape:window-height="1041"
     id="namedview96"
     showgrid="false"
     inkscape:zoom="0.99576923"
     inkscape:cx="866.66667"
     inkscape:cy="100"
     inkscape:window-x="1920"
     inkscape:window-y="18"
     inkscape:window-maximized="0"
     inkscape:current-layer="svg94" />
  <g
     transform="translate(0.000000,150.000000) scale(0.100000,-0.100000)"
     fill="#000000"
     stroke="none"
     id="g92">
    <path
       d="M9777 1399 c-56 -13 -137 -54 -182 -91 -22 -18 -57 -42 -78 -52 -89 -46 -161 -134 -191 -237 -18 -60 -21 -135 -6 -173 l10 -26 180 0 180 0 0 50 0 50 51 0 52 0 -7 -32 c-10 -53 -65 -121 -271 -338 l-194 -205 -1 -127 0 -128 445 0 445 0 0 50 0 50 45 0 c36 0 54 -7 89 -34 48 -37 141 -71 219 -80 109 -13 254 27 327 91 19 17 54 40 77 52 23 11 58 35 77 51 l35 31 29 -44 c70 -100 167 -159 293 -177 130 -19 263 16 354 93 22 18 51 38 65 43 14 6 46 27 72 47 l46 36 25 -37 c110 -166 322 -229 536 -157 25 8 69 33 96 54 28 22 69 49 92 61 65 33 127 93 160 157 57 107 65 150 70 368 7 298 -21 424 -117 529 -85 92 -188 136 -319 136 -119 0 -204 -29 -286 -95 -22 -18 -56 -40 -75 -50 -19 -10 -53 -32 -76 -50 l-40 -33 -19 35 c-30 55 -127 139 -192 164 -49 20 -76 23 -173 23 -133 0 -196 -18 -278 -84 -27 -20 -64 -46 -83 -55 -19 -10 -51 -31 -73 -48 -31 -25 -40 -28 -46 -16 -45 80 -146 161 -237 189 -142 44 -297 19 -416 -67 -36 -27 -85 -60 -109 -75 -24 -15 -51 -33 -61 -40 -15 -11 -20 -10 -29 7 -24 41 -99 112 -146 138 -27 14 -75 33 -107 42 -64 16 -197 18 -258 4z m266 -79 c75 -23 154 -88 190 -154 18 -34 22 -57 22 -141 0 -86 -3 -106 -24 -145 -31 -60 -106 -152 -227 -280 -54 -58 -108 -115 -118 -128 l-19 -22 111 0 111 0 7 45 6 45 94 0 94 0 0 -140 0 -140 -375 0 -375 0 0 76 0 76 58 63 c31 34 123 133 203 218 178 191 213 249 207 340 -4 53 -8 64 -38 90 -29 26 -38 29 -82 25 -63 -7 -94 -36 -110 -106 l-13 -52 -117 0 -118 0 0 40 c0 125 105 252 243 295 65 21 194 18 270 -5z m878 -12 c103 -47 165 -128 194 -250 17 -75 21 -424 5 -508 -32 -168 -136 -275 -294 -300 -190 -30 -347 59 -411 235 -27 74 -34 463 -10 569 29 134 107 225 228 268 77 28 213 21 288 -14z m857 3 c78 -35 155 -123 183 -209 19 -57 23 -96 27 -269 5 -232 -5 -309 -49 -400 -59 -123 -167 -186 -319 -186 -105 0 -184 28 -247 86 -107 98 -126 177 -121 492 3 210 6 235 26 286 44 111 107 172 215 211 73 26 212 21 285 -11z m854 2 c69 -31 141 -103 171 -171 36 -80 47 -162 47 -357 0 -241 -26 -346 -105 -433 -125 -139 -394 -142 -530 -7 -43 43 -70 96 -90 172 -20 77 -21 474 -1 548 50 187 174 278 371 272 65 -2 103 -9 137 -24z m-2462 -673 c0 -27 -3 -30 -32 -30 l-32 0 29 30 c16 17 30 30 32 30 2 0 3 -13 3 -30z"
       id="path80" />
    <path
       d="M10690 1122 c-46 -46 -52 -89 -48 -355 3 -233 4 -243 26 -279 46 -73 148 -71 189 4 16 29 18 64 21 282 4 274 -3 315 -55 356 -39 31 -98 27 -133 -8z"
       id="path82" />
    <path
       d="M11551 1124 c-48 -40 -55 -83 -56 -339 0 -225 1 -231 25 -280 21 -41 32 -53 66 -64 37 -13 44 -12 80 5 64 31 73 73 74 344 0 133 -5 241 -11 264 -25 91 -113 125 -178 70z"
       id="path84" />
    <path
       d="M12411 1125 c-50 -43 -56 -76 -56 -335 0 -221 1 -238 22 -283 52 -112 183 -92 212 33 6 25 11 140 11 256 0 235 -10 297 -57 333 -37 30 -94 28 -132 -4z"
       id="path86" />
    <path
       d="M240 1350 l0 -50 -75 0 -75 0 0 -139 0 -139 38 -6 c79 -15 72 18 72 -325 l0 -308 -52 -9 -53 -9 -3 -138 -3 -137 786 0 785 0 0 50 0 50 68 0 67 0 33 -50 32 -50 175 0 175 0 0 50 0 50 75 0 75 0 0 330 0 330 90 0 90 0 0 51 c0 43 3 50 18 47 16 -3 17 -25 17 -283 l0 -280 -50 -10 -50 -11 -3 -137 -3 -137 306 0 305 0 0 50 0 50 75 0 75 0 0 135 0 134 -37 10 c-21 6 -46 11 -55 11 -17 0 -18 15 -18 185 l0 185 105 0 105 0 0 44 c0 25 5 48 10 51 7 4 10 -92 10 -279 0 -266 -1 -286 -17 -286 -10 0 -35 -5 -55 -11 l-38 -10 0 -134 0 -135 305 0 305 0 0 51 c0 49 1 50 27 47 22 -2 31 -11 44 -48 l17 -45 671 -3 671 -2 0 50 0 50 75 0 75 0 0 225 0 225 -152 2 c-84 1 -118 4 -75 5 l77 4 0 99 0 100 139 0 139 0 7 50 c5 33 12 50 21 50 12 0 14 -47 14 -284 l0 -284 -37 -6 c-78 -14 -73 -3 -73 -152 l0 -134 305 0 305 0 0 50 0 50 75 0 76 0 -3 137 -3 137 -50 11 -50 10 0 180 0 180 108 3 107 3 0 51 c0 35 3 49 10 42 7 -7 9 -109 8 -285 l-3 -274 -50 -10 -50 -11 -3 -137 -3 -137 1051 0 1050 0 0 50 0 50 68 0 67 0 33 -50 32 -50 175 0 175 0 0 50 0 50 75 0 75 0 0 454 c0 508 -8 457 73 472 l37 6 0 139 0 139 -302 -2 -303 -3 -3 -47 -3 -48 -64 0 -63 0 -32 50 -32 50 -1974 0 -1974 0 0 -50 0 -50 -55 0 c-42 0 -67 7 -108 29 -125 70 -40 65 -1284 69 l-1123 3 0 -51 0 -50 -64 0 -64 0 -32 50 -32 50 -714 0 -714 0 0 -50z m915 -175 l0 -150 -91 -3 -92 -3 -7 61 -7 60 -144 0 -144 0 0 -115 0 -115 170 0 170 0 0 -95 0 -95 -170 0 -170 0 0 -135 0 -135 155 0 155 0 0 60 0 60 95 0 95 0 0 -155 0 -155 -430 0 -430 0 0 75 c0 65 2 75 18 75 9 0 34 5 55 11 l37 10 0 363 0 363 -55 12 -55 12 0 75 0 74 423 -2 422 -3 0 -150z m697 -200 l218 -349 0 266 0 266 -47 7 c-98 14 -93 8 -93 91 l0 74 235 0 235 0 0 -74 c0 -82 3 -78 -72 -92 l-38 -6 0 -449 0 -449 -122 0 -123 1 -220 339 -220 340 -3 -252 c-1 -138 0 -253 2 -256 3 -2 34 -10 68 -16 l63 -11 3 -73 3 -72 -236 0 -235 0 0 75 c0 65 2 75 18 75 9 0 34 5 55 11 l37 10 0 363 0 364 -37 6 c-76 14 -73 10 -73 92 l0 74 182 -2 181 -3 219 -350z m1558 200 l0 -155 -95 0 -95 0 0 55 0 55 -85 0 -85 0 2 -352 3 -352 50 -11 50 -10 3 -73 3 -72 -236 0 -235 0 0 74 0 74 38 6 c79 15 72 -23 72 367 l0 349 -84 0 c-93 0 -96 -2 -96 -77 l0 -33 -95 0 -95 0 0 148 c0 82 3 152 7 155 3 4 224 7 490 7 l483 0 0 -155z m670 144 c131 -20 240 -93 284 -188 16 -35 21 -66 21 -131 0 -73 -4 -93 -28 -142 -16 -33 -49 -76 -78 -102 -27 -24 -49 -48 -49 -54 0 -5 24 -67 54 -138 l54 -129 48 -16 49 -16 3 -72 3 -72 -152 3 -153 3 -53 150 c-29 83 -60 169 -69 193 l-16 42 -89 0 -89 0 0 -110 0 -109 38 -10 c20 -6 45 -11 55 -11 15 0 17 -10 17 -75 l0 -75 -235 0 -235 0 0 74 0 73 53 9 52 9 3 366 2 366 -55 12 -55 12 0 75 0 74 278 0 c152 0 306 -5 342 -11z m1265 -144 l0 -150 -92 -3 -93 -3 0 29 c0 16 -3 44 -6 61 l-6 31 -144 0 -144 0 0 -115 0 -115 173 -2 172 -3 3 -92 3 -93 -176 0 -175 0 0 -135 0 -135 155 0 155 0 0 60 0 60 95 0 95 0 0 -155 0 -155 -430 0 -430 0 0 74 0 73 53 9 52 9 3 366 2 366 -55 12 -55 12 0 75 0 74 423 -2 422 -3 0 -150z m1095 0 l0 -155 -94 0 -95 0 -3 53 -3 52 -87 3 -88 3 0 -350 c0 -390 -7 -352 73 -367 l37 -6 0 -74 0 -74 -235 0 -236 0 3 72 3 73 50 10 50 11 3 352 2 352 -85 0 -85 0 0 -55 0 -55 -95 0 -95 0 0 155 0 155 490 0 490 0 0 -155z m518 78 l3 -71 -56 -12 -55 -11 2 -367 3 -366 50 -11 50 -10 3 -73 3 -72 -236 0 -235 0 0 74 0 74 38 6 c80 15 72 -25 72 381 l0 363 -37 6 c-76 14 -73 10 -73 92 l0 74 233 -2 232 -3 3 -72z m907 -78 l0 -150 -91 -3 -91 -3 -7 61 -7 60 -144 0 -145 0 0 -115 0 -115 170 0 170 0 0 -95 0 -95 -170 0 -170 0 0 -135 0 -135 155 0 155 0 0 60 0 60 95 0 95 0 0 -155 0 -155 -430 0 -430 0 0 74 0 73 53 9 52 9 3 366 2 366 -55 12 -55 12 0 75 0 74 423 -2 422 -3 0 -150z m697 -200 l218 -349 0 266 0 266 -47 7 c-100 14 -94 9 -91 89 l3 71 233 3 232 2 0 -74 c0 -82 3 -78 -72 -92 l-38 -6 0 -449 0 -449 -122 1 -123 0 -220 339 -220 340 -3 -252 c-2 -188 1 -253 10 -259 6 -4 38 -11 70 -14 l58 -7 0 -74 0 -74 -235 0 -235 0 0 75 c0 65 2 75 18 75 9 0 34 5 55 11 l37 10 0 363 0 364 -37 6 c-76 14 -73 10 -73 92 l0 74 182 -2 181 -3 219 -350z m-7402 -180 l0 -155 -112 2 c-86 2 -96 3 -40 5 l72 4 0 149 0 150 40 0 40 0 0 -155z m6710 0 l0 -155 -112 2 c-86 2 -96 3 -40 5 l72 4 0 149 0 150 40 0 40 0 0 -155z m-3480 -162 l-1 -138 -39 94 -40 94 38 42 c20 24 38 44 40 44 1 1 2 -61 2 -136z m-3547 -90 c-40 -2 -73 -8 -73 -13 0 -6 -7 -10 -15 -10 -8 0 -15 7 -15 15 0 12 16 15 88 13 l87 -2 -72 -3z m4190 0 c-40 -2 -73 -8 -73 -13 0 -6 -7 -10 -15 -10 -8 0 -15 7 -15 15 0 12 16 15 88 13 l87 -2 -72 -3z m2520 0 c-40 -2 -73 -8 -73 -13 0 -6 -7 -10 -15 -10 -8 0 -15 7 -15 15 0 12 16 15 88 13 l87 -2 -72 -3z"
       id="path88" />
    <path
       d="M3820 996 l0 -146 115 0 c130 0 165 11 190 60 21 41 19 118 -5 157 -31 52 -71 67 -192 71 l-108 4 0 -146z m90 -61 c10 -12 10 -15 -4 -15 -9 0 -16 7 -16 15 0 8 2 15 4 15 2 0 9 -7 16 -15z"
       id="path90" />
  </g>
  <path
     style="fill:#00ff00;stroke-width:1.00424874"
     d="m 41.375048,158.67323 c 0,-10.2838 0.724058,-12.46599 4.382664,-13.20866 1.732061,-0.3516 4.84816,-1.07262 6.924663,-1.60227 l 3.775461,-0.963 -0.26059,-48.890648 -0.260591,-48.890648 -7.280803,-1.473575 -7.280804,-1.473577 v -9.347303 -9.347303 h 56.23793 56.237932 v 19.439789 19.439788 l -6.17281,0.645187 c -3.39504,0.354852 -8.7641,0.645185 -11.93123,0.645185 h -5.75842 l -0.87294,-7.782927 -0.87295,-7.782928 -19.83391,-0.272292 -19.833911,-0.272292 v 15.587085 15.587086 h 22.595601 22.59559 V 91.263036 103.81615 H 111.17034 88.574739 v 18.07647 18.07648 h 21.089221 21.08923 v -7.53187 -7.53186 h 12.55311 12.55311 v 20.08497 20.08498 H 98.617227 41.375048 Z"
     id="path108"
     inkscape:connector-curvature="0"
     transform="scale(0.74999999)" />
  <path
     style="fill:#00ff00;stroke-width:1.00424874"
     d="m 170.13226,155.86725 c 0.32278,-10.29315 -0.7309,-8.99467 9.57805,-11.80325 l 4.26806,-1.16277 V 93.862724 44.824225 l -5.19495,-0.689135 c -8.71153,-1.155624 -8.86453,-1.357124 -8.86453,-11.674114 v -9.021081 l 23.81709,0.269237 23.81708,0.269238 28.68221,45.887994 c 15.77522,25.238395 29.01466,46.220436 29.42098,46.626756 0.40632,0.40632 0.61999,-15.49679 0.47483,-35.340253 l -0.26395,-36.079023 -7.93404,-1.208701 c -4.36372,-0.664784 -8.28089,-1.570015 -8.7048,-2.011622 -0.85471,-0.890373 -1.19099,-5.138991 -1.03726,-13.104969 l 0.10175,-5.272306 h 30.62958 30.62959 l -0.0154,8.285052 c -0.008,4.556778 -0.41684,8.919143 -0.9075,9.694142 -0.49067,0.775 -3.76011,1.927719 -7.26543,2.561598 l -6.37332,1.152507 -0.25897,59.978345 -0.25898,59.97835 -15.79398,-0.27653 -15.79399,-0.27652 -29.13823,-44.93213 C 227.72016,94.928391 214.26902,74.705332 213.85477,74.700931 c -0.41425,-0.0044 -0.75319,15.303357 -0.75319,34.017239 v 34.02524 l 4.26806,1.049 c 2.34743,0.57696 6.41464,1.35978 9.03824,1.73962 l 4.77018,0.69062 v 9.42633 9.42634 h -30.66727 -30.66727 z"
     id="path110"
     inkscape:connector-curvature="0"
     transform="scale(0.74999999)" />
  <path
     style="fill:#00ff00;stroke-width:1.00424874"
     d="m 358.71765,155.59649 v -9.47883 l 4.77018,-0.69202 c 6.6306,-0.96191 8.04323,-1.9131 9.23976,-6.22155 0.64644,-2.32767 1.04472,-20.2997 1.04819,-47.298962 l 0.006,-43.544852 -11.01126,0.376891 c -6.85397,0.234596 -11.47399,0.839624 -12.23688,1.602518 -0.67409,0.674094 -1.42224,3.943825 -1.66255,7.266068 l -0.43693,6.040442 H 336.50348 324.57319 V 45.149728 c 0,-10.173056 0.27431,-19.211295 0.60957,-20.084974 0.54705,-1.425577 7.19085,-1.588508 64.77405,-1.588508 h 64.16447 V 43.561221 63.646195 H 442.0703 430.01931 V 56.11433 48.582464 h -12.21277 -12.21278 l 0.66207,29.374276 c 0.36413,16.155852 0.66289,37.5705 0.66391,47.5881 l 0.002,18.21383 6.39831,1.20728 6.39831,1.20727 0.62271,5.183 c 0.34248,2.85064 0.62662,7.10361 0.63142,9.45104 l 0.009,4.26806 h -31.13171 -31.13171 z"
     id="path112"
     inkscape:connector-curvature="0"
     transform="scale(0.74999999)" />
  <path
     style="fill:#00ff00;stroke-width:1.00424874"
     d="m 462.15527,155.64383 c 0,-10.60341 -0.70383,-9.75575 9.2987,-11.19897 l 4.77958,-0.68963 -0.26046,-49.293679 -0.26046,-49.293673 -6.77868,-1.445324 -6.77868,-1.445324 v -9.494142 -9.494143 l 41.42526,0.409062 c 41.32106,0.408034 41.44483,0.415575 49.20211,2.997805 9.70352,3.230089 16.38644,7.470813 22.75587,14.439988 6.61211,7.234699 8.27734,12.495252 8.25624,26.081941 -0.0151,9.683508 -0.28773,11.239411 -2.97693,16.986112 -1.89366,4.046659 -5.58944,9.093902 -10.25667,14.007269 l -7.29629,7.681098 3.18655,8.38887 c 1.75259,4.61388 5.10085,12.82059 7.44056,18.23713 l 4.25403,9.84824 6.14946,1.96677 6.14945,1.96677 0.62923,6.0201 c 0.34607,3.31106 0.62922,7.59547 0.62922,9.52091 v 3.5008 l -19.83391,-0.73292 c -10.90865,-0.40312 -19.92781,-0.82059 -20.04257,-0.92772 -0.11476,-0.10713 -4.23873,-11.474 -9.16438,-25.25972 l -8.95572,-25.06494 -12.17591,-0.28197 -12.17591,-0.28198 v 15.05594 15.05593 l 4.26806,1.09705 c 10.07062,2.58853 9.25547,1.57868 9.57805,11.86577 l 0.28875,9.20807 h -30.66728 -30.66727 z m 83.08459,-71.18464 c 4.8073,-2.615176 6.742,-6.99985 6.74642,-15.289626 0.009,-16.392307 -8.02529,-21.513006 -33.84414,-21.571455 l -8.78718,-0.01989 v 19.669255 19.669254 l 16.31905,-0.345635 c 13.20895,-0.279762 16.93782,-0.682249 19.56585,-2.1119 z"
     id="path114"
     inkscape:connector-curvature="0"
     transform="scale(0.74999999)" />
  <path
     style="fill:#00ff00;stroke-width:1.00424874"
     d="m 600.7416,155.64383 c 0,-10.60341 -0.70384,-9.75575 9.2987,-11.19897 l 4.77957,-0.68963 -0.26045,-49.293679 -0.26046,-49.293673 -6.77868,-1.445324 -6.77868,-1.445324 v -9.400492 -9.400492 h 55.7358 55.73581 v 19.439789 19.439788 l -6.17281,0.645187 c -3.39504,0.354852 -8.81798,0.645185 -12.05098,0.645185 h -5.87818 v -4.895712 c 0,-2.692642 -0.28245,-6.307938 -0.62766,-8.03399 l -0.62765,-3.138277 h -19.45732 -19.45732 v 15.425972 15.425973 l 5.27231,0.633278 c 2.89976,0.348303 13.01508,0.637206 22.47847,0.642007 20.14414,0.01022 18.40902,-1.337819 18.43095,14.319274 l 0.0137,9.79143 H 671.039 647.94128 v 18.07647 18.07648 h 21.08922 21.08923 v -7.53187 -7.53186 h 12.05098 12.05099 v 20.08497 20.08498 H 657.48165 600.7416 Z"
     id="path116"
     inkscape:connector-curvature="0"
     transform="scale(0.74999999)" />
  <path
     style="fill:#00ff00;stroke-width:1.00424874"
     d="m 761.78702,160.41604 c 0.35125,-2.56262 0.63863,-6.8046 0.63863,-9.42666 v -4.76737 l 6.37273,-1.20244 6.37274,-1.20245 0.65393,-17.2388 c 0.35967,-9.48135 0.65532,-30.923484 0.65701,-47.649201 l 0.003,-30.410395 -11.79992,0.282933 -11.79993,0.282932 -0.29505,7.280803 -0.29506,7.280803 H 740.28818 728.28119 V 43.561221 23.476246 h 64.77404 64.77405 v 20.084975 20.084974 h -12.05099 -12.05098 l -0.0154,-5.77443 c -0.008,-3.175936 -0.34739,-6.282007 -0.75318,-6.902377 -0.42749,-0.653535 -5.73151,-1.436293 -12.61067,-1.861061 l -11.87286,-0.733114 0.324,45.545882 c 0.24135,33.928215 0.64206,46.101425 1.57095,47.723815 0.68583,1.19786 2.60646,2.44062 4.26806,2.76168 1.6616,0.32106 4.37683,0.84561 6.03384,1.16568 l 3.01275,0.58191 v 9.46057 9.46057 h -31.26821 -31.26821 l 0.63862,-4.65928 z"
     id="path118"
     inkscape:connector-curvature="0"
     transform="scale(0.74999999)" />
  <path
     style="fill:#00ff00;stroke-width:1.00424874"
     d="m 865.86327,155.61475 v -9.46057 l 3.01274,-0.58191 c 1.65701,-0.32007 4.39559,-0.84974 6.08572,-1.17707 2.06319,-0.39958 3.4394,-1.47207 4.18808,-3.26381 0.75889,-1.81613 1.14067,-17.56964 1.19509,-49.312663 l 0.08,-46.643999 -6.3733,-1.155099 c -3.50532,-0.635304 -6.77476,-1.789189 -7.26543,-2.564189 -0.49066,-0.774999 -0.89904,-5.137364 -0.90749,-9.694142 l -0.0154,-8.285052 h 30.62958 30.62959 v 9.44916 9.44916 l -7.03911,1.257959 -7.03911,1.257959 0.26043,49.296744 0.26043,49.296742 6.71468,1.46438 6.71467,1.46437 0.31507,9.33355 0.31507,9.33355 -30.88065,-0.002 -30.88065,-0.002 z"
     id="path120"
     inkscape:connector-curvature="0"
     transform="scale(0.74999999)" />
  <path
     style="fill:#00ff00;stroke-width:1.00424874"
     d="m 936.16068,155.62569 v -9.44963 l 6.91539,-1.16642 6.91539,-1.16644 0.68814,-32.31557 c 0.37848,-17.77357 0.54291,-39.988364 0.36541,-49.366212 l -0.32272,-17.050635 -7.28081,-1.399217 -7.2808,-1.399219 v -9.418051 -9.41805 h 56.23793 56.23789 v 19.439789 19.439788 l -6.1728,0.645187 c -3.395,0.354852 -8.7641,0.645185 -11.9312,0.645185 h -5.7584 l -0.873,-7.782927 -0.8729,-7.782928 -19.8339,-0.272292 -19.83393,-0.272292 v 15.587085 15.587086 h 22.59563 22.5956 v 12.553109 12.553114 h -22.5956 -22.59563 v 18.07647 18.07648 h 21.08923 21.0892 v -7.53187 -7.53186 h 12.5531 12.5531 v 20.08497 20.08498 h -57.24214 -57.24218 z"
     id="path122"
     inkscape:connector-curvature="0"
     transform="scale(0.74999999)" />
  <path
     style="fill:#00ff00;stroke-width:1.00424874"
     d="m 1064.7045,155.66049 v -9.41484 l 3.2091,-0.64181 c 1.765,-0.353 4.9284,-1.10478 7.0298,-1.67062 l 3.8206,-1.02879 V 93.864328 44.824225 l -5.195,-0.689135 c -8.7115,-1.155624 -8.8645,-1.357124 -8.8645,-11.674114 v -9.021081 l 23.7578,0.269237 23.7577,0.269238 27.71,44.290516 c 15.2405,24.359784 28.4806,45.373684 29.4224,46.697564 1.6252,2.28437 1.7019,0.56663 1.5064,-33.703466 l -0.206,-36.110519 -7.7067,-1.191322 c -4.2386,-0.655228 -8.1928,-1.491839 -8.7871,-1.859139 -0.6409,-0.39608 -1.0806,-4.321389 -1.0806,-9.646787 v -8.978971 h 30.6296 30.6296 l -0.015,8.285052 c -0.01,4.556778 -0.4168,8.919143 -0.9075,9.694142 -0.4906,0.775 -3.7601,1.927719 -7.2654,2.561598 l -6.3733,1.152507 -0.259,59.952885 -0.259,59.95289 -15.809,-0.0341 -15.809,-0.0341 -29.1232,-45.13484 c -16.0178,-24.824162 -29.4621,-45.144861 -29.8764,-45.157109 -1.1527,-0.03408 -0.9223,65.070029 0.238,67.237929 0.601,1.12313 2.5772,2.08523 5.0212,2.44461 2.2166,0.32593 5.8378,0.85828 8.0471,1.183 l 4.017,0.5904 v 9.45209 9.45209 h -30.6296 -30.6296 z"
     id="path124"
     inkscape:connector-curvature="0"
     transform="scale(0.74999999)" />
  <path
     style="fill:#00ff00;stroke-width:1.00424874"
     d="m 1272.584,155.11095 v -9.96438 l 23.191,-24.93327 c 33.7151,-36.248023 39.0724,-43.964203 39.0724,-56.276131 0,-10.702608 -5.4352,-17.363202 -14.1688,-17.363202 -9.4408,0 -14.5592,3.95231 -16.9188,13.06444 -0.6423,2.480453 -1.3974,5.300759 -1.6779,6.267348 -0.4566,1.573401 -2.0942,1.757435 -15.6381,1.757435 h -15.1282 l 0.4708,-7.335768 c 1.1847,-18.459587 18.5246,-35.200928 39.1709,-37.818617 8.6746,-1.09984 22.0497,0.05288 28.9785,2.497495 9.6528,3.405722 21.4716,13.604414 24.7273,21.33786 1.8546,4.405123 2.8755,18.727404 1.8946,26.578338 -1.2502,10.005977 -8.407,19.932816 -35.5167,49.263492 -8.1247,8.79026 -14.9228,16.38748 -15.1069,16.8827 -0.1881,0.50593 6.2699,0.90041 14.7404,0.90041 h 15.0751 l 0.6901,-5.52337 0.6901,-5.52337 h 12.4374 12.4374 v 18.07648 18.07648 h -49.7103 -49.7103 z"
     id="path126"
     inkscape:connector-curvature="0"
     transform="scale(0.74999999)" />
  <path
     style="fill:#00ff00;stroke-width:1.00424874"
     d="m 1423.7337,165.9036 c -17.4194,-3.32179 -32.2247,-18.37861 -35.8698,-36.47911 -1.7872,-8.87483 -1.7315,-63.526944 0.072,-70.799538 4.9615,-20.005119 19.5933,-33.735585 38.4815,-36.110927 21.9531,-2.76078 41.5884,6.335104 50.1078,23.212036 5.8963,11.680496 6.38,15.378438 6.416,49.051846 0.036,33.752373 -0.33,36.402933 -6.6802,48.373103 -9.4127,17.7428 -30.6223,26.92983 -52.5275,22.75259 z m 19.0349,-25.83882 c 6.1647,-3.4644 6.8296,-6.11649 7.8032,-31.12303 0.9264,-23.794819 0.3686,-43.869137 -1.4186,-51.058142 -0.71,-2.856016 -2.3423,-5.416421 -4.9618,-7.782928 -3.4873,-3.150545 -4.5051,-3.526713 -9.5423,-3.526713 -5.1863,0 -5.9436,0.30499 -9.4409,3.80234 -6.1836,6.183532 -6.5175,8.552217 -6.4165,45.508287 0.087,31.629936 0.1648,32.896026 2.3089,37.325076 4.2714,8.82349 13.161,11.6359 21.668,6.85511 z"
     id="path128"
     inkscape:connector-curvature="0"
     transform="scale(0.74999999)" />
  <path
     style="fill:#00ff00;stroke-width:1.00424874"
     d="m 1542.2248,165.9379 c -8.9926,-0.82465 -16.2901,-3.64456 -23.1727,-8.95443 -15.9085,-12.27328 -19.2322,-25.18805 -18.2061,-70.741678 0.6417,-28.487304 1.6214,-33.552285 8.5693,-44.302016 5.286,-8.178481 12.1157,-13.418562 22.5536,-17.304169 10.4844,-3.902924 31.0432,-2.722906 40.8855,2.346721 4.9326,2.540708 15.0433,13.155457 18.311,19.223962 5.5664,10.337219 6.1978,15.144057 6.2476,47.567368 0.048,31.495122 -0.3666,35.234962 -5.1095,46.048102 -8.6032,19.61399 -25.4093,28.37839 -50.0787,26.11614 z m 13.5956,-25.21561 c 3.0234,-1.5246 5.0658,-3.45609 6.2793,-5.93818 2.9213,-5.97545 3.9742,-20.4445 3.4959,-48.040193 -0.3988,-23.002287 -0.6513,-26.068236 -2.4817,-30.127463 -3.388,-7.513693 -6.3646,-9.540363 -14.0123,-9.540363 -6.3292,0 -6.6296,0.118807 -10.3287,4.084355 -5.391,5.779427 -6.0885,11.083793 -6.0885,46.301005 v 29.131619 l 3.0957,6.19492 c 3.0369,6.07744 4.7534,7.67964 9.9009,9.2416 4.116,1.24895 5.398,1.08366 10.1394,-1.3073 z"
     id="path130"
     inkscape:connector-curvature="0"
     transform="scale(0.74999999)" />
  <path
     style="fill:#00ff00;stroke-width:1.00424874"
     d="m 1654.5412,166.03059 c -14.9098,-2.62581 -26.8396,-10.9297 -32.9086,-22.90645 -5.4502,-10.7554 -5.9965,-15.16719 -6.0491,-48.848358 l -0.048,-31.131711 2.8097,-8.536114 c 4.8205,-14.644777 13.3351,-24.328044 25.8113,-29.354104 4.8032,-1.934964 7.422,-2.228645 20.085,-2.252407 14.0903,-0.02644 14.7567,0.06795 20.5871,2.916279 8.1903,4.001159 17.3995,13.355732 21.3876,21.725204 4.7624,9.994493 6.2293,20.753024 6.2293,45.687485 0,31.108036 -2.071,42.851166 -9.542,54.106696 -7.325,11.03561 -20.2917,17.94351 -35.6492,18.99178 -4.1426,0.28276 -9.8632,0.10352 -12.7126,-0.3983 z m 12.7697,-24.05224 c 4.3219,-1.20065 8.2753,-5.13349 10.6003,-10.54536 1.4416,-3.35557 1.8012,-8.41121 2.184,-30.70387 0.6469,-37.670084 -0.9667,-47.600625 -8.4898,-52.250161 -5.3392,-3.299833 -13.2991,-2.3561 -17.9223,2.1249 -5.8177,5.63871 -6.0122,7.067883 -6.0122,44.174048 0,32.524183 0.072,33.775843 2.1618,37.659323 2.6934,5.0046 6.2467,8.37933 10.009,9.5058 3.8688,1.15835 3.434,1.15629 7.4692,0.0353 z"
     id="path132"
     inkscape:connector-curvature="0"
     transform="scale(0.74999999)" />
</svg>
