<?xml version="1.0" standalone="no"?>
<!DOCTYPE svg PUBLIC "-//W3C//DTD SVG 20010904//EN"
 "http://www.w3.org/TR/2001/REC-SVG-20010904/DTD/svg10.dtd">
<svg version="1.0" xmlns="http://www.w3.org/2000/svg"
 width="1300.000000pt" height="150.000000pt" viewBox="0 0 1300.000000 150.000000"
 preserveAspectRatio="xMidYMid meet">

<g transform="translate(0.000000,150.000000) scale(0.100000,-0.100000)"
fill="#000000" stroke="none">
<path d="M9777 1399 c-56 -13 -137 -54 -182 -91 -22 -18 -57 -42 -78 -52 -89
-46 -161 -134 -191 -237 -18 -60 -21 -135 -6 -173 l10 -26 180 0 180 0 0 50 0
50 51 0 52 0 -7 -32 c-10 -53 -65 -121 -271 -338 l-194 -205 -1 -127 0 -128
445 0 445 0 0 50 0 50 45 0 c36 0 54 -7 89 -34 48 -37 141 -71 219 -80 109
-13 254 27 327 91 19 17 54 40 77 52 23 11 58 35 77 51 l35 31 29 -44 c70
-100 167 -159 293 -177 130 -19 263 16 354 93 22 18 51 38 65 43 14 6 46 27
72 47 l46 36 25 -37 c110 -166 322 -229 536 -157 25 8 69 33 96 54 28 22 69
49 92 61 65 33 127 93 160 157 57 107 65 150 70 368 7 298 -21 424 -117 529
-85 92 -188 136 -319 136 -119 0 -204 -29 -286 -95 -22 -18 -56 -40 -75 -50
-19 -10 -53 -32 -76 -50 l-40 -33 -19 35 c-30 55 -127 139 -192 164 -49 20
-76 23 -173 23 -133 0 -196 -18 -278 -84 -27 -20 -64 -46 -83 -55 -19 -10 -51
-31 -73 -48 -31 -25 -40 -28 -46 -16 -45 80 -146 161 -237 189 -142 44 -297
19 -416 -67 -36 -27 -85 -60 -109 -75 -24 -15 -51 -33 -61 -40 -15 -11 -20
-10 -29 7 -24 41 -99 112 -146 138 -27 14 -75 33 -107 42 -64 16 -197 18 -258
4z m286 -84 c26 -10 72 -39 102 -67 74 -67 99 -132 93 -243 -6 -124 -36 -169
-264 -412 -68 -72 -124 -134 -124 -137 0 -3 49 -6 109 -6 104 0 109 1 115 23
3 12 6 32 6 45 0 21 3 22 95 22 l95 0 0 -140 0 -140 -375 0 -375 0 0 76 0 76
58 63 c31 34 123 133 203 218 170 182 209 244 209 332 0 52 -3 60 -34 91 -73
73 -185 29 -201 -79 l-7 -47 -121 0 -120 0 6 54 c14 136 108 244 246 283 61
17 221 10 284 -12z m858 -7 c105 -48 174 -144 198 -272 14 -75 14 -415 1 -487
-24 -130 -108 -238 -216 -279 -76 -28 -212 -28 -288 0 -109 41 -180 131 -212
267 -22 93 -15 483 9 557 36 110 113 190 220 228 77 28 213 21 288 -14z m854
3 c101 -45 174 -142 201 -270 16 -79 19 -384 4 -481 -22 -138 -104 -247 -216
-290 -76 -28 -212 -28 -288 0 -109 41 -190 145 -216 276 -8 41 -11 136 -8 285
4 202 6 230 26 280 44 111 107 172 215 211 73 26 212 21 282 -11z m857 2 c69
-31 141 -103 172 -172 37 -84 49 -195 43 -406 -5 -202 -19 -266 -76 -349 -71
-102 -160 -140 -314 -134 -123 5 -179 29 -250 108 -81 90 -91 129 -95 395 -4
249 3 317 44 397 46 91 105 140 209 175 61 20 208 12 267 -14z m-2462 -673 c0
-27 -3 -30 -32 -30 l-32 0 29 30 c16 17 30 30 32 30 2 0 3 -13 3 -30z"/>
<path d="M10692 1125 c-48 -40 -54 -83 -50 -355 3 -236 4 -246 26 -282 31 -50
82 -67 134 -45 47 20 66 57 80 159 13 101 5 406 -13 461 -27 83 -116 114 -177
62z"/>
<path d="M11551 1124 c-49 -41 -56 -83 -56 -339 0 -225 1 -231 25 -280 21 -41
32 -53 66 -64 37 -13 44 -12 80 5 65 32 73 67 73 339 1 137 -4 246 -10 269
-25 91 -113 125 -178 70z"/>
<path d="M12408 1127 c-47 -44 -53 -82 -53 -337 1 -259 7 -296 58 -334 66 -49
154 -10 176 79 6 25 11 136 11 258 0 238 -10 300 -57 336 -37 30 -102 28 -135
-2z"/>
<path d="M240 1350 l0 -50 -75 0 -75 0 0 -139 0 -139 38 -6 c79 -15 72 18 72
-325 l0 -308 -52 -9 -53 -9 -3 -138 -3 -137 786 0 785 0 0 50 0 50 68 0 67 0
33 -50 32 -50 175 0 175 0 0 50 0 50 75 0 75 0 0 330 0 330 90 0 90 0 0 51 c0
43 3 50 18 47 16 -3 17 -25 17 -283 l0 -280 -50 -10 -50 -11 -3 -137 -3 -137
306 0 305 0 0 50 0 50 75 0 75 0 0 135 0 134 -37 10 c-21 6 -46 11 -55 11 -17
0 -18 15 -18 185 l0 185 105 0 105 0 0 44 c0 25 5 48 10 51 7 4 10 -92 10
-279 0 -266 -1 -286 -17 -286 -10 0 -35 -5 -55 -11 l-38 -10 0 -134 0 -135
305 0 305 0 0 51 c0 49 1 50 27 47 22 -2 31 -11 44 -48 l17 -45 671 -3 671 -2
0 50 0 50 75 0 75 0 0 225 0 225 -152 2 c-84 1 -118 4 -75 5 l77 4 0 99 0 100
139 0 139 0 7 50 c5 33 12 50 21 50 12 0 14 -47 14 -284 l0 -284 -37 -6 c-78
-14 -73 -3 -73 -152 l0 -134 305 0 305 0 0 50 0 50 75 0 76 0 -3 137 -3 137
-50 11 -50 10 0 180 0 180 108 3 107 3 0 51 c0 35 3 49 10 42 7 -7 9 -109 8
-285 l-3 -274 -50 -10 -50 -11 -3 -137 -3 -137 1051 0 1050 0 0 50 0 50 68 0
67 0 33 -50 32 -50 175 0 175 0 0 50 0 50 75 0 75 0 0 454 c0 508 -8 457 73
472 l37 6 0 139 0 139 -302 -2 -303 -3 -3 -47 -3 -48 -64 0 -63 0 -32 50 -32
50 -1974 0 -1974 0 0 -50 0 -50 -55 0 c-42 0 -67 7 -108 29 -125 70 -40 65
-1284 69 l-1123 3 0 -51 0 -50 -64 0 -64 0 -32 50 -32 50 -714 0 -714 0 0 -50z
m915 -175 l0 -150 -92 -3 -93 -3 0 29 c0 16 -3 44 -6 61 l-6 31 -144 0 -144 0
0 -115 0 -115 170 0 170 0 0 -95 0 -95 -170 0 -170 0 0 -135 0 -135 155 0 155
0 0 60 0 60 95 0 95 0 0 -155 0 -155 -430 0 -430 0 0 75 c0 65 2 75 18 75 9 0
34 5 55 11 l37 10 0 363 0 363 -55 12 -55 12 0 75 0 74 423 -2 422 -3 0 -150z
m656 -137 c101 -161 200 -320 221 -352 l38 -59 0 266 0 265 -70 12 -70 12 0
74 0 74 235 0 235 0 0 -74 c0 -82 3 -78 -72 -92 l-38 -6 0 -449 0 -449 -122 0
-123 1 -220 340 -220 340 -3 -252 c-1 -139 0 -254 2 -257 3 -2 34 -10 68 -16
l63 -11 3 -73 3 -72 -236 0 -235 0 0 75 c0 65 2 75 18 75 9 0 34 5 55 11 l37
10 0 363 0 363 -55 12 -55 12 0 75 0 74 179 0 180 0 182 -292z m1599 137 l0
-156 -92 3 -93 3 -5 55 -5 55 -83 3 -82 3 2 -358 3 -357 50 -11 50 -10 3 -73
3 -72 -236 0 -235 0 0 74 0 75 43 6 c24 4 49 10 55 14 9 5 12 97 10 357 l-3
349 -81 3 c-91 3 -94 1 -94 -80 l0 -38 -95 0 -95 0 0 148 c0 82 3 152 7 155 3
4 224 7 490 7 l483 0 0 -155z m665 145 c134 -20 244 -92 289 -189 16 -35 21
-66 21 -131 0 -106 -24 -160 -105 -240 l-56 -56 56 -134 56 -135 50 -16 49
-16 3 -72 3 -72 -152 3 -152 3 -67 190 -68 190 -91 3 -91 3 0 -110 0 -110 38
-10 c20 -6 45 -11 55 -11 15 0 17 -10 17 -75 l0 -75 -235 0 -235 0 0 74 0 73
53 9 52 9 3 367 2 367 -55 11 -55 11 0 75 0 74 273 0 c149 0 304 -5 342 -10z
m1270 -145 l0 -150 -92 -3 -93 -3 0 38 c0 86 6 83 -156 83 l-144 0 0 -115 0
-115 170 0 170 0 0 -95 0 -95 -170 0 -170 0 0 -135 0 -135 155 0 155 0 0 60 0
60 95 0 95 0 0 -155 0 -155 -430 0 -430 0 0 74 0 73 53 9 52 9 3 367 2 367
-55 11 -55 11 0 75 0 74 423 -2 422 -3 0 -150z m1095 0 l0 -155 -95 0 -94 0
-3 58 -3 57 -85 0 -85 0 -3 -349 c-2 -260 1 -352 10 -357 6 -4 31 -10 55 -14
l43 -6 0 -75 0 -74 -235 0 -236 0 3 72 3 73 50 10 50 11 3 357 2 358 -82 -3
-83 -3 -3 -57 -3 -58 -94 0 -95 0 0 155 0 155 490 0 490 0 0 -155z m518 79 l3
-72 -58 -13 -58 -14 -3 -362 -2 -363 27 -6 c97 -22 88 -12 91 -92 l3 -72 -236
0 -235 0 0 74 0 74 38 6 c80 15 72 -25 72 381 l0 363 -37 6 c-76 14 -73 10
-73 92 l0 74 233 -2 232 -3 3 -71z m907 -79 l0 -150 -92 -3 -93 -3 0 29 c0 16
-3 44 -6 61 l-6 31 -144 0 -144 0 0 -115 0 -115 170 0 170 0 0 -95 0 -95 -170
0 -170 0 0 -135 0 -135 155 0 155 0 0 60 0 60 95 0 95 0 0 -155 0 -155 -430 0
-430 0 0 74 0 73 53 9 52 9 3 367 2 367 -55 11 -55 11 0 75 0 74 423 -2 422
-3 0 -150z m696 -199 l219 -349 0 265 0 266 -70 12 -71 12 3 71 3 72 233 3
232 2 0 -74 c0 -82 3 -78 -72 -92 l-38 -6 0 -449 0 -450 -122 3 -123 3 -220
338 -220 338 -3 -252 c-2 -189 1 -254 10 -260 6 -4 38 -11 70 -14 l58 -7 0
-74 0 -74 -235 0 -235 0 0 75 c0 65 2 75 18 75 9 0 34 5 55 11 l37 10 0 363 0
363 -55 12 -55 12 0 75 0 74 181 -2 181 -3 219 -349z m-7401 -181 l0 -155
-112 2 c-86 2 -96 3 -40 5 l72 4 0 149 0 150 40 0 40 0 0 -155z m6710 0 l0
-155 -112 2 c-86 2 -96 3 -40 5 l72 4 0 149 0 150 40 0 40 0 0 -155z m-3480
-162 l-1 -138 -39 94 -40 94 38 42 c20 24 38 44 40 44 1 1 2 -61 2 -136z
m-3547 -90 c-40 -2 -73 -8 -73 -13 0 -6 -7 -10 -15 -10 -8 0 -15 7 -15 15 0
12 16 15 88 13 l87 -2 -72 -3z m4190 0 c-40 -2 -73 -8 -73 -13 0 -6 -7 -10
-15 -10 -8 0 -15 7 -15 15 0 12 16 15 88 13 l87 -2 -72 -3z m2520 0 c-40 -2
-73 -8 -73 -13 0 -6 -7 -10 -15 -10 -8 0 -15 7 -15 15 0 12 16 15 88 13 l87
-2 -72 -3z"/>
<path d="M3820 989 l0 -152 113 5 c170 7 214 40 205 160 -8 103 -66 138 -232
138 l-86 0 0 -151z m90 -54 c10 -12 10 -15 -4 -15 -9 0 -16 7 -16 15 0 8 2 15
4 15 2 0 9 -7 16 -15z"/>
</g>
</svg>
