<?xml version="1.0" standalone="no"?>
<!DOCTYPE svg PUBLIC "-//W3C//DTD SVG 20010904//EN"
 "http://www.w3.org/TR/2001/REC-SVG-20010904/DTD/svg10.dtd">
<svg version="1.0" xmlns="http://www.w3.org/2000/svg"
 width="1300.000000pt" height="150.000000pt" viewBox="0 0 1300.000000 150.000000"
 preserveAspectRatio="xMidYMid meet">

<g transform="translate(0.000000,150.000000) scale(0.100000,-0.100000)"
fill="#000000" stroke="none">
<path d="M9777 1399 c-56 -13 -137 -54 -182 -91 -22 -18 -57 -42 -78 -52 -89
-46 -161 -134 -191 -237 -18 -60 -21 -135 -6 -173 l10 -26 180 0 180 0 0 50 0
50 51 0 52 0 -7 -32 c-10 -53 -65 -121 -271 -338 l-194 -205 -1 -127 0 -128
445 0 445 0 0 50 0 50 45 0 c36 0 54 -7 89 -34 48 -37 141 -71 219 -80 109
-13 254 27 327 91 19 17 54 40 77 52 23 11 58 35 77 51 l35 31 29 -44 c70
-100 167 -159 293 -177 130 -19 263 16 354 93 22 18 51 38 65 43 14 6 46 27
72 47 l46 36 25 -37 c110 -166 322 -229 536 -157 25 8 69 33 96 54 28 22 69
49 92 61 65 33 127 93 160 157 57 107 65 150 70 368 7 298 -21 424 -117 529
-85 92 -188 136 -319 136 -119 0 -204 -29 -286 -95 -22 -18 -56 -40 -75 -50
-19 -10 -53 -32 -76 -50 l-40 -33 -19 35 c-30 55 -127 139 -192 164 -49 20
-76 23 -173 23 -133 0 -196 -18 -278 -84 -27 -20 -64 -46 -83 -55 -19 -10 -51
-31 -73 -48 -31 -25 -40 -28 -46 -16 -45 80 -146 161 -237 189 -142 44 -297
19 -416 -67 -36 -27 -85 -60 -109 -75 -24 -15 -51 -33 -61 -40 -15 -11 -20
-10 -29 7 -24 41 -99 112 -146 138 -27 14 -75 33 -107 42 -64 16 -197 18 -258
4z m393 -759 c0 -27 -3 -30 -32 -30 l-32 0 29 30 c16 17 30 30 32 30 2 0 3
-13 3 -30z"/>
<path d="M240 1350 l0 -50 -75 0 -75 0 0 -139 0 -139 38 -6 c79 -15 72 18 72
-325 l0 -308 -52 -9 -53 -9 -3 -138 -3 -137 786 0 785 0 0 50 0 50 68 0 67 0
33 -50 32 -50 175 0 175 0 0 50 0 50 75 0 75 0 0 330 0 330 90 0 90 0 0 51 c0
43 3 50 18 47 16 -3 17 -25 17 -283 l0 -280 -50 -10 -50 -11 -3 -137 -3 -137
306 0 305 0 0 50 0 50 75 0 75 0 0 135 0 134 -37 10 c-21 6 -46 11 -55 11 -17
0 -18 15 -18 185 l0 185 105 0 105 0 0 44 c0 25 5 48 10 51 7 4 10 -92 10
-279 0 -266 -1 -286 -17 -286 -10 0 -35 -5 -55 -11 l-38 -10 0 -134 0 -135
305 0 305 0 0 51 c0 49 1 50 27 47 22 -2 31 -11 44 -48 l17 -45 671 -3 671 -2
0 50 0 50 75 0 75 0 0 225 0 225 -152 2 c-84 1 -118 4 -75 5 l77 4 0 99 0 100
139 0 139 0 7 50 c5 33 12 50 21 50 12 0 14 -47 14 -284 l0 -284 -37 -6 c-78
-14 -73 -3 -73 -152 l0 -134 305 0 305 0 0 50 0 50 75 0 76 0 -3 137 -3 137
-50 11 -50 10 0 180 0 180 108 3 107 3 0 51 c0 35 3 49 10 42 7 -7 9 -109 8
-285 l-3 -274 -50 -10 -50 -11 -3 -137 -3 -137 1051 0 1050 0 0 50 0 50 68 0
67 0 33 -50 32 -50 175 0 175 0 0 50 0 50 75 0 75 0 0 454 c0 508 -8 457 73
472 l37 6 0 139 0 139 -302 -2 -303 -3 -3 -47 -3 -48 -64 0 -63 0 -32 50 -32
50 -1974 0 -1974 0 0 -50 0 -50 -55 0 c-42 0 -67 7 -108 29 -125 70 -40 65
-1284 69 l-1123 3 0 -51 0 -50 -64 0 -64 0 -32 50 -32 50 -714 0 -714 0 0 -50z
m920 -555 l0 -155 -112 2 c-86 2 -96 3 -40 5 l72 4 0 149 0 150 40 0 40 0 0
-155z m2750 140 c10 -12 10 -15 -4 -15 -9 0 -16 7 -16 15 0 8 2 15 4 15 2 0 9
-7 16 -15z m3960 -140 l0 -155 -112 2 c-86 2 -96 3 -40 5 l72 4 0 149 0 150
40 0 40 0 0 -155z m-3480 -162 l-1 -138 -39 94 -40 94 38 42 c20 24 38 44 40
44 1 1 2 -61 2 -136z m-3547 -90 c-40 -2 -73 -8 -73 -13 0 -6 -7 -10 -15 -10
-8 0 -15 7 -15 15 0 12 16 15 88 13 l87 -2 -72 -3z m4190 0 c-40 -2 -73 -8
-73 -13 0 -6 -7 -10 -15 -10 -8 0 -15 7 -15 15 0 12 16 15 88 13 l87 -2 -72
-3z m2520 0 c-40 -2 -73 -8 -73 -13 0 -6 -7 -10 -15 -10 -8 0 -15 7 -15 15 0
12 16 15 88 13 l87 -2 -72 -3z"/>
</g>
</svg>
