<?xml version="1.0" standalone="no"?>
<!DOCTYPE svg PUBLIC "-//W3C//DTD SVG 20010904//EN"
 "http://www.w3.org/TR/2001/REC-SVG-20010904/DTD/svg10.dtd">
<svg version="1.0" xmlns="http://www.w3.org/2000/svg"
 width="1300.000000pt" height="150.000000pt" viewBox="0 0 1300.000000 150.000000"
 preserveAspectRatio="xMidYMid meet">

<g transform="translate(0.000000,150.000000) scale(0.100000,-0.100000)"
fill="#000000" stroke="none">
<path d="M9777 1399 c-56 -13 -137 -54 -182 -91 -22 -18 -57 -42 -78 -52 -89
-46 -161 -134 -191 -237 -18 -60 -21 -135 -6 -173 l10 -26 180 0 180 0 0 50 0
50 51 0 52 0 -7 -32 c-10 -53 -65 -121 -271 -338 l-194 -205 -1 -127 0 -128
445 0 445 0 0 50 0 50 45 0 c36 0 54 -7 89 -34 48 -37 141 -71 219 -80 109
-13 254 27 327 91 19 17 54 40 77 52 23 11 58 35 77 51 l35 31 29 -44 c70
-100 167 -159 293 -177 130 -19 263 16 354 93 22 18 51 38 65 43 14 6 46 27
72 47 l46 36 25 -37 c110 -166 322 -229 536 -157 25 8 69 33 96 54 28 22 69
49 92 61 65 33 127 93 160 157 57 107 65 150 70 368 7 298 -21 424 -117 529
-85 92 -188 136 -319 136 -119 0 -204 -29 -286 -95 -22 -18 -56 -40 -75 -50
-19 -10 -53 -32 -76 -50 l-40 -33 -19 35 c-30 55 -127 139 -192 164 -49 20
-76 23 -173 23 -133 0 -196 -18 -278 -84 -27 -20 -64 -46 -83 -55 -19 -10 -51
-31 -73 -48 -31 -25 -40 -28 -46 -16 -45 80 -146 161 -237 189 -142 44 -297
19 -416 -67 -36 -27 -85 -60 -109 -75 -24 -15 -51 -33 -61 -40 -15 -11 -20
-10 -29 7 -24 41 -99 112 -146 138 -27 14 -75 33 -107 42 -64 16 -197 18 -258
4z m266 -79 c75 -23 154 -88 190 -154 18 -34 22 -57 22 -141 0 -86 -3 -106
-24 -145 -31 -60 -106 -152 -227 -280 -54 -58 -108 -115 -118 -128 l-19 -22
111 0 111 0 7 45 6 45 94 0 94 0 0 -140 0 -140 -375 0 -375 0 0 76 0 76 58 63
c31 34 123 133 203 218 178 191 213 249 207 340 -4 53 -8 64 -38 90 -29 26
-38 29 -82 25 -63 -7 -94 -36 -110 -106 l-13 -52 -117 0 -118 0 0 40 c0 125
105 252 243 295 65 21 194 18 270 -5z m878 -12 c103 -47 165 -128 194 -250 17
-75 21 -424 5 -508 -32 -168 -136 -275 -294 -300 -190 -30 -347 59 -411 235
-27 74 -34 463 -10 569 29 134 107 225 228 268 77 28 213 21 288 -14z m857 3
c78 -35 155 -123 183 -209 19 -57 23 -96 27 -269 5 -232 -5 -309 -49 -400 -59
-123 -167 -186 -319 -186 -105 0 -184 28 -247 86 -107 98 -126 177 -121 492 3
210 6 235 26 286 44 111 107 172 215 211 73 26 212 21 285 -11z m854 2 c69
-31 141 -103 171 -171 36 -80 47 -162 47 -357 0 -241 -26 -346 -105 -433 -125
-139 -394 -142 -530 -7 -43 43 -70 96 -90 172 -20 77 -21 474 -1 548 50 187
174 278 371 272 65 -2 103 -9 137 -24z m-2462 -673 c0 -27 -3 -30 -32 -30
l-32 0 29 30 c16 17 30 30 32 30 2 0 3 -13 3 -30z"/>
<path d="M10690 1122 c-46 -46 -52 -89 -48 -355 3 -233 4 -243 26 -279 46 -73
148 -71 189 4 16 29 18 64 21 282 4 274 -3 315 -55 356 -39 31 -98 27 -133 -8z"/>
<path d="M11551 1124 c-48 -40 -55 -83 -56 -339 0 -225 1 -231 25 -280 21 -41
32 -53 66 -64 37 -13 44 -12 80 5 64 31 73 73 74 344 0 133 -5 241 -11 264
-25 91 -113 125 -178 70z"/>
<path d="M12411 1125 c-50 -43 -56 -76 -56 -335 0 -221 1 -238 22 -283 52
-112 183 -92 212 33 6 25 11 140 11 256 0 235 -10 297 -57 333 -37 30 -94 28
-132 -4z"/>
<path d="M240 1350 l0 -50 -75 0 -75 0 0 -139 0 -139 38 -6 c79 -15 72 18 72
-325 l0 -308 -52 -9 -53 -9 -3 -138 -3 -137 786 0 785 0 0 50 0 50 68 0 67 0
33 -50 32 -50 175 0 175 0 0 50 0 50 75 0 75 0 0 330 0 330 90 0 90 0 0 51 c0
43 3 50 18 47 16 -3 17 -25 17 -283 l0 -280 -50 -10 -50 -11 -3 -137 -3 -137
306 0 305 0 0 50 0 50 75 0 75 0 0 135 0 134 -37 10 c-21 6 -46 11 -55 11 -17
0 -18 15 -18 185 l0 185 105 0 105 0 0 44 c0 25 5 48 10 51 7 4 10 -92 10
-279 0 -266 -1 -286 -17 -286 -10 0 -35 -5 -55 -11 l-38 -10 0 -134 0 -135
305 0 305 0 0 51 c0 49 1 50 27 47 22 -2 31 -11 44 -48 l17 -45 671 -3 671 -2
0 50 0 50 75 0 75 0 0 225 0 225 -152 2 c-84 1 -118 4 -75 5 l77 4 0 99 0 100
139 0 139 0 7 50 c5 33 12 50 21 50 12 0 14 -47 14 -284 l0 -284 -37 -6 c-78
-14 -73 -3 -73 -152 l0 -134 305 0 305 0 0 50 0 50 75 0 76 0 -3 137 -3 137
-50 11 -50 10 0 180 0 180 108 3 107 3 0 51 c0 35 3 49 10 42 7 -7 9 -109 8
-285 l-3 -274 -50 -10 -50 -11 -3 -137 -3 -137 1051 0 1050 0 0 50 0 50 68 0
67 0 33 -50 32 -50 175 0 175 0 0 50 0 50 75 0 75 0 0 454 c0 508 -8 457 73
472 l37 6 0 139 0 139 -302 -2 -303 -3 -3 -47 -3 -48 -64 0 -63 0 -32 50 -32
50 -1974 0 -1974 0 0 -50 0 -50 -55 0 c-42 0 -67 7 -108 29 -125 70 -40 65
-1284 69 l-1123 3 0 -51 0 -50 -64 0 -64 0 -32 50 -32 50 -714 0 -714 0 0 -50z
m915 -175 l0 -150 -91 -3 -92 -3 -7 61 -7 60 -144 0 -144 0 0 -115 0 -115 170
0 170 0 0 -95 0 -95 -170 0 -170 0 0 -135 0 -135 155 0 155 0 0 60 0 60 95 0
95 0 0 -155 0 -155 -430 0 -430 0 0 75 c0 65 2 75 18 75 9 0 34 5 55 11 l37
10 0 363 0 363 -55 12 -55 12 0 75 0 74 423 -2 422 -3 0 -150z m697 -200 l218
-349 0 266 0 266 -47 7 c-98 14 -93 8 -93 91 l0 74 235 0 235 0 0 -74 c0 -82
3 -78 -72 -92 l-38 -6 0 -449 0 -449 -122 0 -123 1 -220 339 -220 340 -3 -252
c-1 -138 0 -253 2 -256 3 -2 34 -10 68 -16 l63 -11 3 -73 3 -72 -236 0 -235 0
0 75 c0 65 2 75 18 75 9 0 34 5 55 11 l37 10 0 363 0 364 -37 6 c-76 14 -73
10 -73 92 l0 74 182 -2 181 -3 219 -350z m1558 200 l0 -155 -95 0 -95 0 0 55
0 55 -85 0 -85 0 2 -352 3 -352 50 -11 50 -10 3 -73 3 -72 -236 0 -235 0 0 74
0 74 38 6 c79 15 72 -23 72 367 l0 349 -84 0 c-93 0 -96 -2 -96 -77 l0 -33
-95 0 -95 0 0 148 c0 82 3 152 7 155 3 4 224 7 490 7 l483 0 0 -155z m670 144
c131 -20 240 -93 284 -188 16 -35 21 -66 21 -131 0 -73 -4 -93 -28 -142 -16
-33 -49 -76 -78 -102 -27 -24 -49 -48 -49 -54 0 -5 24 -67 54 -138 l54 -129
48 -16 49 -16 3 -72 3 -72 -152 3 -153 3 -53 150 c-29 83 -60 169 -69 193
l-16 42 -89 0 -89 0 0 -110 0 -109 38 -10 c20 -6 45 -11 55 -11 15 0 17 -10
17 -75 l0 -75 -235 0 -235 0 0 74 0 73 53 9 52 9 3 366 2 366 -55 12 -55 12 0
75 0 74 278 0 c152 0 306 -5 342 -11z m1265 -144 l0 -150 -92 -3 -93 -3 0 29
c0 16 -3 44 -6 61 l-6 31 -144 0 -144 0 0 -115 0 -115 173 -2 172 -3 3 -92 3
-93 -176 0 -175 0 0 -135 0 -135 155 0 155 0 0 60 0 60 95 0 95 0 0 -155 0
-155 -430 0 -430 0 0 74 0 73 53 9 52 9 3 366 2 366 -55 12 -55 12 0 75 0 74
423 -2 422 -3 0 -150z m1095 0 l0 -155 -94 0 -95 0 -3 53 -3 52 -87 3 -88 3 0
-350 c0 -390 -7 -352 73 -367 l37 -6 0 -74 0 -74 -235 0 -236 0 3 72 3 73 50
10 50 11 3 352 2 352 -85 0 -85 0 0 -55 0 -55 -95 0 -95 0 0 155 0 155 490 0
490 0 0 -155z m518 78 l3 -71 -56 -12 -55 -11 2 -367 3 -366 50 -11 50 -10 3
-73 3 -72 -236 0 -235 0 0 74 0 74 38 6 c80 15 72 -25 72 381 l0 363 -37 6
c-76 14 -73 10 -73 92 l0 74 233 -2 232 -3 3 -72z m907 -78 l0 -150 -91 -3
-91 -3 -7 61 -7 60 -144 0 -145 0 0 -115 0 -115 170 0 170 0 0 -95 0 -95 -170
0 -170 0 0 -135 0 -135 155 0 155 0 0 60 0 60 95 0 95 0 0 -155 0 -155 -430 0
-430 0 0 74 0 73 53 9 52 9 3 366 2 366 -55 12 -55 12 0 75 0 74 423 -2 422
-3 0 -150z m697 -200 l218 -349 0 266 0 266 -47 7 c-100 14 -94 9 -91 89 l3
71 233 3 232 2 0 -74 c0 -82 3 -78 -72 -92 l-38 -6 0 -449 0 -449 -122 1 -123
0 -220 339 -220 340 -3 -252 c-2 -188 1 -253 10 -259 6 -4 38 -11 70 -14 l58
-7 0 -74 0 -74 -235 0 -235 0 0 75 c0 65 2 75 18 75 9 0 34 5 55 11 l37 10 0
363 0 364 -37 6 c-76 14 -73 10 -73 92 l0 74 182 -2 181 -3 219 -350z m-7402
-180 l0 -155 -112 2 c-86 2 -96 3 -40 5 l72 4 0 149 0 150 40 0 40 0 0 -155z
m6710 0 l0 -155 -112 2 c-86 2 -96 3 -40 5 l72 4 0 149 0 150 40 0 40 0 0
-155z m-3480 -162 l-1 -138 -39 94 -40 94 38 42 c20 24 38 44 40 44 1 1 2 -61
2 -136z m-3547 -90 c-40 -2 -73 -8 -73 -13 0 -6 -7 -10 -15 -10 -8 0 -15 7
-15 15 0 12 16 15 88 13 l87 -2 -72 -3z m4190 0 c-40 -2 -73 -8 -73 -13 0 -6
-7 -10 -15 -10 -8 0 -15 7 -15 15 0 12 16 15 88 13 l87 -2 -72 -3z m2520 0
c-40 -2 -73 -8 -73 -13 0 -6 -7 -10 -15 -10 -8 0 -15 7 -15 15 0 12 16 15 88
13 l87 -2 -72 -3z"/>
<path d="M3820 996 l0 -146 115 0 c130 0 165 11 190 60 21 41 19 118 -5 157
-31 52 -71 67 -192 71 l-108 4 0 -146z m90 -61 c10 -12 10 -15 -4 -15 -9 0
-16 7 -16 15 0 8 2 15 4 15 2 0 9 -7 16 -15z"/>
</g>
</svg>
