<svg width="1300" height="150" viewBox="0 0 1300 150" fill="none" xmlns="http://www.w3.org/2000/svg">
<g clip-path="url(#clip0_227_60)">
<g filter="url(#filter0_d_227_60)">
<path d="M30.9482 124V109.498L42.0811 107.154V34.2783L30.9482 31.9346V17.3594H115.616V47.6816H96.8662L96.207 36.4023H66.9102V59.4004H101.407V78.3701H66.9102V104.884H97.6719L98.3311 93.165H116.935V124H30.9482ZM126.896 124V109.498L137.955 107.154V34.2783L126.896 31.9346V17.3594H137.955H163.15L206.656 86.8662H207.096V34.2783L193.18 31.9346V17.3594H229.142H240.274V31.9346L229.142 34.2783V124H204.752L160.367 55.8115H159.928V107.154L173.917 109.498V124H126.896ZM268.619 124V109.498L279.752 107.154V36.5488H262.687L261.881 48.3408H243.204V17.3594H341.422V48.3408H322.525L321.793 36.5488H304.581V107.154L315.787 109.498V124H268.619ZM346.036 124V109.498L357.169 107.154V34.2783L346.036 31.9346V17.2861H398.111C406.51 17.2861 413.761 18.6289 419.864 21.3145C426.017 23.9512 430.753 27.7354 434.073 32.667C437.394 37.5498 439.054 43.3604 439.054 50.0986C439.054 56.3486 437.369 62.1104 434 67.3838C430.68 72.6572 426.09 76.8809 420.23 80.0547C414.42 83.2285 407.779 84.791 400.309 84.7422L381.998 84.5957V107.154L393.131 109.498V124H346.036ZM413.858 124L398.697 81.4463L420.377 74.415L433.927 107.081L443.814 109.498V124H413.858ZM381.998 65.5527H398.258C403.482 65.5527 407.462 64.3809 410.196 62.0371C412.979 59.6445 414.371 56.1777 414.371 51.6367C414.371 46.998 412.979 43.2871 410.196 40.5039C407.413 37.7207 403.385 36.3291 398.111 36.3291H381.998V65.5527ZM450.04 124V109.498L461.173 107.154V34.2783L450.04 31.9346V17.3594H534.708V47.6816H515.958L515.299 36.4023H486.002V59.4004H520.499V78.3701H486.002V104.884H516.764L517.423 93.165H536.026V124H450.04ZM571.256 124V109.498L582.389 107.154V36.5488H565.323L564.518 48.3408H545.841V17.3594H644.059V48.3408H625.162L624.43 36.5488H607.218V107.154L618.424 109.498V124H571.256ZM648.673 124V109.498L659.806 107.154V34.2783L648.673 31.9346V17.3594H695.694V31.9346L684.562 34.2783V107.154L695.694 109.498V124H648.673ZM701.993 124V109.498L713.126 107.154V34.2783L701.993 31.9346V17.3594H786.661V47.6816H767.911L767.252 36.4023H737.955V59.4004H772.452V78.3701H737.955V104.884H768.717L769.376 93.165H787.979V124H701.993ZM797.94 124V109.498L809 107.154V34.2783L797.94 31.9346V17.3594H809H834.195L877.701 86.8662H878.141V34.2783L864.225 31.9346V17.3594H900.187H911.319V31.9346L900.187 34.2783V124H875.797L831.412 55.8115H830.973V107.154L844.962 109.498V124H797.94ZM954.312 124V108.033L988.663 71.6318C991.837 68.0674 994.352 64.918 996.207 62.1836C998.062 59.4004 999.381 56.8857 1000.16 54.6396C1000.99 52.3447 1001.41 50.123 1001.41 47.9746C1001.41 44.3613 1000.43 41.2852 998.478 38.7461C996.524 36.207 993.595 34.9375 989.688 34.9375C985.44 34.9375 982.267 36.4023 980.167 39.332C978.116 42.2617 977.091 46.2412 977.091 51.2705H952.921L952.774 50.8311C952.628 44.2881 954.044 38.3799 957.022 33.1064C960.001 27.7842 964.298 23.585 969.913 20.5088C975.528 17.3838 982.145 15.8213 989.762 15.8213C997.379 15.8213 1003.9 17.1641 1009.32 19.8496C1014.79 22.4863 1018.99 26.1973 1021.92 30.9824C1024.84 35.7188 1026.31 41.2852 1026.31 47.6816C1026.31 52.0273 1025.55 56.0557 1024.04 59.7666C1022.53 63.4775 1020.08 67.4326 1016.71 71.6318C1013.39 75.8311 1008.95 80.8359 1003.38 86.6465L986.319 104.811L986.466 105.177H1009.02L1010.12 96.0215H1028.8V124H954.312ZM1076.19 125.538C1064.71 125.538 1055.63 121.876 1048.94 114.552C1042.25 107.228 1038.91 96.4121 1038.91 82.1055V59.3271C1038.91 45.0693 1042.25 34.2539 1048.94 26.8809C1055.63 19.5078 1064.66 15.8213 1076.04 15.8213C1087.37 15.8213 1096.38 19.5078 1103.07 26.8809C1109.76 34.2539 1113.1 45.0693 1113.1 59.3271V82.1055C1113.1 96.4121 1109.78 107.228 1103.14 114.552C1096.5 121.876 1087.52 125.538 1076.19 125.538ZM1076.19 106.642C1080.19 106.642 1083.24 104.884 1085.34 101.368C1087.44 97.8037 1088.49 91.8955 1088.49 83.6436V57.6426C1088.49 49.5371 1087.42 43.7021 1085.27 40.1377C1083.12 36.5732 1080.04 34.791 1076.04 34.791C1071.94 34.791 1068.84 36.5732 1066.74 40.1377C1064.64 43.6533 1063.59 49.4883 1063.59 57.6426V83.6436C1063.59 91.9443 1064.64 97.8525 1066.74 101.368C1068.84 104.884 1071.99 106.642 1076.19 106.642ZM1162.03 125.538C1150.55 125.538 1141.47 121.876 1134.78 114.552C1128.09 107.228 1124.75 96.4121 1124.75 82.1055V59.3271C1124.75 45.0693 1128.09 34.2539 1134.78 26.8809C1141.47 19.5078 1150.5 15.8213 1161.88 15.8213C1173.21 15.8213 1182.22 19.5078 1188.91 26.8809C1195.6 34.2539 1198.94 45.0693 1198.94 59.3271V82.1055C1198.94 96.4121 1195.62 107.228 1188.98 114.552C1182.34 121.876 1173.36 125.538 1162.03 125.538ZM1162.03 106.642C1166.03 106.642 1169.08 104.884 1171.18 101.368C1173.28 97.8037 1174.33 91.8955 1174.33 83.6436V57.6426C1174.33 49.5371 1173.26 43.7021 1171.11 40.1377C1168.96 36.5732 1165.88 34.791 1161.88 34.791C1157.78 34.791 1154.68 36.5732 1152.58 40.1377C1150.48 43.6533 1149.43 49.4883 1149.43 57.6426V83.6436C1149.43 91.9443 1150.48 97.8525 1152.58 101.368C1154.68 104.884 1157.83 106.642 1162.03 106.642ZM1247.87 125.538C1236.39 125.538 1227.31 121.876 1220.62 114.552C1213.93 107.228 1210.59 96.4121 1210.59 82.1055V59.3271C1210.59 45.0693 1213.93 34.2539 1220.62 26.8809C1227.31 19.5078 1236.34 15.8213 1247.72 15.8213C1259.05 15.8213 1268.06 19.5078 1274.75 26.8809C1281.44 34.2539 1284.78 45.0693 1284.78 59.3271V82.1055C1284.78 96.4121 1281.46 107.228 1274.82 114.552C1268.18 121.876 1259.2 125.538 1247.87 125.538ZM1247.87 106.642C1251.87 106.642 1254.92 104.884 1257.02 101.368C1259.12 97.8037 1260.17 91.8955 1260.17 83.6436V57.6426C1260.17 49.5371 1259.1 43.7021 1256.95 40.1377C1254.8 36.5732 1251.72 34.791 1247.72 34.791C1243.62 34.791 1240.52 36.5732 1238.42 40.1377C1236.32 43.6533 1235.27 49.4883 1235.27 57.6426V83.6436C1235.27 91.9443 1236.32 97.8525 1238.42 101.368C1240.52 104.884 1243.67 106.642 1247.87 106.642Z" fill="white"/>
<path d="M30.9482 124H23.9482V131H30.9482V124ZM30.9482 109.498L29.5062 102.648L23.9482 103.818V109.498H30.9482ZM42.0811 107.154L43.5231 114.004L49.0811 112.834V107.154H42.0811ZM42.0811 34.2783H49.0811V28.5986L43.5231 27.4285L42.0811 34.2783ZM30.9482 31.9346H23.9482V37.6143L29.5062 38.7844L30.9482 31.9346ZM30.9482 17.3594V10.3594H23.9482V17.3594H30.9482ZM115.616 17.3594H122.616V10.3594H115.616V17.3594ZM115.616 47.6816V54.6816H122.616V47.6816H115.616ZM96.8662 47.6816L89.8781 48.09L90.2634 54.6816H96.8662V47.6816ZM96.207 36.4023L103.195 35.9939L102.81 29.4023H96.207V36.4023ZM66.9102 36.4023V29.4023H59.9102V36.4023H66.9102ZM66.9102 59.4004H59.9102V66.4004H66.9102V59.4004ZM101.407 59.4004H108.407V52.4004H101.407V59.4004ZM101.407 78.3701V85.3701H108.407V78.3701H101.407ZM66.9102 78.3701V71.3701H59.9102V78.3701H66.9102ZM66.9102 104.884H59.9102V111.884H66.9102V104.884ZM97.6719 104.884V111.884H104.289L104.661 105.277L97.6719 104.884ZM98.3311 93.165V86.165H91.7137L91.3421 92.7719L98.3311 93.165ZM116.935 93.165H123.935V86.165H116.935V93.165ZM116.935 124V131H123.935V124H116.935ZM37.9482 124V109.498H23.9482V124H37.9482ZM32.3903 116.348L43.5231 114.004L40.639 100.304L29.5062 102.648L32.3903 116.348ZM49.0811 107.154V34.2783H35.0811V107.154H49.0811ZM43.5231 27.4285L32.3903 25.0847L29.5062 38.7844L40.639 41.1282L43.5231 27.4285ZM37.9482 31.9346V17.3594H23.9482V31.9346H37.9482ZM30.9482 24.3594H115.616V10.3594H30.9482V24.3594ZM108.616 17.3594V47.6816H122.616V17.3594H108.616ZM115.616 40.6816H96.8662V54.6816H115.616V40.6816ZM103.854 47.2732L103.195 35.9939L89.219 36.8107L89.8781 48.09L103.854 47.2732ZM96.207 29.4023H66.9102V43.4023H96.207V29.4023ZM59.9102 36.4023V59.4004H73.9102V36.4023H59.9102ZM66.9102 66.4004H101.407V52.4004H66.9102V66.4004ZM94.4072 59.4004V78.3701H108.407V59.4004H94.4072ZM101.407 71.3701H66.9102V85.3701H101.407V71.3701ZM59.9102 78.3701V104.884H73.9102V78.3701H59.9102ZM66.9102 111.884H97.6719V97.8838H66.9102V111.884ZM104.661 105.277L105.32 93.5582L91.3421 92.7719L90.6829 104.491L104.661 105.277ZM98.3311 100.165H116.935V86.165H98.3311V100.165ZM109.935 93.165V124H123.935V93.165H109.935ZM116.935 117H30.9482V131H116.935V117ZM126.896 124H119.896V131H126.896V124ZM126.896 109.498L125.444 102.65L119.896 103.826V109.498H126.896ZM137.955 107.154L139.406 114.002L144.955 112.826V107.154H137.955ZM137.955 34.2783H144.955V28.6063L139.406 27.4304L137.955 34.2783ZM126.896 31.9346H119.896V37.6066L125.444 38.7825L126.896 31.9346ZM126.896 17.3594V10.3594H119.896V17.3594H126.896ZM163.15 17.3594L169.084 13.6454L167.027 10.3594H163.15V17.3594ZM206.656 86.8662L200.723 90.5801L202.78 93.8662H206.656V86.8662ZM207.096 86.8662V93.8662H214.096V86.8662H207.096ZM207.096 34.2783H214.096V28.3587L208.258 27.3755L207.096 34.2783ZM193.18 31.9346H186.18V37.8542L192.017 38.8374L193.18 31.9346ZM193.18 17.3594V10.3594H186.18V17.3594H193.18ZM240.274 17.3594H247.274V10.3594H240.274V17.3594ZM240.274 31.9346L241.716 38.7844L247.274 37.6143V31.9346H240.274ZM229.142 34.2783L227.7 27.4285L222.142 28.5986V34.2783H229.142ZM229.142 124V131H236.142V124H229.142ZM204.752 124L198.885 127.819L200.956 131H204.752V124ZM160.367 55.8115L166.234 51.9928L164.163 48.8115H160.367V55.8115ZM159.928 55.8115V48.8115H152.928V55.8115H159.928ZM159.928 107.154H152.928V113.079L158.771 114.058L159.928 107.154ZM173.917 109.498H180.917V103.573L175.074 102.594L173.917 109.498ZM173.917 124V131H180.917V124H173.917ZM133.896 124V109.498H119.896V124H133.896ZM128.347 116.346L139.406 114.002L136.504 100.306L125.444 102.65L128.347 116.346ZM144.955 107.154V34.2783H130.955V107.154H144.955ZM139.406 27.4304L128.347 25.0867L125.444 38.7825L136.504 41.1262L139.406 27.4304ZM133.896 31.9346V17.3594H119.896V31.9346H133.896ZM126.896 24.3594H137.955V10.3594H126.896V24.3594ZM137.955 24.3594H163.15V10.3594H137.955V24.3594ZM157.217 21.0733L200.723 90.5801L212.59 83.1523L169.084 13.6454L157.217 21.0733ZM206.656 93.8662H207.096V79.8662H206.656V93.8662ZM214.096 86.8662V34.2783H200.096V86.8662H214.096ZM208.258 27.3755L194.342 25.0318L192.017 38.8374L205.933 41.1811L208.258 27.3755ZM200.18 31.9346V17.3594H186.18V31.9346H200.18ZM193.18 24.3594H229.142V10.3594H193.18V24.3594ZM229.142 24.3594H240.274V10.3594H229.142V24.3594ZM233.274 17.3594V31.9346H247.274V17.3594H233.274ZM238.832 25.0847L227.7 27.4285L230.584 41.1282L241.716 38.7844L238.832 25.0847ZM222.142 34.2783V124H236.142V34.2783H222.142ZM229.142 117H204.752V131H229.142V117ZM210.619 120.181L166.234 51.9928L154.501 59.6302L198.885 127.819L210.619 120.181ZM160.367 48.8115H159.928V62.8115H160.367V48.8115ZM152.928 55.8115V107.154H166.928V55.8115H152.928ZM158.771 114.058L172.76 116.402L175.074 102.594L161.084 100.251L158.771 114.058ZM166.917 109.498V124H180.917V109.498H166.917ZM173.917 117H126.896V131H173.917V117ZM268.619 124H261.619V131H268.619V124ZM268.619 109.498L267.177 102.648L261.619 103.818V109.498H268.619ZM279.752 107.154L281.194 114.004L286.752 112.834V107.154H279.752ZM279.752 36.5488H286.752V29.5488H279.752V36.5488ZM262.687 36.5488V29.5488H256.148L255.703 36.0717L262.687 36.5488ZM261.881 48.3408V55.3408H268.419L268.865 48.818L261.881 48.3408ZM243.204 48.3408H236.204V55.3408H243.204V48.3408ZM243.204 17.3594V10.3594H236.204V17.3594H243.204ZM341.422 17.3594H348.422V10.3594H341.422V17.3594ZM341.422 48.3408V55.3408H348.422V48.3408H341.422ZM322.525 48.3408L315.539 48.7748L315.947 55.3408H322.525V48.3408ZM321.793 36.5488L328.78 36.1149L328.372 29.5488H321.793V36.5488ZM304.581 36.5488V29.5488H297.581V36.5488H304.581ZM304.581 107.154H297.581V112.842L303.148 114.006L304.581 107.154ZM315.787 109.498H322.787V103.811L317.22 102.646L315.787 109.498ZM315.787 124V131H322.787V124H315.787ZM275.619 124V109.498H261.619V124H275.619ZM270.061 116.348L281.194 114.004L278.31 100.304L267.177 102.648L270.061 116.348ZM286.752 107.154V36.5488H272.752V107.154H286.752ZM279.752 29.5488H262.687V43.5488H279.752V29.5488ZM255.703 36.0717L254.897 47.8637L268.865 48.818L269.67 37.026L255.703 36.0717ZM261.881 41.3408H243.204V55.3408H261.881V41.3408ZM250.204 48.3408V17.3594H236.204V48.3408H250.204ZM243.204 24.3594H341.422V10.3594H243.204V24.3594ZM334.422 17.3594V48.3408H348.422V17.3594H334.422ZM341.422 41.3408H322.525V55.3408H341.422V41.3408ZM329.512 47.9069L328.78 36.1149L314.806 36.9828L315.539 48.7748L329.512 47.9069ZM321.793 29.5488H304.581V43.5488H321.793V29.5488ZM297.581 36.5488V107.154H311.581V36.5488H297.581ZM303.148 114.006L314.354 116.35L317.22 102.646L306.014 100.303L303.148 114.006ZM308.787 109.498V124H322.787V109.498H308.787ZM315.787 117H268.619V131H315.787V117ZM346.036 124H339.036V131H346.036V124ZM346.036 109.498L344.594 102.648L339.036 103.818V109.498H346.036ZM357.169 107.154L358.611 114.004L364.169 112.834V107.154H357.169ZM357.169 34.2783H364.169V28.5986L358.611 27.4285L357.169 34.2783ZM346.036 31.9346H339.036V37.6143L344.594 38.7844L346.036 31.9346ZM346.036 17.2861V10.2861H339.036V17.2861H346.036ZM419.864 21.3145L417.045 27.7217L417.076 27.7352L417.107 27.7485L419.864 21.3145ZM434.073 32.667L428.267 36.5764L428.276 36.5898L428.285 36.6032L434.073 32.667ZM434 67.3838L428.101 63.6151L428.089 63.6345L428.076 63.6541L434 67.3838ZM420.23 80.0547L416.896 73.8996L416.886 73.9055L416.875 73.9114L420.23 80.0547ZM400.309 84.7422L400.253 91.742L400.263 91.742L400.309 84.7422ZM381.998 84.5957L382.054 77.5959L374.998 77.5395V84.5957H381.998ZM381.998 107.154H374.998V112.834L380.556 114.004L381.998 107.154ZM393.131 109.498H400.131V103.818L394.573 102.648L393.131 109.498ZM393.131 124V131H400.131V124H393.131ZM413.858 124L407.264 126.349L408.921 131H413.858V124ZM398.697 81.4463L396.538 74.7877L389.686 77.01L392.103 83.7956L398.697 81.4463ZM420.377 74.415L426.843 71.733L424.366 65.7623L418.217 67.7565L420.377 74.415ZM433.927 107.081L427.461 109.763L428.82 113.039L432.265 113.881L433.927 107.081ZM443.814 109.498H450.814V104.003L445.477 102.698L443.814 109.498ZM443.814 124V131H450.814V124H443.814ZM381.998 65.5527H374.998V72.5527H381.998V65.5527ZM410.196 62.0371L414.752 67.3519L414.759 67.3453L410.196 62.0371ZM381.998 36.3291V29.3291H374.998V36.3291H381.998ZM353.036 124V109.498H339.036V124H353.036ZM347.478 116.348L358.611 114.004L355.727 100.304L344.594 102.648L347.478 116.348ZM364.169 107.154V34.2783H350.169V107.154H364.169ZM358.611 27.4285L347.478 25.0847L344.594 38.7844L355.727 41.1282L358.611 27.4285ZM353.036 31.9346V17.2861H339.036V31.9346H353.036ZM346.036 24.2861H398.111V10.2861H346.036V24.2861ZM398.111 24.2861C405.783 24.2861 412.029 25.5144 417.045 27.7217L422.683 14.9072C415.493 11.7434 407.237 10.2861 398.111 10.2861V24.2861ZM417.107 27.7485C422.182 29.9234 425.791 32.8988 428.267 36.5764L439.88 28.7576C435.715 22.5719 429.851 17.9789 422.622 14.8804L417.107 27.7485ZM428.285 36.6032C430.708 40.1667 432.054 44.5596 432.054 50.0986H446.054C446.054 42.1611 444.079 34.9329 439.862 28.7308L428.285 36.6032ZM432.054 50.0986C432.054 55.0113 430.752 59.4656 428.101 63.6151L439.899 71.1525C443.986 64.7551 446.054 57.686 446.054 50.0986H432.054ZM428.076 63.6541C425.441 67.8396 421.774 71.2574 416.896 73.8996L423.564 86.2097C430.405 82.5043 435.918 77.4748 439.924 71.1135L428.076 63.6541ZM416.875 73.9114C412.235 76.4457 406.792 77.7844 400.354 77.7423L400.263 91.742C408.767 91.7976 416.605 90.0113 423.586 86.198L416.875 73.9114ZM400.365 77.7424L382.054 77.5959L381.942 91.5955L400.253 91.742L400.365 77.7424ZM374.998 84.5957V107.154H388.998V84.5957H374.998ZM380.556 114.004L391.689 116.348L394.573 102.648L383.44 100.304L380.556 114.004ZM386.131 109.498V124H400.131V109.498H386.131ZM393.131 117H346.036V131H393.131V117ZM420.452 121.651L405.291 79.097L392.103 83.7956L407.264 126.349L420.452 121.651ZM400.857 88.1048L422.536 81.0736L418.217 67.7565L396.538 74.7877L400.857 88.1048ZM413.911 77.097L427.461 109.763L440.393 104.399L426.843 71.733L413.911 77.097ZM432.265 113.881L442.152 116.298L445.477 102.698L435.589 100.281L432.265 113.881ZM436.814 109.498V124H450.814V109.498H436.814ZM443.814 117H413.858V131H443.814V117ZM381.998 72.5527H398.258V58.5527H381.998V72.5527ZM398.258 72.5527C404.416 72.5527 410.283 71.1823 414.752 67.3519L405.641 56.7223C404.641 57.5794 402.549 58.5527 398.258 58.5527V72.5527ZM414.759 67.3453C419.448 63.3147 421.371 57.6919 421.371 51.6367H407.371C407.371 54.6636 406.511 55.9744 405.633 56.7289L414.759 67.3453ZM421.371 51.6367C421.371 45.4983 419.474 39.8825 415.146 35.5542L405.247 45.4537C406.485 46.6917 407.371 48.4978 407.371 51.6367H421.371ZM415.146 35.5542C410.652 31.0604 404.591 29.3291 398.111 29.3291V43.3291C402.179 43.3291 404.174 44.381 405.247 45.4537L415.146 35.5542ZM398.111 29.3291H381.998V43.3291H398.111V29.3291ZM374.998 36.3291V65.5527H388.998V36.3291H374.998ZM450.04 124H443.04V131H450.04V124ZM450.04 109.498L448.598 102.648L443.04 103.818V109.498H450.04ZM461.173 107.154L462.615 114.004L468.173 112.834V107.154H461.173ZM461.173 34.2783H468.173V28.5986L462.615 27.4285L461.173 34.2783ZM450.04 31.9346H443.04V37.6143L448.598 38.7844L450.04 31.9346ZM450.04 17.3594V10.3594H443.04V17.3594H450.04ZM534.708 17.3594H541.708V10.3594H534.708V17.3594ZM534.708 47.6816V54.6816H541.708V47.6816H534.708ZM515.958 47.6816L508.97 48.09L509.355 54.6816H515.958V47.6816ZM515.299 36.4023L522.287 35.9939L521.902 29.4023H515.299V36.4023ZM486.002 36.4023V29.4023H479.002V36.4023H486.002ZM486.002 59.4004H479.002V66.4004H486.002V59.4004ZM520.499 59.4004H527.499V52.4004H520.499V59.4004ZM520.499 78.3701V85.3701H527.499V78.3701H520.499ZM486.002 78.3701V71.3701H479.002V78.3701H486.002ZM486.002 104.884H479.002V111.884H486.002V104.884ZM516.764 104.884V111.884H523.381L523.753 105.277L516.764 104.884ZM517.423 93.165V86.165H510.806L510.434 92.7719L517.423 93.165ZM536.026 93.165H543.026V86.165H536.026V93.165ZM536.026 124V131H543.026V124H536.026ZM457.04 124V109.498H443.04V124H457.04ZM451.482 116.348L462.615 114.004L459.731 100.304L448.598 102.648L451.482 116.348ZM468.173 107.154V34.2783H454.173V107.154H468.173ZM462.615 27.4285L451.482 25.0847L448.598 38.7844L459.731 41.1282L462.615 27.4285ZM457.04 31.9346V17.3594H443.04V31.9346H457.04ZM450.04 24.3594H534.708V10.3594H450.04V24.3594ZM527.708 17.3594V47.6816H541.708V17.3594H527.708ZM534.708 40.6816H515.958V54.6816H534.708V40.6816ZM522.946 47.2732L522.287 35.9939L508.311 36.8107L508.97 48.09L522.946 47.2732ZM515.299 29.4023H486.002V43.4023H515.299V29.4023ZM479.002 36.4023V59.4004H493.002V36.4023H479.002ZM486.002 66.4004H520.499V52.4004H486.002V66.4004ZM513.499 59.4004V78.3701H527.499V59.4004H513.499ZM520.499 71.3701H486.002V85.3701H520.499V71.3701ZM479.002 78.3701V104.884H493.002V78.3701H479.002ZM486.002 111.884H516.764V97.8838H486.002V111.884ZM523.753 105.277L524.412 93.5582L510.434 92.7719L509.775 104.491L523.753 105.277ZM517.423 100.165H536.026V86.165H517.423V100.165ZM529.026 93.165V124H543.026V93.165H529.026ZM536.026 117H450.04V131H536.026V117ZM571.256 124H564.256V131H571.256V124ZM571.256 109.498L569.814 102.648L564.256 103.818V109.498H571.256ZM582.389 107.154L583.831 114.004L589.389 112.834V107.154H582.389ZM582.389 36.5488H589.389V29.5488H582.389V36.5488ZM565.323 36.5488V29.5488H558.785L558.34 36.0717L565.323 36.5488ZM564.518 48.3408V55.3408H571.056L571.501 48.818L564.518 48.3408ZM545.841 48.3408H538.841V55.3408H545.841V48.3408ZM545.841 17.3594V10.3594H538.841V17.3594H545.841ZM644.059 17.3594H651.059V10.3594H644.059V17.3594ZM644.059 48.3408V55.3408H651.059V48.3408H644.059ZM625.162 48.3408L618.176 48.7748L618.583 55.3408H625.162V48.3408ZM624.43 36.5488L631.416 36.1149L631.008 29.5488H624.43V36.5488ZM607.218 36.5488V29.5488H600.218V36.5488H607.218ZM607.218 107.154H600.218V112.842L605.785 114.006L607.218 107.154ZM618.424 109.498H625.424V103.811L619.857 102.646L618.424 109.498ZM618.424 124V131H625.424V124H618.424ZM578.256 124V109.498H564.256V124H578.256ZM572.698 116.348L583.831 114.004L580.947 100.304L569.814 102.648L572.698 116.348ZM589.389 107.154V36.5488H575.389V107.154H589.389ZM582.389 29.5488H565.323V43.5488H582.389V29.5488ZM558.34 36.0717L557.534 47.8637L571.501 48.818L572.307 37.026L558.34 36.0717ZM564.518 41.3408H545.841V55.3408H564.518V41.3408ZM552.841 48.3408V17.3594H538.841V48.3408H552.841ZM545.841 24.3594H644.059V10.3594H545.841V24.3594ZM637.059 17.3594V48.3408H651.059V17.3594H637.059ZM644.059 41.3408H625.162V55.3408H644.059V41.3408ZM632.149 47.9069L631.416 36.1149L617.443 36.9828L618.176 48.7748L632.149 47.9069ZM624.43 29.5488H607.218V43.5488H624.43V29.5488ZM600.218 36.5488V107.154H614.218V36.5488H600.218ZM605.785 114.006L616.991 116.35L619.857 102.646L608.651 100.303L605.785 114.006ZM611.424 109.498V124H625.424V109.498H611.424ZM618.424 117H571.256V131H618.424V117ZM648.673 124H641.673V131H648.673V124ZM648.673 109.498L647.231 102.648L641.673 103.818V109.498H648.673ZM659.806 107.154L661.248 114.004L666.806 112.834V107.154H659.806ZM659.806 34.2783H666.806V28.5986L661.248 27.4285L659.806 34.2783ZM648.673 31.9346H641.673V37.6143L647.231 38.7844L648.673 31.9346ZM648.673 17.3594V10.3594H641.673V17.3594H648.673ZM695.694 17.3594H702.694V10.3594H695.694V17.3594ZM695.694 31.9346L697.136 38.7844L702.694 37.6143V31.9346H695.694ZM684.562 34.2783L683.119 27.4285L677.562 28.5986V34.2783H684.562ZM684.562 107.154H677.562V112.834L683.119 114.004L684.562 107.154ZM695.694 109.498H702.694V103.818L697.136 102.648L695.694 109.498ZM695.694 124V131H702.694V124H695.694ZM655.673 124V109.498H641.673V124H655.673ZM650.115 116.348L661.248 114.004L658.364 100.304L647.231 102.648L650.115 116.348ZM666.806 107.154V34.2783H652.806V107.154H666.806ZM661.248 27.4285L650.115 25.0847L647.231 38.7844L658.364 41.1282L661.248 27.4285ZM655.673 31.9346V17.3594H641.673V31.9346H655.673ZM648.673 24.3594H695.694V10.3594H648.673V24.3594ZM688.694 17.3594V31.9346H702.694V17.3594H688.694ZM694.252 25.0847L683.119 27.4285L686.004 41.1282L697.136 38.7844L694.252 25.0847ZM677.562 34.2783V107.154H691.562V34.2783H677.562ZM683.119 114.004L694.252 116.348L697.136 102.648L686.004 100.304L683.119 114.004ZM688.694 109.498V124H702.694V109.498H688.694ZM695.694 117H648.673V131H695.694V117ZM701.993 124H694.993V131H701.993V124ZM701.993 109.498L700.551 102.648L694.993 103.818V109.498H701.993ZM713.126 107.154L714.568 114.004L720.126 112.834V107.154H713.126ZM713.126 34.2783H720.126V28.5986L714.568 27.4285L713.126 34.2783ZM701.993 31.9346H694.993V37.6143L700.551 38.7844L701.993 31.9346ZM701.993 17.3594V10.3594H694.993V17.3594H701.993ZM786.661 17.3594H793.661V10.3594H786.661V17.3594ZM786.661 47.6816V54.6816H793.661V47.6816H786.661ZM767.911 47.6816L760.923 48.09L761.308 54.6816H767.911V47.6816ZM767.252 36.4023L774.24 35.9939L773.855 29.4023H767.252V36.4023ZM737.955 36.4023V29.4023H730.955V36.4023H737.955ZM737.955 59.4004H730.955V66.4004H737.955V59.4004ZM772.452 59.4004H779.452V52.4004H772.452V59.4004ZM772.452 78.3701V85.3701H779.452V78.3701H772.452ZM737.955 78.3701V71.3701H730.955V78.3701H737.955ZM737.955 104.884H730.955V111.884H737.955V104.884ZM768.717 104.884V111.884H775.334L775.706 105.277L768.717 104.884ZM769.376 93.165V86.165H762.759L762.387 92.7719L769.376 93.165ZM787.979 93.165H794.979V86.165H787.979V93.165ZM787.979 124V131H794.979V124H787.979ZM708.993 124V109.498H694.993V124H708.993ZM703.435 116.348L714.568 114.004L711.684 100.304L700.551 102.648L703.435 116.348ZM720.126 107.154V34.2783H706.126V107.154H720.126ZM714.568 27.4285L703.435 25.0847L700.551 38.7844L711.684 41.1282L714.568 27.4285ZM708.993 31.9346V17.3594H694.993V31.9346H708.993ZM701.993 24.3594H786.661V10.3594H701.993V24.3594ZM779.661 17.3594V47.6816H793.661V17.3594H779.661ZM786.661 40.6816H767.911V54.6816H786.661V40.6816ZM774.899 47.2732L774.24 35.9939L760.264 36.8107L760.923 48.09L774.899 47.2732ZM767.252 29.4023H737.955V43.4023H767.252V29.4023ZM730.955 36.4023V59.4004H744.955V36.4023H730.955ZM737.955 66.4004H772.452V52.4004H737.955V66.4004ZM765.452 59.4004V78.3701H779.452V59.4004H765.452ZM772.452 71.3701H737.955V85.3701H772.452V71.3701ZM730.955 78.3701V104.884H744.955V78.3701H730.955ZM737.955 111.884H768.717V97.8838H737.955V111.884ZM775.706 105.277L776.365 93.5582L762.387 92.7719L761.728 104.491L775.706 105.277ZM769.376 100.165H787.979V86.165H769.376V100.165ZM780.979 93.165V124H794.979V93.165H780.979ZM787.979 117H701.993V131H787.979V117ZM797.94 124H790.94V131H797.94V124ZM797.94 109.498L796.489 102.65L790.94 103.826V109.498H797.94ZM809 107.154L810.451 114.002L816 112.826V107.154H809ZM809 34.2783H816V28.6063L810.451 27.4304L809 34.2783ZM797.94 31.9346H790.94V37.6066L796.489 38.7825L797.94 31.9346ZM797.94 17.3594V10.3594H790.94V17.3594H797.94ZM834.195 17.3594L840.129 13.6454L838.072 10.3594H834.195V17.3594ZM877.701 86.8662L871.768 90.5801L873.824 93.8662H877.701V86.8662ZM878.141 86.8662V93.8662H885.141V86.8662H878.141ZM878.141 34.2783H885.141V28.3587L879.303 27.3755L878.141 34.2783ZM864.225 31.9346H857.225V37.8542L863.062 38.8374L864.225 31.9346ZM864.225 17.3594V10.3594H857.225V17.3594H864.225ZM911.319 17.3594H918.319V10.3594H911.319V17.3594ZM911.319 31.9346L912.761 38.7844L918.319 37.6143V31.9346H911.319ZM900.187 34.2783L898.744 27.4285L893.187 28.5986V34.2783H900.187ZM900.187 124V131H907.187V124H900.187ZM875.797 124L869.93 127.819L872.001 131H875.797V124ZM831.412 55.8115L837.279 51.9928L835.208 48.8115H831.412V55.8115ZM830.973 55.8115V48.8115H823.973V55.8115H830.973ZM830.973 107.154H823.973V113.079L829.816 114.058L830.973 107.154ZM844.962 109.498H851.962V103.573L846.119 102.594L844.962 109.498ZM844.962 124V131H851.962V124H844.962ZM804.94 124V109.498H790.94V124H804.94ZM799.392 116.346L810.451 114.002L807.549 100.306L796.489 102.65L799.392 116.346ZM816 107.154V34.2783H802V107.154H816ZM810.451 27.4304L799.392 25.0867L796.489 38.7825L807.549 41.1262L810.451 27.4304ZM804.94 31.9346V17.3594H790.94V31.9346H804.94ZM797.94 24.3594H809V10.3594H797.94V24.3594ZM809 24.3594H834.195V10.3594H809V24.3594ZM828.262 21.0733L871.768 90.5801L883.635 83.1523L840.129 13.6454L828.262 21.0733ZM877.701 93.8662H878.141V79.8662H877.701V93.8662ZM885.141 86.8662V34.2783H871.141V86.8662H885.141ZM879.303 27.3755L865.387 25.0318L863.062 38.8374L876.978 41.1811L879.303 27.3755ZM871.225 31.9346V17.3594H857.225V31.9346H871.225ZM864.225 24.3594H900.187V10.3594H864.225V24.3594ZM900.187 24.3594H911.319V10.3594H900.187V24.3594ZM904.319 17.3594V31.9346H918.319V17.3594H904.319ZM909.877 25.0847L898.744 27.4285L901.629 41.1282L912.761 38.7844L909.877 25.0847ZM893.187 34.2783V124H907.187V34.2783H893.187ZM900.187 117H875.797V131H900.187V117ZM881.664 120.181L837.279 51.9928L825.545 59.6302L869.93 127.819L881.664 120.181ZM831.412 48.8115H830.973V62.8115H831.412V48.8115ZM823.973 55.8115V107.154H837.973V55.8115H823.973ZM829.816 114.058L843.805 116.402L846.119 102.594L832.129 100.251L829.816 114.058ZM837.962 109.498V124H851.962V109.498H837.962ZM844.962 117H797.94V131H844.962V117ZM954.312 124H947.312V131H954.312V124ZM954.312 108.033L949.221 103.229L947.312 105.252V108.033H954.312ZM988.663 71.6318L993.754 76.4361L993.824 76.3625L993.891 76.2868L988.663 71.6318ZM996.207 62.1836L1002 66.1141L1002.02 66.0904L1002.03 66.0665L996.207 62.1836ZM1000.16 54.6396L993.579 52.2587L993.565 52.2993L993.551 52.34L1000.16 54.6396ZM980.167 39.332L974.477 35.2544L974.455 35.286L974.432 35.3178L980.167 39.332ZM977.091 51.2705V58.2705H984.091V51.2705H977.091ZM952.921 51.2705L946.28 53.4841L947.876 58.2705H952.921V51.2705ZM952.774 50.8311L945.776 50.9877L945.8 52.0431L946.134 53.0446L952.774 50.8311ZM957.022 33.1064L963.117 36.549L963.124 36.537L963.131 36.525L957.022 33.1064ZM969.913 20.5088L973.276 26.6479L973.297 26.6367L973.317 26.6254L969.913 20.5088ZM1009.32 19.8496L1006.21 26.1219L1006.24 26.1386L1006.28 26.155L1009.32 19.8496ZM1021.92 30.9824L1015.95 34.6375L1015.95 34.6512L1015.96 34.6648L1021.92 30.9824ZM1016.71 71.6318L1011.25 67.2512L1011.24 67.2707L1011.22 67.2902L1016.71 71.6318ZM1003.38 86.6465L998.33 81.8041L998.306 81.8286L998.283 81.8534L1003.38 86.6465ZM986.319 104.811L981.218 100.017L978.163 103.269L979.82 107.41L986.319 104.811ZM986.466 105.177L979.966 107.776L981.727 112.177H986.466V105.177ZM1009.02 105.177V112.177H1015.23L1015.97 106.011L1009.02 105.177ZM1010.12 96.0215V89.0215H1003.91L1003.17 95.1875L1010.12 96.0215ZM1028.8 96.0215H1035.8V89.0215H1028.8V96.0215ZM1028.8 124V131H1035.8V124H1028.8ZM961.312 124V108.033H947.312V124H961.312ZM959.404 112.837L993.754 76.4361L983.572 66.8276L949.221 103.229L959.404 112.837ZM993.891 76.2868C997.188 72.5846 999.915 69.1861 1002 66.1141L990.415 58.2531C988.788 60.6498 986.486 63.5502 983.435 66.9768L993.891 76.2868ZM1002.03 66.0665C1004.09 62.9735 1005.74 59.9192 1006.77 56.9393L993.551 52.34C993.025 53.8522 992.032 55.8273 990.383 58.3007L1002.03 66.0665ZM1006.74 57.0206C1007.81 54.0648 1008.41 51.0372 1008.41 47.9746H994.407C994.407 49.2089 994.171 50.6247 993.579 52.2587L1006.74 57.0206ZM1008.41 47.9746C1008.41 43.0252 1007.04 38.3958 1004.03 34.4781L992.929 43.0141C993.822 44.1745 994.407 45.6975 994.407 47.9746H1008.41ZM1004.03 34.4781C1000.45 29.8353 995.237 27.9375 989.688 27.9375V41.9375C991.952 41.9375 992.594 42.5787 992.929 43.0141L1004.03 34.4781ZM989.688 27.9375C983.643 27.9375 978.138 30.1463 974.477 35.2544L985.857 43.4097C986.395 42.6584 987.238 41.9375 989.688 41.9375V27.9375ZM974.432 35.3178C971.285 39.8143 970.091 45.3691 970.091 51.2705H984.091C984.091 47.1134 984.948 44.7092 985.902 43.3463L974.432 35.3178ZM977.091 44.2705H952.921V58.2705H977.091V44.2705ZM959.562 49.0569L959.415 48.6175L946.134 53.0446L946.28 53.4841L959.562 49.0569ZM959.773 50.6744C959.652 45.2855 960.808 40.6378 963.117 36.549L950.927 29.6639C947.28 36.122 945.604 43.2907 945.776 50.9877L959.773 50.6744ZM963.131 36.525C965.435 32.4076 968.753 29.1258 973.276 26.6479L966.55 14.3697C959.843 18.0441 954.567 23.1607 950.914 29.6879L963.131 36.525ZM973.317 26.6254C977.714 24.1785 983.115 22.8213 989.762 22.8213V8.82129C981.174 8.82129 973.343 10.5891 966.509 14.3922L973.317 26.6254ZM989.762 22.8213C996.573 22.8213 1001.97 24.0228 1006.21 26.1219L1012.43 13.5774C1005.82 10.3053 998.185 8.82129 989.762 8.82129V22.8213ZM1006.28 26.155C1010.64 28.2579 1013.78 31.0931 1015.95 34.6375L1027.88 27.3273C1024.2 21.3015 1018.93 16.7148 1012.36 13.5442L1006.28 26.155ZM1015.96 34.6648C1018.11 38.1382 1019.31 42.3888 1019.31 47.6816H1033.31C1033.31 40.1815 1031.58 33.2993 1027.87 27.3001L1015.96 34.6648ZM1019.31 47.6816C1019.31 51.1978 1018.7 54.3197 1017.56 57.1228L1030.52 62.4104C1032.4 57.7916 1033.31 52.8569 1033.31 47.6816H1019.31ZM1017.56 57.1228C1016.37 60.0361 1014.34 63.4104 1011.25 67.2512L1022.17 76.0124C1025.83 71.4548 1028.68 66.9189 1030.52 62.4104L1017.56 57.1228ZM1011.22 67.2902C1008.09 71.2528 1003.81 76.0826 998.33 81.8041L1008.44 91.4889C1014.09 85.5893 1018.7 80.4094 1022.21 75.9735L1011.22 67.2902ZM998.283 81.8534L981.218 100.017L991.421 109.604L1008.49 91.4395L998.283 81.8534ZM979.82 107.41L979.966 107.776L992.965 102.577L992.819 102.211L979.82 107.41ZM986.466 112.177H1009.02V98.1768H986.466V112.177ZM1015.97 106.011L1017.07 96.8555L1003.17 95.1875L1002.07 104.343L1015.97 106.011ZM1010.12 103.021H1028.8V89.0215H1010.12V103.021ZM1021.8 96.0215V124H1035.8V96.0215H1021.8ZM1028.8 117H954.312V131H1028.8V117ZM1085.34 101.368L1091.35 104.957L1091.36 104.939L1091.37 104.921L1085.34 101.368ZM1066.74 40.1377L1072.75 43.7269L1072.76 43.7087L1072.77 43.6904L1066.74 40.1377ZM1076.19 118.538C1066.34 118.538 1059.26 115.471 1054.11 109.831L1043.77 119.272C1052 128.281 1063.09 132.538 1076.19 132.538V118.538ZM1054.11 109.831C1049.03 104.268 1045.91 95.4302 1045.91 82.1055H1031.91C1031.91 97.394 1035.47 110.187 1043.77 119.272L1054.11 109.831ZM1045.91 82.1055V59.3271H1031.91V82.1055H1045.91ZM1045.91 59.3271C1045.91 46.0629 1049.02 37.2075 1054.13 31.5844L1043.76 22.1773C1035.48 31.3003 1031.91 44.0758 1031.91 59.3271H1045.91ZM1054.13 31.5844C1059.29 25.8894 1066.33 22.8213 1076.04 22.8213V8.82129C1063 8.82129 1051.97 13.1262 1043.76 22.1773L1054.13 31.5844ZM1076.04 22.8213C1085.7 22.8213 1092.71 25.8827 1097.88 31.5844L1108.25 22.1773C1100.05 13.1329 1089.04 8.82129 1076.04 8.82129V22.8213ZM1097.88 31.5844C1102.98 37.2075 1106.1 46.0629 1106.1 59.3271H1120.1C1120.1 44.0758 1116.53 31.3003 1108.25 22.1773L1097.88 31.5844ZM1106.1 59.3271V82.1055H1120.1V59.3271H1106.1ZM1106.1 82.1055C1106.1 95.4416 1103 104.287 1097.95 109.85L1108.33 119.254C1116.56 110.168 1120.1 97.3826 1120.1 82.1055H1106.1ZM1097.95 109.85C1092.84 115.491 1085.86 118.538 1076.19 118.538V132.538C1089.17 132.538 1100.16 128.261 1108.33 119.254L1097.95 109.85ZM1076.19 113.642C1082.72 113.642 1088.02 110.529 1091.35 104.957L1079.33 97.779C1078.46 99.2383 1077.66 99.6416 1076.19 99.6416V113.642ZM1091.37 104.921C1094.48 99.6527 1095.49 92.1279 1095.49 83.6436H1081.49C1081.49 91.6631 1080.41 95.9547 1079.31 97.8154L1091.37 104.921ZM1095.49 83.6436V57.6426H1081.49V83.6436H1095.49ZM1095.49 57.6426C1095.49 49.2645 1094.44 41.7995 1091.26 36.5242L1079.27 43.7512C1080.39 45.6048 1081.49 49.8097 1081.49 57.6426H1095.49ZM1091.26 36.5242C1087.91 30.9594 1082.61 27.791 1076.04 27.791V41.791C1077.48 41.791 1078.33 42.1871 1079.27 43.7512L1091.26 36.5242ZM1076.04 27.791C1069.43 27.791 1064.05 30.9072 1060.71 36.5849L1072.77 43.6904C1073.63 42.2393 1074.44 41.791 1076.04 41.791V27.791ZM1060.73 36.5485C1057.6 41.7809 1056.59 49.2517 1056.59 57.6426H1070.59C1070.59 49.7248 1071.67 45.5257 1072.75 43.7269L1060.73 36.5485ZM1056.59 57.6426V83.6436H1070.59V57.6426H1056.59ZM1056.59 83.6436C1056.59 92.1531 1057.6 99.7131 1060.73 104.957L1072.75 97.779C1071.68 95.992 1070.59 91.7356 1070.59 83.6436H1056.59ZM1060.73 104.957C1064.13 110.654 1069.6 113.642 1076.19 113.642V99.6416C1074.38 99.6416 1073.55 99.1138 1072.75 97.779L1060.73 104.957ZM1171.18 101.368L1177.19 104.957L1177.2 104.939L1177.21 104.921L1171.18 101.368ZM1152.58 40.1377L1158.59 43.7269L1158.6 43.7087L1158.61 43.6904L1152.58 40.1377ZM1162.03 118.538C1152.18 118.538 1145.1 115.471 1139.95 109.831L1129.61 119.272C1137.84 128.281 1148.92 132.538 1162.03 132.538V118.538ZM1139.95 109.831C1134.87 104.268 1131.75 95.4302 1131.75 82.1055H1117.75C1117.75 97.394 1121.31 110.187 1129.61 119.272L1139.95 109.831ZM1131.75 82.1055V59.3271H1117.75V82.1055H1131.75ZM1131.75 59.3271C1131.75 46.0629 1134.86 37.2075 1139.97 31.5844L1129.6 22.1773C1121.32 31.3003 1117.75 44.0758 1117.75 59.3271H1131.75ZM1139.97 31.5844C1145.13 25.8894 1152.17 22.8213 1161.88 22.8213V8.82129C1148.84 8.82129 1137.81 13.1262 1129.6 22.1773L1139.97 31.5844ZM1161.88 22.8213C1171.54 22.8213 1178.55 25.8827 1183.72 31.5844L1194.09 22.1773C1185.89 13.1329 1174.88 8.82129 1161.88 8.82129V22.8213ZM1183.72 31.5844C1188.82 37.2075 1191.94 46.0629 1191.94 59.3271H1205.94C1205.94 44.0758 1202.37 31.3003 1194.09 22.1773L1183.72 31.5844ZM1191.94 59.3271V82.1055H1205.94V59.3271H1191.94ZM1191.94 82.1055C1191.94 95.4416 1188.84 104.287 1183.79 109.85L1194.17 119.254C1202.4 110.168 1205.94 97.3826 1205.94 82.1055H1191.94ZM1183.79 109.85C1178.68 115.491 1171.7 118.538 1162.03 118.538V132.538C1175.01 132.538 1186 128.261 1194.17 119.254L1183.79 109.85ZM1162.03 113.642C1168.56 113.642 1173.86 110.529 1177.19 104.957L1165.17 97.779C1164.3 99.2383 1163.5 99.6416 1162.03 99.6416V113.642ZM1177.21 104.921C1180.32 99.6527 1181.33 92.1279 1181.33 83.6436H1167.33C1167.33 91.6631 1166.25 95.9547 1165.15 97.8154L1177.21 104.921ZM1181.33 83.6436V57.6426H1167.33V83.6436H1181.33ZM1181.33 57.6426C1181.33 49.2645 1180.28 41.7995 1177.1 36.5242L1165.11 43.7512C1166.23 45.6048 1167.33 49.8097 1167.33 57.6426H1181.33ZM1177.1 36.5242C1173.75 30.9594 1168.45 27.791 1161.88 27.791V41.791C1163.31 41.791 1164.17 42.1871 1165.11 43.7512L1177.1 36.5242ZM1161.88 27.791C1155.27 27.791 1149.89 30.9072 1146.55 36.5849L1158.61 43.6904C1159.47 42.2393 1160.28 41.791 1161.88 41.791V27.791ZM1146.57 36.5485C1143.44 41.7809 1142.43 49.2517 1142.43 57.6426H1156.43C1156.43 49.7248 1157.51 45.5257 1158.59 43.7269L1146.57 36.5485ZM1142.43 57.6426V83.6436H1156.43V57.6426H1142.43ZM1142.43 83.6436C1142.43 92.1531 1143.44 99.7131 1146.57 104.957L1158.59 97.779C1157.52 95.992 1156.43 91.7356 1156.43 83.6436H1142.43ZM1146.57 104.957C1149.97 110.654 1155.44 113.642 1162.03 113.642V99.6416C1160.21 99.6416 1159.39 99.1138 1158.59 97.779L1146.57 104.957ZM1257.02 101.368L1263.03 104.957L1263.04 104.939L1263.05 104.921L1257.02 101.368ZM1238.42 40.1377L1244.43 43.7269L1244.44 43.7087L1244.45 43.6904L1238.42 40.1377ZM1247.87 118.538C1238.02 118.538 1230.94 115.471 1225.79 109.831L1215.45 119.272C1223.68 128.281 1234.76 132.538 1247.87 132.538V118.538ZM1225.79 109.831C1220.71 104.268 1217.59 95.4302 1217.59 82.1055H1203.59C1203.59 97.394 1207.15 110.187 1215.45 119.272L1225.79 109.831ZM1217.59 82.1055V59.3271H1203.59V82.1055H1217.59ZM1217.59 59.3271C1217.59 46.0629 1220.7 37.2075 1225.81 31.5844L1215.44 22.1773C1207.16 31.3003 1203.59 44.0758 1203.59 59.3271H1217.59ZM1225.81 31.5844C1230.97 25.8894 1238.01 22.8213 1247.72 22.8213V8.82129C1234.68 8.82129 1223.65 13.1262 1215.44 22.1773L1225.81 31.5844ZM1247.72 22.8213C1257.38 22.8213 1264.39 25.8827 1269.56 31.5844L1279.93 22.1773C1271.73 13.1329 1260.72 8.82129 1247.72 8.82129V22.8213ZM1269.56 31.5844C1274.66 37.2075 1277.78 46.0629 1277.78 59.3271H1291.78C1291.78 44.0758 1288.21 31.3003 1279.93 22.1773L1269.56 31.5844ZM1277.78 59.3271V82.1055H1291.78V59.3271H1277.78ZM1277.78 82.1055C1277.78 95.4416 1274.68 104.287 1269.63 109.85L1280.01 119.254C1288.24 110.168 1291.78 97.3826 1291.78 82.1055H1277.78ZM1269.63 109.85C1264.52 115.491 1257.54 118.538 1247.87 118.538V132.538C1260.85 132.538 1271.84 128.261 1280.01 119.254L1269.63 109.85ZM1247.87 113.642C1254.4 113.642 1259.7 110.529 1263.03 104.957L1251.01 97.779C1250.14 99.2383 1249.34 99.6416 1247.87 99.6416V113.642ZM1263.05 104.921C1266.16 99.6527 1267.17 92.1279 1267.17 83.6436H1253.17C1253.17 91.6631 1252.09 95.9547 1250.99 97.8154L1263.05 104.921ZM1267.17 83.6436V57.6426H1253.17V83.6436H1267.17ZM1267.17 57.6426C1267.17 49.2645 1266.12 41.7995 1262.94 36.5242L1250.95 43.7512C1252.07 45.6048 1253.17 49.8097 1253.17 57.6426H1267.17ZM1262.94 36.5242C1259.59 30.9594 1254.29 27.791 1247.72 27.791V41.791C1249.15 41.791 1250.01 42.1871 1250.95 43.7512L1262.94 36.5242ZM1247.72 27.791C1241.11 27.791 1235.73 30.9072 1232.39 36.5849L1244.45 43.6904C1245.31 42.2393 1246.12 41.791 1247.72 41.791V27.791ZM1232.41 36.5485C1229.28 41.7809 1228.27 49.2517 1228.27 57.6426H1242.27C1242.27 49.7248 1243.35 45.5257 1244.43 43.7269L1232.41 36.5485ZM1228.27 57.6426V83.6436H1242.27V57.6426H1228.27ZM1228.27 83.6436C1228.27 92.1531 1229.28 99.7131 1232.41 104.957L1244.43 97.779C1243.36 95.992 1242.27 91.7356 1242.27 83.6436H1228.27ZM1232.41 104.957C1235.81 110.654 1241.28 113.642 1247.87 113.642V99.6416C1246.05 99.6416 1245.23 99.1138 1244.43 97.779L1232.41 104.957Z" fill="black"/>
</g>
</g>
<defs>
<filter id="filter0_d_227_60" x="15.9482" y="15.8213" width="1268.83" height="119.717" filterUnits="userSpaceOnUse" color-interpolation-filters="sRGB">
<feFlood flood-opacity="0" result="BackgroundImageFix"/>
<feColorMatrix in="SourceAlpha" type="matrix" values="0 0 0 0 0 0 0 0 0 0 0 0 0 0 0 0 0 0 127 0" result="hardAlpha"/>
<feOffset dx="-15" dy="10"/>
<feComposite in2="hardAlpha" operator="out"/>
<feColorMatrix type="matrix" values="0 0 0 0 0 0 0 0 0 0 0 0 0 0 0 0 0 0 1 0"/>
<feBlend mode="normal" in2="BackgroundImageFix" result="effect1_dropShadow_227_60"/>
<feBlend mode="normal" in="SourceGraphic" in2="effect1_dropShadow_227_60" result="shape"/>
</filter>
<clipPath id="clip0_227_60">
<rect width="1300" height="150" fill="white"/>
</clipPath>
</defs>
</svg>
