<svg width="83" height="83" viewBox="0 0 83 83" fill="none" xmlns="http://www.w3.org/2000/svg">
<path d="M27.0035 30.6939L24.7186 30.7525C24.5624 30.5572 24.4842 30.3033 24.4842 29.9908C24.4842 29.6784 24.5233 29.4049 24.6014 29.1706C27.2574 28.8191 29.4252 28.2722 31.1047 27.5301C31.6515 27.2958 31.9835 27.1786 32.1007 27.1786C32.4522 27.1786 32.8819 27.7254 33.3897 28.8191C33.8974 29.9127 34.3271 31.1235 34.6786 32.4515C38.6235 30.2252 42.4708 28.4675 46.2205 27.1786C48.6031 27.1786 50.4388 28.1355 51.7278 30.0494C53.0167 31.9242 53.6612 34.424 53.6612 37.5487L53.544 45.2824C53.544 51.8052 53.8369 55.1252 54.4228 55.2424C55.0087 55.3205 56.1024 55.3595 57.7038 55.3595C57.86 55.6329 57.9381 55.9259 57.9381 56.2384C57.9381 56.5508 57.86 56.8633 57.7038 57.1758L52.3137 57C49.0718 57 46.4939 57.1562 44.58 57.4687C44.3847 57.2344 44.2871 56.9024 44.2871 56.4727L44.3457 56.004C45.4784 55.7306 46.3572 55.3595 46.9821 54.8908C47.6071 54.3831 47.9977 53.9144 48.1539 53.4847C48.3492 53.016 48.5054 52.3325 48.6226 51.4341C48.7398 50.4967 48.7984 48.7 48.7984 46.044V41.1812C48.7984 38.4471 48.4859 36.1426 47.8609 34.2678C47.5875 33.5256 47.2751 32.9788 46.9235 32.6273C46.0642 31.6899 45.0292 31.2212 43.8184 31.2212C42.6075 31.2212 41.3967 31.4555 40.1859 31.9242C38.9751 32.3929 38.0572 32.8226 37.4322 33.2132C36.8073 33.6038 35.9285 34.1896 34.7958 34.9708C34.6395 38.0565 34.5614 42.1967 34.5614 47.3915C34.5614 52.5473 34.8153 55.1642 35.3231 55.2424C35.8699 55.3205 36.8659 55.3595 38.3111 55.3595C38.4673 55.6329 38.5454 55.9259 38.5454 56.2384C38.5454 56.5508 38.4673 56.8633 38.3111 57.1758L33.3311 57C30.3626 57 27.7847 57.1562 25.5974 57.4687C25.4021 57.2344 25.3045 56.9024 25.3045 56.4727L25.3631 56.004C26.4958 55.7306 27.3746 55.3595 27.9995 54.8908C28.6245 54.3831 29.0151 53.9144 29.1713 53.4847C29.3666 53.016 29.5228 52.1762 29.64 50.9654C29.7962 49.7155 29.8744 47.0595 29.8744 42.9974C29.8744 38.9353 29.8548 36.6894 29.8158 36.2598C29.8158 35.7911 29.7962 35.2052 29.7572 34.5021C29.7181 33.7991 29.64 33.2718 29.5228 32.9202C29.4057 32.5687 29.2299 32.1976 28.9955 31.8071C28.6049 31.0649 27.9409 30.6939 27.0035 30.6939Z" fill="black"/>
</svg>
